<?xml version="1.0" encoding="utf-8" standalone="no"?>
<!DOCTYPE svg PUBLIC "-//W3C//DTD SVG 1.1//EN"
  "http://www.w3.org/Graphics/SVG/1.1/DTD/svg11.dtd">
<svg xmlns:xlink="http://www.w3.org/1999/xlink" width="1008pt" height="360pt" viewBox="0 0 1008 360" xmlns="http://www.w3.org/2000/svg" version="1.1">
 <metadata>
  <rdf:RDF xmlns:dc="http://purl.org/dc/elements/1.1/" xmlns:cc="http://creativecommons.org/ns#" xmlns:rdf="http://www.w3.org/1999/02/22-rdf-syntax-ns#">
   <cc:Work>
    <dc:type rdf:resource="http://purl.org/dc/dcmitype/StillImage"/>
    <dc:date>2023-06-23T08:04:57.141579</dc:date>
    <dc:format>image/svg+xml</dc:format>
    <dc:creator>
     <cc:Agent>
      <dc:title>Matplotlib v3.7.1, https://matplotlib.org/</dc:title>
     </cc:Agent>
    </dc:creator>
   </cc:Work>
  </rdf:RDF>
 </metadata>
 <defs>
  <style type="text/css">*{stroke-linejoin: round; stroke-linecap: butt}</style>
 </defs>
 <g id="figure_1">
  <g id="patch_1">
   <path d="M 0 360 
L 1008 360 
L 1008 0 
L 0 0 
z
" style="fill: #ffffff"/>
  </g>
  <g id="axes_1">
   <g id="table_1">
    <g id="patch_2">
     <path d="M -15.830625 154.08 
L 345.118125 154.08 
L 345.118125 126.36 
L -15.830625 126.36 
z
" style="fill: #ffffff; stroke: #000000; stroke-linejoin: miter"/>
    </g>
    <g id="text_1">
     <!-- Optimizer: -->
     <g transform="translate(112.5 145.73875) scale(0.2 -0.2)">
      <defs>
       <path id="DejaVuSans-4f" d="M 2522 4238 
Q 1834 4238 1429 3725 
Q 1025 3213 1025 2328 
Q 1025 1447 1429 934 
Q 1834 422 2522 422 
Q 3209 422 3611 934 
Q 4013 1447 4013 2328 
Q 4013 3213 3611 3725 
Q 3209 4238 2522 4238 
z
M 2522 4750 
Q 3503 4750 4090 4092 
Q 4678 3434 4678 2328 
Q 4678 1225 4090 567 
Q 3503 -91 2522 -91 
Q 1538 -91 948 565 
Q 359 1222 359 2328 
Q 359 3434 948 4092 
Q 1538 4750 2522 4750 
z
" transform="scale(0.015625)"/>
       <path id="DejaVuSans-70" d="M 1159 525 
L 1159 -1331 
L 581 -1331 
L 581 3500 
L 1159 3500 
L 1159 2969 
Q 1341 3281 1617 3432 
Q 1894 3584 2278 3584 
Q 2916 3584 3314 3078 
Q 3713 2572 3713 1747 
Q 3713 922 3314 415 
Q 2916 -91 2278 -91 
Q 1894 -91 1617 61 
Q 1341 213 1159 525 
z
M 3116 1747 
Q 3116 2381 2855 2742 
Q 2594 3103 2138 3103 
Q 1681 3103 1420 2742 
Q 1159 2381 1159 1747 
Q 1159 1113 1420 752 
Q 1681 391 2138 391 
Q 2594 391 2855 752 
Q 3116 1113 3116 1747 
z
" transform="scale(0.015625)"/>
       <path id="DejaVuSans-74" d="M 1172 4494 
L 1172 3500 
L 2356 3500 
L 2356 3053 
L 1172 3053 
L 1172 1153 
Q 1172 725 1289 603 
Q 1406 481 1766 481 
L 2356 481 
L 2356 0 
L 1766 0 
Q 1100 0 847 248 
Q 594 497 594 1153 
L 594 3053 
L 172 3053 
L 172 3500 
L 594 3500 
L 594 4494 
L 1172 4494 
z
" transform="scale(0.015625)"/>
       <path id="DejaVuSans-69" d="M 603 3500 
L 1178 3500 
L 1178 0 
L 603 0 
L 603 3500 
z
M 603 4863 
L 1178 4863 
L 1178 4134 
L 603 4134 
L 603 4863 
z
" transform="scale(0.015625)"/>
       <path id="DejaVuSans-6d" d="M 3328 2828 
Q 3544 3216 3844 3400 
Q 4144 3584 4550 3584 
Q 5097 3584 5394 3201 
Q 5691 2819 5691 2113 
L 5691 0 
L 5113 0 
L 5113 2094 
Q 5113 2597 4934 2840 
Q 4756 3084 4391 3084 
Q 3944 3084 3684 2787 
Q 3425 2491 3425 1978 
L 3425 0 
L 2847 0 
L 2847 2094 
Q 2847 2600 2669 2842 
Q 2491 3084 2119 3084 
Q 1678 3084 1418 2786 
Q 1159 2488 1159 1978 
L 1159 0 
L 581 0 
L 581 3500 
L 1159 3500 
L 1159 2956 
Q 1356 3278 1631 3431 
Q 1906 3584 2284 3584 
Q 2666 3584 2933 3390 
Q 3200 3197 3328 2828 
z
" transform="scale(0.015625)"/>
       <path id="DejaVuSans-7a" d="M 353 3500 
L 3084 3500 
L 3084 2975 
L 922 459 
L 3084 459 
L 3084 0 
L 275 0 
L 275 525 
L 2438 3041 
L 353 3041 
L 353 3500 
z
" transform="scale(0.015625)"/>
       <path id="DejaVuSans-65" d="M 3597 1894 
L 3597 1613 
L 953 1613 
Q 991 1019 1311 708 
Q 1631 397 2203 397 
Q 2534 397 2845 478 
Q 3156 559 3463 722 
L 3463 178 
Q 3153 47 2828 -22 
Q 2503 -91 2169 -91 
Q 1331 -91 842 396 
Q 353 884 353 1716 
Q 353 2575 817 3079 
Q 1281 3584 2069 3584 
Q 2775 3584 3186 3129 
Q 3597 2675 3597 1894 
z
M 3022 2063 
Q 3016 2534 2758 2815 
Q 2500 3097 2075 3097 
Q 1594 3097 1305 2825 
Q 1016 2553 972 2059 
L 3022 2063 
z
" transform="scale(0.015625)"/>
       <path id="DejaVuSans-72" d="M 2631 2963 
Q 2534 3019 2420 3045 
Q 2306 3072 2169 3072 
Q 1681 3072 1420 2755 
Q 1159 2438 1159 1844 
L 1159 0 
L 581 0 
L 581 3500 
L 1159 3500 
L 1159 2956 
Q 1341 3275 1631 3429 
Q 1922 3584 2338 3584 
Q 2397 3584 2469 3576 
Q 2541 3569 2628 3553 
L 2631 2963 
z
" transform="scale(0.015625)"/>
       <path id="DejaVuSans-3a" d="M 750 794 
L 1409 794 
L 1409 0 
L 750 0 
L 750 794 
z
M 750 3309 
L 1409 3309 
L 1409 2516 
L 750 2516 
L 750 3309 
z
" transform="scale(0.015625)"/>
      </defs>
      <use xlink:href="#DejaVuSans-4f"/>
      <use xlink:href="#DejaVuSans-70" x="78.710938"/>
      <use xlink:href="#DejaVuSans-74" x="142.1875"/>
      <use xlink:href="#DejaVuSans-69" x="181.396484"/>
      <use xlink:href="#DejaVuSans-6d" x="209.179688"/>
      <use xlink:href="#DejaVuSans-69" x="306.591797"/>
      <use xlink:href="#DejaVuSans-7a" x="334.375"/>
      <use xlink:href="#DejaVuSans-65" x="386.865234"/>
      <use xlink:href="#DejaVuSans-72" x="448.388672"/>
      <use xlink:href="#DejaVuSans-3a" x="487.751953"/>
     </g>
    </g>
    <g id="patch_3">
     <path d="M 345.118125 154.08 
L 1049.030625 154.08 
L 1049.030625 126.36 
L 345.118125 126.36 
z
" style="fill: #ffffff; stroke: #000000; stroke-linejoin: miter"/>
    </g>
    <g id="text_2">
     <!-- global -->
     <g transform="translate(666.574375 145.73875) scale(0.2 -0.2)">
      <defs>
       <path id="DejaVuSans-67" d="M 2906 1791 
Q 2906 2416 2648 2759 
Q 2391 3103 1925 3103 
Q 1463 3103 1205 2759 
Q 947 2416 947 1791 
Q 947 1169 1205 825 
Q 1463 481 1925 481 
Q 2391 481 2648 825 
Q 2906 1169 2906 1791 
z
M 3481 434 
Q 3481 -459 3084 -895 
Q 2688 -1331 1869 -1331 
Q 1566 -1331 1297 -1286 
Q 1028 -1241 775 -1147 
L 775 -588 
Q 1028 -725 1275 -790 
Q 1522 -856 1778 -856 
Q 2344 -856 2625 -561 
Q 2906 -266 2906 331 
L 2906 616 
Q 2728 306 2450 153 
Q 2172 0 1784 0 
Q 1141 0 747 490 
Q 353 981 353 1791 
Q 353 2603 747 3093 
Q 1141 3584 1784 3584 
Q 2172 3584 2450 3431 
Q 2728 3278 2906 2969 
L 2906 3500 
L 3481 3500 
L 3481 434 
z
" transform="scale(0.015625)"/>
       <path id="DejaVuSans-6c" d="M 603 4863 
L 1178 4863 
L 1178 0 
L 603 0 
L 603 4863 
z
" transform="scale(0.015625)"/>
       <path id="DejaVuSans-6f" d="M 1959 3097 
Q 1497 3097 1228 2736 
Q 959 2375 959 1747 
Q 959 1119 1226 758 
Q 1494 397 1959 397 
Q 2419 397 2687 759 
Q 2956 1122 2956 1747 
Q 2956 2369 2687 2733 
Q 2419 3097 1959 3097 
z
M 1959 3584 
Q 2709 3584 3137 3096 
Q 3566 2609 3566 1747 
Q 3566 888 3137 398 
Q 2709 -91 1959 -91 
Q 1206 -91 779 398 
Q 353 888 353 1747 
Q 353 2609 779 3096 
Q 1206 3584 1959 3584 
z
" transform="scale(0.015625)"/>
       <path id="DejaVuSans-62" d="M 3116 1747 
Q 3116 2381 2855 2742 
Q 2594 3103 2138 3103 
Q 1681 3103 1420 2742 
Q 1159 2381 1159 1747 
Q 1159 1113 1420 752 
Q 1681 391 2138 391 
Q 2594 391 2855 752 
Q 3116 1113 3116 1747 
z
M 1159 2969 
Q 1341 3281 1617 3432 
Q 1894 3584 2278 3584 
Q 2916 3584 3314 3078 
Q 3713 2572 3713 1747 
Q 3713 922 3314 415 
Q 2916 -91 2278 -91 
Q 1894 -91 1617 61 
Q 1341 213 1159 525 
L 1159 0 
L 581 0 
L 581 4863 
L 1159 4863 
L 1159 2969 
z
" transform="scale(0.015625)"/>
       <path id="DejaVuSans-61" d="M 2194 1759 
Q 1497 1759 1228 1600 
Q 959 1441 959 1056 
Q 959 750 1161 570 
Q 1363 391 1709 391 
Q 2188 391 2477 730 
Q 2766 1069 2766 1631 
L 2766 1759 
L 2194 1759 
z
M 3341 1997 
L 3341 0 
L 2766 0 
L 2766 531 
Q 2569 213 2275 61 
Q 1981 -91 1556 -91 
Q 1019 -91 701 211 
Q 384 513 384 1019 
Q 384 1609 779 1909 
Q 1175 2209 1959 2209 
L 2766 2209 
L 2766 2266 
Q 2766 2663 2505 2880 
Q 2244 3097 1772 3097 
Q 1472 3097 1187 3025 
Q 903 2953 641 2809 
L 641 3341 
Q 956 3463 1253 3523 
Q 1550 3584 1831 3584 
Q 2591 3584 2966 3190 
Q 3341 2797 3341 1997 
z
" transform="scale(0.015625)"/>
      </defs>
      <use xlink:href="#DejaVuSans-67"/>
      <use xlink:href="#DejaVuSans-6c" x="63.476562"/>
      <use xlink:href="#DejaVuSans-6f" x="91.259766"/>
      <use xlink:href="#DejaVuSans-62" x="152.441406"/>
      <use xlink:href="#DejaVuSans-61" x="215.917969"/>
      <use xlink:href="#DejaVuSans-6c" x="277.197266"/>
     </g>
    </g>
    <g id="patch_4">
     <path d="M -15.830625 181.8 
L 345.118125 181.8 
L 345.118125 154.08 
L -15.830625 154.08 
z
" style="fill: #ffffff; stroke: #000000; stroke-linejoin: miter"/>
    </g>
    <g id="text_3">
     <!-- Optimizer: options -->
     <g transform="translate(72.490625 173.45875) scale(0.2 -0.2)">
      <defs>
       <path id="DejaVuSans-20" transform="scale(0.015625)"/>
       <path id="DejaVuSans-6e" d="M 3513 2113 
L 3513 0 
L 2938 0 
L 2938 2094 
Q 2938 2591 2744 2837 
Q 2550 3084 2163 3084 
Q 1697 3084 1428 2787 
Q 1159 2491 1159 1978 
L 1159 0 
L 581 0 
L 581 3500 
L 1159 3500 
L 1159 2956 
Q 1366 3272 1645 3428 
Q 1925 3584 2291 3584 
Q 2894 3584 3203 3211 
Q 3513 2838 3513 2113 
z
" transform="scale(0.015625)"/>
       <path id="DejaVuSans-73" d="M 2834 3397 
L 2834 2853 
Q 2591 2978 2328 3040 
Q 2066 3103 1784 3103 
Q 1356 3103 1142 2972 
Q 928 2841 928 2578 
Q 928 2378 1081 2264 
Q 1234 2150 1697 2047 
L 1894 2003 
Q 2506 1872 2764 1633 
Q 3022 1394 3022 966 
Q 3022 478 2636 193 
Q 2250 -91 1575 -91 
Q 1294 -91 989 -36 
Q 684 19 347 128 
L 347 722 
Q 666 556 975 473 
Q 1284 391 1588 391 
Q 1994 391 2212 530 
Q 2431 669 2431 922 
Q 2431 1156 2273 1281 
Q 2116 1406 1581 1522 
L 1381 1569 
Q 847 1681 609 1914 
Q 372 2147 372 2553 
Q 372 3047 722 3315 
Q 1072 3584 1716 3584 
Q 2034 3584 2315 3537 
Q 2597 3491 2834 3397 
z
" transform="scale(0.015625)"/>
      </defs>
      <use xlink:href="#DejaVuSans-4f"/>
      <use xlink:href="#DejaVuSans-70" x="78.710938"/>
      <use xlink:href="#DejaVuSans-74" x="142.1875"/>
      <use xlink:href="#DejaVuSans-69" x="181.396484"/>
      <use xlink:href="#DejaVuSans-6d" x="209.179688"/>
      <use xlink:href="#DejaVuSans-69" x="306.591797"/>
      <use xlink:href="#DejaVuSans-7a" x="334.375"/>
      <use xlink:href="#DejaVuSans-65" x="386.865234"/>
      <use xlink:href="#DejaVuSans-72" x="448.388672"/>
      <use xlink:href="#DejaVuSans-3a" x="487.751953"/>
      <use xlink:href="#DejaVuSans-20" x="521.443359"/>
      <use xlink:href="#DejaVuSans-6f" x="553.230469"/>
      <use xlink:href="#DejaVuSans-70" x="614.412109"/>
      <use xlink:href="#DejaVuSans-74" x="677.888672"/>
      <use xlink:href="#DejaVuSans-69" x="717.097656"/>
      <use xlink:href="#DejaVuSans-6f" x="744.880859"/>
      <use xlink:href="#DejaVuSans-6e" x="806.0625"/>
      <use xlink:href="#DejaVuSans-73" x="869.441406"/>
     </g>
    </g>
    <g id="patch_5">
     <path d="M 345.118125 181.8 
L 1049.030625 181.8 
L 1049.030625 154.08 
L 345.118125 154.08 
z
" style="fill: #ffffff; stroke: #000000; stroke-linejoin: miter"/>
    </g>
    <g id="text_4">
     <!-- {'c1': 2.05, 'c2': 2.05, 'w': 0.6} -->
     <g transform="translate(543.17125 173.45875) scale(0.2 -0.2)">
      <defs>
       <path id="DejaVuSans-7b" d="M 3272 -594 
L 3272 -1044 
L 3078 -1044 
Q 2300 -1044 2036 -812 
Q 1772 -581 1772 109 
L 1772 856 
Q 1772 1328 1603 1509 
Q 1434 1691 991 1691 
L 800 1691 
L 800 2138 
L 991 2138 
Q 1438 2138 1605 2317 
Q 1772 2497 1772 2963 
L 1772 3713 
Q 1772 4403 2036 4633 
Q 2300 4863 3078 4863 
L 3272 4863 
L 3272 4416 
L 3059 4416 
Q 2619 4416 2484 4278 
Q 2350 4141 2350 3700 
L 2350 2925 
Q 2350 2434 2208 2212 
Q 2066 1991 1722 1913 
Q 2069 1828 2209 1606 
Q 2350 1384 2350 897 
L 2350 122 
Q 2350 -319 2484 -456 
Q 2619 -594 3059 -594 
L 3272 -594 
z
" transform="scale(0.015625)"/>
       <path id="DejaVuSans-27" d="M 1147 4666 
L 1147 2931 
L 616 2931 
L 616 4666 
L 1147 4666 
z
" transform="scale(0.015625)"/>
       <path id="DejaVuSans-63" d="M 3122 3366 
L 3122 2828 
Q 2878 2963 2633 3030 
Q 2388 3097 2138 3097 
Q 1578 3097 1268 2742 
Q 959 2388 959 1747 
Q 959 1106 1268 751 
Q 1578 397 2138 397 
Q 2388 397 2633 464 
Q 2878 531 3122 666 
L 3122 134 
Q 2881 22 2623 -34 
Q 2366 -91 2075 -91 
Q 1284 -91 818 406 
Q 353 903 353 1747 
Q 353 2603 823 3093 
Q 1294 3584 2113 3584 
Q 2378 3584 2631 3529 
Q 2884 3475 3122 3366 
z
" transform="scale(0.015625)"/>
       <path id="DejaVuSans-31" d="M 794 531 
L 1825 531 
L 1825 4091 
L 703 3866 
L 703 4441 
L 1819 4666 
L 2450 4666 
L 2450 531 
L 3481 531 
L 3481 0 
L 794 0 
L 794 531 
z
" transform="scale(0.015625)"/>
       <path id="DejaVuSans-32" d="M 1228 531 
L 3431 531 
L 3431 0 
L 469 0 
L 469 531 
Q 828 903 1448 1529 
Q 2069 2156 2228 2338 
Q 2531 2678 2651 2914 
Q 2772 3150 2772 3378 
Q 2772 3750 2511 3984 
Q 2250 4219 1831 4219 
Q 1534 4219 1204 4116 
Q 875 4013 500 3803 
L 500 4441 
Q 881 4594 1212 4672 
Q 1544 4750 1819 4750 
Q 2544 4750 2975 4387 
Q 3406 4025 3406 3419 
Q 3406 3131 3298 2873 
Q 3191 2616 2906 2266 
Q 2828 2175 2409 1742 
Q 1991 1309 1228 531 
z
" transform="scale(0.015625)"/>
       <path id="DejaVuSans-2e" d="M 684 794 
L 1344 794 
L 1344 0 
L 684 0 
L 684 794 
z
" transform="scale(0.015625)"/>
       <path id="DejaVuSans-30" d="M 2034 4250 
Q 1547 4250 1301 3770 
Q 1056 3291 1056 2328 
Q 1056 1369 1301 889 
Q 1547 409 2034 409 
Q 2525 409 2770 889 
Q 3016 1369 3016 2328 
Q 3016 3291 2770 3770 
Q 2525 4250 2034 4250 
z
M 2034 4750 
Q 2819 4750 3233 4129 
Q 3647 3509 3647 2328 
Q 3647 1150 3233 529 
Q 2819 -91 2034 -91 
Q 1250 -91 836 529 
Q 422 1150 422 2328 
Q 422 3509 836 4129 
Q 1250 4750 2034 4750 
z
" transform="scale(0.015625)"/>
       <path id="DejaVuSans-35" d="M 691 4666 
L 3169 4666 
L 3169 4134 
L 1269 4134 
L 1269 2991 
Q 1406 3038 1543 3061 
Q 1681 3084 1819 3084 
Q 2600 3084 3056 2656 
Q 3513 2228 3513 1497 
Q 3513 744 3044 326 
Q 2575 -91 1722 -91 
Q 1428 -91 1123 -41 
Q 819 9 494 109 
L 494 744 
Q 775 591 1075 516 
Q 1375 441 1709 441 
Q 2250 441 2565 725 
Q 2881 1009 2881 1497 
Q 2881 1984 2565 2268 
Q 2250 2553 1709 2553 
Q 1456 2553 1204 2497 
Q 953 2441 691 2322 
L 691 4666 
z
" transform="scale(0.015625)"/>
       <path id="DejaVuSans-2c" d="M 750 794 
L 1409 794 
L 1409 256 
L 897 -744 
L 494 -744 
L 750 256 
L 750 794 
z
" transform="scale(0.015625)"/>
       <path id="DejaVuSans-77" d="M 269 3500 
L 844 3500 
L 1563 769 
L 2278 3500 
L 2956 3500 
L 3675 769 
L 4391 3500 
L 4966 3500 
L 4050 0 
L 3372 0 
L 2619 2869 
L 1863 0 
L 1184 0 
L 269 3500 
z
" transform="scale(0.015625)"/>
       <path id="DejaVuSans-36" d="M 2113 2584 
Q 1688 2584 1439 2293 
Q 1191 2003 1191 1497 
Q 1191 994 1439 701 
Q 1688 409 2113 409 
Q 2538 409 2786 701 
Q 3034 994 3034 1497 
Q 3034 2003 2786 2293 
Q 2538 2584 2113 2584 
z
M 3366 4563 
L 3366 3988 
Q 3128 4100 2886 4159 
Q 2644 4219 2406 4219 
Q 1781 4219 1451 3797 
Q 1122 3375 1075 2522 
Q 1259 2794 1537 2939 
Q 1816 3084 2150 3084 
Q 2853 3084 3261 2657 
Q 3669 2231 3669 1497 
Q 3669 778 3244 343 
Q 2819 -91 2113 -91 
Q 1303 -91 875 529 
Q 447 1150 447 2328 
Q 447 3434 972 4092 
Q 1497 4750 2381 4750 
Q 2619 4750 2861 4703 
Q 3103 4656 3366 4563 
z
" transform="scale(0.015625)"/>
       <path id="DejaVuSans-7d" d="M 800 -594 
L 1019 -594 
Q 1456 -594 1589 -459 
Q 1722 -325 1722 122 
L 1722 897 
Q 1722 1384 1862 1606 
Q 2003 1828 2350 1913 
Q 2003 1991 1862 2212 
Q 1722 2434 1722 2925 
L 1722 3700 
Q 1722 4144 1589 4280 
Q 1456 4416 1019 4416 
L 800 4416 
L 800 4863 
L 997 4863 
Q 1775 4863 2036 4633 
Q 2297 4403 2297 3713 
L 2297 2963 
Q 2297 2497 2465 2317 
Q 2634 2138 3078 2138 
L 3272 2138 
L 3272 1691 
L 3078 1691 
Q 2634 1691 2465 1509 
Q 2297 1328 2297 856 
L 2297 109 
Q 2297 -581 2036 -812 
Q 1775 -1044 997 -1044 
L 800 -1044 
L 800 -594 
z
" transform="scale(0.015625)"/>
      </defs>
      <use xlink:href="#DejaVuSans-7b"/>
      <use xlink:href="#DejaVuSans-27" x="63.623047"/>
      <use xlink:href="#DejaVuSans-63" x="91.113281"/>
      <use xlink:href="#DejaVuSans-31" x="146.09375"/>
      <use xlink:href="#DejaVuSans-27" x="209.716797"/>
      <use xlink:href="#DejaVuSans-3a" x="237.207031"/>
      <use xlink:href="#DejaVuSans-20" x="270.898438"/>
      <use xlink:href="#DejaVuSans-32" x="302.685547"/>
      <use xlink:href="#DejaVuSans-2e" x="366.308594"/>
      <use xlink:href="#DejaVuSans-30" x="398.095703"/>
      <use xlink:href="#DejaVuSans-35" x="461.71875"/>
      <use xlink:href="#DejaVuSans-2c" x="525.341797"/>
      <use xlink:href="#DejaVuSans-20" x="557.128906"/>
      <use xlink:href="#DejaVuSans-27" x="588.916016"/>
      <use xlink:href="#DejaVuSans-63" x="616.40625"/>
      <use xlink:href="#DejaVuSans-32" x="671.386719"/>
      <use xlink:href="#DejaVuSans-27" x="735.009766"/>
      <use xlink:href="#DejaVuSans-3a" x="762.5"/>
      <use xlink:href="#DejaVuSans-20" x="796.191406"/>
      <use xlink:href="#DejaVuSans-32" x="827.978516"/>
      <use xlink:href="#DejaVuSans-2e" x="891.601562"/>
      <use xlink:href="#DejaVuSans-30" x="923.388672"/>
      <use xlink:href="#DejaVuSans-35" x="987.011719"/>
      <use xlink:href="#DejaVuSans-2c" x="1050.634766"/>
      <use xlink:href="#DejaVuSans-20" x="1082.421875"/>
      <use xlink:href="#DejaVuSans-27" x="1114.208984"/>
      <use xlink:href="#DejaVuSans-77" x="1141.699219"/>
      <use xlink:href="#DejaVuSans-27" x="1223.486328"/>
      <use xlink:href="#DejaVuSans-3a" x="1250.976562"/>
      <use xlink:href="#DejaVuSans-20" x="1284.667969"/>
      <use xlink:href="#DejaVuSans-30" x="1316.455078"/>
      <use xlink:href="#DejaVuSans-2e" x="1380.078125"/>
      <use xlink:href="#DejaVuSans-36" x="1411.865234"/>
      <use xlink:href="#DejaVuSans-7d" x="1475.488281"/>
     </g>
    </g>
    <g id="patch_6">
     <path d="M -15.830625 209.52 
L 345.118125 209.52 
L 345.118125 181.8 
L -15.830625 181.8 
z
" style="fill: #ffffff; stroke: #000000; stroke-linejoin: miter"/>
    </g>
    <g id="text_5">
     <!-- Optimizer: strategy -->
     <g transform="translate(67.6125 201.17875) scale(0.2 -0.2)">
      <defs>
       <path id="DejaVuSans-79" d="M 2059 -325 
Q 1816 -950 1584 -1140 
Q 1353 -1331 966 -1331 
L 506 -1331 
L 506 -850 
L 844 -850 
Q 1081 -850 1212 -737 
Q 1344 -625 1503 -206 
L 1606 56 
L 191 3500 
L 800 3500 
L 1894 763 
L 2988 3500 
L 3597 3500 
L 2059 -325 
z
" transform="scale(0.015625)"/>
      </defs>
      <use xlink:href="#DejaVuSans-4f"/>
      <use xlink:href="#DejaVuSans-70" x="78.710938"/>
      <use xlink:href="#DejaVuSans-74" x="142.1875"/>
      <use xlink:href="#DejaVuSans-69" x="181.396484"/>
      <use xlink:href="#DejaVuSans-6d" x="209.179688"/>
      <use xlink:href="#DejaVuSans-69" x="306.591797"/>
      <use xlink:href="#DejaVuSans-7a" x="334.375"/>
      <use xlink:href="#DejaVuSans-65" x="386.865234"/>
      <use xlink:href="#DejaVuSans-72" x="448.388672"/>
      <use xlink:href="#DejaVuSans-3a" x="487.751953"/>
      <use xlink:href="#DejaVuSans-20" x="521.443359"/>
      <use xlink:href="#DejaVuSans-73" x="553.230469"/>
      <use xlink:href="#DejaVuSans-74" x="605.330078"/>
      <use xlink:href="#DejaVuSans-72" x="644.539062"/>
      <use xlink:href="#DejaVuSans-61" x="685.652344"/>
      <use xlink:href="#DejaVuSans-74" x="746.931641"/>
      <use xlink:href="#DejaVuSans-65" x="786.140625"/>
      <use xlink:href="#DejaVuSans-67" x="847.664062"/>
      <use xlink:href="#DejaVuSans-79" x="911.140625"/>
     </g>
    </g>
    <g id="patch_7">
     <path d="M 345.118125 209.52 
L 1049.030625 209.52 
L 1049.030625 181.8 
L 345.118125 181.8 
z
" style="fill: #ffffff; stroke: #000000; stroke-linejoin: miter"/>
    </g>
    <g id="text_6">
     <!-- {'w': 'lin_variation', 'c1': 'lin_variation', 'c2': 'lin_variation'} -->
     <g transform="translate(403.7775 200.900625) scale(0.2 -0.2)">
      <defs>
       <path id="DejaVuSans-5f" d="M 3263 -1063 
L 3263 -1509 
L -63 -1509 
L -63 -1063 
L 3263 -1063 
z
" transform="scale(0.015625)"/>
       <path id="DejaVuSans-76" d="M 191 3500 
L 800 3500 
L 1894 563 
L 2988 3500 
L 3597 3500 
L 2284 0 
L 1503 0 
L 191 3500 
z
" transform="scale(0.015625)"/>
      </defs>
      <use xlink:href="#DejaVuSans-7b"/>
      <use xlink:href="#DejaVuSans-27" x="63.623047"/>
      <use xlink:href="#DejaVuSans-77" x="91.113281"/>
      <use xlink:href="#DejaVuSans-27" x="172.900391"/>
      <use xlink:href="#DejaVuSans-3a" x="200.390625"/>
      <use xlink:href="#DejaVuSans-20" x="234.082031"/>
      <use xlink:href="#DejaVuSans-27" x="265.869141"/>
      <use xlink:href="#DejaVuSans-6c" x="293.359375"/>
      <use xlink:href="#DejaVuSans-69" x="321.142578"/>
      <use xlink:href="#DejaVuSans-6e" x="348.925781"/>
      <use xlink:href="#DejaVuSans-5f" x="412.304688"/>
      <use xlink:href="#DejaVuSans-76" x="462.304688"/>
      <use xlink:href="#DejaVuSans-61" x="521.484375"/>
      <use xlink:href="#DejaVuSans-72" x="582.763672"/>
      <use xlink:href="#DejaVuSans-69" x="623.876953"/>
      <use xlink:href="#DejaVuSans-61" x="651.660156"/>
      <use xlink:href="#DejaVuSans-74" x="712.939453"/>
      <use xlink:href="#DejaVuSans-69" x="752.148438"/>
      <use xlink:href="#DejaVuSans-6f" x="779.931641"/>
      <use xlink:href="#DejaVuSans-6e" x="841.113281"/>
      <use xlink:href="#DejaVuSans-27" x="904.492188"/>
      <use xlink:href="#DejaVuSans-2c" x="931.982422"/>
      <use xlink:href="#DejaVuSans-20" x="963.769531"/>
      <use xlink:href="#DejaVuSans-27" x="995.556641"/>
      <use xlink:href="#DejaVuSans-63" x="1023.046875"/>
      <use xlink:href="#DejaVuSans-31" x="1078.027344"/>
      <use xlink:href="#DejaVuSans-27" x="1141.650391"/>
      <use xlink:href="#DejaVuSans-3a" x="1169.140625"/>
      <use xlink:href="#DejaVuSans-20" x="1202.832031"/>
      <use xlink:href="#DejaVuSans-27" x="1234.619141"/>
      <use xlink:href="#DejaVuSans-6c" x="1262.109375"/>
      <use xlink:href="#DejaVuSans-69" x="1289.892578"/>
      <use xlink:href="#DejaVuSans-6e" x="1317.675781"/>
      <use xlink:href="#DejaVuSans-5f" x="1381.054688"/>
      <use xlink:href="#DejaVuSans-76" x="1431.054688"/>
      <use xlink:href="#DejaVuSans-61" x="1490.234375"/>
      <use xlink:href="#DejaVuSans-72" x="1551.513672"/>
      <use xlink:href="#DejaVuSans-69" x="1592.626953"/>
      <use xlink:href="#DejaVuSans-61" x="1620.410156"/>
      <use xlink:href="#DejaVuSans-74" x="1681.689453"/>
      <use xlink:href="#DejaVuSans-69" x="1720.898438"/>
      <use xlink:href="#DejaVuSans-6f" x="1748.681641"/>
      <use xlink:href="#DejaVuSans-6e" x="1809.863281"/>
      <use xlink:href="#DejaVuSans-27" x="1873.242188"/>
      <use xlink:href="#DejaVuSans-2c" x="1900.732422"/>
      <use xlink:href="#DejaVuSans-20" x="1932.519531"/>
      <use xlink:href="#DejaVuSans-27" x="1964.306641"/>
      <use xlink:href="#DejaVuSans-63" x="1991.796875"/>
      <use xlink:href="#DejaVuSans-32" x="2046.777344"/>
      <use xlink:href="#DejaVuSans-27" x="2110.400391"/>
      <use xlink:href="#DejaVuSans-3a" x="2137.890625"/>
      <use xlink:href="#DejaVuSans-20" x="2171.582031"/>
      <use xlink:href="#DejaVuSans-27" x="2203.369141"/>
      <use xlink:href="#DejaVuSans-6c" x="2230.859375"/>
      <use xlink:href="#DejaVuSans-69" x="2258.642578"/>
      <use xlink:href="#DejaVuSans-6e" x="2286.425781"/>
      <use xlink:href="#DejaVuSans-5f" x="2349.804688"/>
      <use xlink:href="#DejaVuSans-76" x="2399.804688"/>
      <use xlink:href="#DejaVuSans-61" x="2458.984375"/>
      <use xlink:href="#DejaVuSans-72" x="2520.263672"/>
      <use xlink:href="#DejaVuSans-69" x="2561.376953"/>
      <use xlink:href="#DejaVuSans-61" x="2589.160156"/>
      <use xlink:href="#DejaVuSans-74" x="2650.439453"/>
      <use xlink:href="#DejaVuSans-69" x="2689.648438"/>
      <use xlink:href="#DejaVuSans-6f" x="2717.431641"/>
      <use xlink:href="#DejaVuSans-6e" x="2778.613281"/>
      <use xlink:href="#DejaVuSans-27" x="2841.992188"/>
      <use xlink:href="#DejaVuSans-7d" x="2869.482422"/>
     </g>
    </g>
    <g id="patch_8">
     <path d="M -15.830625 237.24 
L 345.118125 237.24 
L 345.118125 209.52 
L -15.830625 209.52 
z
" style="fill: #ffffff; stroke: #000000; stroke-linejoin: miter"/>
    </g>
    <g id="text_7">
     <!-- N runs, particles, optim. steps -->
     <g transform="translate(14.248437 228.89875) scale(0.2 -0.2)">
      <defs>
       <path id="DejaVuSans-4e" d="M 628 4666 
L 1478 4666 
L 3547 763 
L 3547 4666 
L 4159 4666 
L 4159 0 
L 3309 0 
L 1241 3903 
L 1241 0 
L 628 0 
L 628 4666 
z
" transform="scale(0.015625)"/>
       <path id="DejaVuSans-75" d="M 544 1381 
L 544 3500 
L 1119 3500 
L 1119 1403 
Q 1119 906 1312 657 
Q 1506 409 1894 409 
Q 2359 409 2629 706 
Q 2900 1003 2900 1516 
L 2900 3500 
L 3475 3500 
L 3475 0 
L 2900 0 
L 2900 538 
Q 2691 219 2414 64 
Q 2138 -91 1772 -91 
Q 1169 -91 856 284 
Q 544 659 544 1381 
z
M 1991 3584 
L 1991 3584 
z
" transform="scale(0.015625)"/>
      </defs>
      <use xlink:href="#DejaVuSans-4e"/>
      <use xlink:href="#DejaVuSans-20" x="74.804688"/>
      <use xlink:href="#DejaVuSans-72" x="106.591797"/>
      <use xlink:href="#DejaVuSans-75" x="147.705078"/>
      <use xlink:href="#DejaVuSans-6e" x="211.083984"/>
      <use xlink:href="#DejaVuSans-73" x="274.462891"/>
      <use xlink:href="#DejaVuSans-2c" x="326.5625"/>
      <use xlink:href="#DejaVuSans-20" x="358.349609"/>
      <use xlink:href="#DejaVuSans-70" x="390.136719"/>
      <use xlink:href="#DejaVuSans-61" x="453.613281"/>
      <use xlink:href="#DejaVuSans-72" x="514.892578"/>
      <use xlink:href="#DejaVuSans-74" x="556.005859"/>
      <use xlink:href="#DejaVuSans-69" x="595.214844"/>
      <use xlink:href="#DejaVuSans-63" x="622.998047"/>
      <use xlink:href="#DejaVuSans-6c" x="677.978516"/>
      <use xlink:href="#DejaVuSans-65" x="705.761719"/>
      <use xlink:href="#DejaVuSans-73" x="767.285156"/>
      <use xlink:href="#DejaVuSans-2c" x="819.384766"/>
      <use xlink:href="#DejaVuSans-20" x="851.171875"/>
      <use xlink:href="#DejaVuSans-6f" x="882.958984"/>
      <use xlink:href="#DejaVuSans-70" x="944.140625"/>
      <use xlink:href="#DejaVuSans-74" x="1007.617188"/>
      <use xlink:href="#DejaVuSans-69" x="1046.826172"/>
      <use xlink:href="#DejaVuSans-6d" x="1074.609375"/>
      <use xlink:href="#DejaVuSans-2e" x="1172.021484"/>
      <use xlink:href="#DejaVuSans-20" x="1203.808594"/>
      <use xlink:href="#DejaVuSans-73" x="1235.595703"/>
      <use xlink:href="#DejaVuSans-74" x="1287.695312"/>
      <use xlink:href="#DejaVuSans-65" x="1326.904297"/>
      <use xlink:href="#DejaVuSans-70" x="1388.427734"/>
      <use xlink:href="#DejaVuSans-73" x="1451.904297"/>
     </g>
    </g>
    <g id="patch_9">
     <path d="M 345.118125 237.24 
L 1049.030625 237.24 
L 1049.030625 209.52 
L 345.118125 209.52 
z
" style="fill: #ffffff; stroke: #000000; stroke-linejoin: miter"/>
    </g>
    <g id="text_8">
     <!-- 50, 20, 100 -->
     <g transform="translate(639.824375 228.89875) scale(0.2 -0.2)">
      <use xlink:href="#DejaVuSans-35"/>
      <use xlink:href="#DejaVuSans-30" x="63.623047"/>
      <use xlink:href="#DejaVuSans-2c" x="127.246094"/>
      <use xlink:href="#DejaVuSans-20" x="159.033203"/>
      <use xlink:href="#DejaVuSans-32" x="190.820312"/>
      <use xlink:href="#DejaVuSans-30" x="254.443359"/>
      <use xlink:href="#DejaVuSans-2c" x="318.066406"/>
      <use xlink:href="#DejaVuSans-20" x="349.853516"/>
      <use xlink:href="#DejaVuSans-31" x="381.640625"/>
      <use xlink:href="#DejaVuSans-30" x="445.263672"/>
      <use xlink:href="#DejaVuSans-30" x="508.886719"/>
     </g>
    </g>
   </g>
  </g>
 </g>
</svg>
