<?xml version="1.0" encoding="utf-8" standalone="no"?>
<!DOCTYPE svg PUBLIC "-//W3C//DTD SVG 1.1//EN"
  "http://www.w3.org/Graphics/SVG/1.1/DTD/svg11.dtd">
<svg xmlns:xlink="http://www.w3.org/1999/xlink" width="1728pt" height="360pt" viewBox="0 0 1728 360" xmlns="http://www.w3.org/2000/svg" version="1.1">
 <metadata>
  <rdf:RDF xmlns:dc="http://purl.org/dc/elements/1.1/" xmlns:cc="http://creativecommons.org/ns#" xmlns:rdf="http://www.w3.org/1999/02/22-rdf-syntax-ns#">
   <cc:Work>
    <dc:type rdf:resource="http://purl.org/dc/dcmitype/StillImage"/>
    <dc:date>2023-03-14T18:25:33.940312</dc:date>
    <dc:format>image/svg+xml</dc:format>
    <dc:creator>
     <cc:Agent>
      <dc:title>Matplotlib v3.5.2, https://matplotlib.org/</dc:title>
     </cc:Agent>
    </dc:creator>
   </cc:Work>
  </rdf:RDF>
 </metadata>
 <defs>
  <style type="text/css">*{stroke-linejoin: round; stroke-linecap: butt}</style>
 </defs>
 <g id="figure_1">
  <g id="patch_1">
   <path d="M 0 360 
L 1728 360 
L 1728 0 
L 0 0 
L 0 360 
z
" style="fill: none"/>
  </g>
  <g id="axes_1">
   <g id="table_1">
    <g id="patch_2">
     <path d="M 301.37625 138.33 
L 448.15125 138.33 
L 448.15125 111.15 
L 301.37625 111.15 
z
" style="fill: #ffffff; stroke: #1a1a1a; stroke-linejoin: miter"/>
    </g>
    <g id="text_1">
     <!-- $A$ $[-]$ -->
     <g style="fill: #262626" transform="translate(348.86375 129.924375)scale(0.2 -0.2)">
      <defs>
       <path id="DejaVuSans-Oblique-41" d="M 2356 4666 
L 3072 4666 
L 3938 0 
L 3278 0 
L 3084 1197 
L 984 1197 
L 325 0 
L -341 0 
L 2356 4666 
z
M 2584 4044 
L 1275 1722 
L 2988 1722 
L 2584 4044 
z
" transform="scale(0.015625)"/>
       <path id="Arial-BoldMT-20" transform="scale(0.015625)"/>
       <path id="DejaVuSans-5b" d="M 550 4863 
L 1875 4863 
L 1875 4416 
L 1125 4416 
L 1125 -397 
L 1875 -397 
L 1875 -844 
L 550 -844 
L 550 4863 
z
" transform="scale(0.015625)"/>
       <path id="DejaVuSans-2212" d="M 678 2272 
L 4684 2272 
L 4684 1741 
L 678 1741 
L 678 2272 
z
" transform="scale(0.015625)"/>
       <path id="DejaVuSans-5d" d="M 1947 4863 
L 1947 -844 
L 622 -844 
L 622 -397 
L 1369 -397 
L 1369 4416 
L 622 4416 
L 622 4863 
L 1947 4863 
z
" transform="scale(0.015625)"/>
      </defs>
      <use xlink:href="#DejaVuSans-Oblique-41" transform="translate(0 0.015625)"/>
      <use xlink:href="#Arial-BoldMT-20" transform="translate(68.408203 0.015625)"/>
      <use xlink:href="#DejaVuSans-5b" transform="translate(96.191406 0.015625)"/>
      <use xlink:href="#DejaVuSans-2212" transform="translate(135.205078 0.015625)"/>
      <use xlink:href="#DejaVuSans-5d" transform="translate(218.994141 0.015625)"/>
     </g>
    </g>
    <g id="patch_3">
     <path d="M 448.15125 138.33 
L 568.23375 138.33 
L 568.23375 111.15 
L 448.15125 111.15 
z
" style="fill: #ffffff; stroke: #1a1a1a; stroke-linejoin: miter"/>
    </g>
    <g id="text_2">
     <!-- $B$ $[-]$ -->
     <g style="fill: #262626" transform="translate(482.2925 129.924375)scale(0.2 -0.2)">
      <defs>
       <path id="DejaVuSans-Oblique-42" d="M 1081 4666 
L 2694 4666 
Q 3350 4666 3675 4422 
Q 4000 4178 4000 3688 
Q 4000 3238 3720 2911 
Q 3441 2584 2988 2516 
Q 3375 2428 3569 2181 
Q 3763 1934 3763 1522 
Q 3763 819 3242 409 
Q 2722 0 1819 0 
L 172 0 
L 1081 4666 
z
M 1234 2228 
L 903 519 
L 1919 519 
Q 2491 519 2800 781 
Q 3109 1044 3109 1522 
Q 3109 1891 2904 2059 
Q 2700 2228 2247 2228 
L 1234 2228 
z
M 1606 4147 
L 1331 2741 
L 2272 2741 
Q 2775 2741 3058 2959 
Q 3341 3178 3341 3566 
Q 3341 3869 3150 4008 
Q 2959 4147 2541 4147 
L 1606 4147 
z
" transform="scale(0.015625)"/>
      </defs>
      <use xlink:href="#DejaVuSans-Oblique-42" transform="translate(0 0.015625)"/>
      <use xlink:href="#Arial-BoldMT-20" transform="translate(68.603516 0.015625)"/>
      <use xlink:href="#DejaVuSans-5b" transform="translate(96.386719 0.015625)"/>
      <use xlink:href="#DejaVuSans-2212" transform="translate(135.400391 0.015625)"/>
      <use xlink:href="#DejaVuSans-5d" transform="translate(219.189453 0.015625)"/>
     </g>
    </g>
    <g id="patch_4">
     <path d="M 568.23375 138.33 
L 690.9525 138.33 
L 690.9525 111.15 
L 568.23375 111.15 
z
" style="fill: #ffffff; stroke: #1a1a1a; stroke-linejoin: miter"/>
    </g>
    <g id="text_3">
     <!-- $C$ $[dB]$ -->
     <g style="fill: #262626" transform="translate(598.793125 129.924375)scale(0.2 -0.2)">
      <defs>
       <path id="DejaVuSans-Oblique-43" d="M 4447 4306 
L 4319 3641 
Q 4019 3944 3683 4091 
Q 3347 4238 2956 4238 
Q 2422 4238 2017 3981 
Q 1613 3725 1319 3200 
Q 1131 2863 1032 2486 
Q 934 2109 934 1728 
Q 934 1091 1264 756 
Q 1594 422 2222 422 
Q 2656 422 3056 561 
Q 3456 700 3834 978 
L 3688 231 
Q 3316 72 2936 -9 
Q 2556 -91 2175 -91 
Q 1278 -91 773 396 
Q 269 884 269 1753 
Q 269 2309 461 2846 
Q 653 3384 1013 3828 
Q 1394 4300 1883 4525 
Q 2372 4750 3022 4750 
Q 3422 4750 3780 4639 
Q 4138 4528 4447 4306 
z
" transform="scale(0.015625)"/>
       <path id="DejaVuSans-Oblique-64" d="M 2675 525 
Q 2444 222 2128 65 
Q 1813 -91 1428 -91 
Q 903 -91 598 267 
Q 294 625 294 1247 
Q 294 1766 478 2236 
Q 663 2706 1013 3078 
Q 1244 3325 1534 3454 
Q 1825 3584 2144 3584 
Q 2481 3584 2739 3421 
Q 2997 3259 3138 2956 
L 3513 4863 
L 4091 4863 
L 3144 0 
L 2566 0 
L 2675 525 
z
M 891 1350 
Q 891 897 1095 644 
Q 1300 391 1663 391 
Q 1931 391 2161 520 
Q 2391 650 2566 903 
Q 2750 1166 2856 1509 
Q 2963 1853 2963 2188 
Q 2963 2622 2758 2865 
Q 2553 3109 2194 3109 
Q 1922 3109 1687 2981 
Q 1453 2853 1288 2613 
Q 1106 2353 998 2009 
Q 891 1666 891 1350 
z
" transform="scale(0.015625)"/>
      </defs>
      <use xlink:href="#DejaVuSans-Oblique-43" transform="translate(0 0.015625)"/>
      <use xlink:href="#Arial-BoldMT-20" transform="translate(69.824219 0.015625)"/>
      <use xlink:href="#DejaVuSans-5b" transform="translate(97.607422 0.015625)"/>
      <use xlink:href="#DejaVuSans-Oblique-64" transform="translate(136.621094 0.015625)"/>
      <use xlink:href="#DejaVuSans-Oblique-42" transform="translate(200.097656 0.015625)"/>
      <use xlink:href="#DejaVuSans-5d" transform="translate(268.701172 0.015625)"/>
     </g>
    </g>
    <g id="patch_5">
     <path d="M 690.9525 138.33 
L 846.4725 138.33 
L 846.4725 111.15 
L 690.9525 111.15 
z
" style="fill: #ffffff; stroke: #1a1a1a; stroke-linejoin: miter"/>
    </g>
    <g id="text_4">
     <!-- $D$ $[dB m^3/m^3]$ -->
     <g style="fill: #262626" transform="translate(703.9125 131.293125)scale(0.2 -0.2)">
      <defs>
       <path id="DejaVuSans-Oblique-44" d="M 1081 4666 
L 2438 4666 
Q 3519 4666 4070 4208 
Q 4622 3750 4622 2847 
Q 4622 2250 4412 1698 
Q 4203 1147 3834 769 
Q 3463 381 2891 190 
Q 2319 0 1538 0 
L 172 0 
L 1081 4666 
z
M 1613 4147 
L 909 519 
L 1734 519 
Q 2794 519 3375 1128 
Q 3956 1738 3956 2847 
Q 3956 3519 3581 3833 
Q 3206 4147 2406 4147 
L 1613 4147 
z
" transform="scale(0.015625)"/>
       <path id="DejaVuSans-Oblique-6d" d="M 5747 2113 
L 5338 0 
L 4763 0 
L 5166 2094 
Q 5191 2228 5203 2325 
Q 5216 2422 5216 2491 
Q 5216 2772 5059 2928 
Q 4903 3084 4622 3084 
Q 4203 3084 3875 2770 
Q 3547 2456 3450 1953 
L 3066 0 
L 2491 0 
L 2900 2094 
Q 2925 2209 2937 2307 
Q 2950 2406 2950 2484 
Q 2950 2769 2794 2926 
Q 2638 3084 2363 3084 
Q 1938 3084 1609 2770 
Q 1281 2456 1184 1953 
L 800 0 
L 225 0 
L 909 3500 
L 1484 3500 
L 1375 2956 
Q 1609 3263 1923 3423 
Q 2238 3584 2597 3584 
Q 2978 3584 3223 3384 
Q 3469 3184 3519 2828 
Q 3781 3197 4126 3390 
Q 4472 3584 4856 3584 
Q 5306 3584 5551 3325 
Q 5797 3066 5797 2591 
Q 5797 2488 5784 2364 
Q 5772 2241 5747 2113 
z
" transform="scale(0.015625)"/>
       <path id="DejaVuSans-33" d="M 2597 2516 
Q 3050 2419 3304 2112 
Q 3559 1806 3559 1356 
Q 3559 666 3084 287 
Q 2609 -91 1734 -91 
Q 1441 -91 1130 -33 
Q 819 25 488 141 
L 488 750 
Q 750 597 1062 519 
Q 1375 441 1716 441 
Q 2309 441 2620 675 
Q 2931 909 2931 1356 
Q 2931 1769 2642 2001 
Q 2353 2234 1838 2234 
L 1294 2234 
L 1294 2753 
L 1863 2753 
Q 2328 2753 2575 2939 
Q 2822 3125 2822 3475 
Q 2822 3834 2567 4026 
Q 2313 4219 1838 4219 
Q 1578 4219 1281 4162 
Q 984 4106 628 3988 
L 628 4550 
Q 988 4650 1302 4700 
Q 1616 4750 1894 4750 
Q 2613 4750 3031 4423 
Q 3450 4097 3450 3541 
Q 3450 3153 3228 2886 
Q 3006 2619 2597 2516 
z
" transform="scale(0.015625)"/>
       <path id="DejaVuSans-2f" d="M 1625 4666 
L 2156 4666 
L 531 -594 
L 0 -594 
L 1625 4666 
z
" transform="scale(0.015625)"/>
      </defs>
      <use xlink:href="#DejaVuSans-Oblique-44" transform="translate(0 0.765625)"/>
      <use xlink:href="#Arial-BoldMT-20" transform="translate(77.001953 0.765625)"/>
      <use xlink:href="#DejaVuSans-5b" transform="translate(104.785156 0.765625)"/>
      <use xlink:href="#DejaVuSans-Oblique-64" transform="translate(143.798828 0.765625)"/>
      <use xlink:href="#DejaVuSans-Oblique-42" transform="translate(207.275391 0.765625)"/>
      <use xlink:href="#DejaVuSans-Oblique-6d" transform="translate(275.878906 0.765625)"/>
      <use xlink:href="#DejaVuSans-33" transform="translate(377.940911 39.046875)scale(0.7)"/>
      <use xlink:href="#DejaVuSans-2f" transform="translate(425.211419 0.765625)"/>
      <use xlink:href="#DejaVuSans-Oblique-6d" transform="translate(458.902826 0.765625)"/>
      <use xlink:href="#DejaVuSans-33" transform="translate(560.964831 39.046875)scale(0.7)"/>
      <use xlink:href="#DejaVuSans-5d" transform="translate(608.235339 0.765625)"/>
     </g>
    </g>
    <g id="patch_6">
     <path d="M 846.4725 138.33 
L 944.8725 138.33 
L 944.8725 111.15 
L 846.4725 111.15 
z
" style="fill: #ffffff; stroke: #1a1a1a; stroke-linejoin: miter"/>
    </g>
    <g id="text_5">
     <!-- $\delta_0$ $[mm]$ -->
     <g style="fill: #262626" transform="translate(854.6725 130.193125)scale(0.2 -0.2)">
      <defs>
       <path id="DejaVuSans-Oblique-3b4" d="M 3472 4053 
Q 3197 4272 2450 4272 
Q 1659 4272 1588 3906 
Q 1531 3619 2328 3469 
Q 2953 3353 3253 3003 
Q 3616 2581 3447 1716 
Q 3284 888 2763 400 
Q 2238 -91 1488 -91 
Q 741 -91 406 400 
Q 72 888 241 1747 
Q 363 2384 891 2900 
Q 1097 3100 1353 3213 
Q 913 3459 1000 3900 
Q 1166 4750 2544 4750 
Q 3234 4750 3566 4531 
L 3472 4053 
z
M 1753 3056 
Q 1525 2966 1306 2738 
Q 969 2384 847 1747 
Q 722 1113 919 756 
Q 1119 397 1584 397 
Q 2044 397 2381 759 
Q 2722 1122 2838 1716 
Q 2956 2338 2731 2638 
Q 2491 2959 2103 2994 
Q 1906 3013 1753 3056 
z
" transform="scale(0.015625)"/>
       <path id="DejaVuSans-30" d="M 2034 4250 
Q 1547 4250 1301 3770 
Q 1056 3291 1056 2328 
Q 1056 1369 1301 889 
Q 1547 409 2034 409 
Q 2525 409 2770 889 
Q 3016 1369 3016 2328 
Q 3016 3291 2770 3770 
Q 2525 4250 2034 4250 
z
M 2034 4750 
Q 2819 4750 3233 4129 
Q 3647 3509 3647 2328 
Q 3647 1150 3233 529 
Q 2819 -91 2034 -91 
Q 1250 -91 836 529 
Q 422 1150 422 2328 
Q 422 3509 836 4129 
Q 1250 4750 2034 4750 
z
" transform="scale(0.015625)"/>
      </defs>
      <use xlink:href="#DejaVuSans-Oblique-3b4" transform="translate(0 0.015625)"/>
      <use xlink:href="#DejaVuSans-30" transform="translate(61.181641 -16.390625)scale(0.7)"/>
      <use xlink:href="#Arial-BoldMT-20" transform="translate(108.452148 0.015625)"/>
      <use xlink:href="#DejaVuSans-5b" transform="translate(136.235352 0.015625)"/>
      <use xlink:href="#DejaVuSans-Oblique-6d" transform="translate(175.249023 0.015625)"/>
      <use xlink:href="#DejaVuSans-Oblique-6d" transform="translate(272.661133 0.015625)"/>
      <use xlink:href="#DejaVuSans-5d" transform="translate(370.073242 0.015625)"/>
     </g>
    </g>
    <g id="patch_7">
     <path d="M 944.8725 138.33 
L 1089.5925 138.33 
L 1089.5925 111.15 
L 944.8725 111.15 
z
" style="fill: #ffffff; stroke: #1a1a1a; stroke-linejoin: miter"/>
    </g>
    <g id="text_6">
     <!-- $W_{fc}$ $[m^3/m^3]$ -->
     <g style="fill: #262626" transform="translate(956.9325 131.693125)scale(0.2 -0.2)">
      <defs>
       <path id="DejaVuSans-Oblique-57" d="M 616 4666 
L 1228 4666 
L 1453 697 
L 3213 4666 
L 3916 4666 
L 4147 697 
L 5888 4666 
L 6528 4666 
L 4453 0 
L 3659 0 
L 3444 3891 
L 1697 0 
L 903 0 
L 616 4666 
z
" transform="scale(0.015625)"/>
       <path id="DejaVuSans-Oblique-66" d="M 3059 4863 
L 2969 4384 
L 2419 4384 
Q 2106 4384 1964 4261 
Q 1822 4138 1753 3809 
L 1691 3500 
L 2638 3500 
L 2553 3053 
L 1606 3053 
L 1013 0 
L 434 0 
L 1031 3053 
L 481 3053 
L 563 3500 
L 1113 3500 
L 1159 3744 
Q 1278 4363 1576 4613 
Q 1875 4863 2516 4863 
L 3059 4863 
z
" transform="scale(0.015625)"/>
       <path id="DejaVuSans-Oblique-63" d="M 3431 3366 
L 3316 2797 
Q 3109 2947 2876 3022 
Q 2644 3097 2394 3097 
Q 2119 3097 1870 3000 
Q 1622 2903 1453 2725 
Q 1184 2453 1037 2087 
Q 891 1722 891 1331 
Q 891 859 1127 628 
Q 1363 397 1844 397 
Q 2081 397 2348 469 
Q 2616 541 2906 684 
L 2797 116 
Q 2547 13 2283 -39 
Q 2019 -91 1741 -91 
Q 1044 -91 669 257 
Q 294 606 294 1253 
Q 294 1797 489 2255 
Q 684 2713 1069 3078 
Q 1331 3328 1684 3456 
Q 2038 3584 2456 3584 
Q 2700 3584 2940 3529 
Q 3181 3475 3431 3366 
z
" transform="scale(0.015625)"/>
      </defs>
      <use xlink:href="#DejaVuSans-Oblique-57" transform="translate(0 0.765625)"/>
      <use xlink:href="#DejaVuSans-Oblique-66" transform="translate(98.876953 -15.640625)scale(0.7)"/>
      <use xlink:href="#DejaVuSans-Oblique-63" transform="translate(123.520508 -15.640625)scale(0.7)"/>
      <use xlink:href="#Arial-BoldMT-20" transform="translate(164.741211 0.765625)"/>
      <use xlink:href="#DejaVuSans-5b" transform="translate(192.524414 0.765625)"/>
      <use xlink:href="#DejaVuSans-Oblique-6d" transform="translate(231.538086 0.765625)"/>
      <use xlink:href="#DejaVuSans-33" transform="translate(333.600091 39.046875)scale(0.7)"/>
      <use xlink:href="#DejaVuSans-2f" transform="translate(380.870599 0.765625)"/>
      <use xlink:href="#DejaVuSans-Oblique-6d" transform="translate(414.562005 0.765625)"/>
      <use xlink:href="#DejaVuSans-33" transform="translate(516.62401 39.046875)scale(0.7)"/>
      <use xlink:href="#DejaVuSans-5d" transform="translate(563.894518 0.765625)"/>
     </g>
    </g>
    <g id="patch_8">
     <path d="M 1089.5925 138.33 
L 1236.3675 138.33 
L 1236.3675 111.15 
L 1089.5925 111.15 
z
" style="fill: #ffffff; stroke: #1a1a1a; stroke-linejoin: miter"/>
    </g>
    <g id="text_7">
     <!-- $W_w$ $[m^3/m^3]$ -->
     <g style="fill: #262626" transform="translate(1103.18 131.593125)scale(0.2 -0.2)">
      <defs>
       <path id="DejaVuSans-Oblique-77" d="M 544 3500 
L 1113 3500 
L 1259 684 
L 2566 3500 
L 3231 3500 
L 3425 684 
L 4666 3500 
L 5241 3500 
L 3641 0 
L 2969 0 
L 2797 2900 
L 1459 0 
L 781 0 
L 544 3500 
z
" transform="scale(0.015625)"/>
      </defs>
      <use xlink:href="#DejaVuSans-Oblique-57" transform="translate(0 0.765625)"/>
      <use xlink:href="#DejaVuSans-Oblique-77" transform="translate(98.876953 -15.640625)scale(0.7)"/>
      <use xlink:href="#Arial-BoldMT-20" transform="translate(158.862305 0.765625)"/>
      <use xlink:href="#DejaVuSans-5b" transform="translate(186.645508 0.765625)"/>
      <use xlink:href="#DejaVuSans-Oblique-6d" transform="translate(225.65918 0.765625)"/>
      <use xlink:href="#DejaVuSans-33" transform="translate(327.721185 39.046875)scale(0.7)"/>
      <use xlink:href="#DejaVuSans-2f" transform="translate(374.991693 0.765625)"/>
      <use xlink:href="#DejaVuSans-Oblique-6d" transform="translate(408.683099 0.765625)"/>
      <use xlink:href="#DejaVuSans-33" transform="translate(510.745104 39.046875)scale(0.7)"/>
      <use xlink:href="#DejaVuSans-5d" transform="translate(558.015612 0.765625)"/>
     </g>
    </g>
    <g id="patch_9">
     <path d="M 1236.3675 138.33 
L 1363.0875 138.33 
L 1363.0875 111.15 
L 1236.3675 111.15 
z
" style="fill: #ffffff; stroke: #1a1a1a; stroke-linejoin: miter"/>
    </g>
    <g id="text_8">
     <!-- $\rho_{st}$ $[mm/h]$ -->
     <g style="fill: #262626" transform="translate(1246.9275 130.24)scale(0.2 -0.2)">
      <defs>
       <path id="DejaVuSans-Oblique-3c1" d="M 1203 2875 
Q 1453 3194 1981 3475 
Q 2188 3584 2756 3584 
Q 3394 3584 3694 3078 
Q 3994 2572 3834 1747 
Q 3672 922 3175 415 
Q 2678 -91 2041 -91 
Q 1656 -91 1409 63 
Q 1163 213 1044 525 
L 681 -1331 
L 103 -1331 
L 697 1716 
Q 838 2438 1203 2875 
z
M 3238 1747 
Q 3359 2381 3169 2744 
Q 2978 3103 2522 3103 
Q 2066 3103 1734 2744 
Q 1403 2381 1281 1747 
Q 1156 1113 1347 750 
Q 1538 391 1994 391 
Q 2450 391 2781 750 
Q 3113 1113 3238 1747 
z
" transform="scale(0.015625)"/>
       <path id="DejaVuSans-Oblique-73" d="M 3200 3397 
L 3091 2853 
Q 2863 2978 2609 3040 
Q 2356 3103 2088 3103 
Q 1634 3103 1373 2948 
Q 1113 2794 1113 2528 
Q 1113 2219 1719 2053 
Q 1766 2041 1788 2034 
L 1972 1978 
Q 2547 1819 2739 1644 
Q 2931 1469 2931 1166 
Q 2931 609 2489 259 
Q 2047 -91 1331 -91 
Q 1053 -91 747 -37 
Q 441 16 72 128 
L 184 722 
Q 500 559 806 475 
Q 1113 391 1394 391 
Q 1816 391 2080 572 
Q 2344 753 2344 1031 
Q 2344 1331 1650 1516 
L 1591 1531 
L 1394 1581 
Q 956 1697 753 1886 
Q 550 2075 550 2369 
Q 550 2928 970 3256 
Q 1391 3584 2113 3584 
Q 2397 3584 2667 3537 
Q 2938 3491 3200 3397 
z
" transform="scale(0.015625)"/>
       <path id="DejaVuSans-Oblique-74" d="M 2706 3500 
L 2619 3053 
L 1472 3053 
L 1100 1153 
Q 1081 1047 1072 975 
Q 1063 903 1063 863 
Q 1063 663 1183 572 
Q 1303 481 1569 481 
L 2150 481 
L 2053 0 
L 1503 0 
Q 991 0 739 200 
Q 488 400 488 806 
Q 488 878 497 964 
Q 506 1050 525 1153 
L 897 3053 
L 409 3053 
L 500 3500 
L 978 3500 
L 1172 4494 
L 1747 4494 
L 1556 3500 
L 2706 3500 
z
" transform="scale(0.015625)"/>
       <path id="DejaVuSans-Oblique-68" d="M 3566 2113 
L 3156 0 
L 2578 0 
L 2988 2091 
Q 3016 2238 3031 2350 
Q 3047 2463 3047 2528 
Q 3047 2791 2881 2937 
Q 2716 3084 2419 3084 
Q 1956 3084 1617 2771 
Q 1278 2459 1178 1941 
L 800 0 
L 225 0 
L 1172 4863 
L 1747 4863 
L 1375 2950 
Q 1594 3244 1934 3414 
Q 2275 3584 2650 3584 
Q 3113 3584 3367 3334 
Q 3622 3084 3622 2631 
Q 3622 2519 3608 2391 
Q 3594 2263 3566 2113 
z
" transform="scale(0.015625)"/>
      </defs>
      <use xlink:href="#DejaVuSans-Oblique-3c1" transform="translate(0 0.015625)"/>
      <use xlink:href="#DejaVuSans-Oblique-73" transform="translate(63.476562 -16.390625)scale(0.7)"/>
      <use xlink:href="#DejaVuSans-Oblique-74" transform="translate(99.946289 -16.390625)scale(0.7)"/>
      <use xlink:href="#Arial-BoldMT-20" transform="translate(130.126953 0.015625)"/>
      <use xlink:href="#DejaVuSans-5b" transform="translate(157.910156 0.015625)"/>
      <use xlink:href="#DejaVuSans-Oblique-6d" transform="translate(196.923828 0.015625)"/>
      <use xlink:href="#DejaVuSans-Oblique-6d" transform="translate(294.335938 0.015625)"/>
      <use xlink:href="#DejaVuSans-2f" transform="translate(391.748047 0.015625)"/>
      <use xlink:href="#DejaVuSans-Oblique-68" transform="translate(425.439453 0.015625)"/>
      <use xlink:href="#DejaVuSans-5d" transform="translate(488.818359 0.015625)"/>
     </g>
    </g>
    <g id="patch_10">
     <path d="M 1363.0875 138.33 
L 1469.82375 138.33 
L 1469.82375 111.15 
L 1363.0875 111.15 
z
" style="fill: #ffffff; stroke: #1a1a1a; stroke-linejoin: miter"/>
    </g>
    <g id="text_9">
     <!-- $K_{c0}$ $[-]$ -->
     <g style="fill: #262626" transform="translate(1382.355625 130.193125)scale(0.2 -0.2)">
      <defs>
       <path id="DejaVuSans-Oblique-4b" d="M 1081 4666 
L 1716 4666 
L 1331 2700 
L 3781 4666 
L 4622 4666 
L 1850 2438 
L 3878 0 
L 3109 0 
L 1247 2272 
L 806 0 
L 172 0 
L 1081 4666 
z
" transform="scale(0.015625)"/>
      </defs>
      <use xlink:href="#DejaVuSans-Oblique-4b" transform="translate(0 0.015625)"/>
      <use xlink:href="#DejaVuSans-Oblique-63" transform="translate(65.576172 -16.390625)scale(0.7)"/>
      <use xlink:href="#DejaVuSans-30" transform="translate(104.0625 -16.390625)scale(0.7)"/>
      <use xlink:href="#Arial-BoldMT-20" transform="translate(151.333008 0.015625)"/>
      <use xlink:href="#DejaVuSans-5b" transform="translate(179.116211 0.015625)"/>
      <use xlink:href="#DejaVuSans-2212" transform="translate(218.129883 0.015625)"/>
      <use xlink:href="#DejaVuSans-5d" transform="translate(301.918945 0.015625)"/>
     </g>
    </g>
    <g id="patch_11">
     <path d="M 219.9825 165.51 
L 301.37625 165.51 
L 301.37625 138.33 
L 219.9825 138.33 
z
" style="fill: #ffffff; stroke: #1a1a1a; stroke-linejoin: miter"/>
    </g>
    <g id="text_10">
     <!-- Cal/fix -->
     <g style="fill: #262626" transform="translate(228.121875 157.090313)scale(0.2 -0.2)">
      <defs>
       <path id="ArialMT-43" d="M 3763 1606 
L 4369 1453 
Q 4178 706 3683 314 
Q 3188 -78 2472 -78 
Q 1731 -78 1267 223 
Q 803 525 561 1097 
Q 319 1669 319 2325 
Q 319 3041 592 3573 
Q 866 4106 1370 4382 
Q 1875 4659 2481 4659 
Q 3169 4659 3637 4309 
Q 4106 3959 4291 3325 
L 3694 3184 
Q 3534 3684 3231 3912 
Q 2928 4141 2469 4141 
Q 1941 4141 1586 3887 
Q 1231 3634 1087 3207 
Q 944 2781 944 2328 
Q 944 1744 1114 1308 
Q 1284 872 1643 656 
Q 2003 441 2422 441 
Q 2931 441 3284 734 
Q 3638 1028 3763 1606 
z
" transform="scale(0.015625)"/>
       <path id="ArialMT-61" d="M 2588 409 
Q 2275 144 1986 34 
Q 1697 -75 1366 -75 
Q 819 -75 525 192 
Q 231 459 231 875 
Q 231 1119 342 1320 
Q 453 1522 633 1644 
Q 813 1766 1038 1828 
Q 1203 1872 1538 1913 
Q 2219 1994 2541 2106 
Q 2544 2222 2544 2253 
Q 2544 2597 2384 2738 
Q 2169 2928 1744 2928 
Q 1347 2928 1158 2789 
Q 969 2650 878 2297 
L 328 2372 
Q 403 2725 575 2942 
Q 747 3159 1072 3276 
Q 1397 3394 1825 3394 
Q 2250 3394 2515 3294 
Q 2781 3194 2906 3042 
Q 3031 2891 3081 2659 
Q 3109 2516 3109 2141 
L 3109 1391 
Q 3109 606 3145 398 
Q 3181 191 3288 0 
L 2700 0 
Q 2613 175 2588 409 
z
M 2541 1666 
Q 2234 1541 1622 1453 
Q 1275 1403 1131 1340 
Q 988 1278 909 1158 
Q 831 1038 831 891 
Q 831 666 1001 516 
Q 1172 366 1500 366 
Q 1825 366 2078 508 
Q 2331 650 2450 897 
Q 2541 1088 2541 1459 
L 2541 1666 
z
" transform="scale(0.015625)"/>
       <path id="ArialMT-6c" d="M 409 0 
L 409 4581 
L 972 4581 
L 972 0 
L 409 0 
z
" transform="scale(0.015625)"/>
       <path id="ArialMT-2f" d="M 0 -78 
L 1328 4659 
L 1778 4659 
L 453 -78 
L 0 -78 
z
" transform="scale(0.015625)"/>
       <path id="ArialMT-66" d="M 556 0 
L 556 2881 
L 59 2881 
L 59 3319 
L 556 3319 
L 556 3672 
Q 556 4006 616 4169 
Q 697 4388 901 4523 
Q 1106 4659 1475 4659 
Q 1713 4659 2000 4603 
L 1916 4113 
Q 1741 4144 1584 4144 
Q 1328 4144 1222 4034 
Q 1116 3925 1116 3625 
L 1116 3319 
L 1763 3319 
L 1763 2881 
L 1116 2881 
L 1116 0 
L 556 0 
z
" transform="scale(0.015625)"/>
       <path id="ArialMT-69" d="M 425 3934 
L 425 4581 
L 988 4581 
L 988 3934 
L 425 3934 
z
M 425 0 
L 425 3319 
L 988 3319 
L 988 0 
L 425 0 
z
" transform="scale(0.015625)"/>
       <path id="ArialMT-78" d="M 47 0 
L 1259 1725 
L 138 3319 
L 841 3319 
L 1350 2541 
Q 1494 2319 1581 2169 
Q 1719 2375 1834 2534 
L 2394 3319 
L 3066 3319 
L 1919 1756 
L 3153 0 
L 2463 0 
L 1781 1031 
L 1600 1309 
L 728 0 
L 47 0 
z
" transform="scale(0.015625)"/>
      </defs>
      <use xlink:href="#ArialMT-43"/>
      <use xlink:href="#ArialMT-61" x="72.216797"/>
      <use xlink:href="#ArialMT-6c" x="127.832031"/>
      <use xlink:href="#ArialMT-2f" x="150.048828"/>
      <use xlink:href="#ArialMT-66" x="177.832031"/>
      <use xlink:href="#ArialMT-69" x="205.615234"/>
      <use xlink:href="#ArialMT-78" x="227.832031"/>
     </g>
    </g>
    <g id="patch_12">
     <path d="M 301.37625 165.51 
L 448.15125 165.51 
L 448.15125 138.33 
L 301.37625 138.33 
z
" style="fill: #ffffff; stroke: #1a1a1a; stroke-linejoin: miter"/>
    </g>
    <g id="text_11">
     <!-- cal -->
     <g style="fill: #262626" transform="translate(361.980938 157.090313)scale(0.2 -0.2)">
      <defs>
       <path id="ArialMT-63" d="M 2588 1216 
L 3141 1144 
Q 3050 572 2676 248 
Q 2303 -75 1759 -75 
Q 1078 -75 664 370 
Q 250 816 250 1647 
Q 250 2184 428 2587 
Q 606 2991 970 3192 
Q 1334 3394 1763 3394 
Q 2303 3394 2647 3120 
Q 2991 2847 3088 2344 
L 2541 2259 
Q 2463 2594 2264 2762 
Q 2066 2931 1784 2931 
Q 1359 2931 1093 2626 
Q 828 2322 828 1663 
Q 828 994 1084 691 
Q 1341 388 1753 388 
Q 2084 388 2306 591 
Q 2528 794 2588 1216 
z
" transform="scale(0.015625)"/>
      </defs>
      <use xlink:href="#ArialMT-63"/>
      <use xlink:href="#ArialMT-61" x="50"/>
      <use xlink:href="#ArialMT-6c" x="105.615234"/>
     </g>
    </g>
    <g id="patch_13">
     <path d="M 448.15125 165.51 
L 568.23375 165.51 
L 568.23375 138.33 
L 448.15125 138.33 
z
" style="fill: #ffffff; stroke: #1a1a1a; stroke-linejoin: miter"/>
    </g>
    <g id="text_12">
     <!-- cal -->
     <g style="fill: #262626" transform="translate(495.409688 157.090313)scale(0.2 -0.2)">
      <use xlink:href="#ArialMT-63"/>
      <use xlink:href="#ArialMT-61" x="50"/>
      <use xlink:href="#ArialMT-6c" x="105.615234"/>
     </g>
    </g>
    <g id="patch_14">
     <path d="M 568.23375 165.51 
L 690.9525 165.51 
L 690.9525 138.33 
L 568.23375 138.33 
z
" style="fill: #ffffff; stroke: #1a1a1a; stroke-linejoin: miter"/>
    </g>
    <g id="text_13">
     <!-- cal -->
     <g style="fill: #262626" transform="translate(616.810313 157.090313)scale(0.2 -0.2)">
      <use xlink:href="#ArialMT-63"/>
      <use xlink:href="#ArialMT-61" x="50"/>
      <use xlink:href="#ArialMT-6c" x="105.615234"/>
     </g>
    </g>
    <g id="patch_15">
     <path d="M 690.9525 165.51 
L 846.4725 165.51 
L 846.4725 138.33 
L 690.9525 138.33 
z
" style="fill: #ffffff; stroke: #1a1a1a; stroke-linejoin: miter"/>
    </g>
    <g id="text_14">
     <!-- cal -->
     <g style="fill: #262626" transform="translate(755.929688 157.090313)scale(0.2 -0.2)">
      <use xlink:href="#ArialMT-63"/>
      <use xlink:href="#ArialMT-61" x="50"/>
      <use xlink:href="#ArialMT-6c" x="105.615234"/>
     </g>
    </g>
    <g id="patch_16">
     <path d="M 846.4725 165.51 
L 944.8725 165.51 
L 944.8725 138.33 
L 846.4725 138.33 
z
" style="fill: #ffffff; stroke: #1a1a1a; stroke-linejoin: miter"/>
    </g>
    <g id="text_15">
     <!-- fix -->
     <g style="fill: #262626" transform="translate(885.6725 157.090313)scale(0.2 -0.2)">
      <use xlink:href="#ArialMT-66"/>
      <use xlink:href="#ArialMT-69" x="27.783203"/>
      <use xlink:href="#ArialMT-78" x="50"/>
     </g>
    </g>
    <g id="patch_17">
     <path d="M 944.8725 165.51 
L 1089.5925 165.51 
L 1089.5925 138.33 
L 944.8725 138.33 
z
" style="fill: #ffffff; stroke: #1a1a1a; stroke-linejoin: miter"/>
    </g>
    <g id="text_16">
     <!-- cal -->
     <g style="fill: #262626" transform="translate(1004.449688 157.090313)scale(0.2 -0.2)">
      <use xlink:href="#ArialMT-63"/>
      <use xlink:href="#ArialMT-61" x="50"/>
      <use xlink:href="#ArialMT-6c" x="105.615234"/>
     </g>
    </g>
    <g id="patch_18">
     <path d="M 1089.5925 165.51 
L 1236.3675 165.51 
L 1236.3675 138.33 
L 1089.5925 138.33 
z
" style="fill: #ffffff; stroke: #1a1a1a; stroke-linejoin: miter"/>
    </g>
    <g id="text_17">
     <!-- cal -->
     <g style="fill: #262626" transform="translate(1150.197187 157.090313)scale(0.2 -0.2)">
      <use xlink:href="#ArialMT-63"/>
      <use xlink:href="#ArialMT-61" x="50"/>
      <use xlink:href="#ArialMT-6c" x="105.615234"/>
     </g>
    </g>
    <g id="patch_19">
     <path d="M 1236.3675 165.51 
L 1363.0875 165.51 
L 1363.0875 138.33 
L 1236.3675 138.33 
z
" style="fill: #ffffff; stroke: #1a1a1a; stroke-linejoin: miter"/>
    </g>
    <g id="text_18">
     <!-- fix -->
     <g style="fill: #262626" transform="translate(1289.7275 157.090313)scale(0.2 -0.2)">
      <use xlink:href="#ArialMT-66"/>
      <use xlink:href="#ArialMT-69" x="27.783203"/>
      <use xlink:href="#ArialMT-78" x="50"/>
     </g>
    </g>
    <g id="patch_20">
     <path d="M 1363.0875 165.51 
L 1469.82375 165.51 
L 1469.82375 138.33 
L 1363.0875 138.33 
z
" style="fill: #ffffff; stroke: #1a1a1a; stroke-linejoin: miter"/>
    </g>
    <g id="text_19">
     <!-- cal -->
     <g style="fill: #262626" transform="translate(1403.672812 157.090313)scale(0.2 -0.2)">
      <use xlink:href="#ArialMT-63"/>
      <use xlink:href="#ArialMT-61" x="50"/>
      <use xlink:href="#ArialMT-6c" x="105.615234"/>
     </g>
    </g>
    <g id="patch_21">
     <path d="M 219.9825 192.69 
L 301.37625 192.69 
L 301.37625 165.51 
L 219.9825 165.51 
z
" style="fill: #ffffff; stroke: #1a1a1a; stroke-linejoin: miter"/>
    </g>
    <g id="text_20">
     <!-- Bounds -->
     <g style="fill: #262626" transform="translate(228.121875 184.270313)scale(0.2 -0.2)">
      <defs>
       <path id="ArialMT-42" d="M 469 0 
L 469 4581 
L 2188 4581 
Q 2713 4581 3030 4442 
Q 3347 4303 3526 4014 
Q 3706 3725 3706 3409 
Q 3706 3116 3547 2856 
Q 3388 2597 3066 2438 
Q 3481 2316 3704 2022 
Q 3928 1728 3928 1328 
Q 3928 1006 3792 729 
Q 3656 453 3456 303 
Q 3256 153 2954 76 
Q 2653 0 2216 0 
L 469 0 
z
M 1075 2656 
L 2066 2656 
Q 2469 2656 2644 2709 
Q 2875 2778 2992 2937 
Q 3109 3097 3109 3338 
Q 3109 3566 3000 3739 
Q 2891 3913 2687 3977 
Q 2484 4041 1991 4041 
L 1075 4041 
L 1075 2656 
z
M 1075 541 
L 2216 541 
Q 2509 541 2628 563 
Q 2838 600 2978 687 
Q 3119 775 3209 942 
Q 3300 1109 3300 1328 
Q 3300 1584 3169 1773 
Q 3038 1963 2805 2039 
Q 2572 2116 2134 2116 
L 1075 2116 
L 1075 541 
z
" transform="scale(0.015625)"/>
       <path id="ArialMT-6f" d="M 213 1659 
Q 213 2581 725 3025 
Q 1153 3394 1769 3394 
Q 2453 3394 2887 2945 
Q 3322 2497 3322 1706 
Q 3322 1066 3130 698 
Q 2938 331 2570 128 
Q 2203 -75 1769 -75 
Q 1072 -75 642 372 
Q 213 819 213 1659 
z
M 791 1659 
Q 791 1022 1069 705 
Q 1347 388 1769 388 
Q 2188 388 2466 706 
Q 2744 1025 2744 1678 
Q 2744 2294 2464 2611 
Q 2184 2928 1769 2928 
Q 1347 2928 1069 2612 
Q 791 2297 791 1659 
z
" transform="scale(0.015625)"/>
       <path id="ArialMT-75" d="M 2597 0 
L 2597 488 
Q 2209 -75 1544 -75 
Q 1250 -75 995 37 
Q 741 150 617 320 
Q 494 491 444 738 
Q 409 903 409 1263 
L 409 3319 
L 972 3319 
L 972 1478 
Q 972 1038 1006 884 
Q 1059 663 1231 536 
Q 1403 409 1656 409 
Q 1909 409 2131 539 
Q 2353 669 2445 892 
Q 2538 1116 2538 1541 
L 2538 3319 
L 3100 3319 
L 3100 0 
L 2597 0 
z
" transform="scale(0.015625)"/>
       <path id="ArialMT-6e" d="M 422 0 
L 422 3319 
L 928 3319 
L 928 2847 
Q 1294 3394 1984 3394 
Q 2284 3394 2536 3286 
Q 2788 3178 2913 3003 
Q 3038 2828 3088 2588 
Q 3119 2431 3119 2041 
L 3119 0 
L 2556 0 
L 2556 2019 
Q 2556 2363 2490 2533 
Q 2425 2703 2258 2804 
Q 2091 2906 1866 2906 
Q 1506 2906 1245 2678 
Q 984 2450 984 1813 
L 984 0 
L 422 0 
z
" transform="scale(0.015625)"/>
       <path id="ArialMT-64" d="M 2575 0 
L 2575 419 
Q 2259 -75 1647 -75 
Q 1250 -75 917 144 
Q 584 363 401 755 
Q 219 1147 219 1656 
Q 219 2153 384 2558 
Q 550 2963 881 3178 
Q 1213 3394 1622 3394 
Q 1922 3394 2156 3267 
Q 2391 3141 2538 2938 
L 2538 4581 
L 3097 4581 
L 3097 0 
L 2575 0 
z
M 797 1656 
Q 797 1019 1065 703 
Q 1334 388 1700 388 
Q 2069 388 2326 689 
Q 2584 991 2584 1609 
Q 2584 2291 2321 2609 
Q 2059 2928 1675 2928 
Q 1300 2928 1048 2622 
Q 797 2316 797 1656 
z
" transform="scale(0.015625)"/>
       <path id="ArialMT-73" d="M 197 991 
L 753 1078 
Q 800 744 1014 566 
Q 1228 388 1613 388 
Q 2000 388 2187 545 
Q 2375 703 2375 916 
Q 2375 1106 2209 1216 
Q 2094 1291 1634 1406 
Q 1016 1563 777 1677 
Q 538 1791 414 1992 
Q 291 2194 291 2438 
Q 291 2659 392 2848 
Q 494 3038 669 3163 
Q 800 3259 1026 3326 
Q 1253 3394 1513 3394 
Q 1903 3394 2198 3281 
Q 2494 3169 2634 2976 
Q 2775 2784 2828 2463 
L 2278 2388 
Q 2241 2644 2061 2787 
Q 1881 2931 1553 2931 
Q 1166 2931 1000 2803 
Q 834 2675 834 2503 
Q 834 2394 903 2306 
Q 972 2216 1119 2156 
Q 1203 2125 1616 2013 
Q 2213 1853 2448 1751 
Q 2684 1650 2818 1456 
Q 2953 1263 2953 975 
Q 2953 694 2789 445 
Q 2625 197 2315 61 
Q 2006 -75 1616 -75 
Q 969 -75 630 194 
Q 291 463 197 991 
z
" transform="scale(0.015625)"/>
      </defs>
      <use xlink:href="#ArialMT-42"/>
      <use xlink:href="#ArialMT-6f" x="66.699219"/>
      <use xlink:href="#ArialMT-75" x="122.314453"/>
      <use xlink:href="#ArialMT-6e" x="177.929688"/>
      <use xlink:href="#ArialMT-64" x="233.544922"/>
      <use xlink:href="#ArialMT-73" x="289.160156"/>
     </g>
    </g>
    <g id="patch_22">
     <path d="M 301.37625 192.69 
L 448.15125 192.69 
L 448.15125 165.51 
L 301.37625 165.51 
z
" style="fill: #ffffff; stroke: #1a1a1a; stroke-linejoin: miter"/>
    </g>
    <g id="text_21">
     <!-- [0.0, 5.0] -->
     <g style="fill: #262626" transform="translate(335.85125 184.3)scale(0.2 -0.2)">
      <defs>
       <path id="ArialMT-5b" d="M 434 -1272 
L 434 4581 
L 1675 4581 
L 1675 4116 
L 997 4116 
L 997 -806 
L 1675 -806 
L 1675 -1272 
L 434 -1272 
z
" transform="scale(0.015625)"/>
       <path id="ArialMT-30" d="M 266 2259 
Q 266 3072 433 3567 
Q 600 4063 929 4331 
Q 1259 4600 1759 4600 
Q 2128 4600 2406 4451 
Q 2684 4303 2865 4023 
Q 3047 3744 3150 3342 
Q 3253 2941 3253 2259 
Q 3253 1453 3087 958 
Q 2922 463 2592 192 
Q 2263 -78 1759 -78 
Q 1097 -78 719 397 
Q 266 969 266 2259 
z
M 844 2259 
Q 844 1131 1108 757 
Q 1372 384 1759 384 
Q 2147 384 2411 759 
Q 2675 1134 2675 2259 
Q 2675 3391 2411 3762 
Q 2147 4134 1753 4134 
Q 1366 4134 1134 3806 
Q 844 3388 844 2259 
z
" transform="scale(0.015625)"/>
       <path id="ArialMT-2e" d="M 581 0 
L 581 641 
L 1222 641 
L 1222 0 
L 581 0 
z
" transform="scale(0.015625)"/>
       <path id="ArialMT-2c" d="M 569 0 
L 569 641 
L 1209 641 
L 1209 0 
Q 1209 -353 1084 -570 
Q 959 -788 688 -906 
L 531 -666 
Q 709 -588 793 -436 
Q 878 -284 888 0 
L 569 0 
z
" transform="scale(0.015625)"/>
       <path id="ArialMT-20" transform="scale(0.015625)"/>
       <path id="ArialMT-35" d="M 266 1200 
L 856 1250 
Q 922 819 1161 601 
Q 1400 384 1738 384 
Q 2144 384 2425 690 
Q 2706 997 2706 1503 
Q 2706 1984 2436 2262 
Q 2166 2541 1728 2541 
Q 1456 2541 1237 2417 
Q 1019 2294 894 2097 
L 366 2166 
L 809 4519 
L 3088 4519 
L 3088 3981 
L 1259 3981 
L 1013 2750 
Q 1425 3038 1878 3038 
Q 2478 3038 2890 2622 
Q 3303 2206 3303 1553 
Q 3303 931 2941 478 
Q 2500 -78 1738 -78 
Q 1113 -78 717 272 
Q 322 622 266 1200 
z
" transform="scale(0.015625)"/>
       <path id="ArialMT-5d" d="M 1363 -1272 
L 122 -1272 
L 122 -806 
L 800 -806 
L 800 4116 
L 122 4116 
L 122 4581 
L 1363 4581 
L 1363 -1272 
z
" transform="scale(0.015625)"/>
      </defs>
      <use xlink:href="#ArialMT-5b"/>
      <use xlink:href="#ArialMT-30" x="27.783203"/>
      <use xlink:href="#ArialMT-2e" x="83.398438"/>
      <use xlink:href="#ArialMT-30" x="111.181641"/>
      <use xlink:href="#ArialMT-2c" x="166.796875"/>
      <use xlink:href="#ArialMT-20" x="194.580078"/>
      <use xlink:href="#ArialMT-35" x="222.363281"/>
      <use xlink:href="#ArialMT-2e" x="277.978516"/>
      <use xlink:href="#ArialMT-30" x="305.761719"/>
      <use xlink:href="#ArialMT-5d" x="361.376953"/>
     </g>
    </g>
    <g id="patch_23">
     <path d="M 448.15125 192.69 
L 568.23375 192.69 
L 568.23375 165.51 
L 448.15125 165.51 
z
" style="fill: #ffffff; stroke: #1a1a1a; stroke-linejoin: miter"/>
    </g>
    <g id="text_22">
     <!-- [0.0, 3.0] -->
     <g style="fill: #262626" transform="translate(469.28 184.3)scale(0.2 -0.2)">
      <defs>
       <path id="ArialMT-33" d="M 269 1209 
L 831 1284 
Q 928 806 1161 595 
Q 1394 384 1728 384 
Q 2125 384 2398 659 
Q 2672 934 2672 1341 
Q 2672 1728 2419 1979 
Q 2166 2231 1775 2231 
Q 1616 2231 1378 2169 
L 1441 2663 
Q 1497 2656 1531 2656 
Q 1891 2656 2178 2843 
Q 2466 3031 2466 3422 
Q 2466 3731 2256 3934 
Q 2047 4138 1716 4138 
Q 1388 4138 1169 3931 
Q 950 3725 888 3313 
L 325 3413 
Q 428 3978 793 4289 
Q 1159 4600 1703 4600 
Q 2078 4600 2393 4439 
Q 2709 4278 2876 4000 
Q 3044 3722 3044 3409 
Q 3044 3113 2884 2869 
Q 2725 2625 2413 2481 
Q 2819 2388 3044 2092 
Q 3269 1797 3269 1353 
Q 3269 753 2831 336 
Q 2394 -81 1725 -81 
Q 1122 -81 723 278 
Q 325 638 269 1209 
z
" transform="scale(0.015625)"/>
      </defs>
      <use xlink:href="#ArialMT-5b"/>
      <use xlink:href="#ArialMT-30" x="27.783203"/>
      <use xlink:href="#ArialMT-2e" x="83.398438"/>
      <use xlink:href="#ArialMT-30" x="111.181641"/>
      <use xlink:href="#ArialMT-2c" x="166.796875"/>
      <use xlink:href="#ArialMT-20" x="194.580078"/>
      <use xlink:href="#ArialMT-33" x="222.363281"/>
      <use xlink:href="#ArialMT-2e" x="277.978516"/>
      <use xlink:href="#ArialMT-30" x="305.761719"/>
      <use xlink:href="#ArialMT-5d" x="361.376953"/>
     </g>
    </g>
    <g id="patch_24">
     <path d="M 568.23375 192.69 
L 690.9525 192.69 
L 690.9525 165.51 
L 568.23375 165.51 
z
" style="fill: #ffffff; stroke: #1a1a1a; stroke-linejoin: miter"/>
    </g>
    <g id="text_23">
     <!-- [-30.0, -5.0] -->
     <g style="fill: #262626" transform="translate(578.460313 184.3)scale(0.2 -0.2)">
      <defs>
       <path id="ArialMT-2d" d="M 203 1375 
L 203 1941 
L 1931 1941 
L 1931 1375 
L 203 1375 
z
" transform="scale(0.015625)"/>
      </defs>
      <use xlink:href="#ArialMT-5b"/>
      <use xlink:href="#ArialMT-2d" x="27.783203"/>
      <use xlink:href="#ArialMT-33" x="61.083984"/>
      <use xlink:href="#ArialMT-30" x="116.699219"/>
      <use xlink:href="#ArialMT-2e" x="172.314453"/>
      <use xlink:href="#ArialMT-30" x="200.097656"/>
      <use xlink:href="#ArialMT-2c" x="255.712891"/>
      <use xlink:href="#ArialMT-20" x="283.496094"/>
      <use xlink:href="#ArialMT-2d" x="311.279297"/>
      <use xlink:href="#ArialMT-35" x="344.580078"/>
      <use xlink:href="#ArialMT-2e" x="400.195312"/>
      <use xlink:href="#ArialMT-30" x="427.978516"/>
      <use xlink:href="#ArialMT-5d" x="483.59375"/>
     </g>
    </g>
    <g id="patch_25">
     <path d="M 690.9525 192.69 
L 846.4725 192.69 
L 846.4725 165.51 
L 690.9525 165.51 
z
" style="fill: #ffffff; stroke: #1a1a1a; stroke-linejoin: miter"/>
    </g>
    <g id="text_24">
     <!-- [10.0, 100.0] -->
     <g style="fill: #262626" transform="translate(713.117188 184.3)scale(0.2 -0.2)">
      <defs>
       <path id="ArialMT-31" d="M 2384 0 
L 1822 0 
L 1822 3584 
Q 1619 3391 1289 3197 
Q 959 3003 697 2906 
L 697 3450 
Q 1169 3672 1522 3987 
Q 1875 4303 2022 4600 
L 2384 4600 
L 2384 0 
z
" transform="scale(0.015625)"/>
      </defs>
      <use xlink:href="#ArialMT-5b"/>
      <use xlink:href="#ArialMT-31" x="27.783203"/>
      <use xlink:href="#ArialMT-30" x="83.398438"/>
      <use xlink:href="#ArialMT-2e" x="139.013672"/>
      <use xlink:href="#ArialMT-30" x="166.796875"/>
      <use xlink:href="#ArialMT-2c" x="222.412109"/>
      <use xlink:href="#ArialMT-20" x="250.195312"/>
      <use xlink:href="#ArialMT-31" x="277.978516"/>
      <use xlink:href="#ArialMT-30" x="333.59375"/>
      <use xlink:href="#ArialMT-30" x="389.208984"/>
      <use xlink:href="#ArialMT-2e" x="444.824219"/>
      <use xlink:href="#ArialMT-30" x="472.607422"/>
      <use xlink:href="#ArialMT-5d" x="528.222656"/>
     </g>
    </g>
    <g id="patch_26">
     <path d="M 846.4725 192.69 
L 944.8725 192.69 
L 944.8725 165.51 
L 846.4725 165.51 
z
" style="fill: #ffffff; stroke: #1a1a1a; stroke-linejoin: miter"/>
    </g>
    <g id="text_25">
     <!-- ['/', '/'] -->
     <g style="fill: #262626" transform="translate(871.36625 184.392188)scale(0.2 -0.2)">
      <defs>
       <path id="ArialMT-27" d="M 425 2959 
L 281 3816 
L 281 4581 
L 922 4581 
L 922 3816 
L 772 2959 
L 425 2959 
z
" transform="scale(0.015625)"/>
      </defs>
      <use xlink:href="#ArialMT-5b"/>
      <use xlink:href="#ArialMT-27" x="27.783203"/>
      <use xlink:href="#ArialMT-2f" x="46.875"/>
      <use xlink:href="#ArialMT-27" x="74.658203"/>
      <use xlink:href="#ArialMT-2c" x="93.75"/>
      <use xlink:href="#ArialMT-20" x="121.533203"/>
      <use xlink:href="#ArialMT-27" x="149.316406"/>
      <use xlink:href="#ArialMT-2f" x="168.408203"/>
      <use xlink:href="#ArialMT-27" x="196.191406"/>
      <use xlink:href="#ArialMT-5d" x="215.283203"/>
     </g>
    </g>
    <g id="patch_27">
     <path d="M 944.8725 192.69 
L 1089.5925 192.69 
L 1089.5925 165.51 
L 944.8725 165.51 
z
" style="fill: #ffffff; stroke: #1a1a1a; stroke-linejoin: miter"/>
    </g>
    <g id="text_26">
     <!-- [0.29, 0.35] -->
     <g style="fill: #262626" transform="translate(967.198125 184.3)scale(0.2 -0.2)">
      <defs>
       <path id="ArialMT-32" d="M 3222 541 
L 3222 0 
L 194 0 
Q 188 203 259 391 
Q 375 700 629 1000 
Q 884 1300 1366 1694 
Q 2113 2306 2375 2664 
Q 2638 3022 2638 3341 
Q 2638 3675 2398 3904 
Q 2159 4134 1775 4134 
Q 1369 4134 1125 3890 
Q 881 3647 878 3216 
L 300 3275 
Q 359 3922 746 4261 
Q 1134 4600 1788 4600 
Q 2447 4600 2831 4234 
Q 3216 3869 3216 3328 
Q 3216 3053 3103 2787 
Q 2991 2522 2730 2228 
Q 2469 1934 1863 1422 
Q 1356 997 1212 845 
Q 1069 694 975 541 
L 3222 541 
z
" transform="scale(0.015625)"/>
       <path id="ArialMT-39" d="M 350 1059 
L 891 1109 
Q 959 728 1153 556 
Q 1347 384 1650 384 
Q 1909 384 2104 503 
Q 2300 622 2425 820 
Q 2550 1019 2634 1356 
Q 2719 1694 2719 2044 
Q 2719 2081 2716 2156 
Q 2547 1888 2255 1720 
Q 1963 1553 1622 1553 
Q 1053 1553 659 1965 
Q 266 2378 266 3053 
Q 266 3750 677 4175 
Q 1088 4600 1706 4600 
Q 2153 4600 2523 4359 
Q 2894 4119 3086 3673 
Q 3278 3228 3278 2384 
Q 3278 1506 3087 986 
Q 2897 466 2520 194 
Q 2144 -78 1638 -78 
Q 1100 -78 759 220 
Q 419 519 350 1059 
z
M 2653 3081 
Q 2653 3566 2395 3850 
Q 2138 4134 1775 4134 
Q 1400 4134 1122 3828 
Q 844 3522 844 3034 
Q 844 2597 1108 2323 
Q 1372 2050 1759 2050 
Q 2150 2050 2401 2323 
Q 2653 2597 2653 3081 
z
" transform="scale(0.015625)"/>
      </defs>
      <use xlink:href="#ArialMT-5b"/>
      <use xlink:href="#ArialMT-30" x="27.783203"/>
      <use xlink:href="#ArialMT-2e" x="83.398438"/>
      <use xlink:href="#ArialMT-32" x="111.181641"/>
      <use xlink:href="#ArialMT-39" x="166.796875"/>
      <use xlink:href="#ArialMT-2c" x="222.412109"/>
      <use xlink:href="#ArialMT-20" x="250.195312"/>
      <use xlink:href="#ArialMT-30" x="277.978516"/>
      <use xlink:href="#ArialMT-2e" x="333.59375"/>
      <use xlink:href="#ArialMT-33" x="361.376953"/>
      <use xlink:href="#ArialMT-35" x="416.992188"/>
      <use xlink:href="#ArialMT-5d" x="472.607422"/>
     </g>
    </g>
    <g id="patch_28">
     <path d="M 1089.5925 192.69 
L 1236.3675 192.69 
L 1236.3675 165.51 
L 1089.5925 165.51 
z
" style="fill: #ffffff; stroke: #1a1a1a; stroke-linejoin: miter"/>
    </g>
    <g id="text_27">
     <!-- [0.06, 0.12] -->
     <g style="fill: #262626" transform="translate(1112.945625 184.3)scale(0.2 -0.2)">
      <defs>
       <path id="ArialMT-36" d="M 3184 3459 
L 2625 3416 
Q 2550 3747 2413 3897 
Q 2184 4138 1850 4138 
Q 1581 4138 1378 3988 
Q 1113 3794 959 3422 
Q 806 3050 800 2363 
Q 1003 2672 1297 2822 
Q 1591 2972 1913 2972 
Q 2475 2972 2870 2558 
Q 3266 2144 3266 1488 
Q 3266 1056 3080 686 
Q 2894 316 2569 119 
Q 2244 -78 1831 -78 
Q 1128 -78 684 439 
Q 241 956 241 2144 
Q 241 3472 731 4075 
Q 1159 4600 1884 4600 
Q 2425 4600 2770 4297 
Q 3116 3994 3184 3459 
z
M 888 1484 
Q 888 1194 1011 928 
Q 1134 663 1356 523 
Q 1578 384 1822 384 
Q 2178 384 2434 671 
Q 2691 959 2691 1453 
Q 2691 1928 2437 2201 
Q 2184 2475 1800 2475 
Q 1419 2475 1153 2201 
Q 888 1928 888 1484 
z
" transform="scale(0.015625)"/>
      </defs>
      <use xlink:href="#ArialMT-5b"/>
      <use xlink:href="#ArialMT-30" x="27.783203"/>
      <use xlink:href="#ArialMT-2e" x="83.398438"/>
      <use xlink:href="#ArialMT-30" x="111.181641"/>
      <use xlink:href="#ArialMT-36" x="166.796875"/>
      <use xlink:href="#ArialMT-2c" x="222.412109"/>
      <use xlink:href="#ArialMT-20" x="250.195312"/>
      <use xlink:href="#ArialMT-30" x="277.978516"/>
      <use xlink:href="#ArialMT-2e" x="333.59375"/>
      <use xlink:href="#ArialMT-31" x="361.376953"/>
      <use xlink:href="#ArialMT-32" x="416.992188"/>
      <use xlink:href="#ArialMT-5d" x="472.607422"/>
     </g>
    </g>
    <g id="patch_29">
     <path d="M 1236.3675 192.69 
L 1363.0875 192.69 
L 1363.0875 165.51 
L 1236.3675 165.51 
z
" style="fill: #ffffff; stroke: #1a1a1a; stroke-linejoin: miter"/>
    </g>
    <g id="text_28">
     <!-- ['/', '/'] -->
     <g style="fill: #262626" transform="translate(1275.42125 184.392188)scale(0.2 -0.2)">
      <use xlink:href="#ArialMT-5b"/>
      <use xlink:href="#ArialMT-27" x="27.783203"/>
      <use xlink:href="#ArialMT-2f" x="46.875"/>
      <use xlink:href="#ArialMT-27" x="74.658203"/>
      <use xlink:href="#ArialMT-2c" x="93.75"/>
      <use xlink:href="#ArialMT-20" x="121.533203"/>
      <use xlink:href="#ArialMT-27" x="149.316406"/>
      <use xlink:href="#ArialMT-2f" x="168.408203"/>
      <use xlink:href="#ArialMT-27" x="196.191406"/>
      <use xlink:href="#ArialMT-5d" x="215.283203"/>
     </g>
    </g>
    <g id="patch_30">
     <path d="M 1363.0875 192.69 
L 1469.82375 192.69 
L 1469.82375 165.51 
L 1363.0875 165.51 
z
" style="fill: #ffffff; stroke: #1a1a1a; stroke-linejoin: miter"/>
    </g>
    <g id="text_29">
     <!-- [0.0, 2.0] -->
     <g style="fill: #262626" transform="translate(1377.543125 184.3)scale(0.2 -0.2)">
      <use xlink:href="#ArialMT-5b"/>
      <use xlink:href="#ArialMT-30" x="27.783203"/>
      <use xlink:href="#ArialMT-2e" x="83.398438"/>
      <use xlink:href="#ArialMT-30" x="111.181641"/>
      <use xlink:href="#ArialMT-2c" x="166.796875"/>
      <use xlink:href="#ArialMT-20" x="194.580078"/>
      <use xlink:href="#ArialMT-32" x="222.363281"/>
      <use xlink:href="#ArialMT-2e" x="277.978516"/>
      <use xlink:href="#ArialMT-30" x="305.761719"/>
      <use xlink:href="#ArialMT-5d" x="361.376953"/>
     </g>
    </g>
    <g id="patch_31">
     <path d="M 219.9825 219.87 
L 301.37625 219.87 
L 301.37625 192.69 
L 219.9825 192.69 
z
" style="fill: #ffffff; stroke: #1a1a1a; stroke-linejoin: miter"/>
    </g>
    <g id="text_30">
     <!-- Median -->
     <g style="fill: #262626" transform="translate(228.121875 211.450313)scale(0.2 -0.2)">
      <defs>
       <path id="ArialMT-4d" d="M 475 0 
L 475 4581 
L 1388 4581 
L 2472 1338 
Q 2622 884 2691 659 
Q 2769 909 2934 1394 
L 4031 4581 
L 4847 4581 
L 4847 0 
L 4263 0 
L 4263 3834 
L 2931 0 
L 2384 0 
L 1059 3900 
L 1059 0 
L 475 0 
z
" transform="scale(0.015625)"/>
       <path id="ArialMT-65" d="M 2694 1069 
L 3275 997 
Q 3138 488 2766 206 
Q 2394 -75 1816 -75 
Q 1088 -75 661 373 
Q 234 822 234 1631 
Q 234 2469 665 2931 
Q 1097 3394 1784 3394 
Q 2450 3394 2872 2941 
Q 3294 2488 3294 1666 
Q 3294 1616 3291 1516 
L 816 1516 
Q 847 969 1125 678 
Q 1403 388 1819 388 
Q 2128 388 2347 550 
Q 2566 713 2694 1069 
z
M 847 1978 
L 2700 1978 
Q 2663 2397 2488 2606 
Q 2219 2931 1791 2931 
Q 1403 2931 1139 2672 
Q 875 2413 847 1978 
z
" transform="scale(0.015625)"/>
      </defs>
      <use xlink:href="#ArialMT-4d"/>
      <use xlink:href="#ArialMT-65" x="83.300781"/>
      <use xlink:href="#ArialMT-64" x="138.916016"/>
      <use xlink:href="#ArialMT-69" x="194.53125"/>
      <use xlink:href="#ArialMT-61" x="216.748047"/>
      <use xlink:href="#ArialMT-6e" x="272.363281"/>
     </g>
    </g>
    <g id="patch_32">
     <path d="M 301.37625 219.87 
L 448.15125 219.87 
L 448.15125 192.69 
L 301.37625 192.69 
z
" style="fill: #ffffff; stroke: #1a1a1a; stroke-linejoin: miter"/>
    </g>
    <g id="text_31">
     <!-- 0.347 -->
     <g style="fill: #262626" transform="translate(349.741875 211.450313)scale(0.2 -0.2)">
      <defs>
       <path id="ArialMT-34" d="M 2069 0 
L 2069 1097 
L 81 1097 
L 81 1613 
L 2172 4581 
L 2631 4581 
L 2631 1613 
L 3250 1613 
L 3250 1097 
L 2631 1097 
L 2631 0 
L 2069 0 
z
M 2069 1613 
L 2069 3678 
L 634 1613 
L 2069 1613 
z
" transform="scale(0.015625)"/>
       <path id="ArialMT-37" d="M 303 3981 
L 303 4522 
L 3269 4522 
L 3269 4084 
Q 2831 3619 2401 2847 
Q 1972 2075 1738 1259 
Q 1569 684 1522 0 
L 944 0 
Q 953 541 1156 1306 
Q 1359 2072 1739 2783 
Q 2119 3494 2547 3981 
L 303 3981 
z
" transform="scale(0.015625)"/>
      </defs>
      <use xlink:href="#ArialMT-30"/>
      <use xlink:href="#ArialMT-2e" x="55.615234"/>
      <use xlink:href="#ArialMT-33" x="83.398438"/>
      <use xlink:href="#ArialMT-34" x="139.013672"/>
      <use xlink:href="#ArialMT-37" x="194.628906"/>
     </g>
    </g>
    <g id="patch_33">
     <path d="M 448.15125 219.87 
L 568.23375 219.87 
L 568.23375 192.69 
L 448.15125 192.69 
z
" style="fill: #ffffff; stroke: #1a1a1a; stroke-linejoin: miter"/>
    </g>
    <g id="text_32">
     <!-- 0.69 -->
     <g style="fill: #262626" transform="translate(488.731563 211.450313)scale(0.2 -0.2)">
      <use xlink:href="#ArialMT-30"/>
      <use xlink:href="#ArialMT-2e" x="55.615234"/>
      <use xlink:href="#ArialMT-36" x="83.398438"/>
      <use xlink:href="#ArialMT-39" x="139.013672"/>
     </g>
    </g>
    <g id="patch_34">
     <path d="M 568.23375 219.87 
L 690.9525 219.87 
L 690.9525 192.69 
L 568.23375 192.69 
z
" style="fill: #ffffff; stroke: #1a1a1a; stroke-linejoin: miter"/>
    </g>
    <g id="text_33">
     <!-- -14.5 -->
     <g style="fill: #262626" transform="translate(606.8025 211.450313)scale(0.2 -0.2)">
      <use xlink:href="#ArialMT-2d"/>
      <use xlink:href="#ArialMT-31" x="33.300781"/>
      <use xlink:href="#ArialMT-34" x="88.916016"/>
      <use xlink:href="#ArialMT-2e" x="144.53125"/>
      <use xlink:href="#ArialMT-35" x="172.314453"/>
     </g>
    </g>
    <g id="patch_35">
     <path d="M 690.9525 219.87 
L 846.4725 219.87 
L 846.4725 192.69 
L 690.9525 192.69 
z
" style="fill: #ffffff; stroke: #1a1a1a; stroke-linejoin: miter"/>
    </g>
    <g id="text_34">
     <!-- 29.2 -->
     <g style="fill: #262626" transform="translate(749.251563 211.450313)scale(0.2 -0.2)">
      <use xlink:href="#ArialMT-32"/>
      <use xlink:href="#ArialMT-39" x="55.615234"/>
      <use xlink:href="#ArialMT-2e" x="111.230469"/>
      <use xlink:href="#ArialMT-32" x="139.013672"/>
     </g>
    </g>
    <g id="patch_36">
     <path d="M 846.4725 219.87 
L 944.8725 219.87 
L 944.8725 192.69 
L 846.4725 192.69 
z
" style="fill: #ffffff; stroke: #1a1a1a; stroke-linejoin: miter"/>
    </g>
    <g id="text_35">
     <!-- 1 -->
     <g style="fill: #262626" transform="translate(890.111563 211.450313)scale(0.2 -0.2)">
      <use xlink:href="#ArialMT-31"/>
     </g>
    </g>
    <g id="patch_37">
     <path d="M 944.8725 219.87 
L 1089.5925 219.87 
L 1089.5925 192.69 
L 944.8725 192.69 
z
" style="fill: #ffffff; stroke: #1a1a1a; stroke-linejoin: miter"/>
    </g>
    <g id="text_36">
     <!-- 0.32 -->
     <g style="fill: #262626" transform="translate(997.771563 211.450313)scale(0.2 -0.2)">
      <use xlink:href="#ArialMT-30"/>
      <use xlink:href="#ArialMT-2e" x="55.615234"/>
      <use xlink:href="#ArialMT-33" x="83.398438"/>
      <use xlink:href="#ArialMT-32" x="139.013672"/>
     </g>
    </g>
    <g id="patch_38">
     <path d="M 1089.5925 219.87 
L 1236.3675 219.87 
L 1236.3675 192.69 
L 1089.5925 192.69 
z
" style="fill: #ffffff; stroke: #1a1a1a; stroke-linejoin: miter"/>
    </g>
    <g id="text_37">
     <!-- 0.098 -->
     <g style="fill: #262626" transform="translate(1137.958125 211.450313)scale(0.2 -0.2)">
      <defs>
       <path id="ArialMT-38" d="M 1131 2484 
Q 781 2613 612 2850 
Q 444 3088 444 3419 
Q 444 3919 803 4259 
Q 1163 4600 1759 4600 
Q 2359 4600 2725 4251 
Q 3091 3903 3091 3403 
Q 3091 3084 2923 2848 
Q 2756 2613 2416 2484 
Q 2838 2347 3058 2040 
Q 3278 1734 3278 1309 
Q 3278 722 2862 322 
Q 2447 -78 1769 -78 
Q 1091 -78 675 323 
Q 259 725 259 1325 
Q 259 1772 486 2073 
Q 713 2375 1131 2484 
z
M 1019 3438 
Q 1019 3113 1228 2906 
Q 1438 2700 1772 2700 
Q 2097 2700 2305 2904 
Q 2513 3109 2513 3406 
Q 2513 3716 2298 3927 
Q 2084 4138 1766 4138 
Q 1444 4138 1231 3931 
Q 1019 3725 1019 3438 
z
M 838 1322 
Q 838 1081 952 856 
Q 1066 631 1291 507 
Q 1516 384 1775 384 
Q 2178 384 2440 643 
Q 2703 903 2703 1303 
Q 2703 1709 2433 1975 
Q 2163 2241 1756 2241 
Q 1359 2241 1098 1978 
Q 838 1716 838 1322 
z
" transform="scale(0.015625)"/>
      </defs>
      <use xlink:href="#ArialMT-30"/>
      <use xlink:href="#ArialMT-2e" x="55.615234"/>
      <use xlink:href="#ArialMT-30" x="83.398438"/>
      <use xlink:href="#ArialMT-39" x="139.013672"/>
      <use xlink:href="#ArialMT-38" x="194.628906"/>
     </g>
    </g>
    <g id="patch_39">
     <path d="M 1236.3675 219.87 
L 1363.0875 219.87 
L 1363.0875 192.69 
L 1236.3675 192.69 
z
" style="fill: #ffffff; stroke: #1a1a1a; stroke-linejoin: miter"/>
    </g>
    <g id="text_38">
     <!-- 0.5 -->
     <g style="fill: #262626" transform="translate(1285.8275 211.450313)scale(0.2 -0.2)">
      <use xlink:href="#ArialMT-30"/>
      <use xlink:href="#ArialMT-2e" x="55.615234"/>
      <use xlink:href="#ArialMT-35" x="83.398438"/>
     </g>
    </g>
    <g id="patch_40">
     <path d="M 1363.0875 219.87 
L 1469.82375 219.87 
L 1469.82375 192.69 
L 1363.0875 192.69 
z
" style="fill: #ffffff; stroke: #1a1a1a; stroke-linejoin: miter"/>
    </g>
    <g id="text_39">
     <!-- 0.28 -->
     <g style="fill: #262626" transform="translate(1396.994687 211.450313)scale(0.2 -0.2)">
      <use xlink:href="#ArialMT-30"/>
      <use xlink:href="#ArialMT-2e" x="55.615234"/>
      <use xlink:href="#ArialMT-32" x="83.398438"/>
      <use xlink:href="#ArialMT-38" x="139.013672"/>
     </g>
    </g>
    <g id="patch_41">
     <path d="M 219.9825 247.05 
L 301.37625 247.05 
L 301.37625 219.87 
L 219.9825 219.87 
z
" style="fill: #ffffff; stroke: #1a1a1a; stroke-linejoin: miter"/>
    </g>
    <g id="text_40">
     <!-- Err -->
     <g style="fill: #262626" transform="translate(228.121875 238.630313)scale(0.2 -0.2)">
      <defs>
       <path id="ArialMT-45" d="M 506 0 
L 506 4581 
L 3819 4581 
L 3819 4041 
L 1113 4041 
L 1113 2638 
L 3647 2638 
L 3647 2100 
L 1113 2100 
L 1113 541 
L 3925 541 
L 3925 0 
L 506 0 
z
" transform="scale(0.015625)"/>
       <path id="ArialMT-72" d="M 416 0 
L 416 3319 
L 922 3319 
L 922 2816 
Q 1116 3169 1280 3281 
Q 1444 3394 1641 3394 
Q 1925 3394 2219 3213 
L 2025 2691 
Q 1819 2813 1613 2813 
Q 1428 2813 1281 2702 
Q 1134 2591 1072 2394 
Q 978 2094 978 1738 
L 978 0 
L 416 0 
z
" transform="scale(0.015625)"/>
      </defs>
      <use xlink:href="#ArialMT-45"/>
      <use xlink:href="#ArialMT-72" x="66.699219"/>
      <use xlink:href="#ArialMT-72" x="100"/>
     </g>
    </g>
    <g id="patch_42">
     <path d="M 301.37625 247.05 
L 448.15125 247.05 
L 448.15125 219.87 
L 301.37625 219.87 
z
" style="fill: #ffffff; stroke: #1a1a1a; stroke-linejoin: miter"/>
    </g>
    <g id="text_41">
     <!-- [0.004, 0.012] -->
     <g style="fill: #262626" transform="translate(313.6075 238.66)scale(0.2 -0.2)">
      <use xlink:href="#ArialMT-5b"/>
      <use xlink:href="#ArialMT-30" x="27.783203"/>
      <use xlink:href="#ArialMT-2e" x="83.398438"/>
      <use xlink:href="#ArialMT-30" x="111.181641"/>
      <use xlink:href="#ArialMT-30" x="166.796875"/>
      <use xlink:href="#ArialMT-34" x="222.412109"/>
      <use xlink:href="#ArialMT-2c" x="278.027344"/>
      <use xlink:href="#ArialMT-20" x="305.810547"/>
      <use xlink:href="#ArialMT-30" x="333.59375"/>
      <use xlink:href="#ArialMT-2e" x="389.208984"/>
      <use xlink:href="#ArialMT-30" x="416.992188"/>
      <use xlink:href="#ArialMT-31" x="472.607422"/>
      <use xlink:href="#ArialMT-32" x="528.222656"/>
      <use xlink:href="#ArialMT-5d" x="583.837891"/>
     </g>
    </g>
    <g id="patch_43">
     <path d="M 448.15125 247.05 
L 568.23375 247.05 
L 568.23375 219.87 
L 448.15125 219.87 
z
" style="fill: #ffffff; stroke: #1a1a1a; stroke-linejoin: miter"/>
    </g>
    <g id="text_42">
     <!-- [0.07, 0.03] -->
     <g style="fill: #262626" transform="translate(458.158125 238.66)scale(0.2 -0.2)">
      <use xlink:href="#ArialMT-5b"/>
      <use xlink:href="#ArialMT-30" x="27.783203"/>
      <use xlink:href="#ArialMT-2e" x="83.398438"/>
      <use xlink:href="#ArialMT-30" x="111.181641"/>
      <use xlink:href="#ArialMT-37" x="166.796875"/>
      <use xlink:href="#ArialMT-2c" x="222.412109"/>
      <use xlink:href="#ArialMT-20" x="250.195312"/>
      <use xlink:href="#ArialMT-30" x="277.978516"/>
      <use xlink:href="#ArialMT-2e" x="333.59375"/>
      <use xlink:href="#ArialMT-30" x="361.376953"/>
      <use xlink:href="#ArialMT-33" x="416.992188"/>
      <use xlink:href="#ArialMT-5d" x="472.607422"/>
     </g>
    </g>
    <g id="patch_44">
     <path d="M 568.23375 247.05 
L 690.9525 247.05 
L 690.9525 219.87 
L 568.23375 219.87 
z
" style="fill: #ffffff; stroke: #1a1a1a; stroke-linejoin: miter"/>
    </g>
    <g id="text_43">
     <!-- [0.2, 0.1] -->
     <g style="fill: #262626" transform="translate(590.680625 238.66)scale(0.2 -0.2)">
      <use xlink:href="#ArialMT-5b"/>
      <use xlink:href="#ArialMT-30" x="27.783203"/>
      <use xlink:href="#ArialMT-2e" x="83.398438"/>
      <use xlink:href="#ArialMT-32" x="111.181641"/>
      <use xlink:href="#ArialMT-2c" x="166.796875"/>
      <use xlink:href="#ArialMT-20" x="194.580078"/>
      <use xlink:href="#ArialMT-30" x="222.363281"/>
      <use xlink:href="#ArialMT-2e" x="277.978516"/>
      <use xlink:href="#ArialMT-31" x="305.761719"/>
      <use xlink:href="#ArialMT-5d" x="361.376953"/>
     </g>
    </g>
    <g id="patch_45">
     <path d="M 690.9525 247.05 
L 846.4725 247.05 
L 846.4725 219.87 
L 690.9525 219.87 
z
" style="fill: #ffffff; stroke: #1a1a1a; stroke-linejoin: miter"/>
    </g>
    <g id="text_44">
     <!-- [1.5, 1.6] -->
     <g style="fill: #262626" transform="translate(729.8 238.66)scale(0.2 -0.2)">
      <use xlink:href="#ArialMT-5b"/>
      <use xlink:href="#ArialMT-31" x="27.783203"/>
      <use xlink:href="#ArialMT-2e" x="83.398438"/>
      <use xlink:href="#ArialMT-35" x="111.181641"/>
      <use xlink:href="#ArialMT-2c" x="166.796875"/>
      <use xlink:href="#ArialMT-20" x="194.580078"/>
      <use xlink:href="#ArialMT-31" x="222.363281"/>
      <use xlink:href="#ArialMT-2e" x="277.978516"/>
      <use xlink:href="#ArialMT-36" x="305.761719"/>
      <use xlink:href="#ArialMT-5d" x="361.376953"/>
     </g>
    </g>
    <g id="patch_46">
     <path d="M 846.4725 247.05 
L 944.8725 247.05 
L 944.8725 219.87 
L 846.4725 219.87 
z
" style="fill: #ffffff; stroke: #1a1a1a; stroke-linejoin: miter"/>
    </g>
    <g id="text_45">
     <!-- / -->
     <g style="fill: #262626" transform="translate(892.894375 238.630313)scale(0.2 -0.2)">
      <use xlink:href="#ArialMT-2f"/>
     </g>
    </g>
    <g id="patch_47">
     <path d="M 944.8725 247.05 
L 1089.5925 247.05 
L 1089.5925 219.87 
L 944.8725 219.87 
z
" style="fill: #ffffff; stroke: #1a1a1a; stroke-linejoin: miter"/>
    </g>
    <g id="text_46">
     <!-- [0.01, 0.01] -->
     <g style="fill: #262626" transform="translate(967.198125 238.66)scale(0.2 -0.2)">
      <use xlink:href="#ArialMT-5b"/>
      <use xlink:href="#ArialMT-30" x="27.783203"/>
      <use xlink:href="#ArialMT-2e" x="83.398438"/>
      <use xlink:href="#ArialMT-30" x="111.181641"/>
      <use xlink:href="#ArialMT-31" x="166.796875"/>
      <use xlink:href="#ArialMT-2c" x="222.412109"/>
      <use xlink:href="#ArialMT-20" x="250.195312"/>
      <use xlink:href="#ArialMT-30" x="277.978516"/>
      <use xlink:href="#ArialMT-2e" x="333.59375"/>
      <use xlink:href="#ArialMT-30" x="361.376953"/>
      <use xlink:href="#ArialMT-31" x="416.992188"/>
      <use xlink:href="#ArialMT-5d" x="472.607422"/>
     </g>
    </g>
    <g id="patch_48">
     <path d="M 1089.5925 247.05 
L 1236.3675 247.05 
L 1236.3675 219.87 
L 1089.5925 219.87 
z
" style="fill: #ffffff; stroke: #1a1a1a; stroke-linejoin: miter"/>
    </g>
    <g id="text_47">
     <!-- [0.004, 0.004] -->
     <g style="fill: #262626" transform="translate(1101.82375 238.66)scale(0.2 -0.2)">
      <use xlink:href="#ArialMT-5b"/>
      <use xlink:href="#ArialMT-30" x="27.783203"/>
      <use xlink:href="#ArialMT-2e" x="83.398438"/>
      <use xlink:href="#ArialMT-30" x="111.181641"/>
      <use xlink:href="#ArialMT-30" x="166.796875"/>
      <use xlink:href="#ArialMT-34" x="222.412109"/>
      <use xlink:href="#ArialMT-2c" x="278.027344"/>
      <use xlink:href="#ArialMT-20" x="305.810547"/>
      <use xlink:href="#ArialMT-30" x="333.59375"/>
      <use xlink:href="#ArialMT-2e" x="389.208984"/>
      <use xlink:href="#ArialMT-30" x="416.992188"/>
      <use xlink:href="#ArialMT-30" x="472.607422"/>
      <use xlink:href="#ArialMT-34" x="528.222656"/>
      <use xlink:href="#ArialMT-5d" x="583.837891"/>
     </g>
    </g>
    <g id="patch_49">
     <path d="M 1236.3675 247.05 
L 1363.0875 247.05 
L 1363.0875 219.87 
L 1236.3675 219.87 
z
" style="fill: #ffffff; stroke: #1a1a1a; stroke-linejoin: miter"/>
    </g>
    <g id="text_48">
     <!-- / -->
     <g style="fill: #262626" transform="translate(1296.949375 238.630313)scale(0.2 -0.2)">
      <use xlink:href="#ArialMT-2f"/>
     </g>
    </g>
    <g id="patch_50">
     <path d="M 1363.0875 247.05 
L 1469.82375 247.05 
L 1469.82375 219.87 
L 1363.0875 219.87 
z
" style="fill: #ffffff; stroke: #1a1a1a; stroke-linejoin: miter"/>
    </g>
    <g id="text_49">
     <!-- [0.01, 0.0] -->
     <g style="fill: #262626" transform="translate(1371.982187 238.66)scale(0.2 -0.2)">
      <use xlink:href="#ArialMT-5b"/>
      <use xlink:href="#ArialMT-30" x="27.783203"/>
      <use xlink:href="#ArialMT-2e" x="83.398438"/>
      <use xlink:href="#ArialMT-30" x="111.181641"/>
      <use xlink:href="#ArialMT-31" x="166.796875"/>
      <use xlink:href="#ArialMT-2c" x="222.412109"/>
      <use xlink:href="#ArialMT-20" x="250.195312"/>
      <use xlink:href="#ArialMT-30" x="277.978516"/>
      <use xlink:href="#ArialMT-2e" x="333.59375"/>
      <use xlink:href="#ArialMT-30" x="361.376953"/>
      <use xlink:href="#ArialMT-5d" x="416.992188"/>
     </g>
    </g>
   </g>
  </g>
 </g>
</svg>
