<?xml version="1.0" encoding="utf-8" standalone="no"?>
<!DOCTYPE svg PUBLIC "-//W3C//DTD SVG 1.1//EN"
  "http://www.w3.org/Graphics/SVG/1.1/DTD/svg11.dtd">
<svg xmlns:xlink="http://www.w3.org/1999/xlink" width="432pt" height="432pt" viewBox="0 0 432 432" xmlns="http://www.w3.org/2000/svg" version="1.1">
 <metadata>
  <rdf:RDF xmlns:dc="http://purl.org/dc/elements/1.1/" xmlns:cc="http://creativecommons.org/ns#" xmlns:rdf="http://www.w3.org/1999/02/22-rdf-syntax-ns#">
   <cc:Work>
    <dc:type rdf:resource="http://purl.org/dc/dcmitype/StillImage"/>
    <dc:date>2023-03-14T19:18:09.794415</dc:date>
    <dc:format>image/svg+xml</dc:format>
    <dc:creator>
     <cc:Agent>
      <dc:title>Matplotlib v3.5.2, https://matplotlib.org/</dc:title>
     </cc:Agent>
    </dc:creator>
   </cc:Work>
  </rdf:RDF>
 </metadata>
 <defs>
  <style type="text/css">*{stroke-linejoin: round; stroke-linecap: butt}</style>
 </defs>
 <g id="figure_1">
  <g id="patch_1">
   <path d="M 0 432 
L 432 432 
L 432 0 
L 0 0 
L 0 432 
z
" style="fill: none"/>
  </g>
  <g id="axes_1">
   <g id="patch_2">
    <path d="M 58.32 378 
L 384.48 378 
L 384.48 51.84 
L 58.32 51.84 
z
" style="fill: #ffffff"/>
   </g>
   <g id="matplotlib.axis_1">
    <g id="xtick_1">
     <g id="line2d_1">
      <defs>
       <path id="m66d4739010" d="M 0 0 
L 0 -6 
" style="stroke: #262626; stroke-width: 1.25"/>
      </defs>
      <g>
       <use xlink:href="#m66d4739010" x="58.588423" y="378" style="fill: #262626; stroke: #262626; stroke-width: 1.25"/>
      </g>
     </g>
     <g id="line2d_2">
      <defs>
       <path id="m10e7d06478" d="M 0 0 
L 0 6 
" style="stroke: #262626; stroke-width: 1.25"/>
      </defs>
      <g>
       <use xlink:href="#m10e7d06478" x="58.588423" y="51.84" style="fill: #262626; stroke: #262626; stroke-width: 1.25"/>
      </g>
     </g>
     <g id="text_1">
      <!-- −14 -->
      <g style="fill: #262626" transform="translate(49.259048 389.373594)scale(0.11 -0.11)">
       <defs>
        <path id="ArialMT-2212" d="M 3381 1997 
L 356 1997 
L 356 2522 
L 3381 2522 
L 3381 1997 
z
" transform="scale(0.015625)"/>
        <path id="ArialMT-31" d="M 2384 0 
L 1822 0 
L 1822 3584 
Q 1619 3391 1289 3197 
Q 959 3003 697 2906 
L 697 3450 
Q 1169 3672 1522 3987 
Q 1875 4303 2022 4600 
L 2384 4600 
L 2384 0 
z
" transform="scale(0.015625)"/>
        <path id="ArialMT-34" d="M 2069 0 
L 2069 1097 
L 81 1097 
L 81 1613 
L 2172 4581 
L 2631 4581 
L 2631 1613 
L 3250 1613 
L 3250 1097 
L 2631 1097 
L 2631 0 
L 2069 0 
z
M 2069 1613 
L 2069 3678 
L 634 1613 
L 2069 1613 
z
" transform="scale(0.015625)"/>
       </defs>
       <use xlink:href="#ArialMT-2212"/>
       <use xlink:href="#ArialMT-31" x="58.398438"/>
       <use xlink:href="#ArialMT-34" x="114.013672"/>
      </g>
     </g>
    </g>
    <g id="xtick_2">
     <g id="line2d_3">
      <g>
       <use xlink:href="#m66d4739010" x="119.802448" y="378" style="fill: #262626; stroke: #262626; stroke-width: 1.25"/>
      </g>
     </g>
     <g id="line2d_4">
      <g>
       <use xlink:href="#m10e7d06478" x="119.802448" y="51.84" style="fill: #262626; stroke: #262626; stroke-width: 1.25"/>
      </g>
     </g>
     <g id="text_2">
      <!-- −12 -->
      <g style="fill: #262626" transform="translate(110.473073 389.373594)scale(0.11 -0.11)">
       <defs>
        <path id="ArialMT-32" d="M 3222 541 
L 3222 0 
L 194 0 
Q 188 203 259 391 
Q 375 700 629 1000 
Q 884 1300 1366 1694 
Q 2113 2306 2375 2664 
Q 2638 3022 2638 3341 
Q 2638 3675 2398 3904 
Q 2159 4134 1775 4134 
Q 1369 4134 1125 3890 
Q 881 3647 878 3216 
L 300 3275 
Q 359 3922 746 4261 
Q 1134 4600 1788 4600 
Q 2447 4600 2831 4234 
Q 3216 3869 3216 3328 
Q 3216 3053 3103 2787 
Q 2991 2522 2730 2228 
Q 2469 1934 1863 1422 
Q 1356 997 1212 845 
Q 1069 694 975 541 
L 3222 541 
z
" transform="scale(0.015625)"/>
       </defs>
       <use xlink:href="#ArialMT-2212"/>
       <use xlink:href="#ArialMT-31" x="58.398438"/>
       <use xlink:href="#ArialMT-32" x="114.013672"/>
      </g>
     </g>
    </g>
    <g id="xtick_3">
     <g id="line2d_5">
      <g>
       <use xlink:href="#m66d4739010" x="181.016473" y="378" style="fill: #262626; stroke: #262626; stroke-width: 1.25"/>
      </g>
     </g>
     <g id="line2d_6">
      <g>
       <use xlink:href="#m10e7d06478" x="181.016473" y="51.84" style="fill: #262626; stroke: #262626; stroke-width: 1.25"/>
      </g>
     </g>
     <g id="text_3">
      <!-- −10 -->
      <g style="fill: #262626" transform="translate(171.687098 389.373594)scale(0.11 -0.11)">
       <defs>
        <path id="ArialMT-30" d="M 266 2259 
Q 266 3072 433 3567 
Q 600 4063 929 4331 
Q 1259 4600 1759 4600 
Q 2128 4600 2406 4451 
Q 2684 4303 2865 4023 
Q 3047 3744 3150 3342 
Q 3253 2941 3253 2259 
Q 3253 1453 3087 958 
Q 2922 463 2592 192 
Q 2263 -78 1759 -78 
Q 1097 -78 719 397 
Q 266 969 266 2259 
z
M 844 2259 
Q 844 1131 1108 757 
Q 1372 384 1759 384 
Q 2147 384 2411 759 
Q 2675 1134 2675 2259 
Q 2675 3391 2411 3762 
Q 2147 4134 1753 4134 
Q 1366 4134 1134 3806 
Q 844 3388 844 2259 
z
" transform="scale(0.015625)"/>
       </defs>
       <use xlink:href="#ArialMT-2212"/>
       <use xlink:href="#ArialMT-31" x="58.398438"/>
       <use xlink:href="#ArialMT-30" x="114.013672"/>
      </g>
     </g>
    </g>
    <g id="xtick_4">
     <g id="line2d_7">
      <g>
       <use xlink:href="#m66d4739010" x="242.230499" y="378" style="fill: #262626; stroke: #262626; stroke-width: 1.25"/>
      </g>
     </g>
     <g id="line2d_8">
      <g>
       <use xlink:href="#m10e7d06478" x="242.230499" y="51.84" style="fill: #262626; stroke: #262626; stroke-width: 1.25"/>
      </g>
     </g>
     <g id="text_4">
      <!-- −8 -->
      <g style="fill: #262626" transform="translate(235.959639 389.373594)scale(0.11 -0.11)">
       <defs>
        <path id="ArialMT-38" d="M 1131 2484 
Q 781 2613 612 2850 
Q 444 3088 444 3419 
Q 444 3919 803 4259 
Q 1163 4600 1759 4600 
Q 2359 4600 2725 4251 
Q 3091 3903 3091 3403 
Q 3091 3084 2923 2848 
Q 2756 2613 2416 2484 
Q 2838 2347 3058 2040 
Q 3278 1734 3278 1309 
Q 3278 722 2862 322 
Q 2447 -78 1769 -78 
Q 1091 -78 675 323 
Q 259 725 259 1325 
Q 259 1772 486 2073 
Q 713 2375 1131 2484 
z
M 1019 3438 
Q 1019 3113 1228 2906 
Q 1438 2700 1772 2700 
Q 2097 2700 2305 2904 
Q 2513 3109 2513 3406 
Q 2513 3716 2298 3927 
Q 2084 4138 1766 4138 
Q 1444 4138 1231 3931 
Q 1019 3725 1019 3438 
z
M 838 1322 
Q 838 1081 952 856 
Q 1066 631 1291 507 
Q 1516 384 1775 384 
Q 2178 384 2440 643 
Q 2703 903 2703 1303 
Q 2703 1709 2433 1975 
Q 2163 2241 1756 2241 
Q 1359 2241 1098 1978 
Q 838 1716 838 1322 
z
" transform="scale(0.015625)"/>
       </defs>
       <use xlink:href="#ArialMT-2212"/>
       <use xlink:href="#ArialMT-38" x="58.398438"/>
      </g>
     </g>
    </g>
    <g id="xtick_5">
     <g id="line2d_9">
      <g>
       <use xlink:href="#m66d4739010" x="303.444524" y="378" style="fill: #262626; stroke: #262626; stroke-width: 1.25"/>
      </g>
     </g>
     <g id="line2d_10">
      <g>
       <use xlink:href="#m10e7d06478" x="303.444524" y="51.84" style="fill: #262626; stroke: #262626; stroke-width: 1.25"/>
      </g>
     </g>
     <g id="text_5">
      <!-- −6 -->
      <g style="fill: #262626" transform="translate(297.173664 389.373594)scale(0.11 -0.11)">
       <defs>
        <path id="ArialMT-36" d="M 3184 3459 
L 2625 3416 
Q 2550 3747 2413 3897 
Q 2184 4138 1850 4138 
Q 1581 4138 1378 3988 
Q 1113 3794 959 3422 
Q 806 3050 800 2363 
Q 1003 2672 1297 2822 
Q 1591 2972 1913 2972 
Q 2475 2972 2870 2558 
Q 3266 2144 3266 1488 
Q 3266 1056 3080 686 
Q 2894 316 2569 119 
Q 2244 -78 1831 -78 
Q 1128 -78 684 439 
Q 241 956 241 2144 
Q 241 3472 731 4075 
Q 1159 4600 1884 4600 
Q 2425 4600 2770 4297 
Q 3116 3994 3184 3459 
z
M 888 1484 
Q 888 1194 1011 928 
Q 1134 663 1356 523 
Q 1578 384 1822 384 
Q 2178 384 2434 671 
Q 2691 959 2691 1453 
Q 2691 1928 2437 2201 
Q 2184 2475 1800 2475 
Q 1419 2475 1153 2201 
Q 888 1928 888 1484 
z
" transform="scale(0.015625)"/>
       </defs>
       <use xlink:href="#ArialMT-2212"/>
       <use xlink:href="#ArialMT-36" x="58.398438"/>
      </g>
     </g>
    </g>
    <g id="xtick_6">
     <g id="line2d_11">
      <g>
       <use xlink:href="#m66d4739010" x="364.658549" y="378" style="fill: #262626; stroke: #262626; stroke-width: 1.25"/>
      </g>
     </g>
     <g id="line2d_12">
      <g>
       <use xlink:href="#m10e7d06478" x="364.658549" y="51.84" style="fill: #262626; stroke: #262626; stroke-width: 1.25"/>
      </g>
     </g>
     <g id="text_6">
      <!-- −4 -->
      <g style="fill: #262626" transform="translate(358.38769 389.373594)scale(0.11 -0.11)">
       <use xlink:href="#ArialMT-2212"/>
       <use xlink:href="#ArialMT-34" x="58.398438"/>
      </g>
     </g>
    </g>
    <g id="xtick_7">
     <g id="line2d_13">
      <defs>
       <path id="m35090e93f4" d="M 0 0 
L 0 -4 
" style="stroke: #262626"/>
      </defs>
      <g>
       <use xlink:href="#m35090e93f4" x="73.891929" y="378" style="fill: #262626; stroke: #262626"/>
      </g>
     </g>
     <g id="line2d_14">
      <defs>
       <path id="m15f13fc388" d="M 0 0 
L 0 4 
" style="stroke: #262626"/>
      </defs>
      <g>
       <use xlink:href="#m15f13fc388" x="73.891929" y="51.84" style="fill: #262626; stroke: #262626"/>
      </g>
     </g>
    </g>
    <g id="xtick_8">
     <g id="line2d_15">
      <g>
       <use xlink:href="#m35090e93f4" x="89.195435" y="378" style="fill: #262626; stroke: #262626"/>
      </g>
     </g>
     <g id="line2d_16">
      <g>
       <use xlink:href="#m15f13fc388" x="89.195435" y="51.84" style="fill: #262626; stroke: #262626"/>
      </g>
     </g>
    </g>
    <g id="xtick_9">
     <g id="line2d_17">
      <g>
       <use xlink:href="#m35090e93f4" x="104.498942" y="378" style="fill: #262626; stroke: #262626"/>
      </g>
     </g>
     <g id="line2d_18">
      <g>
       <use xlink:href="#m15f13fc388" x="104.498942" y="51.84" style="fill: #262626; stroke: #262626"/>
      </g>
     </g>
    </g>
    <g id="xtick_10">
     <g id="line2d_19">
      <g>
       <use xlink:href="#m35090e93f4" x="135.105954" y="378" style="fill: #262626; stroke: #262626"/>
      </g>
     </g>
     <g id="line2d_20">
      <g>
       <use xlink:href="#m15f13fc388" x="135.105954" y="51.84" style="fill: #262626; stroke: #262626"/>
      </g>
     </g>
    </g>
    <g id="xtick_11">
     <g id="line2d_21">
      <g>
       <use xlink:href="#m35090e93f4" x="150.409461" y="378" style="fill: #262626; stroke: #262626"/>
      </g>
     </g>
     <g id="line2d_22">
      <g>
       <use xlink:href="#m15f13fc388" x="150.409461" y="51.84" style="fill: #262626; stroke: #262626"/>
      </g>
     </g>
    </g>
    <g id="xtick_12">
     <g id="line2d_23">
      <g>
       <use xlink:href="#m35090e93f4" x="165.712967" y="378" style="fill: #262626; stroke: #262626"/>
      </g>
     </g>
     <g id="line2d_24">
      <g>
       <use xlink:href="#m15f13fc388" x="165.712967" y="51.84" style="fill: #262626; stroke: #262626"/>
      </g>
     </g>
    </g>
    <g id="xtick_13">
     <g id="line2d_25">
      <g>
       <use xlink:href="#m35090e93f4" x="196.31998" y="378" style="fill: #262626; stroke: #262626"/>
      </g>
     </g>
     <g id="line2d_26">
      <g>
       <use xlink:href="#m15f13fc388" x="196.31998" y="51.84" style="fill: #262626; stroke: #262626"/>
      </g>
     </g>
    </g>
    <g id="xtick_14">
     <g id="line2d_27">
      <g>
       <use xlink:href="#m35090e93f4" x="211.623486" y="378" style="fill: #262626; stroke: #262626"/>
      </g>
     </g>
     <g id="line2d_28">
      <g>
       <use xlink:href="#m15f13fc388" x="211.623486" y="51.84" style="fill: #262626; stroke: #262626"/>
      </g>
     </g>
    </g>
    <g id="xtick_15">
     <g id="line2d_29">
      <g>
       <use xlink:href="#m35090e93f4" x="226.926992" y="378" style="fill: #262626; stroke: #262626"/>
      </g>
     </g>
     <g id="line2d_30">
      <g>
       <use xlink:href="#m15f13fc388" x="226.926992" y="51.84" style="fill: #262626; stroke: #262626"/>
      </g>
     </g>
    </g>
    <g id="xtick_16">
     <g id="line2d_31">
      <g>
       <use xlink:href="#m35090e93f4" x="257.534005" y="378" style="fill: #262626; stroke: #262626"/>
      </g>
     </g>
     <g id="line2d_32">
      <g>
       <use xlink:href="#m15f13fc388" x="257.534005" y="51.84" style="fill: #262626; stroke: #262626"/>
      </g>
     </g>
    </g>
    <g id="xtick_17">
     <g id="line2d_33">
      <g>
       <use xlink:href="#m35090e93f4" x="272.837511" y="378" style="fill: #262626; stroke: #262626"/>
      </g>
     </g>
     <g id="line2d_34">
      <g>
       <use xlink:href="#m15f13fc388" x="272.837511" y="51.84" style="fill: #262626; stroke: #262626"/>
      </g>
     </g>
    </g>
    <g id="xtick_18">
     <g id="line2d_35">
      <g>
       <use xlink:href="#m35090e93f4" x="288.141017" y="378" style="fill: #262626; stroke: #262626"/>
      </g>
     </g>
     <g id="line2d_36">
      <g>
       <use xlink:href="#m15f13fc388" x="288.141017" y="51.84" style="fill: #262626; stroke: #262626"/>
      </g>
     </g>
    </g>
    <g id="xtick_19">
     <g id="line2d_37">
      <g>
       <use xlink:href="#m35090e93f4" x="318.74803" y="378" style="fill: #262626; stroke: #262626"/>
      </g>
     </g>
     <g id="line2d_38">
      <g>
       <use xlink:href="#m15f13fc388" x="318.74803" y="51.84" style="fill: #262626; stroke: #262626"/>
      </g>
     </g>
    </g>
    <g id="xtick_20">
     <g id="line2d_39">
      <g>
       <use xlink:href="#m35090e93f4" x="334.051536" y="378" style="fill: #262626; stroke: #262626"/>
      </g>
     </g>
     <g id="line2d_40">
      <g>
       <use xlink:href="#m15f13fc388" x="334.051536" y="51.84" style="fill: #262626; stroke: #262626"/>
      </g>
     </g>
    </g>
    <g id="xtick_21">
     <g id="line2d_41">
      <g>
       <use xlink:href="#m35090e93f4" x="349.355043" y="378" style="fill: #262626; stroke: #262626"/>
      </g>
     </g>
     <g id="line2d_42">
      <g>
       <use xlink:href="#m15f13fc388" x="349.355043" y="51.84" style="fill: #262626; stroke: #262626"/>
      </g>
     </g>
    </g>
    <g id="xtick_22">
     <g id="line2d_43">
      <g>
       <use xlink:href="#m35090e93f4" x="379.962055" y="378" style="fill: #262626; stroke: #262626"/>
      </g>
     </g>
     <g id="line2d_44">
      <g>
       <use xlink:href="#m15f13fc388" x="379.962055" y="51.84" style="fill: #262626; stroke: #262626"/>
      </g>
     </g>
    </g>
    <g id="text_7">
     <!-- $\sigma^0$_sim [dB] -->
     <g style="fill: #262626" transform="translate(189.48 406.479844)scale(0.12 -0.12)">
      <defs>
       <path id="DejaVuSans-Oblique-3c3" d="M 2219 3044 
Q 1744 3044 1422 2700 
Q 1081 2341 969 1747 
Q 844 1119 1044 756 
Q 1241 397 1706 397 
Q 2166 397 2503 759 
Q 2844 1122 2966 1747 
Q 3075 2319 2881 2700 
Q 2700 3044 2219 3044 
z
M 2309 3503 
L 4219 3500 
L 4106 2925 
L 3463 2925 
Q 3706 2438 3575 1747 
Q 3406 888 2884 400 
Q 2359 -91 1609 -91 
Q 856 -91 525 400 
Q 194 888 363 1747 
Q 528 2609 1050 3097 
Q 1484 3503 2309 3503 
z
" transform="scale(0.015625)"/>
       <path id="DejaVuSans-30" d="M 2034 4250 
Q 1547 4250 1301 3770 
Q 1056 3291 1056 2328 
Q 1056 1369 1301 889 
Q 1547 409 2034 409 
Q 2525 409 2770 889 
Q 3016 1369 3016 2328 
Q 3016 3291 2770 3770 
Q 2525 4250 2034 4250 
z
M 2034 4750 
Q 2819 4750 3233 4129 
Q 3647 3509 3647 2328 
Q 3647 1150 3233 529 
Q 2819 -91 2034 -91 
Q 1250 -91 836 529 
Q 422 1150 422 2328 
Q 422 3509 836 4129 
Q 1250 4750 2034 4750 
z
" transform="scale(0.015625)"/>
       <path id="ArialMT-5f" d="M -97 -1272 
L -97 -866 
L 3631 -866 
L 3631 -1272 
L -97 -1272 
z
" transform="scale(0.015625)"/>
       <path id="ArialMT-73" d="M 197 991 
L 753 1078 
Q 800 744 1014 566 
Q 1228 388 1613 388 
Q 2000 388 2187 545 
Q 2375 703 2375 916 
Q 2375 1106 2209 1216 
Q 2094 1291 1634 1406 
Q 1016 1563 777 1677 
Q 538 1791 414 1992 
Q 291 2194 291 2438 
Q 291 2659 392 2848 
Q 494 3038 669 3163 
Q 800 3259 1026 3326 
Q 1253 3394 1513 3394 
Q 1903 3394 2198 3281 
Q 2494 3169 2634 2976 
Q 2775 2784 2828 2463 
L 2278 2388 
Q 2241 2644 2061 2787 
Q 1881 2931 1553 2931 
Q 1166 2931 1000 2803 
Q 834 2675 834 2503 
Q 834 2394 903 2306 
Q 972 2216 1119 2156 
Q 1203 2125 1616 2013 
Q 2213 1853 2448 1751 
Q 2684 1650 2818 1456 
Q 2953 1263 2953 975 
Q 2953 694 2789 445 
Q 2625 197 2315 61 
Q 2006 -75 1616 -75 
Q 969 -75 630 194 
Q 291 463 197 991 
z
" transform="scale(0.015625)"/>
       <path id="ArialMT-69" d="M 425 3934 
L 425 4581 
L 988 4581 
L 988 3934 
L 425 3934 
z
M 425 0 
L 425 3319 
L 988 3319 
L 988 0 
L 425 0 
z
" transform="scale(0.015625)"/>
       <path id="ArialMT-6d" d="M 422 0 
L 422 3319 
L 925 3319 
L 925 2853 
Q 1081 3097 1340 3245 
Q 1600 3394 1931 3394 
Q 2300 3394 2536 3241 
Q 2772 3088 2869 2813 
Q 3263 3394 3894 3394 
Q 4388 3394 4653 3120 
Q 4919 2847 4919 2278 
L 4919 0 
L 4359 0 
L 4359 2091 
Q 4359 2428 4304 2576 
Q 4250 2725 4106 2815 
Q 3963 2906 3769 2906 
Q 3419 2906 3187 2673 
Q 2956 2441 2956 1928 
L 2956 0 
L 2394 0 
L 2394 2156 
Q 2394 2531 2256 2718 
Q 2119 2906 1806 2906 
Q 1569 2906 1367 2781 
Q 1166 2656 1075 2415 
Q 984 2175 984 1722 
L 984 0 
L 422 0 
z
" transform="scale(0.015625)"/>
       <path id="ArialMT-20" transform="scale(0.015625)"/>
       <path id="ArialMT-5b" d="M 434 -1272 
L 434 4581 
L 1675 4581 
L 1675 4116 
L 997 4116 
L 997 -806 
L 1675 -806 
L 1675 -1272 
L 434 -1272 
z
" transform="scale(0.015625)"/>
       <path id="ArialMT-64" d="M 2575 0 
L 2575 419 
Q 2259 -75 1647 -75 
Q 1250 -75 917 144 
Q 584 363 401 755 
Q 219 1147 219 1656 
Q 219 2153 384 2558 
Q 550 2963 881 3178 
Q 1213 3394 1622 3394 
Q 1922 3394 2156 3267 
Q 2391 3141 2538 2938 
L 2538 4581 
L 3097 4581 
L 3097 0 
L 2575 0 
z
M 797 1656 
Q 797 1019 1065 703 
Q 1334 388 1700 388 
Q 2069 388 2326 689 
Q 2584 991 2584 1609 
Q 2584 2291 2321 2609 
Q 2059 2928 1675 2928 
Q 1300 2928 1048 2622 
Q 797 2316 797 1656 
z
" transform="scale(0.015625)"/>
       <path id="ArialMT-42" d="M 469 0 
L 469 4581 
L 2188 4581 
Q 2713 4581 3030 4442 
Q 3347 4303 3526 4014 
Q 3706 3725 3706 3409 
Q 3706 3116 3547 2856 
Q 3388 2597 3066 2438 
Q 3481 2316 3704 2022 
Q 3928 1728 3928 1328 
Q 3928 1006 3792 729 
Q 3656 453 3456 303 
Q 3256 153 2954 76 
Q 2653 0 2216 0 
L 469 0 
z
M 1075 2656 
L 2066 2656 
Q 2469 2656 2644 2709 
Q 2875 2778 2992 2937 
Q 3109 3097 3109 3338 
Q 3109 3566 3000 3739 
Q 2891 3913 2687 3977 
Q 2484 4041 1991 4041 
L 1075 4041 
L 1075 2656 
z
M 1075 541 
L 2216 541 
Q 2509 541 2628 563 
Q 2838 600 2978 687 
Q 3119 775 3209 942 
Q 3300 1109 3300 1328 
Q 3300 1584 3169 1773 
Q 3038 1963 2805 2039 
Q 2572 2116 2134 2116 
L 1075 2116 
L 1075 541 
z
" transform="scale(0.015625)"/>
       <path id="ArialMT-5d" d="M 1363 -1272 
L 122 -1272 
L 122 -806 
L 800 -806 
L 800 4116 
L 122 4116 
L 122 4581 
L 1363 4581 
L 1363 -1272 
z
" transform="scale(0.015625)"/>
      </defs>
      <use xlink:href="#DejaVuSans-Oblique-3c3" transform="translate(0 0.765625)"/>
      <use xlink:href="#DejaVuSans-30" transform="translate(67.851615 39.046875)scale(0.7)"/>
      <use xlink:href="#ArialMT-5f" transform="translate(115.122122 0.765625)"/>
      <use xlink:href="#ArialMT-73" transform="translate(170.737357 0.765625)"/>
      <use xlink:href="#ArialMT-69" transform="translate(220.737357 0.765625)"/>
      <use xlink:href="#ArialMT-6d" transform="translate(242.954154 0.765625)"/>
      <use xlink:href="#ArialMT-20" transform="translate(326.254935 0.765625)"/>
      <use xlink:href="#ArialMT-5b" transform="translate(354.038138 0.765625)"/>
      <use xlink:href="#ArialMT-64" transform="translate(381.821341 0.765625)"/>
      <use xlink:href="#ArialMT-42" transform="translate(437.436576 0.765625)"/>
      <use xlink:href="#ArialMT-5d" transform="translate(504.135794 0.765625)"/>
     </g>
    </g>
   </g>
   <g id="matplotlib.axis_2">
    <g id="ytick_1">
     <g id="line2d_45">
      <defs>
       <path id="m2dcfe45645" d="M 0 0 
L 6 0 
" style="stroke: #262626; stroke-width: 1.25"/>
      </defs>
      <g>
       <use xlink:href="#m2dcfe45645" x="58.32" y="377.731577" style="fill: #262626; stroke: #262626; stroke-width: 1.25"/>
      </g>
     </g>
     <g id="line2d_46">
      <defs>
       <path id="meb2fd6c184" d="M 0 0 
L -6 0 
" style="stroke: #262626; stroke-width: 1.25"/>
      </defs>
      <g>
       <use xlink:href="#meb2fd6c184" x="384.48" y="377.731577" style="fill: #262626; stroke: #262626; stroke-width: 1.25"/>
      </g>
     </g>
     <g id="text_8">
      <!-- −14 -->
      <g style="fill: #262626" transform="translate(36.16125 381.668374)scale(0.11 -0.11)">
       <use xlink:href="#ArialMT-2212"/>
       <use xlink:href="#ArialMT-31" x="58.398438"/>
       <use xlink:href="#ArialMT-34" x="114.013672"/>
      </g>
     </g>
    </g>
    <g id="ytick_2">
     <g id="line2d_47">
      <g>
       <use xlink:href="#m2dcfe45645" x="58.32" y="316.517552" style="fill: #262626; stroke: #262626; stroke-width: 1.25"/>
      </g>
     </g>
     <g id="line2d_48">
      <g>
       <use xlink:href="#meb2fd6c184" x="384.48" y="316.517552" style="fill: #262626; stroke: #262626; stroke-width: 1.25"/>
      </g>
     </g>
     <g id="text_9">
      <!-- −12 -->
      <g style="fill: #262626" transform="translate(36.16125 320.454349)scale(0.11 -0.11)">
       <use xlink:href="#ArialMT-2212"/>
       <use xlink:href="#ArialMT-31" x="58.398438"/>
       <use xlink:href="#ArialMT-32" x="114.013672"/>
      </g>
     </g>
    </g>
    <g id="ytick_3">
     <g id="line2d_49">
      <g>
       <use xlink:href="#m2dcfe45645" x="58.32" y="255.303527" style="fill: #262626; stroke: #262626; stroke-width: 1.25"/>
      </g>
     </g>
     <g id="line2d_50">
      <g>
       <use xlink:href="#meb2fd6c184" x="384.48" y="255.303527" style="fill: #262626; stroke: #262626; stroke-width: 1.25"/>
      </g>
     </g>
     <g id="text_10">
      <!-- −10 -->
      <g style="fill: #262626" transform="translate(36.16125 259.240324)scale(0.11 -0.11)">
       <use xlink:href="#ArialMT-2212"/>
       <use xlink:href="#ArialMT-31" x="58.398438"/>
       <use xlink:href="#ArialMT-30" x="114.013672"/>
      </g>
     </g>
    </g>
    <g id="ytick_4">
     <g id="line2d_51">
      <g>
       <use xlink:href="#m2dcfe45645" x="58.32" y="194.089501" style="fill: #262626; stroke: #262626; stroke-width: 1.25"/>
      </g>
     </g>
     <g id="line2d_52">
      <g>
       <use xlink:href="#meb2fd6c184" x="384.48" y="194.089501" style="fill: #262626; stroke: #262626; stroke-width: 1.25"/>
      </g>
     </g>
     <g id="text_11">
      <!-- −8 -->
      <g style="fill: #262626" transform="translate(42.278281 198.026298)scale(0.11 -0.11)">
       <use xlink:href="#ArialMT-2212"/>
       <use xlink:href="#ArialMT-38" x="58.398438"/>
      </g>
     </g>
    </g>
    <g id="ytick_5">
     <g id="line2d_53">
      <g>
       <use xlink:href="#m2dcfe45645" x="58.32" y="132.875476" style="fill: #262626; stroke: #262626; stroke-width: 1.25"/>
      </g>
     </g>
     <g id="line2d_54">
      <g>
       <use xlink:href="#meb2fd6c184" x="384.48" y="132.875476" style="fill: #262626; stroke: #262626; stroke-width: 1.25"/>
      </g>
     </g>
     <g id="text_12">
      <!-- −6 -->
      <g style="fill: #262626" transform="translate(42.278281 136.812273)scale(0.11 -0.11)">
       <use xlink:href="#ArialMT-2212"/>
       <use xlink:href="#ArialMT-36" x="58.398438"/>
      </g>
     </g>
    </g>
    <g id="ytick_6">
     <g id="line2d_55">
      <g>
       <use xlink:href="#m2dcfe45645" x="58.32" y="71.661451" style="fill: #262626; stroke: #262626; stroke-width: 1.25"/>
      </g>
     </g>
     <g id="line2d_56">
      <g>
       <use xlink:href="#meb2fd6c184" x="384.48" y="71.661451" style="fill: #262626; stroke: #262626; stroke-width: 1.25"/>
      </g>
     </g>
     <g id="text_13">
      <!-- −4 -->
      <g style="fill: #262626" transform="translate(42.278281 75.598248)scale(0.11 -0.11)">
       <use xlink:href="#ArialMT-2212"/>
       <use xlink:href="#ArialMT-34" x="58.398438"/>
      </g>
     </g>
    </g>
    <g id="ytick_7">
     <g id="line2d_57">
      <defs>
       <path id="m192d06ce25" d="M 0 0 
L 4 0 
" style="stroke: #262626"/>
      </defs>
      <g>
       <use xlink:href="#m192d06ce25" x="58.32" y="362.428071" style="fill: #262626; stroke: #262626"/>
      </g>
     </g>
     <g id="line2d_58">
      <defs>
       <path id="m5772b57515" d="M 0 0 
L -4 0 
" style="stroke: #262626"/>
      </defs>
      <g>
       <use xlink:href="#m5772b57515" x="384.48" y="362.428071" style="fill: #262626; stroke: #262626"/>
      </g>
     </g>
    </g>
    <g id="ytick_8">
     <g id="line2d_59">
      <g>
       <use xlink:href="#m192d06ce25" x="58.32" y="347.124565" style="fill: #262626; stroke: #262626"/>
      </g>
     </g>
     <g id="line2d_60">
      <g>
       <use xlink:href="#m5772b57515" x="384.48" y="347.124565" style="fill: #262626; stroke: #262626"/>
      </g>
     </g>
    </g>
    <g id="ytick_9">
     <g id="line2d_61">
      <g>
       <use xlink:href="#m192d06ce25" x="58.32" y="331.821058" style="fill: #262626; stroke: #262626"/>
      </g>
     </g>
     <g id="line2d_62">
      <g>
       <use xlink:href="#m5772b57515" x="384.48" y="331.821058" style="fill: #262626; stroke: #262626"/>
      </g>
     </g>
    </g>
    <g id="ytick_10">
     <g id="line2d_63">
      <g>
       <use xlink:href="#m192d06ce25" x="58.32" y="301.214046" style="fill: #262626; stroke: #262626"/>
      </g>
     </g>
     <g id="line2d_64">
      <g>
       <use xlink:href="#m5772b57515" x="384.48" y="301.214046" style="fill: #262626; stroke: #262626"/>
      </g>
     </g>
    </g>
    <g id="ytick_11">
     <g id="line2d_65">
      <g>
       <use xlink:href="#m192d06ce25" x="58.32" y="285.910539" style="fill: #262626; stroke: #262626"/>
      </g>
     </g>
     <g id="line2d_66">
      <g>
       <use xlink:href="#m5772b57515" x="384.48" y="285.910539" style="fill: #262626; stroke: #262626"/>
      </g>
     </g>
    </g>
    <g id="ytick_12">
     <g id="line2d_67">
      <g>
       <use xlink:href="#m192d06ce25" x="58.32" y="270.607033" style="fill: #262626; stroke: #262626"/>
      </g>
     </g>
     <g id="line2d_68">
      <g>
       <use xlink:href="#m5772b57515" x="384.48" y="270.607033" style="fill: #262626; stroke: #262626"/>
      </g>
     </g>
    </g>
    <g id="ytick_13">
     <g id="line2d_69">
      <g>
       <use xlink:href="#m192d06ce25" x="58.32" y="240.00002" style="fill: #262626; stroke: #262626"/>
      </g>
     </g>
     <g id="line2d_70">
      <g>
       <use xlink:href="#m5772b57515" x="384.48" y="240.00002" style="fill: #262626; stroke: #262626"/>
      </g>
     </g>
    </g>
    <g id="ytick_14">
     <g id="line2d_71">
      <g>
       <use xlink:href="#m192d06ce25" x="58.32" y="224.696514" style="fill: #262626; stroke: #262626"/>
      </g>
     </g>
     <g id="line2d_72">
      <g>
       <use xlink:href="#m5772b57515" x="384.48" y="224.696514" style="fill: #262626; stroke: #262626"/>
      </g>
     </g>
    </g>
    <g id="ytick_15">
     <g id="line2d_73">
      <g>
       <use xlink:href="#m192d06ce25" x="58.32" y="209.393008" style="fill: #262626; stroke: #262626"/>
      </g>
     </g>
     <g id="line2d_74">
      <g>
       <use xlink:href="#m5772b57515" x="384.48" y="209.393008" style="fill: #262626; stroke: #262626"/>
      </g>
     </g>
    </g>
    <g id="ytick_16">
     <g id="line2d_75">
      <g>
       <use xlink:href="#m192d06ce25" x="58.32" y="178.785995" style="fill: #262626; stroke: #262626"/>
      </g>
     </g>
     <g id="line2d_76">
      <g>
       <use xlink:href="#m5772b57515" x="384.48" y="178.785995" style="fill: #262626; stroke: #262626"/>
      </g>
     </g>
    </g>
    <g id="ytick_17">
     <g id="line2d_77">
      <g>
       <use xlink:href="#m192d06ce25" x="58.32" y="163.482489" style="fill: #262626; stroke: #262626"/>
      </g>
     </g>
     <g id="line2d_78">
      <g>
       <use xlink:href="#m5772b57515" x="384.48" y="163.482489" style="fill: #262626; stroke: #262626"/>
      </g>
     </g>
    </g>
    <g id="ytick_18">
     <g id="line2d_79">
      <g>
       <use xlink:href="#m192d06ce25" x="58.32" y="148.178983" style="fill: #262626; stroke: #262626"/>
      </g>
     </g>
     <g id="line2d_80">
      <g>
       <use xlink:href="#m5772b57515" x="384.48" y="148.178983" style="fill: #262626; stroke: #262626"/>
      </g>
     </g>
    </g>
    <g id="ytick_19">
     <g id="line2d_81">
      <g>
       <use xlink:href="#m192d06ce25" x="58.32" y="117.57197" style="fill: #262626; stroke: #262626"/>
      </g>
     </g>
     <g id="line2d_82">
      <g>
       <use xlink:href="#m5772b57515" x="384.48" y="117.57197" style="fill: #262626; stroke: #262626"/>
      </g>
     </g>
    </g>
    <g id="ytick_20">
     <g id="line2d_83">
      <g>
       <use xlink:href="#m192d06ce25" x="58.32" y="102.268464" style="fill: #262626; stroke: #262626"/>
      </g>
     </g>
     <g id="line2d_84">
      <g>
       <use xlink:href="#m5772b57515" x="384.48" y="102.268464" style="fill: #262626; stroke: #262626"/>
      </g>
     </g>
    </g>
    <g id="ytick_21">
     <g id="line2d_85">
      <g>
       <use xlink:href="#m192d06ce25" x="58.32" y="86.964957" style="fill: #262626; stroke: #262626"/>
      </g>
     </g>
     <g id="line2d_86">
      <g>
       <use xlink:href="#m5772b57515" x="384.48" y="86.964957" style="fill: #262626; stroke: #262626"/>
      </g>
     </g>
    </g>
    <g id="ytick_22">
     <g id="line2d_87">
      <g>
       <use xlink:href="#m192d06ce25" x="58.32" y="56.357945" style="fill: #262626; stroke: #262626"/>
      </g>
     </g>
     <g id="line2d_88">
      <g>
       <use xlink:href="#m5772b57515" x="384.48" y="56.357945" style="fill: #262626; stroke: #262626"/>
      </g>
     </g>
    </g>
    <g id="text_14">
     <!-- $\sigma^0$_obs [dB] -->
     <g style="fill: #262626" transform="translate(29.76125 247.2)rotate(-90)scale(0.12 -0.12)">
      <defs>
       <path id="ArialMT-6f" d="M 213 1659 
Q 213 2581 725 3025 
Q 1153 3394 1769 3394 
Q 2453 3394 2887 2945 
Q 3322 2497 3322 1706 
Q 3322 1066 3130 698 
Q 2938 331 2570 128 
Q 2203 -75 1769 -75 
Q 1072 -75 642 372 
Q 213 819 213 1659 
z
M 791 1659 
Q 791 1022 1069 705 
Q 1347 388 1769 388 
Q 2188 388 2466 706 
Q 2744 1025 2744 1678 
Q 2744 2294 2464 2611 
Q 2184 2928 1769 2928 
Q 1347 2928 1069 2612 
Q 791 2297 791 1659 
z
" transform="scale(0.015625)"/>
       <path id="ArialMT-62" d="M 941 0 
L 419 0 
L 419 4581 
L 981 4581 
L 981 2947 
Q 1338 3394 1891 3394 
Q 2197 3394 2470 3270 
Q 2744 3147 2920 2923 
Q 3097 2700 3197 2384 
Q 3297 2069 3297 1709 
Q 3297 856 2875 390 
Q 2453 -75 1863 -75 
Q 1275 -75 941 416 
L 941 0 
z
M 934 1684 
Q 934 1088 1097 822 
Q 1363 388 1816 388 
Q 2184 388 2453 708 
Q 2722 1028 2722 1663 
Q 2722 2313 2464 2622 
Q 2206 2931 1841 2931 
Q 1472 2931 1203 2611 
Q 934 2291 934 1684 
z
" transform="scale(0.015625)"/>
      </defs>
      <use xlink:href="#DejaVuSans-Oblique-3c3" transform="translate(0 0.765625)"/>
      <use xlink:href="#DejaVuSans-30" transform="translate(67.851615 39.046875)scale(0.7)"/>
      <use xlink:href="#ArialMT-5f" transform="translate(115.122122 0.765625)"/>
      <use xlink:href="#ArialMT-6f" transform="translate(170.737357 0.765625)"/>
      <use xlink:href="#ArialMT-62" transform="translate(226.352591 0.765625)"/>
      <use xlink:href="#ArialMT-73" transform="translate(281.967826 0.765625)"/>
      <use xlink:href="#ArialMT-20" transform="translate(331.967826 0.765625)"/>
      <use xlink:href="#ArialMT-5b" transform="translate(359.751029 0.765625)"/>
      <use xlink:href="#ArialMT-64" transform="translate(387.534232 0.765625)"/>
      <use xlink:href="#ArialMT-42" transform="translate(443.149466 0.765625)"/>
      <use xlink:href="#ArialMT-5d" transform="translate(509.848685 0.765625)"/>
     </g>
    </g>
   </g>
   <g id="line2d_89">
    <defs>
     <path id="m81e8cbb612" d="M 0 3 
C 0.795609 3 1.55874 2.683901 2.12132 2.12132 
C 2.683901 1.55874 3 0.795609 3 0 
C 3 -0.795609 2.683901 -1.55874 2.12132 -2.12132 
C 1.55874 -2.683901 0.795609 -3 0 -3 
C -0.795609 -3 -1.55874 -2.683901 -2.12132 -2.12132 
C -2.683901 -1.55874 -3 -0.795609 -3 0 
C -3 0.795609 -2.683901 1.55874 -2.12132 2.12132 
C -1.55874 2.683901 -0.795609 3 0 3 
z
" style="stroke: #1f77b4"/>
    </defs>
    <g clip-path="url(#pc4fdab5c33)">
     <use xlink:href="#m81e8cbb612" x="147.437468" y="327.094035" style="fill: #1f77b4; stroke: #1f77b4"/>
     <use xlink:href="#m81e8cbb612" x="147.996241" y="217.614405" style="fill: #1f77b4; stroke: #1f77b4"/>
     <use xlink:href="#m81e8cbb612" x="134.554141" y="278.436714" style="fill: #1f77b4; stroke: #1f77b4"/>
     <use xlink:href="#m81e8cbb612" x="122.449655" y="315.867612" style="fill: #1f77b4; stroke: #1f77b4"/>
     <use xlink:href="#m81e8cbb612" x="120.447515" y="318.928962" style="fill: #1f77b4; stroke: #1f77b4"/>
     <use xlink:href="#m81e8cbb612" x="118.040913" y="308.20581" style="fill: #1f77b4; stroke: #1f77b4"/>
     <use xlink:href="#m81e8cbb612" x="116.113229" y="334.733847" style="fill: #1f77b4; stroke: #1f77b4"/>
     <use xlink:href="#m81e8cbb612" x="299.884506" y="190.243419" style="fill: #1f77b4; stroke: #1f77b4"/>
     <use xlink:href="#m81e8cbb612" x="301.311395" y="171.830146" style="fill: #1f77b4; stroke: #1f77b4"/>
     <use xlink:href="#m81e8cbb612" x="145.257898" y="262.148562" style="fill: #1f77b4; stroke: #1f77b4"/>
     <use xlink:href="#m81e8cbb612" x="134.30437" y="333.055711" style="fill: #1f77b4; stroke: #1f77b4"/>
     <use xlink:href="#m81e8cbb612" x="125.547843" y="324.013624" style="fill: #1f77b4; stroke: #1f77b4"/>
     <use xlink:href="#m81e8cbb612" x="294.532167" y="144.367588" style="fill: #1f77b4; stroke: #1f77b4"/>
     <use xlink:href="#m81e8cbb612" x="227.755177" y="318.007941" style="fill: #1f77b4; stroke: #1f77b4"/>
     <use xlink:href="#m81e8cbb612" x="148.420897" y="295.182272" style="fill: #1f77b4; stroke: #1f77b4"/>
     <use xlink:href="#m81e8cbb612" x="274.128363" y="161.02584" style="fill: #1f77b4; stroke: #1f77b4"/>
     <use xlink:href="#m81e8cbb612" x="301.801351" y="217.692539" style="fill: #1f77b4; stroke: #1f77b4"/>
     <use xlink:href="#m81e8cbb612" x="303.831573" y="146.661445" style="fill: #1f77b4; stroke: #1f77b4"/>
     <use xlink:href="#m81e8cbb612" x="286.436538" y="210.661739" style="fill: #1f77b4; stroke: #1f77b4"/>
     <use xlink:href="#m81e8cbb612" x="227.85555" y="182.554875" style="fill: #1f77b4; stroke: #1f77b4"/>
     <use xlink:href="#m81e8cbb612" x="305.128698" y="178.528626" style="fill: #1f77b4; stroke: #1f77b4"/>
     <use xlink:href="#m81e8cbb612" x="232.188305" y="219.415724" style="fill: #1f77b4; stroke: #1f77b4"/>
     <use xlink:href="#m81e8cbb612" x="170.662541" y="246.200663" style="fill: #1f77b4; stroke: #1f77b4"/>
     <use xlink:href="#m81e8cbb612" x="132.051809" y="348.739692" style="fill: #1f77b4; stroke: #1f77b4"/>
     <use xlink:href="#m81e8cbb612" x="155.915797" y="309.498627" style="fill: #1f77b4; stroke: #1f77b4"/>
     <use xlink:href="#m81e8cbb612" x="137.826713" y="299.879483" style="fill: #1f77b4; stroke: #1f77b4"/>
     <use xlink:href="#m81e8cbb612" x="229.418773" y="239.719449" style="fill: #1f77b4; stroke: #1f77b4"/>
     <use xlink:href="#m81e8cbb612" x="192.105275" y="280.71765" style="fill: #1f77b4; stroke: #1f77b4"/>
     <use xlink:href="#m81e8cbb612" x="144.487561" y="265.979858" style="fill: #1f77b4; stroke: #1f77b4"/>
     <use xlink:href="#m81e8cbb612" x="271.193093" y="228.867854" style="fill: #1f77b4; stroke: #1f77b4"/>
     <use xlink:href="#m81e8cbb612" x="152.741789" y="326.257112" style="fill: #1f77b4; stroke: #1f77b4"/>
     <use xlink:href="#m81e8cbb612" x="134.914605" y="333.936418" style="fill: #1f77b4; stroke: #1f77b4"/>
     <use xlink:href="#m81e8cbb612" x="132.451468" y="310.125608" style="fill: #1f77b4; stroke: #1f77b4"/>
     <use xlink:href="#m81e8cbb612" x="137.191109" y="284.834474" style="fill: #1f77b4; stroke: #1f77b4"/>
     <use xlink:href="#m81e8cbb612" x="151.374566" y="275.282106" style="fill: #1f77b4; stroke: #1f77b4"/>
     <use xlink:href="#m81e8cbb612" x="173.393836" y="273.735017" style="fill: #1f77b4; stroke: #1f77b4"/>
     <use xlink:href="#m81e8cbb612" x="168.630482" y="219.729548" style="fill: #1f77b4; stroke: #1f77b4"/>
     <use xlink:href="#m81e8cbb612" x="185.032737" y="263.556931" style="fill: #1f77b4; stroke: #1f77b4"/>
     <use xlink:href="#m81e8cbb612" x="247.139325" y="223.173814" style="fill: #1f77b4; stroke: #1f77b4"/>
     <use xlink:href="#m81e8cbb612" x="255.322227" y="176.736774" style="fill: #1f77b4; stroke: #1f77b4"/>
     <use xlink:href="#m81e8cbb612" x="189.565166" y="248.453578" style="fill: #1f77b4; stroke: #1f77b4"/>
     <use xlink:href="#m81e8cbb612" x="175.39059" y="270.05752" style="fill: #1f77b4; stroke: #1f77b4"/>
     <use xlink:href="#m81e8cbb612" x="176.775766" y="257.480749" style="fill: #1f77b4; stroke: #1f77b4"/>
     <use xlink:href="#m81e8cbb612" x="203.963899" y="179.031104" style="fill: #1f77b4; stroke: #1f77b4"/>
     <use xlink:href="#m81e8cbb612" x="196.193994" y="237.350649" style="fill: #1f77b4; stroke: #1f77b4"/>
     <use xlink:href="#m81e8cbb612" x="199.365936" y="194.129608" style="fill: #1f77b4; stroke: #1f77b4"/>
     <use xlink:href="#m81e8cbb612" x="274.139171" y="224.316842" style="fill: #1f77b4; stroke: #1f77b4"/>
     <use xlink:href="#m81e8cbb612" x="212.37921" y="243.527655" style="fill: #1f77b4; stroke: #1f77b4"/>
     <use xlink:href="#m81e8cbb612" x="210.775435" y="176.549526" style="fill: #1f77b4; stroke: #1f77b4"/>
     <use xlink:href="#m81e8cbb612" x="208.626646" y="240.474381" style="fill: #1f77b4; stroke: #1f77b4"/>
     <use xlink:href="#m81e8cbb612" x="208.290502" y="305.443268" style="fill: #1f77b4; stroke: #1f77b4"/>
     <use xlink:href="#m81e8cbb612" x="206.530564" y="189.819274" style="fill: #1f77b4; stroke: #1f77b4"/>
     <use xlink:href="#m81e8cbb612" x="205.286494" y="262.816895" style="fill: #1f77b4; stroke: #1f77b4"/>
     <use xlink:href="#m81e8cbb612" x="214.377981" y="231.34616" style="fill: #1f77b4; stroke: #1f77b4"/>
     <use xlink:href="#m81e8cbb612" x="212.329425" y="268.035707" style="fill: #1f77b4; stroke: #1f77b4"/>
     <use xlink:href="#m81e8cbb612" x="212.916923" y="264.44585" style="fill: #1f77b4; stroke: #1f77b4"/>
     <use xlink:href="#m81e8cbb612" x="239.786903" y="269.652879" style="fill: #1f77b4; stroke: #1f77b4"/>
     <use xlink:href="#m81e8cbb612" x="220.867697" y="240.570576" style="fill: #1f77b4; stroke: #1f77b4"/>
     <use xlink:href="#m81e8cbb612" x="213.113247" y="227.634318" style="fill: #1f77b4; stroke: #1f77b4"/>
     <use xlink:href="#m81e8cbb612" x="228.121808" y="257.968307" style="fill: #1f77b4; stroke: #1f77b4"/>
     <use xlink:href="#m81e8cbb612" x="210.881996" y="170.324888" style="fill: #1f77b4; stroke: #1f77b4"/>
     <use xlink:href="#m81e8cbb612" x="258.186358" y="161.984236" style="fill: #1f77b4; stroke: #1f77b4"/>
     <use xlink:href="#m81e8cbb612" x="198.274145" y="254.001549" style="fill: #1f77b4; stroke: #1f77b4"/>
     <use xlink:href="#m81e8cbb612" x="196.503674" y="268.637751" style="fill: #1f77b4; stroke: #1f77b4"/>
     <use xlink:href="#m81e8cbb612" x="193.984316" y="167.177333" style="fill: #1f77b4; stroke: #1f77b4"/>
     <use xlink:href="#m81e8cbb612" x="199.914437" y="205.246561" style="fill: #1f77b4; stroke: #1f77b4"/>
     <use xlink:href="#m81e8cbb612" x="194.104424" y="259.618391" style="fill: #1f77b4; stroke: #1f77b4"/>
     <use xlink:href="#m81e8cbb612" x="190.039849" y="207.370631" style="fill: #1f77b4; stroke: #1f77b4"/>
     <use xlink:href="#m81e8cbb612" x="191.194138" y="250.764472" style="fill: #1f77b4; stroke: #1f77b4"/>
     <use xlink:href="#m81e8cbb612" x="191.835655" y="247.4604" style="fill: #1f77b4; stroke: #1f77b4"/>
     <use xlink:href="#m81e8cbb612" x="193.222909" y="242.258716" style="fill: #1f77b4; stroke: #1f77b4"/>
     <use xlink:href="#m81e8cbb612" x="273.481812" y="188.085444" style="fill: #1f77b4; stroke: #1f77b4"/>
     <use xlink:href="#m81e8cbb612" x="217.205006" y="252.397068" style="fill: #1f77b4; stroke: #1f77b4"/>
     <use xlink:href="#m81e8cbb612" x="177.415252" y="287.278843" style="fill: #1f77b4; stroke: #1f77b4"/>
     <use xlink:href="#m81e8cbb612" x="271.831178" y="139.512225" style="fill: #1f77b4; stroke: #1f77b4"/>
     <use xlink:href="#m81e8cbb612" x="179.857868" y="190.037332" style="fill: #1f77b4; stroke: #1f77b4"/>
     <use xlink:href="#m81e8cbb612" x="244.878348" y="189.393987" style="fill: #1f77b4; stroke: #1f77b4"/>
     <use xlink:href="#m81e8cbb612" x="198.698082" y="269.523912" style="fill: #1f77b4; stroke: #1f77b4"/>
     <use xlink:href="#m81e8cbb612" x="150.702642" y="219.534214" style="fill: #1f77b4; stroke: #1f77b4"/>
     <use xlink:href="#m81e8cbb612" x="284.195208" y="185.202841" style="fill: #1f77b4; stroke: #1f77b4"/>
     <use xlink:href="#m81e8cbb612" x="283.047104" y="262.384285" style="fill: #1f77b4; stroke: #1f77b4"/>
     <use xlink:href="#m81e8cbb612" x="182.226306" y="211.636041" style="fill: #1f77b4; stroke: #1f77b4"/>
     <use xlink:href="#m81e8cbb612" x="268.887714" y="139.093062" style="fill: #1f77b4; stroke: #1f77b4"/>
     <use xlink:href="#m81e8cbb612" x="254.19486" y="121.953196" style="fill: #1f77b4; stroke: #1f77b4"/>
     <use xlink:href="#m81e8cbb612" x="174.158245" y="241.350246" style="fill: #1f77b4; stroke: #1f77b4"/>
     <use xlink:href="#m81e8cbb612" x="130.955436" y="323.556422" style="fill: #1f77b4; stroke: #1f77b4"/>
     <use xlink:href="#m81e8cbb612" x="162.993655" y="240.625028" style="fill: #1f77b4; stroke: #1f77b4"/>
     <use xlink:href="#m81e8cbb612" x="139.258771" y="253.437199" style="fill: #1f77b4; stroke: #1f77b4"/>
     <use xlink:href="#m81e8cbb612" x="295.459392" y="81.100308" style="fill: #1f77b4; stroke: #1f77b4"/>
     <use xlink:href="#m81e8cbb612" x="234.632975" y="149.197999" style="fill: #1f77b4; stroke: #1f77b4"/>
     <use xlink:href="#m81e8cbb612" x="165.008587" y="215.637737" style="fill: #1f77b4; stroke: #1f77b4"/>
     <use xlink:href="#m81e8cbb612" x="136.622492" y="213.28888" style="fill: #1f77b4; stroke: #1f77b4"/>
     <use xlink:href="#m81e8cbb612" x="131.827731" y="249.309597" style="fill: #1f77b4; stroke: #1f77b4"/>
     <use xlink:href="#m81e8cbb612" x="132.334344" y="320.59102" style="fill: #1f77b4; stroke: #1f77b4"/>
     <use xlink:href="#m81e8cbb612" x="140.23727" y="234.881534" style="fill: #1f77b4; stroke: #1f77b4"/>
     <use xlink:href="#m81e8cbb612" x="136.996659" y="245.037379" style="fill: #1f77b4; stroke: #1f77b4"/>
     <use xlink:href="#m81e8cbb612" x="131.624541" y="297.065105" style="fill: #1f77b4; stroke: #1f77b4"/>
     <use xlink:href="#m81e8cbb612" x="138.940127" y="235.705231" style="fill: #1f77b4; stroke: #1f77b4"/>
     <use xlink:href="#m81e8cbb612" x="133.958336" y="232.478844" style="fill: #1f77b4; stroke: #1f77b4"/>
     <use xlink:href="#m81e8cbb612" x="128.429603" y="298.665324" style="fill: #1f77b4; stroke: #1f77b4"/>
     <use xlink:href="#m81e8cbb612" x="123.087768" y="225.824619" style="fill: #1f77b4; stroke: #1f77b4"/>
     <use xlink:href="#m81e8cbb612" x="121.904772" y="253.521906" style="fill: #1f77b4; stroke: #1f77b4"/>
     <use xlink:href="#m81e8cbb612" x="120.431581" y="302.555471" style="fill: #1f77b4; stroke: #1f77b4"/>
    </g>
   </g>
   <g id="line2d_90">
    <path d="M 58.32 336.176933 
L 61.614545 333.873522 
L 64.909091 331.57011 
L 68.203636 329.266698 
L 71.498182 326.963287 
L 74.792727 324.659875 
L 78.087273 322.356463 
L 81.381818 320.053052 
L 84.676364 317.74964 
L 87.970909 315.446228 
L 91.265455 313.142817 
L 94.56 310.839405 
L 97.854545 308.535993 
L 101.149091 306.232582 
L 104.443636 303.92917 
L 107.738182 301.625759 
L 111.032727 299.322347 
L 114.327273 297.018935 
L 117.621818 294.715524 
L 120.916364 292.412112 
L 124.210909 290.1087 
L 127.505455 287.805289 
L 130.8 285.501877 
L 134.094545 283.198465 
L 137.389091 280.895054 
L 140.683636 278.591642 
L 143.978182 276.28823 
L 147.272727 273.984819 
L 150.567273 271.681407 
L 153.861818 269.377995 
L 157.156364 267.074584 
L 160.450909 264.771172 
L 163.745455 262.46776 
L 167.04 260.164349 
L 170.334545 257.860937 
L 173.629091 255.557525 
L 176.923636 253.254114 
L 180.218182 250.950702 
L 183.512727 248.64729 
L 186.807273 246.343879 
L 190.101818 244.040467 
L 193.396364 241.737055 
L 196.690909 239.433644 
L 199.985455 237.130232 
L 203.28 234.826821 
L 206.574545 232.523409 
L 209.869091 230.219997 
L 213.163636 227.916586 
L 216.458182 225.613174 
L 219.752727 223.309762 
L 223.047273 221.006351 
L 226.341818 218.702939 
L 229.636364 216.399527 
L 232.930909 214.096116 
L 236.225455 211.792704 
L 239.52 209.489292 
L 242.814545 207.185881 
L 246.109091 204.882469 
L 249.403636 202.579057 
L 252.698182 200.275646 
L 255.992727 197.972234 
L 259.287273 195.668822 
L 262.581818 193.365411 
L 265.876364 191.061999 
L 269.170909 188.758587 
L 272.465455 186.455176 
L 275.76 184.151764 
L 279.054545 181.848352 
L 282.349091 179.544941 
L 285.643636 177.241529 
L 288.938182 174.938117 
L 292.232727 172.634706 
L 295.527273 170.331294 
L 298.821818 168.027883 
L 302.116364 165.724471 
L 305.410909 163.421059 
L 308.705455 161.117648 
L 312 158.814236 
L 315.294545 156.510824 
L 318.589091 154.207413 
L 321.883636 151.904001 
L 325.178182 149.600589 
L 328.472727 147.297178 
L 331.767273 144.993766 
L 335.061818 142.690354 
L 338.356364 140.386943 
L 341.650909 138.083531 
L 344.945455 135.780119 
L 348.24 133.476708 
L 351.534545 131.173296 
L 354.829091 128.869884 
L 358.123636 126.566473 
L 361.418182 124.263061 
L 364.712727 121.959649 
L 368.007273 119.656238 
L 371.301818 117.352826 
L 374.596364 115.049414 
L 377.890909 112.746003 
L 381.185455 110.442591 
L 384.48 108.139179 
" clip-path="url(#pc4fdab5c33)" style="fill: none; stroke: #1a1a1a; stroke-width: 1.5; stroke-linecap: round"/>
   </g>
   <g id="patch_3">
    <path d="M 58.32 378 
L 58.32 51.84 
" style="fill: none; stroke: #262626; stroke-width: 1.25; stroke-linejoin: miter; stroke-linecap: square"/>
   </g>
   <g id="patch_4">
    <path d="M 384.48 378 
L 384.48 51.84 
" style="fill: none; stroke: #262626; stroke-width: 1.25; stroke-linejoin: miter; stroke-linecap: square"/>
   </g>
   <g id="patch_5">
    <path d="M 58.32 378 
L 384.48 378 
" style="fill: none; stroke: #262626; stroke-width: 1.25; stroke-linejoin: miter; stroke-linecap: square"/>
   </g>
   <g id="patch_6">
    <path d="M 58.32 51.84 
L 384.48 51.84 
" style="fill: none; stroke: #262626; stroke-width: 1.25; stroke-linejoin: miter; stroke-linecap: square"/>
   </g>
   <g id="text_15">
    <g id="patch_7">
     <path d="M 75.602391 95.925141 
L 171.501609 95.925141 
Q 176.001609 95.925141 176.001609 91.425141 
L 176.001609 77.486859 
Q 176.001609 72.986859 171.501609 72.986859 
L 75.602391 72.986859 
Q 71.102391 72.986859 71.102391 77.486859 
L 71.102391 91.425141 
Q 71.102391 95.925141 75.602391 95.925141 
z
" style="fill: #ffffff; opacity: 0.5; stroke: #1a1a1a; stroke-width: 2; stroke-linejoin: miter"/>
    </g>
    <!-- y=-2.85+0.70x -->
    <g style="fill: #262626" transform="translate(75.602391 88.268109)scale(0.15 -0.15)">
     <defs>
      <path id="ArialMT-79" d="M 397 -1278 
L 334 -750 
Q 519 -800 656 -800 
Q 844 -800 956 -737 
Q 1069 -675 1141 -563 
Q 1194 -478 1313 -144 
Q 1328 -97 1363 -6 
L 103 3319 
L 709 3319 
L 1400 1397 
Q 1534 1031 1641 628 
Q 1738 1016 1872 1384 
L 2581 3319 
L 3144 3319 
L 1881 -56 
Q 1678 -603 1566 -809 
Q 1416 -1088 1222 -1217 
Q 1028 -1347 759 -1347 
Q 597 -1347 397 -1278 
z
" transform="scale(0.015625)"/>
      <path id="ArialMT-3d" d="M 3381 2694 
L 356 2694 
L 356 3219 
L 3381 3219 
L 3381 2694 
z
M 3381 1303 
L 356 1303 
L 356 1828 
L 3381 1828 
L 3381 1303 
z
" transform="scale(0.015625)"/>
      <path id="ArialMT-2d" d="M 203 1375 
L 203 1941 
L 1931 1941 
L 1931 1375 
L 203 1375 
z
" transform="scale(0.015625)"/>
      <path id="ArialMT-2e" d="M 581 0 
L 581 641 
L 1222 641 
L 1222 0 
L 581 0 
z
" transform="scale(0.015625)"/>
      <path id="ArialMT-35" d="M 266 1200 
L 856 1250 
Q 922 819 1161 601 
Q 1400 384 1738 384 
Q 2144 384 2425 690 
Q 2706 997 2706 1503 
Q 2706 1984 2436 2262 
Q 2166 2541 1728 2541 
Q 1456 2541 1237 2417 
Q 1019 2294 894 2097 
L 366 2166 
L 809 4519 
L 3088 4519 
L 3088 3981 
L 1259 3981 
L 1013 2750 
Q 1425 3038 1878 3038 
Q 2478 3038 2890 2622 
Q 3303 2206 3303 1553 
Q 3303 931 2941 478 
Q 2500 -78 1738 -78 
Q 1113 -78 717 272 
Q 322 622 266 1200 
z
" transform="scale(0.015625)"/>
      <path id="ArialMT-2b" d="M 1603 741 
L 1603 1997 
L 356 1997 
L 356 2522 
L 1603 2522 
L 1603 3769 
L 2134 3769 
L 2134 2522 
L 3381 2522 
L 3381 1997 
L 2134 1997 
L 2134 741 
L 1603 741 
z
" transform="scale(0.015625)"/>
      <path id="ArialMT-37" d="M 303 3981 
L 303 4522 
L 3269 4522 
L 3269 4084 
Q 2831 3619 2401 2847 
Q 1972 2075 1738 1259 
Q 1569 684 1522 0 
L 944 0 
Q 953 541 1156 1306 
Q 1359 2072 1739 2783 
Q 2119 3494 2547 3981 
L 303 3981 
z
" transform="scale(0.015625)"/>
      <path id="ArialMT-78" d="M 47 0 
L 1259 1725 
L 138 3319 
L 841 3319 
L 1350 2541 
Q 1494 2319 1581 2169 
Q 1719 2375 1834 2534 
L 2394 3319 
L 3066 3319 
L 1919 1756 
L 3153 0 
L 2463 0 
L 1781 1031 
L 1600 1309 
L 728 0 
L 47 0 
z
" transform="scale(0.015625)"/>
     </defs>
     <use xlink:href="#ArialMT-79"/>
     <use xlink:href="#ArialMT-3d" x="50"/>
     <use xlink:href="#ArialMT-2d" x="108.398438"/>
     <use xlink:href="#ArialMT-32" x="141.699219"/>
     <use xlink:href="#ArialMT-2e" x="197.314453"/>
     <use xlink:href="#ArialMT-38" x="225.097656"/>
     <use xlink:href="#ArialMT-35" x="280.712891"/>
     <use xlink:href="#ArialMT-2b" x="336.328125"/>
     <use xlink:href="#ArialMT-30" x="394.726562"/>
     <use xlink:href="#ArialMT-2e" x="450.341797"/>
     <use xlink:href="#ArialMT-37" x="478.125"/>
     <use xlink:href="#ArialMT-30" x="533.740234"/>
     <use xlink:href="#ArialMT-78" x="589.355469"/>
    </g>
   </g>
   <g id="text_16">
    <!-- $\sigma^0$ obs VS simul - RMSE=1.39, R=0.69, $R^2$=0.48, bias=-0.03 -->
    <g style="fill: #262626" transform="translate(59.64 45.84)scale(0.12 -0.12)">
     <defs>
      <path id="ArialMT-56" d="M 1803 0 
L 28 4581 
L 684 4581 
L 1875 1253 
Q 2019 853 2116 503 
Q 2222 878 2363 1253 
L 3600 4581 
L 4219 4581 
L 2425 0 
L 1803 0 
z
" transform="scale(0.015625)"/>
      <path id="ArialMT-53" d="M 288 1472 
L 859 1522 
Q 900 1178 1048 958 
Q 1197 738 1509 602 
Q 1822 466 2213 466 
Q 2559 466 2825 569 
Q 3091 672 3220 851 
Q 3350 1031 3350 1244 
Q 3350 1459 3225 1620 
Q 3100 1781 2813 1891 
Q 2628 1963 1997 2114 
Q 1366 2266 1113 2400 
Q 784 2572 623 2826 
Q 463 3081 463 3397 
Q 463 3744 659 4045 
Q 856 4347 1234 4503 
Q 1613 4659 2075 4659 
Q 2584 4659 2973 4495 
Q 3363 4331 3572 4012 
Q 3781 3694 3797 3291 
L 3216 3247 
Q 3169 3681 2898 3903 
Q 2628 4125 2100 4125 
Q 1550 4125 1298 3923 
Q 1047 3722 1047 3438 
Q 1047 3191 1225 3031 
Q 1400 2872 2139 2705 
Q 2878 2538 3153 2413 
Q 3553 2228 3743 1945 
Q 3934 1663 3934 1294 
Q 3934 928 3725 604 
Q 3516 281 3123 101 
Q 2731 -78 2241 -78 
Q 1619 -78 1198 103 
Q 778 284 539 648 
Q 300 1013 288 1472 
z
" transform="scale(0.015625)"/>
      <path id="ArialMT-75" d="M 2597 0 
L 2597 488 
Q 2209 -75 1544 -75 
Q 1250 -75 995 37 
Q 741 150 617 320 
Q 494 491 444 738 
Q 409 903 409 1263 
L 409 3319 
L 972 3319 
L 972 1478 
Q 972 1038 1006 884 
Q 1059 663 1231 536 
Q 1403 409 1656 409 
Q 1909 409 2131 539 
Q 2353 669 2445 892 
Q 2538 1116 2538 1541 
L 2538 3319 
L 3100 3319 
L 3100 0 
L 2597 0 
z
" transform="scale(0.015625)"/>
      <path id="ArialMT-6c" d="M 409 0 
L 409 4581 
L 972 4581 
L 972 0 
L 409 0 
z
" transform="scale(0.015625)"/>
      <path id="ArialMT-52" d="M 503 0 
L 503 4581 
L 2534 4581 
Q 3147 4581 3465 4457 
Q 3784 4334 3975 4021 
Q 4166 3709 4166 3331 
Q 4166 2844 3850 2509 
Q 3534 2175 2875 2084 
Q 3116 1969 3241 1856 
Q 3506 1613 3744 1247 
L 4541 0 
L 3778 0 
L 3172 953 
Q 2906 1366 2734 1584 
Q 2563 1803 2427 1890 
Q 2291 1978 2150 2013 
Q 2047 2034 1813 2034 
L 1109 2034 
L 1109 0 
L 503 0 
z
M 1109 2559 
L 2413 2559 
Q 2828 2559 3062 2645 
Q 3297 2731 3419 2920 
Q 3541 3109 3541 3331 
Q 3541 3656 3305 3865 
Q 3069 4075 2559 4075 
L 1109 4075 
L 1109 2559 
z
" transform="scale(0.015625)"/>
      <path id="ArialMT-4d" d="M 475 0 
L 475 4581 
L 1388 4581 
L 2472 1338 
Q 2622 884 2691 659 
Q 2769 909 2934 1394 
L 4031 4581 
L 4847 4581 
L 4847 0 
L 4263 0 
L 4263 3834 
L 2931 0 
L 2384 0 
L 1059 3900 
L 1059 0 
L 475 0 
z
" transform="scale(0.015625)"/>
      <path id="ArialMT-45" d="M 506 0 
L 506 4581 
L 3819 4581 
L 3819 4041 
L 1113 4041 
L 1113 2638 
L 3647 2638 
L 3647 2100 
L 1113 2100 
L 1113 541 
L 3925 541 
L 3925 0 
L 506 0 
z
" transform="scale(0.015625)"/>
      <path id="ArialMT-33" d="M 269 1209 
L 831 1284 
Q 928 806 1161 595 
Q 1394 384 1728 384 
Q 2125 384 2398 659 
Q 2672 934 2672 1341 
Q 2672 1728 2419 1979 
Q 2166 2231 1775 2231 
Q 1616 2231 1378 2169 
L 1441 2663 
Q 1497 2656 1531 2656 
Q 1891 2656 2178 2843 
Q 2466 3031 2466 3422 
Q 2466 3731 2256 3934 
Q 2047 4138 1716 4138 
Q 1388 4138 1169 3931 
Q 950 3725 888 3313 
L 325 3413 
Q 428 3978 793 4289 
Q 1159 4600 1703 4600 
Q 2078 4600 2393 4439 
Q 2709 4278 2876 4000 
Q 3044 3722 3044 3409 
Q 3044 3113 2884 2869 
Q 2725 2625 2413 2481 
Q 2819 2388 3044 2092 
Q 3269 1797 3269 1353 
Q 3269 753 2831 336 
Q 2394 -81 1725 -81 
Q 1122 -81 723 278 
Q 325 638 269 1209 
z
" transform="scale(0.015625)"/>
      <path id="ArialMT-39" d="M 350 1059 
L 891 1109 
Q 959 728 1153 556 
Q 1347 384 1650 384 
Q 1909 384 2104 503 
Q 2300 622 2425 820 
Q 2550 1019 2634 1356 
Q 2719 1694 2719 2044 
Q 2719 2081 2716 2156 
Q 2547 1888 2255 1720 
Q 1963 1553 1622 1553 
Q 1053 1553 659 1965 
Q 266 2378 266 3053 
Q 266 3750 677 4175 
Q 1088 4600 1706 4600 
Q 2153 4600 2523 4359 
Q 2894 4119 3086 3673 
Q 3278 3228 3278 2384 
Q 3278 1506 3087 986 
Q 2897 466 2520 194 
Q 2144 -78 1638 -78 
Q 1100 -78 759 220 
Q 419 519 350 1059 
z
M 2653 3081 
Q 2653 3566 2395 3850 
Q 2138 4134 1775 4134 
Q 1400 4134 1122 3828 
Q 844 3522 844 3034 
Q 844 2597 1108 2323 
Q 1372 2050 1759 2050 
Q 2150 2050 2401 2323 
Q 2653 2597 2653 3081 
z
" transform="scale(0.015625)"/>
      <path id="ArialMT-2c" d="M 569 0 
L 569 641 
L 1209 641 
L 1209 0 
Q 1209 -353 1084 -570 
Q 959 -788 688 -906 
L 531 -666 
Q 709 -588 793 -436 
Q 878 -284 888 0 
L 569 0 
z
" transform="scale(0.015625)"/>
      <path id="DejaVuSans-Oblique-52" d="M 1613 4147 
L 1294 2491 
L 2106 2491 
Q 2584 2491 2879 2755 
Q 3175 3019 3175 3444 
Q 3175 3784 2976 3965 
Q 2778 4147 2406 4147 
L 1613 4147 
z
M 2772 2241 
Q 2972 2194 3105 2009 
Q 3238 1825 3413 1275 
L 3809 0 
L 3144 0 
L 2778 1197 
Q 2638 1659 2453 1815 
Q 2269 1972 1888 1972 
L 1191 1972 
L 806 0 
L 172 0 
L 1081 4666 
L 2503 4666 
Q 3150 4666 3495 4373 
Q 3841 4081 3841 3531 
Q 3841 3044 3547 2687 
Q 3253 2331 2772 2241 
z
" transform="scale(0.015625)"/>
      <path id="DejaVuSans-32" d="M 1228 531 
L 3431 531 
L 3431 0 
L 469 0 
L 469 531 
Q 828 903 1448 1529 
Q 2069 2156 2228 2338 
Q 2531 2678 2651 2914 
Q 2772 3150 2772 3378 
Q 2772 3750 2511 3984 
Q 2250 4219 1831 4219 
Q 1534 4219 1204 4116 
Q 875 4013 500 3803 
L 500 4441 
Q 881 4594 1212 4672 
Q 1544 4750 1819 4750 
Q 2544 4750 2975 4387 
Q 3406 4025 3406 3419 
Q 3406 3131 3298 2873 
Q 3191 2616 2906 2266 
Q 2828 2175 2409 1742 
Q 1991 1309 1228 531 
z
" transform="scale(0.015625)"/>
      <path id="ArialMT-61" d="M 2588 409 
Q 2275 144 1986 34 
Q 1697 -75 1366 -75 
Q 819 -75 525 192 
Q 231 459 231 875 
Q 231 1119 342 1320 
Q 453 1522 633 1644 
Q 813 1766 1038 1828 
Q 1203 1872 1538 1913 
Q 2219 1994 2541 2106 
Q 2544 2222 2544 2253 
Q 2544 2597 2384 2738 
Q 2169 2928 1744 2928 
Q 1347 2928 1158 2789 
Q 969 2650 878 2297 
L 328 2372 
Q 403 2725 575 2942 
Q 747 3159 1072 3276 
Q 1397 3394 1825 3394 
Q 2250 3394 2515 3294 
Q 2781 3194 2906 3042 
Q 3031 2891 3081 2659 
Q 3109 2516 3109 2141 
L 3109 1391 
Q 3109 606 3145 398 
Q 3181 191 3288 0 
L 2700 0 
Q 2613 175 2588 409 
z
M 2541 1666 
Q 2234 1541 1622 1453 
Q 1275 1403 1131 1340 
Q 988 1278 909 1158 
Q 831 1038 831 891 
Q 831 666 1001 516 
Q 1172 366 1500 366 
Q 1825 366 2078 508 
Q 2331 650 2450 897 
Q 2541 1088 2541 1459 
L 2541 1666 
z
" transform="scale(0.015625)"/>
     </defs>
     <use xlink:href="#DejaVuSans-Oblique-3c3" transform="translate(0 0.765625)"/>
     <use xlink:href="#DejaVuSans-30" transform="translate(67.851615 39.046875)scale(0.7)"/>
     <use xlink:href="#ArialMT-20" transform="translate(115.122122 0.765625)"/>
     <use xlink:href="#ArialMT-6f" transform="translate(142.905326 0.765625)"/>
     <use xlink:href="#ArialMT-62" transform="translate(198.52056 0.765625)"/>
     <use xlink:href="#ArialMT-73" transform="translate(254.135794 0.765625)"/>
     <use xlink:href="#ArialMT-20" transform="translate(304.135794 0.765625)"/>
     <use xlink:href="#ArialMT-56" transform="translate(331.918997 0.765625)"/>
     <use xlink:href="#ArialMT-53" transform="translate(398.618216 0.765625)"/>
     <use xlink:href="#ArialMT-20" transform="translate(465.317435 0.765625)"/>
     <use xlink:href="#ArialMT-73" transform="translate(493.100638 0.765625)"/>
     <use xlink:href="#ArialMT-69" transform="translate(543.100638 0.765625)"/>
     <use xlink:href="#ArialMT-6d" transform="translate(565.317435 0.765625)"/>
     <use xlink:href="#ArialMT-75" transform="translate(648.618216 0.765625)"/>
     <use xlink:href="#ArialMT-6c" transform="translate(704.233451 0.765625)"/>
     <use xlink:href="#ArialMT-20" transform="translate(726.450247 0.765625)"/>
     <use xlink:href="#ArialMT-2d" transform="translate(754.233451 0.765625)"/>
     <use xlink:href="#ArialMT-20" transform="translate(787.534232 0.765625)"/>
     <use xlink:href="#ArialMT-52" transform="translate(815.317435 0.765625)"/>
     <use xlink:href="#ArialMT-4d" transform="translate(887.534232 0.765625)"/>
     <use xlink:href="#ArialMT-53" transform="translate(970.835013 0.765625)"/>
     <use xlink:href="#ArialMT-45" transform="translate(1037.534232 0.765625)"/>
     <use xlink:href="#ArialMT-3d" transform="translate(1104.233451 0.765625)"/>
     <use xlink:href="#ArialMT-31" transform="translate(1162.631888 0.765625)"/>
     <use xlink:href="#ArialMT-2e" transform="translate(1218.247122 0.765625)"/>
     <use xlink:href="#ArialMT-33" transform="translate(1246.030326 0.765625)"/>
     <use xlink:href="#ArialMT-39" transform="translate(1301.64556 0.765625)"/>
     <use xlink:href="#ArialMT-2c" transform="translate(1357.260794 0.765625)"/>
     <use xlink:href="#ArialMT-20" transform="translate(1385.043997 0.765625)"/>
     <use xlink:href="#ArialMT-52" transform="translate(1412.827201 0.765625)"/>
     <use xlink:href="#ArialMT-3d" transform="translate(1485.043997 0.765625)"/>
     <use xlink:href="#ArialMT-30" transform="translate(1543.442435 0.765625)"/>
     <use xlink:href="#ArialMT-2e" transform="translate(1599.057669 0.765625)"/>
     <use xlink:href="#ArialMT-36" transform="translate(1626.840872 0.765625)"/>
     <use xlink:href="#ArialMT-39" transform="translate(1682.456107 0.765625)"/>
     <use xlink:href="#ArialMT-2c" transform="translate(1738.071341 0.765625)"/>
     <use xlink:href="#ArialMT-20" transform="translate(1765.854544 0.765625)"/>
     <use xlink:href="#DejaVuSans-Oblique-52" transform="translate(1793.637747 0.765625)"/>
     <use xlink:href="#DejaVuSans-32" transform="translate(1870.13694 39.046875)scale(0.7)"/>
     <use xlink:href="#ArialMT-3d" transform="translate(1917.407448 0.765625)"/>
     <use xlink:href="#ArialMT-30" transform="translate(1975.805885 0.765625)"/>
     <use xlink:href="#ArialMT-2e" transform="translate(2031.42112 0.765625)"/>
     <use xlink:href="#ArialMT-34" transform="translate(2059.204323 0.765625)"/>
     <use xlink:href="#ArialMT-38" transform="translate(2114.819557 0.765625)"/>
     <use xlink:href="#ArialMT-2c" transform="translate(2170.434792 0.765625)"/>
     <use xlink:href="#ArialMT-20" transform="translate(2198.217995 0.765625)"/>
     <use xlink:href="#ArialMT-62" transform="translate(2226.001198 0.765625)"/>
     <use xlink:href="#ArialMT-69" transform="translate(2281.616432 0.765625)"/>
     <use xlink:href="#ArialMT-61" transform="translate(2303.833229 0.765625)"/>
     <use xlink:href="#ArialMT-73" transform="translate(2359.448464 0.765625)"/>
     <use xlink:href="#ArialMT-3d" transform="translate(2409.448464 0.765625)"/>
     <use xlink:href="#ArialMT-2d" transform="translate(2467.846901 0.765625)"/>
     <use xlink:href="#ArialMT-30" transform="translate(2501.147682 0.765625)"/>
     <use xlink:href="#ArialMT-2e" transform="translate(2556.762917 0.765625)"/>
     <use xlink:href="#ArialMT-30" transform="translate(2584.54612 0.765625)"/>
     <use xlink:href="#ArialMT-33" transform="translate(2640.161354 0.765625)"/>
    </g>
   </g>
  </g>
 </g>
 <defs>
  <clipPath id="pc4fdab5c33">
   <rect x="58.32" y="51.84" width="326.16" height="326.16"/>
  </clipPath>
 </defs>
</svg>
