<?xml version="1.0" encoding="utf-8" standalone="no"?>
<!DOCTYPE svg PUBLIC "-//W3C//DTD SVG 1.1//EN"
  "http://www.w3.org/Graphics/SVG/1.1/DTD/svg11.dtd">
<svg xmlns:xlink="http://www.w3.org/1999/xlink" width="432pt" height="432pt" viewBox="0 0 432 432" xmlns="http://www.w3.org/2000/svg" version="1.1">
 <metadata>
  <rdf:RDF xmlns:dc="http://purl.org/dc/elements/1.1/" xmlns:cc="http://creativecommons.org/ns#" xmlns:rdf="http://www.w3.org/1999/02/22-rdf-syntax-ns#">
   <cc:Work>
    <dc:type rdf:resource="http://purl.org/dc/dcmitype/StillImage"/>
    <dc:date>2023-06-22T18:05:38.315596</dc:date>
    <dc:format>image/svg+xml</dc:format>
    <dc:creator>
     <cc:Agent>
      <dc:title>Matplotlib v3.7.1, https://matplotlib.org/</dc:title>
     </cc:Agent>
    </dc:creator>
   </cc:Work>
  </rdf:RDF>
 </metadata>
 <defs>
  <style type="text/css">*{stroke-linejoin: round; stroke-linecap: butt}</style>
 </defs>
 <g id="figure_1">
  <g id="patch_1">
   <path d="M 0 432 
L 432 432 
L 432 0 
L 0 0 
z
" style="fill: #ffffff"/>
  </g>
  <g id="axes_1">
   <g id="patch_2">
    <path d="M 55.08 384.48 
L 387.72 384.48 
L 387.72 51.84 
L 55.08 51.84 
z
" style="fill: #ffffff"/>
   </g>
   <g id="matplotlib.axis_1">
    <g id="xtick_1">
     <g id="line2d_1">
      <defs>
       <path id="m695029e2d0" d="M 0 0 
L 0 3.5 
" style="stroke: #000000; stroke-width: 0.8"/>
      </defs>
      <g>
       <use xlink:href="#m695029e2d0" x="114.043731" y="384.48" style="stroke: #000000; stroke-width: 0.8"/>
      </g>
     </g>
     <g id="text_1">
      <!-- −16 -->
      <g transform="translate(103.491387 399.078438) scale(0.1 -0.1)">
       <defs>
        <path id="DejaVuSans-2212" d="M 678 2272 
L 4684 2272 
L 4684 1741 
L 678 1741 
L 678 2272 
z
" transform="scale(0.015625)"/>
        <path id="DejaVuSans-31" d="M 794 531 
L 1825 531 
L 1825 4091 
L 703 3866 
L 703 4441 
L 1819 4666 
L 2450 4666 
L 2450 531 
L 3481 531 
L 3481 0 
L 794 0 
L 794 531 
z
" transform="scale(0.015625)"/>
        <path id="DejaVuSans-36" d="M 2113 2584 
Q 1688 2584 1439 2293 
Q 1191 2003 1191 1497 
Q 1191 994 1439 701 
Q 1688 409 2113 409 
Q 2538 409 2786 701 
Q 3034 994 3034 1497 
Q 3034 2003 2786 2293 
Q 2538 2584 2113 2584 
z
M 3366 4563 
L 3366 3988 
Q 3128 4100 2886 4159 
Q 2644 4219 2406 4219 
Q 1781 4219 1451 3797 
Q 1122 3375 1075 2522 
Q 1259 2794 1537 2939 
Q 1816 3084 2150 3084 
Q 2853 3084 3261 2657 
Q 3669 2231 3669 1497 
Q 3669 778 3244 343 
Q 2819 -91 2113 -91 
Q 1303 -91 875 529 
Q 447 1150 447 2328 
Q 447 3434 972 4092 
Q 1497 4750 2381 4750 
Q 2619 4750 2861 4703 
Q 3103 4656 3366 4563 
z
" transform="scale(0.015625)"/>
       </defs>
       <use xlink:href="#DejaVuSans-2212"/>
       <use xlink:href="#DejaVuSans-31" x="83.789062"/>
       <use xlink:href="#DejaVuSans-36" x="147.412109"/>
      </g>
     </g>
    </g>
    <g id="xtick_2">
     <g id="line2d_2">
      <g>
       <use xlink:href="#m695029e2d0" x="179.4067" y="384.48" style="stroke: #000000; stroke-width: 0.8"/>
      </g>
     </g>
     <g id="text_2">
      <!-- −14 -->
      <g transform="translate(168.854356 399.078438) scale(0.1 -0.1)">
       <defs>
        <path id="DejaVuSans-34" d="M 2419 4116 
L 825 1625 
L 2419 1625 
L 2419 4116 
z
M 2253 4666 
L 3047 4666 
L 3047 1625 
L 3713 1625 
L 3713 1100 
L 3047 1100 
L 3047 0 
L 2419 0 
L 2419 1100 
L 313 1100 
L 313 1709 
L 2253 4666 
z
" transform="scale(0.015625)"/>
       </defs>
       <use xlink:href="#DejaVuSans-2212"/>
       <use xlink:href="#DejaVuSans-31" x="83.789062"/>
       <use xlink:href="#DejaVuSans-34" x="147.412109"/>
      </g>
     </g>
    </g>
    <g id="xtick_3">
     <g id="line2d_3">
      <g>
       <use xlink:href="#m695029e2d0" x="244.769669" y="384.48" style="stroke: #000000; stroke-width: 0.8"/>
      </g>
     </g>
     <g id="text_3">
      <!-- −12 -->
      <g transform="translate(234.217325 399.078438) scale(0.1 -0.1)">
       <defs>
        <path id="DejaVuSans-32" d="M 1228 531 
L 3431 531 
L 3431 0 
L 469 0 
L 469 531 
Q 828 903 1448 1529 
Q 2069 2156 2228 2338 
Q 2531 2678 2651 2914 
Q 2772 3150 2772 3378 
Q 2772 3750 2511 3984 
Q 2250 4219 1831 4219 
Q 1534 4219 1204 4116 
Q 875 4013 500 3803 
L 500 4441 
Q 881 4594 1212 4672 
Q 1544 4750 1819 4750 
Q 2544 4750 2975 4387 
Q 3406 4025 3406 3419 
Q 3406 3131 3298 2873 
Q 3191 2616 2906 2266 
Q 2828 2175 2409 1742 
Q 1991 1309 1228 531 
z
" transform="scale(0.015625)"/>
       </defs>
       <use xlink:href="#DejaVuSans-2212"/>
       <use xlink:href="#DejaVuSans-31" x="83.789062"/>
       <use xlink:href="#DejaVuSans-32" x="147.412109"/>
      </g>
     </g>
    </g>
    <g id="xtick_4">
     <g id="line2d_4">
      <g>
       <use xlink:href="#m695029e2d0" x="310.132638" y="384.48" style="stroke: #000000; stroke-width: 0.8"/>
      </g>
     </g>
     <g id="text_4">
      <!-- −10 -->
      <g transform="translate(299.580294 399.078438) scale(0.1 -0.1)">
       <defs>
        <path id="DejaVuSans-30" d="M 2034 4250 
Q 1547 4250 1301 3770 
Q 1056 3291 1056 2328 
Q 1056 1369 1301 889 
Q 1547 409 2034 409 
Q 2525 409 2770 889 
Q 3016 1369 3016 2328 
Q 3016 3291 2770 3770 
Q 2525 4250 2034 4250 
z
M 2034 4750 
Q 2819 4750 3233 4129 
Q 3647 3509 3647 2328 
Q 3647 1150 3233 529 
Q 2819 -91 2034 -91 
Q 1250 -91 836 529 
Q 422 1150 422 2328 
Q 422 3509 836 4129 
Q 1250 4750 2034 4750 
z
" transform="scale(0.015625)"/>
       </defs>
       <use xlink:href="#DejaVuSans-2212"/>
       <use xlink:href="#DejaVuSans-31" x="83.789062"/>
       <use xlink:href="#DejaVuSans-30" x="147.412109"/>
      </g>
     </g>
    </g>
    <g id="xtick_5">
     <g id="line2d_5">
      <g>
       <use xlink:href="#m695029e2d0" x="375.495607" y="384.48" style="stroke: #000000; stroke-width: 0.8"/>
      </g>
     </g>
     <g id="text_5">
      <!-- −8 -->
      <g transform="translate(368.124513 399.078438) scale(0.1 -0.1)">
       <defs>
        <path id="DejaVuSans-38" d="M 2034 2216 
Q 1584 2216 1326 1975 
Q 1069 1734 1069 1313 
Q 1069 891 1326 650 
Q 1584 409 2034 409 
Q 2484 409 2743 651 
Q 3003 894 3003 1313 
Q 3003 1734 2745 1975 
Q 2488 2216 2034 2216 
z
M 1403 2484 
Q 997 2584 770 2862 
Q 544 3141 544 3541 
Q 544 4100 942 4425 
Q 1341 4750 2034 4750 
Q 2731 4750 3128 4425 
Q 3525 4100 3525 3541 
Q 3525 3141 3298 2862 
Q 3072 2584 2669 2484 
Q 3125 2378 3379 2068 
Q 3634 1759 3634 1313 
Q 3634 634 3220 271 
Q 2806 -91 2034 -91 
Q 1263 -91 848 271 
Q 434 634 434 1313 
Q 434 1759 690 2068 
Q 947 2378 1403 2484 
z
M 1172 3481 
Q 1172 3119 1398 2916 
Q 1625 2713 2034 2713 
Q 2441 2713 2670 2916 
Q 2900 3119 2900 3481 
Q 2900 3844 2670 4047 
Q 2441 4250 2034 4250 
Q 1625 4250 1398 4047 
Q 1172 3844 1172 3481 
z
" transform="scale(0.015625)"/>
       </defs>
       <use xlink:href="#DejaVuSans-2212"/>
       <use xlink:href="#DejaVuSans-38" x="83.789062"/>
      </g>
     </g>
    </g>
    <g id="text_6">
     <!-- $\sigma^0$_sim [dB] -->
     <g transform="translate(192.15 414.258125) scale(0.1 -0.1)">
      <defs>
       <path id="DejaVuSans-Oblique-3c3" d="M 2219 3044 
Q 1744 3044 1422 2700 
Q 1081 2341 969 1747 
Q 844 1119 1044 756 
Q 1241 397 1706 397 
Q 2166 397 2503 759 
Q 2844 1122 2966 1747 
Q 3075 2319 2881 2700 
Q 2700 3044 2219 3044 
z
M 2309 3503 
L 4219 3500 
L 4106 2925 
L 3463 2925 
Q 3706 2438 3575 1747 
Q 3406 888 2884 400 
Q 2359 -91 1609 -91 
Q 856 -91 525 400 
Q 194 888 363 1747 
Q 528 2609 1050 3097 
Q 1484 3503 2309 3503 
z
" transform="scale(0.015625)"/>
       <path id="DejaVuSans-5f" d="M 3263 -1063 
L 3263 -1509 
L -63 -1509 
L -63 -1063 
L 3263 -1063 
z
" transform="scale(0.015625)"/>
       <path id="DejaVuSans-73" d="M 2834 3397 
L 2834 2853 
Q 2591 2978 2328 3040 
Q 2066 3103 1784 3103 
Q 1356 3103 1142 2972 
Q 928 2841 928 2578 
Q 928 2378 1081 2264 
Q 1234 2150 1697 2047 
L 1894 2003 
Q 2506 1872 2764 1633 
Q 3022 1394 3022 966 
Q 3022 478 2636 193 
Q 2250 -91 1575 -91 
Q 1294 -91 989 -36 
Q 684 19 347 128 
L 347 722 
Q 666 556 975 473 
Q 1284 391 1588 391 
Q 1994 391 2212 530 
Q 2431 669 2431 922 
Q 2431 1156 2273 1281 
Q 2116 1406 1581 1522 
L 1381 1569 
Q 847 1681 609 1914 
Q 372 2147 372 2553 
Q 372 3047 722 3315 
Q 1072 3584 1716 3584 
Q 2034 3584 2315 3537 
Q 2597 3491 2834 3397 
z
" transform="scale(0.015625)"/>
       <path id="DejaVuSans-69" d="M 603 3500 
L 1178 3500 
L 1178 0 
L 603 0 
L 603 3500 
z
M 603 4863 
L 1178 4863 
L 1178 4134 
L 603 4134 
L 603 4863 
z
" transform="scale(0.015625)"/>
       <path id="DejaVuSans-6d" d="M 3328 2828 
Q 3544 3216 3844 3400 
Q 4144 3584 4550 3584 
Q 5097 3584 5394 3201 
Q 5691 2819 5691 2113 
L 5691 0 
L 5113 0 
L 5113 2094 
Q 5113 2597 4934 2840 
Q 4756 3084 4391 3084 
Q 3944 3084 3684 2787 
Q 3425 2491 3425 1978 
L 3425 0 
L 2847 0 
L 2847 2094 
Q 2847 2600 2669 2842 
Q 2491 3084 2119 3084 
Q 1678 3084 1418 2786 
Q 1159 2488 1159 1978 
L 1159 0 
L 581 0 
L 581 3500 
L 1159 3500 
L 1159 2956 
Q 1356 3278 1631 3431 
Q 1906 3584 2284 3584 
Q 2666 3584 2933 3390 
Q 3200 3197 3328 2828 
z
" transform="scale(0.015625)"/>
       <path id="DejaVuSans-20" transform="scale(0.015625)"/>
       <path id="DejaVuSans-5b" d="M 550 4863 
L 1875 4863 
L 1875 4416 
L 1125 4416 
L 1125 -397 
L 1875 -397 
L 1875 -844 
L 550 -844 
L 550 4863 
z
" transform="scale(0.015625)"/>
       <path id="DejaVuSans-64" d="M 2906 2969 
L 2906 4863 
L 3481 4863 
L 3481 0 
L 2906 0 
L 2906 525 
Q 2725 213 2448 61 
Q 2172 -91 1784 -91 
Q 1150 -91 751 415 
Q 353 922 353 1747 
Q 353 2572 751 3078 
Q 1150 3584 1784 3584 
Q 2172 3584 2448 3432 
Q 2725 3281 2906 2969 
z
M 947 1747 
Q 947 1113 1208 752 
Q 1469 391 1925 391 
Q 2381 391 2643 752 
Q 2906 1113 2906 1747 
Q 2906 2381 2643 2742 
Q 2381 3103 1925 3103 
Q 1469 3103 1208 2742 
Q 947 2381 947 1747 
z
" transform="scale(0.015625)"/>
       <path id="DejaVuSans-42" d="M 1259 2228 
L 1259 519 
L 2272 519 
Q 2781 519 3026 730 
Q 3272 941 3272 1375 
Q 3272 1813 3026 2020 
Q 2781 2228 2272 2228 
L 1259 2228 
z
M 1259 4147 
L 1259 2741 
L 2194 2741 
Q 2656 2741 2882 2914 
Q 3109 3088 3109 3444 
Q 3109 3797 2882 3972 
Q 2656 4147 2194 4147 
L 1259 4147 
z
M 628 4666 
L 2241 4666 
Q 2963 4666 3353 4366 
Q 3744 4066 3744 3513 
Q 3744 3084 3544 2831 
Q 3344 2578 2956 2516 
Q 3422 2416 3680 2098 
Q 3938 1781 3938 1306 
Q 3938 681 3513 340 
Q 3088 0 2303 0 
L 628 0 
L 628 4666 
z
" transform="scale(0.015625)"/>
       <path id="DejaVuSans-5d" d="M 1947 4863 
L 1947 -844 
L 622 -844 
L 622 -397 
L 1369 -397 
L 1369 4416 
L 622 4416 
L 622 4863 
L 1947 4863 
z
" transform="scale(0.015625)"/>
      </defs>
      <use xlink:href="#DejaVuSans-Oblique-3c3" transform="translate(0 0.765625)"/>
      <use xlink:href="#DejaVuSans-30" transform="translate(67.851615 39.046875) scale(0.7)"/>
      <use xlink:href="#DejaVuSans-5f" transform="translate(115.122122 0.765625)"/>
      <use xlink:href="#DejaVuSans-73" transform="translate(165.122122 0.765625)"/>
      <use xlink:href="#DejaVuSans-69" transform="translate(217.221732 0.765625)"/>
      <use xlink:href="#DejaVuSans-6d" transform="translate(245.004935 0.765625)"/>
      <use xlink:href="#DejaVuSans-20" transform="translate(342.417044 0.765625)"/>
      <use xlink:href="#DejaVuSans-5b" transform="translate(374.204154 0.765625)"/>
      <use xlink:href="#DejaVuSans-64" transform="translate(413.217826 0.765625)"/>
      <use xlink:href="#DejaVuSans-42" transform="translate(476.694388 0.765625)"/>
      <use xlink:href="#DejaVuSans-5d" transform="translate(545.297904 0.765625)"/>
     </g>
    </g>
   </g>
   <g id="matplotlib.axis_2">
    <g id="ytick_1">
     <g id="line2d_6">
      <defs>
       <path id="m85d919c902" d="M 0 0 
L -3.5 0 
" style="stroke: #000000; stroke-width: 0.8"/>
      </defs>
      <g>
       <use xlink:href="#m85d919c902" x="55.08" y="325.516269" style="stroke: #000000; stroke-width: 0.8"/>
      </g>
     </g>
     <g id="text_7">
      <!-- −16 -->
      <g transform="translate(26.975312 329.315488) scale(0.1 -0.1)">
       <use xlink:href="#DejaVuSans-2212"/>
       <use xlink:href="#DejaVuSans-31" x="83.789062"/>
       <use xlink:href="#DejaVuSans-36" x="147.412109"/>
      </g>
     </g>
    </g>
    <g id="ytick_2">
     <g id="line2d_7">
      <g>
       <use xlink:href="#m85d919c902" x="55.08" y="260.1533" style="stroke: #000000; stroke-width: 0.8"/>
      </g>
     </g>
     <g id="text_8">
      <!-- −14 -->
      <g transform="translate(26.975312 263.952519) scale(0.1 -0.1)">
       <use xlink:href="#DejaVuSans-2212"/>
       <use xlink:href="#DejaVuSans-31" x="83.789062"/>
       <use xlink:href="#DejaVuSans-34" x="147.412109"/>
      </g>
     </g>
    </g>
    <g id="ytick_3">
     <g id="line2d_8">
      <g>
       <use xlink:href="#m85d919c902" x="55.08" y="194.790331" style="stroke: #000000; stroke-width: 0.8"/>
      </g>
     </g>
     <g id="text_9">
      <!-- −12 -->
      <g transform="translate(26.975312 198.58955) scale(0.1 -0.1)">
       <use xlink:href="#DejaVuSans-2212"/>
       <use xlink:href="#DejaVuSans-31" x="83.789062"/>
       <use xlink:href="#DejaVuSans-32" x="147.412109"/>
      </g>
     </g>
    </g>
    <g id="ytick_4">
     <g id="line2d_9">
      <g>
       <use xlink:href="#m85d919c902" x="55.08" y="129.427362" style="stroke: #000000; stroke-width: 0.8"/>
      </g>
     </g>
     <g id="text_10">
      <!-- −10 -->
      <g transform="translate(26.975312 133.226581) scale(0.1 -0.1)">
       <use xlink:href="#DejaVuSans-2212"/>
       <use xlink:href="#DejaVuSans-31" x="83.789062"/>
       <use xlink:href="#DejaVuSans-30" x="147.412109"/>
      </g>
     </g>
    </g>
    <g id="ytick_5">
     <g id="line2d_10">
      <g>
       <use xlink:href="#m85d919c902" x="55.08" y="64.064393" style="stroke: #000000; stroke-width: 0.8"/>
      </g>
     </g>
     <g id="text_11">
      <!-- −8 -->
      <g transform="translate(33.337812 67.863612) scale(0.1 -0.1)">
       <use xlink:href="#DejaVuSans-2212"/>
       <use xlink:href="#DejaVuSans-38" x="83.789062"/>
      </g>
     </g>
    </g>
    <g id="text_12">
     <!-- $\sigma^0$_obs [dB] -->
     <g transform="translate(20.575312 247.36) rotate(-90) scale(0.1 -0.1)">
      <defs>
       <path id="DejaVuSans-6f" d="M 1959 3097 
Q 1497 3097 1228 2736 
Q 959 2375 959 1747 
Q 959 1119 1226 758 
Q 1494 397 1959 397 
Q 2419 397 2687 759 
Q 2956 1122 2956 1747 
Q 2956 2369 2687 2733 
Q 2419 3097 1959 3097 
z
M 1959 3584 
Q 2709 3584 3137 3096 
Q 3566 2609 3566 1747 
Q 3566 888 3137 398 
Q 2709 -91 1959 -91 
Q 1206 -91 779 398 
Q 353 888 353 1747 
Q 353 2609 779 3096 
Q 1206 3584 1959 3584 
z
" transform="scale(0.015625)"/>
       <path id="DejaVuSans-62" d="M 3116 1747 
Q 3116 2381 2855 2742 
Q 2594 3103 2138 3103 
Q 1681 3103 1420 2742 
Q 1159 2381 1159 1747 
Q 1159 1113 1420 752 
Q 1681 391 2138 391 
Q 2594 391 2855 752 
Q 3116 1113 3116 1747 
z
M 1159 2969 
Q 1341 3281 1617 3432 
Q 1894 3584 2278 3584 
Q 2916 3584 3314 3078 
Q 3713 2572 3713 1747 
Q 3713 922 3314 415 
Q 2916 -91 2278 -91 
Q 1894 -91 1617 61 
Q 1341 213 1159 525 
L 1159 0 
L 581 0 
L 581 4863 
L 1159 4863 
L 1159 2969 
z
" transform="scale(0.015625)"/>
      </defs>
      <use xlink:href="#DejaVuSans-Oblique-3c3" transform="translate(0 0.765625)"/>
      <use xlink:href="#DejaVuSans-30" transform="translate(67.851615 39.046875) scale(0.7)"/>
      <use xlink:href="#DejaVuSans-5f" transform="translate(115.122122 0.765625)"/>
      <use xlink:href="#DejaVuSans-6f" transform="translate(165.122122 0.765625)"/>
      <use xlink:href="#DejaVuSans-62" transform="translate(226.303763 0.765625)"/>
      <use xlink:href="#DejaVuSans-73" transform="translate(289.780326 0.765625)"/>
      <use xlink:href="#DejaVuSans-20" transform="translate(341.879935 0.765625)"/>
      <use xlink:href="#DejaVuSans-5b" transform="translate(373.667044 0.765625)"/>
      <use xlink:href="#DejaVuSans-64" transform="translate(412.680716 0.765625)"/>
      <use xlink:href="#DejaVuSans-42" transform="translate(476.157279 0.765625)"/>
      <use xlink:href="#DejaVuSans-5d" transform="translate(544.760794 0.765625)"/>
     </g>
    </g>
   </g>
   <g id="line2d_11">
    <defs>
     <path id="m09eef43bca" d="M 0 3 
C 0.795609 3 1.55874 2.683901 2.12132 2.12132 
C 2.683901 1.55874 3 0.795609 3 0 
C 3 -0.795609 2.683901 -1.55874 2.12132 -2.12132 
C 1.55874 -2.683901 0.795609 -3 0 -3 
C -0.795609 -3 -1.55874 -2.683901 -2.12132 -2.12132 
C -2.683901 -1.55874 -3 -0.795609 -3 0 
C -3 0.795609 -2.683901 1.55874 -2.12132 2.12132 
C -1.55874 2.683901 -0.795609 3 0 3 
z
" style="stroke: #1f77b4"/>
    </defs>
    <g clip-path="url(#p296e5bc969)">
     <use xlink:href="#m09eef43bca" x="211.095426" y="113.917831" style="fill: #1f77b4; stroke: #1f77b4"/>
     <use xlink:href="#m09eef43bca" x="336.437077" y="118.180547" style="fill: #1f77b4; stroke: #1f77b4"/>
     <use xlink:href="#m09eef43bca" x="327.99005" y="116.336123" style="fill: #1f77b4; stroke: #1f77b4"/>
     <use xlink:href="#m09eef43bca" x="331.943657" y="116.176082" style="fill: #1f77b4; stroke: #1f77b4"/>
     <use xlink:href="#m09eef43bca" x="333.359941" y="112.394176" style="fill: #1f77b4; stroke: #1f77b4"/>
     <use xlink:href="#m09eef43bca" x="327.901354" y="119.655608" style="fill: #1f77b4; stroke: #1f77b4"/>
     <use xlink:href="#m09eef43bca" x="320.722261" y="124.157784" style="fill: #1f77b4; stroke: #1f77b4"/>
     <use xlink:href="#m09eef43bca" x="330.352099" y="118.350405" style="fill: #1f77b4; stroke: #1f77b4"/>
     <use xlink:href="#m09eef43bca" x="320.304729" y="158.583142" style="fill: #1f77b4; stroke: #1f77b4"/>
     <use xlink:href="#m09eef43bca" x="310.445834" y="112.154749" style="fill: #1f77b4; stroke: #1f77b4"/>
     <use xlink:href="#m09eef43bca" x="306.732645" y="131.622853" style="fill: #1f77b4; stroke: #1f77b4"/>
     <use xlink:href="#m09eef43bca" x="302.841331" y="159.820043" style="fill: #1f77b4; stroke: #1f77b4"/>
     <use xlink:href="#m09eef43bca" x="294.231164" y="133.713751" style="fill: #1f77b4; stroke: #1f77b4"/>
     <use xlink:href="#m09eef43bca" x="272.673161" y="153.067655" style="fill: #1f77b4; stroke: #1f77b4"/>
     <use xlink:href="#m09eef43bca" x="265.455667" y="149.35968" style="fill: #1f77b4; stroke: #1f77b4"/>
     <use xlink:href="#m09eef43bca" x="323.608924" y="106.639962" style="fill: #1f77b4; stroke: #1f77b4"/>
     <use xlink:href="#m09eef43bca" x="312.222263" y="135.665323" style="fill: #1f77b4; stroke: #1f77b4"/>
     <use xlink:href="#m09eef43bca" x="306.49772" y="150.114086" style="fill: #1f77b4; stroke: #1f77b4"/>
     <use xlink:href="#m09eef43bca" x="320.839109" y="117.147912" style="fill: #1f77b4; stroke: #1f77b4"/>
     <use xlink:href="#m09eef43bca" x="290.231532" y="172.782158" style="fill: #1f77b4; stroke: #1f77b4"/>
     <use xlink:href="#m09eef43bca" x="278.10056" y="172.851914" style="fill: #1f77b4; stroke: #1f77b4"/>
     <use xlink:href="#m09eef43bca" x="318.14255" y="121.272356" style="fill: #1f77b4; stroke: #1f77b4"/>
     <use xlink:href="#m09eef43bca" x="271.138632" y="171.555059" style="fill: #1f77b4; stroke: #1f77b4"/>
     <use xlink:href="#m09eef43bca" x="315.951897" y="132.915059" style="fill: #1f77b4; stroke: #1f77b4"/>
     <use xlink:href="#m09eef43bca" x="315.519964" y="145.979651" style="fill: #1f77b4; stroke: #1f77b4"/>
     <use xlink:href="#m09eef43bca" x="313.812988" y="145.304438" style="fill: #1f77b4; stroke: #1f77b4"/>
     <use xlink:href="#m09eef43bca" x="313.391446" y="146.637457" style="fill: #1f77b4; stroke: #1f77b4"/>
     <use xlink:href="#m09eef43bca" x="302.494242" y="135.374252" style="fill: #1f77b4; stroke: #1f77b4"/>
     <use xlink:href="#m09eef43bca" x="294.623286" y="233.961801" style="fill: #1f77b4; stroke: #1f77b4"/>
     <use xlink:href="#m09eef43bca" x="310.906072" y="299.932169" style="fill: #1f77b4; stroke: #1f77b4"/>
     <use xlink:href="#m09eef43bca" x="310.499178" y="346.008077" style="fill: #1f77b4; stroke: #1f77b4"/>
     <use xlink:href="#m09eef43bca" x="308.892628" y="135.96144" style="fill: #1f77b4; stroke: #1f77b4"/>
     <use xlink:href="#m09eef43bca" x="308.496257" y="140.021266" style="fill: #1f77b4; stroke: #1f77b4"/>
     <use xlink:href="#m09eef43bca" x="288.134637" y="124.591886" style="fill: #1f77b4; stroke: #1f77b4"/>
     <use xlink:href="#m09eef43bca" x="306.546083" y="132.081094" style="fill: #1f77b4; stroke: #1f77b4"/>
     <use xlink:href="#m09eef43bca" x="306.162395" y="127.322966" style="fill: #1f77b4; stroke: #1f77b4"/>
     <use xlink:href="#m09eef43bca" x="282.233995" y="139.180753" style="fill: #1f77b4; stroke: #1f77b4"/>
     <use xlink:href="#m09eef43bca" x="304.275749" y="136.450925" style="fill: #1f77b4; stroke: #1f77b4"/>
     <use xlink:href="#m09eef43bca" x="303.904787" y="123.434928" style="fill: #1f77b4; stroke: #1f77b4"/>
     <use xlink:href="#m09eef43bca" x="301.965494" y="135.41504" style="fill: #1f77b4; stroke: #1f77b4"/>
     <use xlink:href="#m09eef43bca" x="245.98861" y="170.828603" style="fill: #1f77b4; stroke: #1f77b4"/>
     <use xlink:href="#m09eef43bca" x="231.320353" y="181.416504" style="fill: #1f77b4; stroke: #1f77b4"/>
     <use xlink:href="#m09eef43bca" x="216.388873" y="187.720362" style="fill: #1f77b4; stroke: #1f77b4"/>
     <use xlink:href="#m09eef43bca" x="196.617607" y="182.895308" style="fill: #1f77b4; stroke: #1f77b4"/>
     <use xlink:href="#m09eef43bca" x="292.073848" y="170.114016" style="fill: #1f77b4; stroke: #1f77b4"/>
     <use xlink:href="#m09eef43bca" x="290.646204" y="147.794609" style="fill: #1f77b4; stroke: #1f77b4"/>
     <use xlink:href="#m09eef43bca" x="274.596665" y="135.427019" style="fill: #1f77b4; stroke: #1f77b4"/>
     <use xlink:href="#m09eef43bca" x="242.413369" y="149.687653" style="fill: #1f77b4; stroke: #1f77b4"/>
     <use xlink:href="#m09eef43bca" x="220.853019" y="179.625985" style="fill: #1f77b4; stroke: #1f77b4"/>
     <use xlink:href="#m09eef43bca" x="279.123579" y="159.732177" style="fill: #1f77b4; stroke: #1f77b4"/>
     <use xlink:href="#m09eef43bca" x="278.236938" y="144.628175" style="fill: #1f77b4; stroke: #1f77b4"/>
     <use xlink:href="#m09eef43bca" x="277.396382" y="159.823824" style="fill: #1f77b4; stroke: #1f77b4"/>
     <use xlink:href="#m09eef43bca" x="215.576961" y="173.672072" style="fill: #1f77b4; stroke: #1f77b4"/>
     <use xlink:href="#m09eef43bca" x="216.169774" y="180.853921" style="fill: #1f77b4; stroke: #1f77b4"/>
     <use xlink:href="#m09eef43bca" x="217.166304" y="200.059422" style="fill: #1f77b4; stroke: #1f77b4"/>
     <use xlink:href="#m09eef43bca" x="222.617983" y="231.18709" style="fill: #1f77b4; stroke: #1f77b4"/>
     <use xlink:href="#m09eef43bca" x="223.980481" y="216.340377" style="fill: #1f77b4; stroke: #1f77b4"/>
     <use xlink:href="#m09eef43bca" x="225.339835" y="226.727003" style="fill: #1f77b4; stroke: #1f77b4"/>
     <use xlink:href="#m09eef43bca" x="233.026663" y="222.978567" style="fill: #1f77b4; stroke: #1f77b4"/>
     <use xlink:href="#m09eef43bca" x="236.095004" y="183.686857" style="fill: #1f77b4; stroke: #1f77b4"/>
     <use xlink:href="#m09eef43bca" x="269.097538" y="161.929805" style="fill: #1f77b4; stroke: #1f77b4"/>
     <use xlink:href="#m09eef43bca" x="249.554038" y="143.348268" style="fill: #1f77b4; stroke: #1f77b4"/>
     <use xlink:href="#m09eef43bca" x="242.835122" y="126.269993" style="fill: #1f77b4; stroke: #1f77b4"/>
     <use xlink:href="#m09eef43bca" x="241.116679" y="108.593081" style="fill: #1f77b4; stroke: #1f77b4"/>
     <use xlink:href="#m09eef43bca" x="246.729341" y="161.216676" style="fill: #1f77b4; stroke: #1f77b4"/>
     <use xlink:href="#m09eef43bca" x="247.641091" y="168.265505" style="fill: #1f77b4; stroke: #1f77b4"/>
     <use xlink:href="#m09eef43bca" x="257.91145" y="181.165584" style="fill: #1f77b4; stroke: #1f77b4"/>
     <use xlink:href="#m09eef43bca" x="259.115423" y="197.541857" style="fill: #1f77b4; stroke: #1f77b4"/>
     <use xlink:href="#m09eef43bca" x="255.320615" y="174.20631" style="fill: #1f77b4; stroke: #1f77b4"/>
     <use xlink:href="#m09eef43bca" x="256.18301" y="185.490024" style="fill: #1f77b4; stroke: #1f77b4"/>
     <use xlink:href="#m09eef43bca" x="266.941322" y="163.918635" style="fill: #1f77b4; stroke: #1f77b4"/>
     <use xlink:href="#m09eef43bca" x="252.567386" y="146.544387" style="fill: #1f77b4; stroke: #1f77b4"/>
     <use xlink:href="#m09eef43bca" x="245.846269" y="156.741889" style="fill: #1f77b4; stroke: #1f77b4"/>
     <use xlink:href="#m09eef43bca" x="239.180117" y="212.317311" style="fill: #1f77b4; stroke: #1f77b4"/>
     <use xlink:href="#m09eef43bca" x="268.005479" y="207.463271" style="fill: #1f77b4; stroke: #1f77b4"/>
     <use xlink:href="#m09eef43bca" x="245.808402" y="207.817792" style="fill: #1f77b4; stroke: #1f77b4"/>
     <use xlink:href="#m09eef43bca" x="234.513924" y="226.166041" style="fill: #1f77b4; stroke: #1f77b4"/>
     <use xlink:href="#m09eef43bca" x="228.545319" y="222.637371" style="fill: #1f77b4; stroke: #1f77b4"/>
     <use xlink:href="#m09eef43bca" x="226.830294" y="241.638783" style="fill: #1f77b4; stroke: #1f77b4"/>
     <use xlink:href="#m09eef43bca" x="224.171456" y="196.984781" style="fill: #1f77b4; stroke: #1f77b4"/>
     <use xlink:href="#m09eef43bca" x="218.185553" y="212.580628" style="fill: #1f77b4; stroke: #1f77b4"/>
     <use xlink:href="#m09eef43bca" x="216.434319" y="222.314022" style="fill: #1f77b4; stroke: #1f77b4"/>
     <use xlink:href="#m09eef43bca" x="217.186102" y="200.232782" style="fill: #1f77b4; stroke: #1f77b4"/>
     <use xlink:href="#m09eef43bca" x="207.554481" y="210.995547" style="fill: #1f77b4; stroke: #1f77b4"/>
     <use xlink:href="#m09eef43bca" x="205.800825" y="228.422614" style="fill: #1f77b4; stroke: #1f77b4"/>
     <use xlink:href="#m09eef43bca" x="255.815612" y="226.405026" style="fill: #1f77b4; stroke: #1f77b4"/>
     <use xlink:href="#m09eef43bca" x="224.862681" y="208.319214" style="fill: #1f77b4; stroke: #1f77b4"/>
     <use xlink:href="#m09eef43bca" x="202.619369" y="224.62408" style="fill: #1f77b4; stroke: #1f77b4"/>
     <use xlink:href="#m09eef43bca" x="202.156174" y="223.049286" style="fill: #1f77b4; stroke: #1f77b4"/>
     <use xlink:href="#m09eef43bca" x="200.890726" y="150.10678" style="fill: #1f77b4; stroke: #1f77b4"/>
     <use xlink:href="#m09eef43bca" x="199.651451" y="224.944651" style="fill: #1f77b4; stroke: #1f77b4"/>
     <use xlink:href="#m09eef43bca" x="194.833416" y="219.721053" style="fill: #1f77b4; stroke: #1f77b4"/>
     <use xlink:href="#m09eef43bca" x="193.670753" y="221.354559" style="fill: #1f77b4; stroke: #1f77b4"/>
     <use xlink:href="#m09eef43bca" x="226.076943" y="170.791525" style="fill: #1f77b4; stroke: #1f77b4"/>
     <use xlink:href="#m09eef43bca" x="188.763886" y="223.44292" style="fill: #1f77b4; stroke: #1f77b4"/>
     <use xlink:href="#m09eef43bca" x="199.37743" y="216.525787" style="fill: #1f77b4; stroke: #1f77b4"/>
     <use xlink:href="#m09eef43bca" x="188.418607" y="234.481432" style="fill: #1f77b4; stroke: #1f77b4"/>
     <use xlink:href="#m09eef43bca" x="306.860217" y="166.309285" style="fill: #1f77b4; stroke: #1f77b4"/>
     <use xlink:href="#m09eef43bca" x="249.078282" y="183.541527" style="fill: #1f77b4; stroke: #1f77b4"/>
     <use xlink:href="#m09eef43bca" x="209.219352" y="245.933498" style="fill: #1f77b4; stroke: #1f77b4"/>
     <use xlink:href="#m09eef43bca" x="211.454941" y="172.603208" style="fill: #1f77b4; stroke: #1f77b4"/>
     <use xlink:href="#m09eef43bca" x="293.038844" y="152.380473" style="fill: #1f77b4; stroke: #1f77b4"/>
     <use xlink:href="#m09eef43bca" x="238.187721" y="215.520346" style="fill: #1f77b4; stroke: #1f77b4"/>
     <use xlink:href="#m09eef43bca" x="191.207338" y="229.246591" style="fill: #1f77b4; stroke: #1f77b4"/>
     <use xlink:href="#m09eef43bca" x="189.961426" y="221.790802" style="fill: #1f77b4; stroke: #1f77b4"/>
     <use xlink:href="#m09eef43bca" x="189.028337" y="237.829282" style="fill: #1f77b4; stroke: #1f77b4"/>
     <use xlink:href="#m09eef43bca" x="187.663709" y="200.648787" style="fill: #1f77b4; stroke: #1f77b4"/>
     <use xlink:href="#m09eef43bca" x="186.047043" y="210.994366" style="fill: #1f77b4; stroke: #1f77b4"/>
     <use xlink:href="#m09eef43bca" x="185.440909" y="245.335256" style="fill: #1f77b4; stroke: #1f77b4"/>
     <use xlink:href="#m09eef43bca" x="184.686412" y="201.734264" style="fill: #1f77b4; stroke: #1f77b4"/>
     <use xlink:href="#m09eef43bca" x="183.659707" y="237.816765" style="fill: #1f77b4; stroke: #1f77b4"/>
     <use xlink:href="#m09eef43bca" x="183.098802" y="258.614899" style="fill: #1f77b4; stroke: #1f77b4"/>
     <use xlink:href="#m09eef43bca" x="198.972532" y="140.86379" style="fill: #1f77b4; stroke: #1f77b4"/>
     <use xlink:href="#m09eef43bca" x="185.06388" y="234.850865" style="fill: #1f77b4; stroke: #1f77b4"/>
     <use xlink:href="#m09eef43bca" x="182.51659" y="256.893107" style="fill: #1f77b4; stroke: #1f77b4"/>
     <use xlink:href="#m09eef43bca" x="179.666299" y="255.114245" style="fill: #1f77b4; stroke: #1f77b4"/>
     <use xlink:href="#m09eef43bca" x="179.184819" y="247.052252" style="fill: #1f77b4; stroke: #1f77b4"/>
     <use xlink:href="#m09eef43bca" x="331.351438" y="176.5884" style="fill: #1f77b4; stroke: #1f77b4"/>
     <use xlink:href="#m09eef43bca" x="274.313185" y="186.899776" style="fill: #1f77b4; stroke: #1f77b4"/>
     <use xlink:href="#m09eef43bca" x="232.56254" y="227.044615" style="fill: #1f77b4; stroke: #1f77b4"/>
     <use xlink:href="#m09eef43bca" x="201.277677" y="252.525816" style="fill: #1f77b4; stroke: #1f77b4"/>
     <use xlink:href="#m09eef43bca" x="302.205392" y="144.512279" style="fill: #1f77b4; stroke: #1f77b4"/>
     <use xlink:href="#m09eef43bca" x="272.57401" y="188.382547" style="fill: #1f77b4; stroke: #1f77b4"/>
     <use xlink:href="#m09eef43bca" x="238.933976" y="229.650245" style="fill: #1f77b4; stroke: #1f77b4"/>
     <use xlink:href="#m09eef43bca" x="190.748066" y="224.469972" style="fill: #1f77b4; stroke: #1f77b4"/>
     <use xlink:href="#m09eef43bca" x="188.653252" y="241.505316" style="fill: #1f77b4; stroke: #1f77b4"/>
     <use xlink:href="#m09eef43bca" x="187.762096" y="263.306089" style="fill: #1f77b4; stroke: #1f77b4"/>
     <use xlink:href="#m09eef43bca" x="186.22685" y="240.937487" style="fill: #1f77b4; stroke: #1f77b4"/>
     <use xlink:href="#m09eef43bca" x="185.931349" y="258.133443" style="fill: #1f77b4; stroke: #1f77b4"/>
     <use xlink:href="#m09eef43bca" x="185.639924" y="263.762516" style="fill: #1f77b4; stroke: #1f77b4"/>
     <use xlink:href="#m09eef43bca" x="210.018506" y="196.806572" style="fill: #1f77b4; stroke: #1f77b4"/>
     <use xlink:href="#m09eef43bca" x="192.41101" y="248.309915" style="fill: #1f77b4; stroke: #1f77b4"/>
     <use xlink:href="#m09eef43bca" x="187.265107" y="266.961289" style="fill: #1f77b4; stroke: #1f77b4"/>
     <use xlink:href="#m09eef43bca" x="184.733609" y="268.273428" style="fill: #1f77b4; stroke: #1f77b4"/>
     <use xlink:href="#m09eef43bca" x="185.538198" y="278.294675" style="fill: #1f77b4; stroke: #1f77b4"/>
     <use xlink:href="#m09eef43bca" x="186.46722" y="281.51264" style="fill: #1f77b4; stroke: #1f77b4"/>
     <use xlink:href="#m09eef43bca" x="301.016136" y="149.967162" style="fill: #1f77b4; stroke: #1f77b4"/>
     <use xlink:href="#m09eef43bca" x="268.795632" y="196.998377" style="fill: #1f77b4; stroke: #1f77b4"/>
     <use xlink:href="#m09eef43bca" x="244.601318" y="234.348228" style="fill: #1f77b4; stroke: #1f77b4"/>
     <use xlink:href="#m09eef43bca" x="270.779007" y="145.171154" style="fill: #1f77b4; stroke: #1f77b4"/>
     <use xlink:href="#m09eef43bca" x="247.967492" y="178.676321" style="fill: #1f77b4; stroke: #1f77b4"/>
     <use xlink:href="#m09eef43bca" x="233.567275" y="205.945196" style="fill: #1f77b4; stroke: #1f77b4"/>
     <use xlink:href="#m09eef43bca" x="229.981869" y="190.493864" style="fill: #1f77b4; stroke: #1f77b4"/>
     <use xlink:href="#m09eef43bca" x="222.668929" y="226.088365" style="fill: #1f77b4; stroke: #1f77b4"/>
     <use xlink:href="#m09eef43bca" x="217.066856" y="219.830703" style="fill: #1f77b4; stroke: #1f77b4"/>
     <use xlink:href="#m09eef43bca" x="214.709612" y="220.980742" style="fill: #1f77b4; stroke: #1f77b4"/>
     <use xlink:href="#m09eef43bca" x="216.964111" y="232.131918" style="fill: #1f77b4; stroke: #1f77b4"/>
     <use xlink:href="#m09eef43bca" x="215.73714" y="246.026008" style="fill: #1f77b4; stroke: #1f77b4"/>
     <use xlink:href="#m09eef43bca" x="212.987498" y="231.823253" style="fill: #1f77b4; stroke: #1f77b4"/>
     <use xlink:href="#m09eef43bca" x="212.258878" y="241.719885" style="fill: #1f77b4; stroke: #1f77b4"/>
     <use xlink:href="#m09eef43bca" x="276.725765" y="146.647582" style="fill: #1f77b4; stroke: #1f77b4"/>
     <use xlink:href="#m09eef43bca" x="278.230841" y="124.342265" style="fill: #1f77b4; stroke: #1f77b4"/>
     <use xlink:href="#m09eef43bca" x="278.631135" y="162.761957" style="fill: #1f77b4; stroke: #1f77b4"/>
     <use xlink:href="#m09eef43bca" x="271.182931" y="158.809959" style="fill: #1f77b4; stroke: #1f77b4"/>
     <use xlink:href="#m09eef43bca" x="280.779763" y="151.50291" style="fill: #1f77b4; stroke: #1f77b4"/>
     <use xlink:href="#m09eef43bca" x="267.762373" y="165.142163" style="fill: #1f77b4; stroke: #1f77b4"/>
     <use xlink:href="#m09eef43bca" x="262.708777" y="175.957793" style="fill: #1f77b4; stroke: #1f77b4"/>
     <use xlink:href="#m09eef43bca" x="283.689133" y="166.192692" style="fill: #1f77b4; stroke: #1f77b4"/>
     <use xlink:href="#m09eef43bca" x="276.233142" y="174.049621" style="fill: #1f77b4; stroke: #1f77b4"/>
     <use xlink:href="#m09eef43bca" x="265.728566" y="191.881397" style="fill: #1f77b4; stroke: #1f77b4"/>
     <use xlink:href="#m09eef43bca" x="284.702078" y="187.694618" style="fill: #1f77b4; stroke: #1f77b4"/>
     <use xlink:href="#m09eef43bca" x="284.692378" y="174.365044" style="fill: #1f77b4; stroke: #1f77b4"/>
     <use xlink:href="#m09eef43bca" x="284.682681" y="187.116489" style="fill: #1f77b4; stroke: #1f77b4"/>
     <use xlink:href="#m09eef43bca" x="284.64393" y="157.339306" style="fill: #1f77b4; stroke: #1f77b4"/>
     <use xlink:href="#m09eef43bca" x="284.634251" y="192.94092" style="fill: #1f77b4; stroke: #1f77b4"/>
     <use xlink:href="#m09eef43bca" x="284.624575" y="190.245272" style="fill: #1f77b4; stroke: #1f77b4"/>
     <use xlink:href="#m09eef43bca" x="255.703146" y="182.430525" style="fill: #1f77b4; stroke: #1f77b4"/>
     <use xlink:href="#m09eef43bca" x="268.897803" y="191.620074" style="fill: #1f77b4; stroke: #1f77b4"/>
     <use xlink:href="#m09eef43bca" x="284.566591" y="182.00897" style="fill: #1f77b4; stroke: #1f77b4"/>
     <use xlink:href="#m09eef43bca" x="269.72706" y="178.0065" style="fill: #1f77b4; stroke: #1f77b4"/>
     <use xlink:href="#m09eef43bca" x="269.346826" y="174.137043" style="fill: #1f77b4; stroke: #1f77b4"/>
     <use xlink:href="#m09eef43bca" x="272.081687" y="188.073231" style="fill: #1f77b4; stroke: #1f77b4"/>
     <use xlink:href="#m09eef43bca" x="269.886832" y="178.991996" style="fill: #1f77b4; stroke: #1f77b4"/>
     <use xlink:href="#m09eef43bca" x="269.156943" y="191.532194" style="fill: #1f77b4; stroke: #1f77b4"/>
     <use xlink:href="#m09eef43bca" x="267.836524" y="223.518119" style="fill: #1f77b4; stroke: #1f77b4"/>
     <use xlink:href="#m09eef43bca" x="273.288873" y="90.311923" style="fill: #1f77b4; stroke: #1f77b4"/>
     <use xlink:href="#m09eef43bca" x="275.697473" y="187.868014" style="fill: #1f77b4; stroke: #1f77b4"/>
     <use xlink:href="#m09eef43bca" x="269.915682" y="179.987872" style="fill: #1f77b4; stroke: #1f77b4"/>
     <use xlink:href="#m09eef43bca" x="268.073745" y="214.46161" style="fill: #1f77b4; stroke: #1f77b4"/>
     <use xlink:href="#m09eef43bca" x="265.57147" y="214.663396" style="fill: #1f77b4; stroke: #1f77b4"/>
     <use xlink:href="#m09eef43bca" x="259.638287" y="189.829527" style="fill: #1f77b4; stroke: #1f77b4"/>
    </g>
   </g>
   <g id="line2d_12">
    <path d="M 55.08 324.201924 
L 58.44 321.856516 
L 61.8 319.511109 
L 65.16 317.165702 
L 68.52 314.820294 
L 71.88 312.474887 
L 75.24 310.12948 
L 78.6 307.784072 
L 81.96 305.438665 
L 85.32 303.093258 
L 88.68 300.74785 
L 92.04 298.402443 
L 95.4 296.057036 
L 98.76 293.711628 
L 102.12 291.366221 
L 105.48 289.020814 
L 108.84 286.675406 
L 112.2 284.329999 
L 115.56 281.984592 
L 118.92 279.639184 
L 122.28 277.293777 
L 125.64 274.94837 
L 129 272.602962 
L 132.36 270.257555 
L 135.72 267.912148 
L 139.08 265.56674 
L 142.44 263.221333 
L 145.8 260.875926 
L 149.16 258.530518 
L 152.52 256.185111 
L 155.88 253.839704 
L 159.24 251.494296 
L 162.6 249.148889 
L 165.96 246.803482 
L 169.32 244.458074 
L 172.68 242.112667 
L 176.04 239.76726 
L 179.4 237.421852 
L 182.76 235.076445 
L 186.12 232.731038 
L 189.48 230.38563 
L 192.84 228.040223 
L 196.2 225.694816 
L 199.56 223.349408 
L 202.92 221.004001 
L 206.28 218.658594 
L 209.64 216.313186 
L 213 213.967779 
L 216.36 211.622372 
L 219.72 209.276964 
L 223.08 206.931557 
L 226.44 204.58615 
L 229.8 202.240742 
L 233.16 199.895335 
L 236.52 197.549928 
L 239.88 195.20452 
L 243.24 192.859113 
L 246.6 190.513706 
L 249.96 188.168298 
L 253.32 185.822891 
L 256.68 183.477484 
L 260.04 181.132076 
L 263.4 178.786669 
L 266.76 176.441262 
L 270.12 174.095854 
L 273.48 171.750447 
L 276.84 169.40504 
L 280.2 167.059632 
L 283.56 164.714225 
L 286.92 162.368818 
L 290.28 160.02341 
L 293.64 157.678003 
L 297 155.332596 
L 300.36 152.987188 
L 303.72 150.641781 
L 307.08 148.296374 
L 310.44 145.950966 
L 313.8 143.605559 
L 317.16 141.260152 
L 320.52 138.914744 
L 323.88 136.569337 
L 327.24 134.22393 
L 330.6 131.878522 
L 333.96 129.533115 
L 337.32 127.187708 
L 340.68 124.8423 
L 344.04 122.496893 
L 347.4 120.151486 
L 350.76 117.806078 
L 354.12 115.460671 
L 357.48 113.115264 
L 360.84 110.769857 
L 364.2 108.424449 
L 367.56 106.079042 
L 370.92 103.733635 
L 374.28 101.388227 
L 377.64 99.04282 
L 381 96.697413 
L 384.36 94.352005 
L 387.72 92.006598 
" clip-path="url(#p296e5bc969)" style="fill: none; stroke: #000000; stroke-width: 1.5; stroke-linecap: square"/>
   </g>
   <g id="patch_3">
    <path d="M 55.08 384.48 
L 55.08 51.84 
" style="fill: none; stroke: #000000; stroke-width: 0.8; stroke-linejoin: miter; stroke-linecap: square"/>
   </g>
   <g id="patch_4">
    <path d="M 387.72 384.48 
L 387.72 51.84 
" style="fill: none; stroke: #000000; stroke-width: 0.8; stroke-linejoin: miter; stroke-linecap: square"/>
   </g>
   <g id="patch_5">
    <path d="M 55.08 384.48 
L 387.72 384.48 
" style="fill: none; stroke: #000000; stroke-width: 0.8; stroke-linejoin: miter; stroke-linecap: square"/>
   </g>
   <g id="patch_6">
    <path d="M 55.08 51.84 
L 387.72 51.84 
" style="fill: none; stroke: #000000; stroke-width: 0.8; stroke-linejoin: miter; stroke-linecap: square"/>
   </g>
   <g id="text_13">
    <g id="patch_7">
     <path d="M 64.056047 96.862594 
L 179.159953 96.862594 
Q 183.659953 96.862594 183.659953 92.362594 
L 183.659953 77.845406 
Q 183.659953 73.345406 179.159953 73.345406 
L 64.056047 73.345406 
Q 59.556047 73.345406 59.556047 77.845406 
L 59.556047 92.362594 
Q 59.556047 96.862594 64.056047 96.862594 
z
" style="fill: #ffffff; opacity: 0.5; stroke: #000000; stroke-width: 2; stroke-linejoin: miter"/>
    </g>
    <!-- y=-3.53+0.70x -->
    <g transform="translate(64.056047 89.243062) scale(0.15 -0.15)">
     <defs>
      <path id="DejaVuSans-79" d="M 2059 -325 
Q 1816 -950 1584 -1140 
Q 1353 -1331 966 -1331 
L 506 -1331 
L 506 -850 
L 844 -850 
Q 1081 -850 1212 -737 
Q 1344 -625 1503 -206 
L 1606 56 
L 191 3500 
L 800 3500 
L 1894 763 
L 2988 3500 
L 3597 3500 
L 2059 -325 
z
" transform="scale(0.015625)"/>
      <path id="DejaVuSans-3d" d="M 678 2906 
L 4684 2906 
L 4684 2381 
L 678 2381 
L 678 2906 
z
M 678 1631 
L 4684 1631 
L 4684 1100 
L 678 1100 
L 678 1631 
z
" transform="scale(0.015625)"/>
      <path id="DejaVuSans-2d" d="M 313 2009 
L 1997 2009 
L 1997 1497 
L 313 1497 
L 313 2009 
z
" transform="scale(0.015625)"/>
      <path id="DejaVuSans-33" d="M 2597 2516 
Q 3050 2419 3304 2112 
Q 3559 1806 3559 1356 
Q 3559 666 3084 287 
Q 2609 -91 1734 -91 
Q 1441 -91 1130 -33 
Q 819 25 488 141 
L 488 750 
Q 750 597 1062 519 
Q 1375 441 1716 441 
Q 2309 441 2620 675 
Q 2931 909 2931 1356 
Q 2931 1769 2642 2001 
Q 2353 2234 1838 2234 
L 1294 2234 
L 1294 2753 
L 1863 2753 
Q 2328 2753 2575 2939 
Q 2822 3125 2822 3475 
Q 2822 3834 2567 4026 
Q 2313 4219 1838 4219 
Q 1578 4219 1281 4162 
Q 984 4106 628 3988 
L 628 4550 
Q 988 4650 1302 4700 
Q 1616 4750 1894 4750 
Q 2613 4750 3031 4423 
Q 3450 4097 3450 3541 
Q 3450 3153 3228 2886 
Q 3006 2619 2597 2516 
z
" transform="scale(0.015625)"/>
      <path id="DejaVuSans-2e" d="M 684 794 
L 1344 794 
L 1344 0 
L 684 0 
L 684 794 
z
" transform="scale(0.015625)"/>
      <path id="DejaVuSans-35" d="M 691 4666 
L 3169 4666 
L 3169 4134 
L 1269 4134 
L 1269 2991 
Q 1406 3038 1543 3061 
Q 1681 3084 1819 3084 
Q 2600 3084 3056 2656 
Q 3513 2228 3513 1497 
Q 3513 744 3044 326 
Q 2575 -91 1722 -91 
Q 1428 -91 1123 -41 
Q 819 9 494 109 
L 494 744 
Q 775 591 1075 516 
Q 1375 441 1709 441 
Q 2250 441 2565 725 
Q 2881 1009 2881 1497 
Q 2881 1984 2565 2268 
Q 2250 2553 1709 2553 
Q 1456 2553 1204 2497 
Q 953 2441 691 2322 
L 691 4666 
z
" transform="scale(0.015625)"/>
      <path id="DejaVuSans-2b" d="M 2944 4013 
L 2944 2272 
L 4684 2272 
L 4684 1741 
L 2944 1741 
L 2944 0 
L 2419 0 
L 2419 1741 
L 678 1741 
L 678 2272 
L 2419 2272 
L 2419 4013 
L 2944 4013 
z
" transform="scale(0.015625)"/>
      <path id="DejaVuSans-37" d="M 525 4666 
L 3525 4666 
L 3525 4397 
L 1831 0 
L 1172 0 
L 2766 4134 
L 525 4134 
L 525 4666 
z
" transform="scale(0.015625)"/>
      <path id="DejaVuSans-78" d="M 3513 3500 
L 2247 1797 
L 3578 0 
L 2900 0 
L 1881 1375 
L 863 0 
L 184 0 
L 1544 1831 
L 300 3500 
L 978 3500 
L 1906 2253 
L 2834 3500 
L 3513 3500 
z
" transform="scale(0.015625)"/>
     </defs>
     <use xlink:href="#DejaVuSans-79"/>
     <use xlink:href="#DejaVuSans-3d" x="59.179688"/>
     <use xlink:href="#DejaVuSans-2d" x="142.96875"/>
     <use xlink:href="#DejaVuSans-33" x="179.052734"/>
     <use xlink:href="#DejaVuSans-2e" x="242.675781"/>
     <use xlink:href="#DejaVuSans-35" x="274.462891"/>
     <use xlink:href="#DejaVuSans-33" x="338.085938"/>
     <use xlink:href="#DejaVuSans-2b" x="401.708984"/>
     <use xlink:href="#DejaVuSans-30" x="485.498047"/>
     <use xlink:href="#DejaVuSans-2e" x="549.121094"/>
     <use xlink:href="#DejaVuSans-37" x="580.908203"/>
     <use xlink:href="#DejaVuSans-30" x="644.53125"/>
     <use xlink:href="#DejaVuSans-78" x="708.154297"/>
    </g>
   </g>
   <g id="text_14">
    <!-- $\sigma^0$ obs VS simul - RMSE=1.08, R=0.69, $R^2$=0.47, bias=-0.03 -->
    <g transform="translate(40.14 45.84) scale(0.12 -0.12)">
     <defs>
      <path id="DejaVuSans-56" d="M 1831 0 
L 50 4666 
L 709 4666 
L 2188 738 
L 3669 4666 
L 4325 4666 
L 2547 0 
L 1831 0 
z
" transform="scale(0.015625)"/>
      <path id="DejaVuSans-53" d="M 3425 4513 
L 3425 3897 
Q 3066 4069 2747 4153 
Q 2428 4238 2131 4238 
Q 1616 4238 1336 4038 
Q 1056 3838 1056 3469 
Q 1056 3159 1242 3001 
Q 1428 2844 1947 2747 
L 2328 2669 
Q 3034 2534 3370 2195 
Q 3706 1856 3706 1288 
Q 3706 609 3251 259 
Q 2797 -91 1919 -91 
Q 1588 -91 1214 -16 
Q 841 59 441 206 
L 441 856 
Q 825 641 1194 531 
Q 1563 422 1919 422 
Q 2459 422 2753 634 
Q 3047 847 3047 1241 
Q 3047 1584 2836 1778 
Q 2625 1972 2144 2069 
L 1759 2144 
Q 1053 2284 737 2584 
Q 422 2884 422 3419 
Q 422 4038 858 4394 
Q 1294 4750 2059 4750 
Q 2388 4750 2728 4690 
Q 3069 4631 3425 4513 
z
" transform="scale(0.015625)"/>
      <path id="DejaVuSans-75" d="M 544 1381 
L 544 3500 
L 1119 3500 
L 1119 1403 
Q 1119 906 1312 657 
Q 1506 409 1894 409 
Q 2359 409 2629 706 
Q 2900 1003 2900 1516 
L 2900 3500 
L 3475 3500 
L 3475 0 
L 2900 0 
L 2900 538 
Q 2691 219 2414 64 
Q 2138 -91 1772 -91 
Q 1169 -91 856 284 
Q 544 659 544 1381 
z
M 1991 3584 
L 1991 3584 
z
" transform="scale(0.015625)"/>
      <path id="DejaVuSans-6c" d="M 603 4863 
L 1178 4863 
L 1178 0 
L 603 0 
L 603 4863 
z
" transform="scale(0.015625)"/>
      <path id="DejaVuSans-52" d="M 2841 2188 
Q 3044 2119 3236 1894 
Q 3428 1669 3622 1275 
L 4263 0 
L 3584 0 
L 2988 1197 
Q 2756 1666 2539 1819 
Q 2322 1972 1947 1972 
L 1259 1972 
L 1259 0 
L 628 0 
L 628 4666 
L 2053 4666 
Q 2853 4666 3247 4331 
Q 3641 3997 3641 3322 
Q 3641 2881 3436 2590 
Q 3231 2300 2841 2188 
z
M 1259 4147 
L 1259 2491 
L 2053 2491 
Q 2509 2491 2742 2702 
Q 2975 2913 2975 3322 
Q 2975 3731 2742 3939 
Q 2509 4147 2053 4147 
L 1259 4147 
z
" transform="scale(0.015625)"/>
      <path id="DejaVuSans-4d" d="M 628 4666 
L 1569 4666 
L 2759 1491 
L 3956 4666 
L 4897 4666 
L 4897 0 
L 4281 0 
L 4281 4097 
L 3078 897 
L 2444 897 
L 1241 4097 
L 1241 0 
L 628 0 
L 628 4666 
z
" transform="scale(0.015625)"/>
      <path id="DejaVuSans-45" d="M 628 4666 
L 3578 4666 
L 3578 4134 
L 1259 4134 
L 1259 2753 
L 3481 2753 
L 3481 2222 
L 1259 2222 
L 1259 531 
L 3634 531 
L 3634 0 
L 628 0 
L 628 4666 
z
" transform="scale(0.015625)"/>
      <path id="DejaVuSans-2c" d="M 750 794 
L 1409 794 
L 1409 256 
L 897 -744 
L 494 -744 
L 750 256 
L 750 794 
z
" transform="scale(0.015625)"/>
      <path id="DejaVuSans-39" d="M 703 97 
L 703 672 
Q 941 559 1184 500 
Q 1428 441 1663 441 
Q 2288 441 2617 861 
Q 2947 1281 2994 2138 
Q 2813 1869 2534 1725 
Q 2256 1581 1919 1581 
Q 1219 1581 811 2004 
Q 403 2428 403 3163 
Q 403 3881 828 4315 
Q 1253 4750 1959 4750 
Q 2769 4750 3195 4129 
Q 3622 3509 3622 2328 
Q 3622 1225 3098 567 
Q 2575 -91 1691 -91 
Q 1453 -91 1209 -44 
Q 966 3 703 97 
z
M 1959 2075 
Q 2384 2075 2632 2365 
Q 2881 2656 2881 3163 
Q 2881 3666 2632 3958 
Q 2384 4250 1959 4250 
Q 1534 4250 1286 3958 
Q 1038 3666 1038 3163 
Q 1038 2656 1286 2365 
Q 1534 2075 1959 2075 
z
" transform="scale(0.015625)"/>
      <path id="DejaVuSans-Oblique-52" d="M 1613 4147 
L 1294 2491 
L 2106 2491 
Q 2584 2491 2879 2755 
Q 3175 3019 3175 3444 
Q 3175 3784 2976 3965 
Q 2778 4147 2406 4147 
L 1613 4147 
z
M 2772 2241 
Q 2972 2194 3105 2009 
Q 3238 1825 3413 1275 
L 3809 0 
L 3144 0 
L 2778 1197 
Q 2638 1659 2453 1815 
Q 2269 1972 1888 1972 
L 1191 1972 
L 806 0 
L 172 0 
L 1081 4666 
L 2503 4666 
Q 3150 4666 3495 4373 
Q 3841 4081 3841 3531 
Q 3841 3044 3547 2687 
Q 3253 2331 2772 2241 
z
" transform="scale(0.015625)"/>
      <path id="DejaVuSans-61" d="M 2194 1759 
Q 1497 1759 1228 1600 
Q 959 1441 959 1056 
Q 959 750 1161 570 
Q 1363 391 1709 391 
Q 2188 391 2477 730 
Q 2766 1069 2766 1631 
L 2766 1759 
L 2194 1759 
z
M 3341 1997 
L 3341 0 
L 2766 0 
L 2766 531 
Q 2569 213 2275 61 
Q 1981 -91 1556 -91 
Q 1019 -91 701 211 
Q 384 513 384 1019 
Q 384 1609 779 1909 
Q 1175 2209 1959 2209 
L 2766 2209 
L 2766 2266 
Q 2766 2663 2505 2880 
Q 2244 3097 1772 3097 
Q 1472 3097 1187 3025 
Q 903 2953 641 2809 
L 641 3341 
Q 956 3463 1253 3523 
Q 1550 3584 1831 3584 
Q 2591 3584 2966 3190 
Q 3341 2797 3341 1997 
z
" transform="scale(0.015625)"/>
     </defs>
     <use xlink:href="#DejaVuSans-Oblique-3c3" transform="translate(0 0.765625)"/>
     <use xlink:href="#DejaVuSans-30" transform="translate(67.851615 39.046875) scale(0.7)"/>
     <use xlink:href="#DejaVuSans-20" transform="translate(115.122122 0.765625)"/>
     <use xlink:href="#DejaVuSans-6f" transform="translate(146.909232 0.765625)"/>
     <use xlink:href="#DejaVuSans-62" transform="translate(208.090872 0.765625)"/>
     <use xlink:href="#DejaVuSans-73" transform="translate(271.567435 0.765625)"/>
     <use xlink:href="#DejaVuSans-20" transform="translate(323.667044 0.765625)"/>
     <use xlink:href="#DejaVuSans-56" transform="translate(355.454154 0.765625)"/>
     <use xlink:href="#DejaVuSans-53" transform="translate(423.862357 0.765625)"/>
     <use xlink:href="#DejaVuSans-20" transform="translate(487.338919 0.765625)"/>
     <use xlink:href="#DejaVuSans-73" transform="translate(519.126029 0.765625)"/>
     <use xlink:href="#DejaVuSans-69" transform="translate(571.225638 0.765625)"/>
     <use xlink:href="#DejaVuSans-6d" transform="translate(599.008841 0.765625)"/>
     <use xlink:href="#DejaVuSans-75" transform="translate(696.420951 0.765625)"/>
     <use xlink:href="#DejaVuSans-6c" transform="translate(759.799857 0.765625)"/>
     <use xlink:href="#DejaVuSans-20" transform="translate(787.58306 0.765625)"/>
     <use xlink:href="#DejaVuSans-2d" transform="translate(819.370169 0.765625)"/>
     <use xlink:href="#DejaVuSans-20" transform="translate(855.454154 0.765625)"/>
     <use xlink:href="#DejaVuSans-52" transform="translate(887.241263 0.765625)"/>
     <use xlink:href="#DejaVuSans-4d" transform="translate(956.723685 0.765625)"/>
     <use xlink:href="#DejaVuSans-53" transform="translate(1043.002982 0.765625)"/>
     <use xlink:href="#DejaVuSans-45" transform="translate(1106.479544 0.765625)"/>
     <use xlink:href="#DejaVuSans-3d" transform="translate(1169.663138 0.765625)"/>
     <use xlink:href="#DejaVuSans-31" transform="translate(1253.452201 0.765625)"/>
     <use xlink:href="#DejaVuSans-2e" transform="translate(1317.075247 0.765625)"/>
     <use xlink:href="#DejaVuSans-30" transform="translate(1348.862357 0.765625)"/>
     <use xlink:href="#DejaVuSans-38" transform="translate(1412.485404 0.765625)"/>
     <use xlink:href="#DejaVuSans-2c" transform="translate(1476.108451 0.765625)"/>
     <use xlink:href="#DejaVuSans-20" transform="translate(1507.89556 0.765625)"/>
     <use xlink:href="#DejaVuSans-52" transform="translate(1539.682669 0.765625)"/>
     <use xlink:href="#DejaVuSans-3d" transform="translate(1609.165091 0.765625)"/>
     <use xlink:href="#DejaVuSans-30" transform="translate(1692.954154 0.765625)"/>
     <use xlink:href="#DejaVuSans-2e" transform="translate(1756.577201 0.765625)"/>
     <use xlink:href="#DejaVuSans-36" transform="translate(1788.36431 0.765625)"/>
     <use xlink:href="#DejaVuSans-39" transform="translate(1851.987357 0.765625)"/>
     <use xlink:href="#DejaVuSans-2c" transform="translate(1915.610404 0.765625)"/>
     <use xlink:href="#DejaVuSans-20" transform="translate(1947.397513 0.765625)"/>
     <use xlink:href="#DejaVuSans-Oblique-52" transform="translate(1979.184622 0.765625)"/>
     <use xlink:href="#DejaVuSans-32" transform="translate(2055.683815 39.046875) scale(0.7)"/>
     <use xlink:href="#DejaVuSans-3d" transform="translate(2102.954323 0.765625)"/>
     <use xlink:href="#DejaVuSans-30" transform="translate(2186.743385 0.765625)"/>
     <use xlink:href="#DejaVuSans-2e" transform="translate(2250.366432 0.765625)"/>
     <use xlink:href="#DejaVuSans-34" transform="translate(2282.153542 0.765625)"/>
     <use xlink:href="#DejaVuSans-37" transform="translate(2345.776589 0.765625)"/>
     <use xlink:href="#DejaVuSans-2c" transform="translate(2409.399635 0.765625)"/>
     <use xlink:href="#DejaVuSans-20" transform="translate(2441.186745 0.765625)"/>
     <use xlink:href="#DejaVuSans-62" transform="translate(2472.973854 0.765625)"/>
     <use xlink:href="#DejaVuSans-69" transform="translate(2536.450417 0.765625)"/>
     <use xlink:href="#DejaVuSans-61" transform="translate(2564.23362 0.765625)"/>
     <use xlink:href="#DejaVuSans-73" transform="translate(2625.512917 0.765625)"/>
     <use xlink:href="#DejaVuSans-3d" transform="translate(2677.612526 0.765625)"/>
     <use xlink:href="#DejaVuSans-2d" transform="translate(2761.401589 0.765625)"/>
     <use xlink:href="#DejaVuSans-30" transform="translate(2797.485573 0.765625)"/>
     <use xlink:href="#DejaVuSans-2e" transform="translate(2861.10862 0.765625)"/>
     <use xlink:href="#DejaVuSans-30" transform="translate(2892.895729 0.765625)"/>
     <use xlink:href="#DejaVuSans-33" transform="translate(2956.518776 0.765625)"/>
    </g>
   </g>
  </g>
 </g>
 <defs>
  <clipPath id="p296e5bc969">
   <rect x="55.08" y="51.84" width="332.64" height="332.64"/>
  </clipPath>
 </defs>
</svg>
