<?xml version="1.0" encoding="utf-8" standalone="no"?>
<!DOCTYPE svg PUBLIC "-//W3C//DTD SVG 1.1//EN"
  "http://www.w3.org/Graphics/SVG/1.1/DTD/svg11.dtd">
<svg xmlns:xlink="http://www.w3.org/1999/xlink" width="432pt" height="432pt" viewBox="0 0 432 432" xmlns="http://www.w3.org/2000/svg" version="1.1">
 <metadata>
  <rdf:RDF xmlns:dc="http://purl.org/dc/elements/1.1/" xmlns:cc="http://creativecommons.org/ns#" xmlns:rdf="http://www.w3.org/1999/02/22-rdf-syntax-ns#">
   <cc:Work>
    <dc:type rdf:resource="http://purl.org/dc/dcmitype/StillImage"/>
    <dc:date>2023-06-22T17:37:35.203232</dc:date>
    <dc:format>image/svg+xml</dc:format>
    <dc:creator>
     <cc:Agent>
      <dc:title>Matplotlib v3.7.1, https://matplotlib.org/</dc:title>
     </cc:Agent>
    </dc:creator>
   </cc:Work>
  </rdf:RDF>
 </metadata>
 <defs>
  <style type="text/css">*{stroke-linejoin: round; stroke-linecap: butt}</style>
 </defs>
 <g id="figure_1">
  <g id="patch_1">
   <path d="M 0 432 
L 432 432 
L 432 0 
L 0 0 
z
" style="fill: #ffffff"/>
  </g>
  <g id="axes_1">
   <g id="patch_2">
    <path d="M 55.08 384.48 
L 387.72 384.48 
L 387.72 51.84 
L 55.08 51.84 
z
" style="fill: #ffffff"/>
   </g>
   <g id="matplotlib.axis_1">
    <g id="xtick_1">
     <g id="line2d_1">
      <defs>
       <path id="m183f395db9" d="M 0 0 
L 0 3.5 
" style="stroke: #000000; stroke-width: 0.8"/>
      </defs>
      <g>
       <use xlink:href="#m183f395db9" x="114.007492" y="384.48" style="stroke: #000000; stroke-width: 0.8"/>
      </g>
     </g>
     <g id="text_1">
      <!-- −16 -->
      <g transform="translate(103.455148 399.078438) scale(0.1 -0.1)">
       <defs>
        <path id="DejaVuSans-2212" d="M 678 2272 
L 4684 2272 
L 4684 1741 
L 678 1741 
L 678 2272 
z
" transform="scale(0.015625)"/>
        <path id="DejaVuSans-31" d="M 794 531 
L 1825 531 
L 1825 4091 
L 703 3866 
L 703 4441 
L 1819 4666 
L 2450 4666 
L 2450 531 
L 3481 531 
L 3481 0 
L 794 0 
L 794 531 
z
" transform="scale(0.015625)"/>
        <path id="DejaVuSans-36" d="M 2113 2584 
Q 1688 2584 1439 2293 
Q 1191 2003 1191 1497 
Q 1191 994 1439 701 
Q 1688 409 2113 409 
Q 2538 409 2786 701 
Q 3034 994 3034 1497 
Q 3034 2003 2786 2293 
Q 2538 2584 2113 2584 
z
M 3366 4563 
L 3366 3988 
Q 3128 4100 2886 4159 
Q 2644 4219 2406 4219 
Q 1781 4219 1451 3797 
Q 1122 3375 1075 2522 
Q 1259 2794 1537 2939 
Q 1816 3084 2150 3084 
Q 2853 3084 3261 2657 
Q 3669 2231 3669 1497 
Q 3669 778 3244 343 
Q 2819 -91 2113 -91 
Q 1303 -91 875 529 
Q 447 1150 447 2328 
Q 447 3434 972 4092 
Q 1497 4750 2381 4750 
Q 2619 4750 2861 4703 
Q 3103 4656 3366 4563 
z
" transform="scale(0.015625)"/>
       </defs>
       <use xlink:href="#DejaVuSans-2212"/>
       <use xlink:href="#DejaVuSans-31" x="83.789062"/>
       <use xlink:href="#DejaVuSans-36" x="147.412109"/>
      </g>
     </g>
    </g>
    <g id="xtick_2">
     <g id="line2d_2">
      <g>
       <use xlink:href="#m183f395db9" x="179.392525" y="384.48" style="stroke: #000000; stroke-width: 0.8"/>
      </g>
     </g>
     <g id="text_2">
      <!-- −14 -->
      <g transform="translate(168.840181 399.078438) scale(0.1 -0.1)">
       <defs>
        <path id="DejaVuSans-34" d="M 2419 4116 
L 825 1625 
L 2419 1625 
L 2419 4116 
z
M 2253 4666 
L 3047 4666 
L 3047 1625 
L 3713 1625 
L 3713 1100 
L 3047 1100 
L 3047 0 
L 2419 0 
L 2419 1100 
L 313 1100 
L 313 1709 
L 2253 4666 
z
" transform="scale(0.015625)"/>
       </defs>
       <use xlink:href="#DejaVuSans-2212"/>
       <use xlink:href="#DejaVuSans-31" x="83.789062"/>
       <use xlink:href="#DejaVuSans-34" x="147.412109"/>
      </g>
     </g>
    </g>
    <g id="xtick_3">
     <g id="line2d_3">
      <g>
       <use xlink:href="#m183f395db9" x="244.777558" y="384.48" style="stroke: #000000; stroke-width: 0.8"/>
      </g>
     </g>
     <g id="text_3">
      <!-- −12 -->
      <g transform="translate(234.225214 399.078438) scale(0.1 -0.1)">
       <defs>
        <path id="DejaVuSans-32" d="M 1228 531 
L 3431 531 
L 3431 0 
L 469 0 
L 469 531 
Q 828 903 1448 1529 
Q 2069 2156 2228 2338 
Q 2531 2678 2651 2914 
Q 2772 3150 2772 3378 
Q 2772 3750 2511 3984 
Q 2250 4219 1831 4219 
Q 1534 4219 1204 4116 
Q 875 4013 500 3803 
L 500 4441 
Q 881 4594 1212 4672 
Q 1544 4750 1819 4750 
Q 2544 4750 2975 4387 
Q 3406 4025 3406 3419 
Q 3406 3131 3298 2873 
Q 3191 2616 2906 2266 
Q 2828 2175 2409 1742 
Q 1991 1309 1228 531 
z
" transform="scale(0.015625)"/>
       </defs>
       <use xlink:href="#DejaVuSans-2212"/>
       <use xlink:href="#DejaVuSans-31" x="83.789062"/>
       <use xlink:href="#DejaVuSans-32" x="147.412109"/>
      </g>
     </g>
    </g>
    <g id="xtick_4">
     <g id="line2d_4">
      <g>
       <use xlink:href="#m183f395db9" x="310.16259" y="384.48" style="stroke: #000000; stroke-width: 0.8"/>
      </g>
     </g>
     <g id="text_4">
      <!-- −10 -->
      <g transform="translate(299.610247 399.078438) scale(0.1 -0.1)">
       <defs>
        <path id="DejaVuSans-30" d="M 2034 4250 
Q 1547 4250 1301 3770 
Q 1056 3291 1056 2328 
Q 1056 1369 1301 889 
Q 1547 409 2034 409 
Q 2525 409 2770 889 
Q 3016 1369 3016 2328 
Q 3016 3291 2770 3770 
Q 2525 4250 2034 4250 
z
M 2034 4750 
Q 2819 4750 3233 4129 
Q 3647 3509 3647 2328 
Q 3647 1150 3233 529 
Q 2819 -91 2034 -91 
Q 1250 -91 836 529 
Q 422 1150 422 2328 
Q 422 3509 836 4129 
Q 1250 4750 2034 4750 
z
" transform="scale(0.015625)"/>
       </defs>
       <use xlink:href="#DejaVuSans-2212"/>
       <use xlink:href="#DejaVuSans-31" x="83.789062"/>
       <use xlink:href="#DejaVuSans-30" x="147.412109"/>
      </g>
     </g>
    </g>
    <g id="xtick_5">
     <g id="line2d_5">
      <g>
       <use xlink:href="#m183f395db9" x="375.547623" y="384.48" style="stroke: #000000; stroke-width: 0.8"/>
      </g>
     </g>
     <g id="text_5">
      <!-- −8 -->
      <g transform="translate(368.17653 399.078438) scale(0.1 -0.1)">
       <defs>
        <path id="DejaVuSans-38" d="M 2034 2216 
Q 1584 2216 1326 1975 
Q 1069 1734 1069 1313 
Q 1069 891 1326 650 
Q 1584 409 2034 409 
Q 2484 409 2743 651 
Q 3003 894 3003 1313 
Q 3003 1734 2745 1975 
Q 2488 2216 2034 2216 
z
M 1403 2484 
Q 997 2584 770 2862 
Q 544 3141 544 3541 
Q 544 4100 942 4425 
Q 1341 4750 2034 4750 
Q 2731 4750 3128 4425 
Q 3525 4100 3525 3541 
Q 3525 3141 3298 2862 
Q 3072 2584 2669 2484 
Q 3125 2378 3379 2068 
Q 3634 1759 3634 1313 
Q 3634 634 3220 271 
Q 2806 -91 2034 -91 
Q 1263 -91 848 271 
Q 434 634 434 1313 
Q 434 1759 690 2068 
Q 947 2378 1403 2484 
z
M 1172 3481 
Q 1172 3119 1398 2916 
Q 1625 2713 2034 2713 
Q 2441 2713 2670 2916 
Q 2900 3119 2900 3481 
Q 2900 3844 2670 4047 
Q 2441 4250 2034 4250 
Q 1625 4250 1398 4047 
Q 1172 3844 1172 3481 
z
" transform="scale(0.015625)"/>
       </defs>
       <use xlink:href="#DejaVuSans-2212"/>
       <use xlink:href="#DejaVuSans-38" x="83.789062"/>
      </g>
     </g>
    </g>
    <g id="text_6">
     <!-- $\sigma^0$_sim [dB] -->
     <g transform="translate(192.15 414.258125) scale(0.1 -0.1)">
      <defs>
       <path id="DejaVuSans-Oblique-3c3" d="M 2219 3044 
Q 1744 3044 1422 2700 
Q 1081 2341 969 1747 
Q 844 1119 1044 756 
Q 1241 397 1706 397 
Q 2166 397 2503 759 
Q 2844 1122 2966 1747 
Q 3075 2319 2881 2700 
Q 2700 3044 2219 3044 
z
M 2309 3503 
L 4219 3500 
L 4106 2925 
L 3463 2925 
Q 3706 2438 3575 1747 
Q 3406 888 2884 400 
Q 2359 -91 1609 -91 
Q 856 -91 525 400 
Q 194 888 363 1747 
Q 528 2609 1050 3097 
Q 1484 3503 2309 3503 
z
" transform="scale(0.015625)"/>
       <path id="DejaVuSans-5f" d="M 3263 -1063 
L 3263 -1509 
L -63 -1509 
L -63 -1063 
L 3263 -1063 
z
" transform="scale(0.015625)"/>
       <path id="DejaVuSans-73" d="M 2834 3397 
L 2834 2853 
Q 2591 2978 2328 3040 
Q 2066 3103 1784 3103 
Q 1356 3103 1142 2972 
Q 928 2841 928 2578 
Q 928 2378 1081 2264 
Q 1234 2150 1697 2047 
L 1894 2003 
Q 2506 1872 2764 1633 
Q 3022 1394 3022 966 
Q 3022 478 2636 193 
Q 2250 -91 1575 -91 
Q 1294 -91 989 -36 
Q 684 19 347 128 
L 347 722 
Q 666 556 975 473 
Q 1284 391 1588 391 
Q 1994 391 2212 530 
Q 2431 669 2431 922 
Q 2431 1156 2273 1281 
Q 2116 1406 1581 1522 
L 1381 1569 
Q 847 1681 609 1914 
Q 372 2147 372 2553 
Q 372 3047 722 3315 
Q 1072 3584 1716 3584 
Q 2034 3584 2315 3537 
Q 2597 3491 2834 3397 
z
" transform="scale(0.015625)"/>
       <path id="DejaVuSans-69" d="M 603 3500 
L 1178 3500 
L 1178 0 
L 603 0 
L 603 3500 
z
M 603 4863 
L 1178 4863 
L 1178 4134 
L 603 4134 
L 603 4863 
z
" transform="scale(0.015625)"/>
       <path id="DejaVuSans-6d" d="M 3328 2828 
Q 3544 3216 3844 3400 
Q 4144 3584 4550 3584 
Q 5097 3584 5394 3201 
Q 5691 2819 5691 2113 
L 5691 0 
L 5113 0 
L 5113 2094 
Q 5113 2597 4934 2840 
Q 4756 3084 4391 3084 
Q 3944 3084 3684 2787 
Q 3425 2491 3425 1978 
L 3425 0 
L 2847 0 
L 2847 2094 
Q 2847 2600 2669 2842 
Q 2491 3084 2119 3084 
Q 1678 3084 1418 2786 
Q 1159 2488 1159 1978 
L 1159 0 
L 581 0 
L 581 3500 
L 1159 3500 
L 1159 2956 
Q 1356 3278 1631 3431 
Q 1906 3584 2284 3584 
Q 2666 3584 2933 3390 
Q 3200 3197 3328 2828 
z
" transform="scale(0.015625)"/>
       <path id="DejaVuSans-20" transform="scale(0.015625)"/>
       <path id="DejaVuSans-5b" d="M 550 4863 
L 1875 4863 
L 1875 4416 
L 1125 4416 
L 1125 -397 
L 1875 -397 
L 1875 -844 
L 550 -844 
L 550 4863 
z
" transform="scale(0.015625)"/>
       <path id="DejaVuSans-64" d="M 2906 2969 
L 2906 4863 
L 3481 4863 
L 3481 0 
L 2906 0 
L 2906 525 
Q 2725 213 2448 61 
Q 2172 -91 1784 -91 
Q 1150 -91 751 415 
Q 353 922 353 1747 
Q 353 2572 751 3078 
Q 1150 3584 1784 3584 
Q 2172 3584 2448 3432 
Q 2725 3281 2906 2969 
z
M 947 1747 
Q 947 1113 1208 752 
Q 1469 391 1925 391 
Q 2381 391 2643 752 
Q 2906 1113 2906 1747 
Q 2906 2381 2643 2742 
Q 2381 3103 1925 3103 
Q 1469 3103 1208 2742 
Q 947 2381 947 1747 
z
" transform="scale(0.015625)"/>
       <path id="DejaVuSans-42" d="M 1259 2228 
L 1259 519 
L 2272 519 
Q 2781 519 3026 730 
Q 3272 941 3272 1375 
Q 3272 1813 3026 2020 
Q 2781 2228 2272 2228 
L 1259 2228 
z
M 1259 4147 
L 1259 2741 
L 2194 2741 
Q 2656 2741 2882 2914 
Q 3109 3088 3109 3444 
Q 3109 3797 2882 3972 
Q 2656 4147 2194 4147 
L 1259 4147 
z
M 628 4666 
L 2241 4666 
Q 2963 4666 3353 4366 
Q 3744 4066 3744 3513 
Q 3744 3084 3544 2831 
Q 3344 2578 2956 2516 
Q 3422 2416 3680 2098 
Q 3938 1781 3938 1306 
Q 3938 681 3513 340 
Q 3088 0 2303 0 
L 628 0 
L 628 4666 
z
" transform="scale(0.015625)"/>
       <path id="DejaVuSans-5d" d="M 1947 4863 
L 1947 -844 
L 622 -844 
L 622 -397 
L 1369 -397 
L 1369 4416 
L 622 4416 
L 622 4863 
L 1947 4863 
z
" transform="scale(0.015625)"/>
      </defs>
      <use xlink:href="#DejaVuSans-Oblique-3c3" transform="translate(0 0.765625)"/>
      <use xlink:href="#DejaVuSans-30" transform="translate(67.851615 39.046875) scale(0.7)"/>
      <use xlink:href="#DejaVuSans-5f" transform="translate(115.122122 0.765625)"/>
      <use xlink:href="#DejaVuSans-73" transform="translate(165.122122 0.765625)"/>
      <use xlink:href="#DejaVuSans-69" transform="translate(217.221732 0.765625)"/>
      <use xlink:href="#DejaVuSans-6d" transform="translate(245.004935 0.765625)"/>
      <use xlink:href="#DejaVuSans-20" transform="translate(342.417044 0.765625)"/>
      <use xlink:href="#DejaVuSans-5b" transform="translate(374.204154 0.765625)"/>
      <use xlink:href="#DejaVuSans-64" transform="translate(413.217826 0.765625)"/>
      <use xlink:href="#DejaVuSans-42" transform="translate(476.694388 0.765625)"/>
      <use xlink:href="#DejaVuSans-5d" transform="translate(545.297904 0.765625)"/>
     </g>
    </g>
   </g>
   <g id="matplotlib.axis_2">
    <g id="ytick_1">
     <g id="line2d_6">
      <defs>
       <path id="m3818f93b8a" d="M 0 0 
L -3.5 0 
" style="stroke: #000000; stroke-width: 0.8"/>
      </defs>
      <g>
       <use xlink:href="#m3818f93b8a" x="55.08" y="325.552508" style="stroke: #000000; stroke-width: 0.8"/>
      </g>
     </g>
     <g id="text_7">
      <!-- −16 -->
      <g transform="translate(26.975312 329.351727) scale(0.1 -0.1)">
       <use xlink:href="#DejaVuSans-2212"/>
       <use xlink:href="#DejaVuSans-31" x="83.789062"/>
       <use xlink:href="#DejaVuSans-36" x="147.412109"/>
      </g>
     </g>
    </g>
    <g id="ytick_2">
     <g id="line2d_7">
      <g>
       <use xlink:href="#m3818f93b8a" x="55.08" y="260.167475" style="stroke: #000000; stroke-width: 0.8"/>
      </g>
     </g>
     <g id="text_8">
      <!-- −14 -->
      <g transform="translate(26.975312 263.966694) scale(0.1 -0.1)">
       <use xlink:href="#DejaVuSans-2212"/>
       <use xlink:href="#DejaVuSans-31" x="83.789062"/>
       <use xlink:href="#DejaVuSans-34" x="147.412109"/>
      </g>
     </g>
    </g>
    <g id="ytick_3">
     <g id="line2d_8">
      <g>
       <use xlink:href="#m3818f93b8a" x="55.08" y="194.782442" style="stroke: #000000; stroke-width: 0.8"/>
      </g>
     </g>
     <g id="text_9">
      <!-- −12 -->
      <g transform="translate(26.975312 198.581661) scale(0.1 -0.1)">
       <use xlink:href="#DejaVuSans-2212"/>
       <use xlink:href="#DejaVuSans-31" x="83.789062"/>
       <use xlink:href="#DejaVuSans-32" x="147.412109"/>
      </g>
     </g>
    </g>
    <g id="ytick_4">
     <g id="line2d_9">
      <g>
       <use xlink:href="#m3818f93b8a" x="55.08" y="129.39741" style="stroke: #000000; stroke-width: 0.8"/>
      </g>
     </g>
     <g id="text_10">
      <!-- −10 -->
      <g transform="translate(26.975312 133.196628) scale(0.1 -0.1)">
       <use xlink:href="#DejaVuSans-2212"/>
       <use xlink:href="#DejaVuSans-31" x="83.789062"/>
       <use xlink:href="#DejaVuSans-30" x="147.412109"/>
      </g>
     </g>
    </g>
    <g id="ytick_5">
     <g id="line2d_10">
      <g>
       <use xlink:href="#m3818f93b8a" x="55.08" y="64.012377" style="stroke: #000000; stroke-width: 0.8"/>
      </g>
     </g>
     <g id="text_11">
      <!-- −8 -->
      <g transform="translate(33.337812 67.811595) scale(0.1 -0.1)">
       <use xlink:href="#DejaVuSans-2212"/>
       <use xlink:href="#DejaVuSans-38" x="83.789062"/>
      </g>
     </g>
    </g>
    <g id="text_12">
     <!-- $\sigma^0$_obs [dB] -->
     <g transform="translate(20.575312 247.36) rotate(-90) scale(0.1 -0.1)">
      <defs>
       <path id="DejaVuSans-6f" d="M 1959 3097 
Q 1497 3097 1228 2736 
Q 959 2375 959 1747 
Q 959 1119 1226 758 
Q 1494 397 1959 397 
Q 2419 397 2687 759 
Q 2956 1122 2956 1747 
Q 2956 2369 2687 2733 
Q 2419 3097 1959 3097 
z
M 1959 3584 
Q 2709 3584 3137 3096 
Q 3566 2609 3566 1747 
Q 3566 888 3137 398 
Q 2709 -91 1959 -91 
Q 1206 -91 779 398 
Q 353 888 353 1747 
Q 353 2609 779 3096 
Q 1206 3584 1959 3584 
z
" transform="scale(0.015625)"/>
       <path id="DejaVuSans-62" d="M 3116 1747 
Q 3116 2381 2855 2742 
Q 2594 3103 2138 3103 
Q 1681 3103 1420 2742 
Q 1159 2381 1159 1747 
Q 1159 1113 1420 752 
Q 1681 391 2138 391 
Q 2594 391 2855 752 
Q 3116 1113 3116 1747 
z
M 1159 2969 
Q 1341 3281 1617 3432 
Q 1894 3584 2278 3584 
Q 2916 3584 3314 3078 
Q 3713 2572 3713 1747 
Q 3713 922 3314 415 
Q 2916 -91 2278 -91 
Q 1894 -91 1617 61 
Q 1341 213 1159 525 
L 1159 0 
L 581 0 
L 581 4863 
L 1159 4863 
L 1159 2969 
z
" transform="scale(0.015625)"/>
      </defs>
      <use xlink:href="#DejaVuSans-Oblique-3c3" transform="translate(0 0.765625)"/>
      <use xlink:href="#DejaVuSans-30" transform="translate(67.851615 39.046875) scale(0.7)"/>
      <use xlink:href="#DejaVuSans-5f" transform="translate(115.122122 0.765625)"/>
      <use xlink:href="#DejaVuSans-6f" transform="translate(165.122122 0.765625)"/>
      <use xlink:href="#DejaVuSans-62" transform="translate(226.303763 0.765625)"/>
      <use xlink:href="#DejaVuSans-73" transform="translate(289.780326 0.765625)"/>
      <use xlink:href="#DejaVuSans-20" transform="translate(341.879935 0.765625)"/>
      <use xlink:href="#DejaVuSans-5b" transform="translate(373.667044 0.765625)"/>
      <use xlink:href="#DejaVuSans-64" transform="translate(412.680716 0.765625)"/>
      <use xlink:href="#DejaVuSans-42" transform="translate(476.157279 0.765625)"/>
      <use xlink:href="#DejaVuSans-5d" transform="translate(544.760794 0.765625)"/>
     </g>
    </g>
   </g>
   <g id="line2d_11">
    <defs>
     <path id="m32d948dd65" d="M 0 3 
C 0.795609 3 1.55874 2.683901 2.12132 2.12132 
C 2.683901 1.55874 3 0.795609 3 0 
C 3 -0.795609 2.683901 -1.55874 2.12132 -2.12132 
C 1.55874 -2.683901 0.795609 -3 0 -3 
C -0.795609 -3 -1.55874 -2.683901 -2.12132 -2.12132 
C -2.683901 -1.55874 -3 -0.795609 -3 0 
C -3 0.795609 -2.683901 1.55874 -2.12132 2.12132 
C -1.55874 2.683901 -0.795609 3 0 3 
z
" style="stroke: #1f77b4"/>
    </defs>
    <g clip-path="url(#pf61232ac61)">
     <use xlink:href="#m32d948dd65" x="211.078022" y="113.882643" style="fill: #1f77b4; stroke: #1f77b4"/>
     <use xlink:href="#m32d948dd65" x="339.011674" y="118.146798" style="fill: #1f77b4; stroke: #1f77b4"/>
     <use xlink:href="#m32d948dd65" x="330.749238" y="116.301752" style="fill: #1f77b4; stroke: #1f77b4"/>
     <use xlink:href="#m32d948dd65" x="335.004931" y="116.141657" style="fill: #1f77b4; stroke: #1f77b4"/>
     <use xlink:href="#m32d948dd65" x="335.849877" y="112.358474" style="fill: #1f77b4; stroke: #1f77b4"/>
     <use xlink:href="#m32d948dd65" x="330.501531" y="119.622357" style="fill: #1f77b4; stroke: #1f77b4"/>
     <use xlink:href="#m32d948dd65" x="323.470155" y="124.126053" style="fill: #1f77b4; stroke: #1f77b4"/>
     <use xlink:href="#m32d948dd65" x="332.758078" y="118.316714" style="fill: #1f77b4; stroke: #1f77b4"/>
     <use xlink:href="#m32d948dd65" x="322.933973" y="158.563031" style="fill: #1f77b4; stroke: #1f77b4"/>
     <use xlink:href="#m32d948dd65" x="313.278596" y="112.118966" style="fill: #1f77b4; stroke: #1f77b4"/>
     <use xlink:href="#m32d948dd65" x="309.548843" y="131.593641" style="fill: #1f77b4; stroke: #1f77b4"/>
     <use xlink:href="#m32d948dd65" x="306.097052" y="159.800349" style="fill: #1f77b4; stroke: #1f77b4"/>
     <use xlink:href="#m32d948dd65" x="297.623128" y="133.685246" style="fill: #1f77b4; stroke: #1f77b4"/>
     <use xlink:href="#m32d948dd65" x="277.266851" y="153.045683" style="fill: #1f77b4; stroke: #1f77b4"/>
     <use xlink:href="#m32d948dd65" x="270.067366" y="149.336456" style="fill: #1f77b4; stroke: #1f77b4"/>
     <use xlink:href="#m32d948dd65" x="325.822128" y="106.602317" style="fill: #1f77b4; stroke: #1f77b4"/>
     <use xlink:href="#m32d948dd65" x="314.615905" y="135.637476" style="fill: #1f77b4; stroke: #1f77b4"/>
     <use xlink:href="#m32d948dd65" x="309.383317" y="150.091116" style="fill: #1f77b4; stroke: #1f77b4"/>
     <use xlink:href="#m32d948dd65" x="322.971196" y="117.113814" style="fill: #1f77b4; stroke: #1f77b4"/>
     <use xlink:href="#m32d948dd65" x="293.317415" y="172.766841" style="fill: #1f77b4; stroke: #1f77b4"/>
     <use xlink:href="#m32d948dd65" x="281.363063" y="172.83662" style="fill: #1f77b4; stroke: #1f77b4"/>
     <use xlink:href="#m32d948dd65" x="320.194517" y="121.239651" style="fill: #1f77b4; stroke: #1f77b4"/>
     <use xlink:href="#m32d948dd65" x="274.075361" y="171.539327" style="fill: #1f77b4; stroke: #1f77b4"/>
     <use xlink:href="#m32d948dd65" x="317.937906" y="132.886284" style="fill: #1f77b4; stroke: #1f77b4"/>
     <use xlink:href="#m32d948dd65" x="317.492874" y="145.955286" style="fill: #1f77b4; stroke: #1f77b4"/>
     <use xlink:href="#m32d948dd65" x="315.733817" y="145.279845" style="fill: #1f77b4; stroke: #1f77b4"/>
     <use xlink:href="#m32d948dd65" x="315.299335" y="146.613314" style="fill: #1f77b4; stroke: #1f77b4"/>
     <use xlink:href="#m32d948dd65" x="304.644525" y="135.346307" style="fill: #1f77b4; stroke: #1f77b4"/>
     <use xlink:href="#m32d948dd65" x="298.255983" y="233.967135" style="fill: #1f77b4; stroke: #1f77b4"/>
     <use xlink:href="#m32d948dd65" x="312.737022" y="299.959772" style="fill: #1f77b4; stroke: #1f77b4"/>
     <use xlink:href="#m32d948dd65" x="312.317423" y="346.051234" style="fill: #1f77b4; stroke: #1f77b4"/>
     <use xlink:href="#m32d948dd65" x="310.660409" y="135.933693" style="fill: #1f77b4; stroke: #1f77b4"/>
     <use xlink:href="#m32d948dd65" x="310.251511" y="139.99489" style="fill: #1f77b4; stroke: #1f77b4"/>
     <use xlink:href="#m32d948dd65" x="290.349522" y="124.560301" style="fill: #1f77b4; stroke: #1f77b4"/>
     <use xlink:href="#m32d948dd65" x="308.23925" y="132.052037" style="fill: #1f77b4; stroke: #1f77b4"/>
     <use xlink:href="#m32d948dd65" x="307.843255" y="127.292303" style="fill: #1f77b4; stroke: #1f77b4"/>
     <use xlink:href="#m32d948dd65" x="284.451535" y="139.154093" style="fill: #1f77b4; stroke: #1f77b4"/>
     <use xlink:href="#m32d948dd65" x="305.895652" y="136.423343" style="fill: #1f77b4; stroke: #1f77b4"/>
     <use xlink:href="#m32d948dd65" x="305.512614" y="123.402953" style="fill: #1f77b4; stroke: #1f77b4"/>
     <use xlink:href="#m32d948dd65" x="304.313486" y="135.387109" style="fill: #1f77b4; stroke: #1f77b4"/>
     <use xlink:href="#m32d948dd65" x="249.247267" y="170.812626" style="fill: #1f77b4; stroke: #1f77b4"/>
     <use xlink:href="#m32d948dd65" x="234.518377" y="181.404101" style="fill: #1f77b4; stroke: #1f77b4"/>
     <use xlink:href="#m32d948dd65" x="219.320652" y="187.710087" style="fill: #1f77b4; stroke: #1f77b4"/>
     <use xlink:href="#m32d948dd65" x="196.784905" y="182.883404" style="fill: #1f77b4; stroke: #1f77b4"/>
     <use xlink:href="#m32d948dd65" x="293.278748" y="170.097798" style="fill: #1f77b4; stroke: #1f77b4"/>
     <use xlink:href="#m32d948dd65" x="291.799729" y="147.770857" style="fill: #1f77b4; stroke: #1f77b4"/>
     <use xlink:href="#m32d948dd65" x="276.632242" y="135.399092" style="fill: #1f77b4; stroke: #1f77b4"/>
     <use xlink:href="#m32d948dd65" x="244.669189" y="149.66454" style="fill: #1f77b4; stroke: #1f77b4"/>
     <use xlink:href="#m32d948dd65" x="222.860175" y="179.612977" style="fill: #1f77b4; stroke: #1f77b4"/>
     <use xlink:href="#m32d948dd65" x="279.828306" y="159.712455" style="fill: #1f77b4; stroke: #1f77b4"/>
     <use xlink:href="#m32d948dd65" x="278.903409" y="144.603354" style="fill: #1f77b4; stroke: #1f77b4"/>
     <use xlink:href="#m32d948dd65" x="278.025802" y="159.804132" style="fill: #1f77b4; stroke: #1f77b4"/>
     <use xlink:href="#m32d948dd65" x="216.707494" y="173.657055" style="fill: #1f77b4; stroke: #1f77b4"/>
     <use xlink:href="#m32d948dd65" x="216.327822" y="180.841328" style="fill: #1f77b4; stroke: #1f77b4"/>
     <use xlink:href="#m32d948dd65" x="217.106118" y="200.053312" style="fill: #1f77b4; stroke: #1f77b4"/>
     <use xlink:href="#m32d948dd65" x="222.53737" y="231.191487" style="fill: #1f77b4; stroke: #1f77b4"/>
     <use xlink:href="#m32d948dd65" x="223.905171" y="216.339762" style="fill: #1f77b4; stroke: #1f77b4"/>
     <use xlink:href="#m32d948dd65" x="225.26963" y="226.729895" style="fill: #1f77b4; stroke: #1f77b4"/>
     <use xlink:href="#m32d948dd65" x="232.940694" y="222.980193" style="fill: #1f77b4; stroke: #1f77b4"/>
     <use xlink:href="#m32d948dd65" x="236.081694" y="183.675221" style="fill: #1f77b4; stroke: #1f77b4"/>
     <use xlink:href="#m32d948dd65" x="269.209137" y="161.910824" style="fill: #1f77b4; stroke: #1f77b4"/>
     <use xlink:href="#m32d948dd65" x="250.089538" y="143.323015" style="fill: #1f77b4; stroke: #1f77b4"/>
     <use xlink:href="#m32d948dd65" x="243.339205" y="126.238975" style="fill: #1f77b4; stroke: #1f77b4"/>
     <use xlink:href="#m32d948dd65" x="241.065188" y="108.556096" style="fill: #1f77b4; stroke: #1f77b4"/>
     <use xlink:href="#m32d948dd65" x="246.751626" y="161.197454" style="fill: #1f77b4; stroke: #1f77b4"/>
     <use xlink:href="#m32d948dd65" x="247.642781" y="168.248663" style="fill: #1f77b4; stroke: #1f77b4"/>
     <use xlink:href="#m32d948dd65" x="257.822472" y="181.153096" style="fill: #1f77b4; stroke: #1f77b4"/>
     <use xlink:href="#m32d948dd65" x="259.906663" y="197.534897" style="fill: #1f77b4; stroke: #1f77b4"/>
     <use xlink:href="#m32d948dd65" x="255.802416" y="174.191473" style="fill: #1f77b4; stroke: #1f77b4"/>
     <use xlink:href="#m32d948dd65" x="256.067804" y="185.478996" style="fill: #1f77b4; stroke: #1f77b4"/>
     <use xlink:href="#m32d948dd65" x="267.663014" y="163.900325" style="fill: #1f77b4; stroke: #1f77b4"/>
     <use xlink:href="#m32d948dd65" x="253.185648" y="146.520213" style="fill: #1f77b4; stroke: #1f77b4"/>
     <use xlink:href="#m32d948dd65" x="246.266421" y="156.721157" style="fill: #1f77b4; stroke: #1f77b4"/>
     <use xlink:href="#m32d948dd65" x="239.689105" y="212.315339" style="fill: #1f77b4; stroke: #1f77b4"/>
     <use xlink:href="#m32d948dd65" x="269.275435" y="207.45966" style="fill: #1f77b4; stroke: #1f77b4"/>
     <use xlink:href="#m32d948dd65" x="246.86586" y="207.814301" style="fill: #1f77b4; stroke: #1f77b4"/>
     <use xlink:href="#m32d948dd65" x="234.180313" y="226.168744" style="fill: #1f77b4; stroke: #1f77b4"/>
     <use xlink:href="#m32d948dd65" x="228.663455" y="222.638883" style="fill: #1f77b4; stroke: #1f77b4"/>
     <use xlink:href="#m32d948dd65" x="226.952334" y="241.646708" style="fill: #1f77b4; stroke: #1f77b4"/>
     <use xlink:href="#m32d948dd65" x="225.090628" y="196.977633" style="fill: #1f77b4; stroke: #1f77b4"/>
     <use xlink:href="#m32d948dd65" x="217.961459" y="212.578744" style="fill: #1f77b4; stroke: #1f77b4"/>
     <use xlink:href="#m32d948dd65" x="216.194677" y="222.315424" style="fill: #1f77b4; stroke: #1f77b4"/>
     <use xlink:href="#m32d948dd65" x="218.490611" y="200.22673" style="fill: #1f77b4; stroke: #1f77b4"/>
     <use xlink:href="#m32d948dd65" x="207.318427" y="210.993129" style="fill: #1f77b4; stroke: #1f77b4"/>
     <use xlink:href="#m32d948dd65" x="205.549092" y="228.426078" style="fill: #1f77b4; stroke: #1f77b4"/>
     <use xlink:href="#m32d948dd65" x="255.521295" y="226.407809" style="fill: #1f77b4; stroke: #1f77b4"/>
     <use xlink:href="#m32d948dd65" x="225.624658" y="208.315893" style="fill: #1f77b4; stroke: #1f77b4"/>
     <use xlink:href="#m32d948dd65" x="203.668754" y="224.626262" style="fill: #1f77b4; stroke: #1f77b4"/>
     <use xlink:href="#m32d948dd65" x="202.00455" y="223.050936" style="fill: #1f77b4; stroke: #1f77b4"/>
     <use xlink:href="#m32d948dd65" x="200.698511" y="150.083809" style="fill: #1f77b4; stroke: #1f77b4"/>
     <use xlink:href="#m32d948dd65" x="199.448188" y="224.946941" style="fill: #1f77b4; stroke: #1f77b4"/>
     <use xlink:href="#m32d948dd65" x="194.59466" y="219.72158" style="fill: #1f77b4; stroke: #1f77b4"/>
     <use xlink:href="#m32d948dd65" x="193.422807" y="221.355637" style="fill: #1f77b4; stroke: #1f77b4"/>
     <use xlink:href="#m32d948dd65" x="226.053149" y="170.775535" style="fill: #1f77b4; stroke: #1f77b4"/>
     <use xlink:href="#m32d948dd65" x="188.504469" y="223.444703" style="fill: #1f77b4; stroke: #1f77b4"/>
     <use xlink:href="#m32d948dd65" x="199.161347" y="216.525236" style="fill: #1f77b4; stroke: #1f77b4"/>
     <use xlink:href="#m32d948dd65" x="188.471528" y="234.486942" style="fill: #1f77b4; stroke: #1f77b4"/>
     <use xlink:href="#m32d948dd65" x="308.563436" y="166.291782" style="fill: #1f77b4; stroke: #1f77b4"/>
     <use xlink:href="#m32d948dd65" x="251.906939" y="183.529841" style="fill: #1f77b4; stroke: #1f77b4"/>
     <use xlink:href="#m32d948dd65" x="212.03162" y="245.942873" style="fill: #1f77b4; stroke: #1f77b4"/>
     <use xlink:href="#m32d948dd65" x="214.435964" y="172.58783" style="fill: #1f77b4; stroke: #1f77b4"/>
     <use xlink:href="#m32d948dd65" x="294.278083" y="152.358269" style="fill: #1f77b4; stroke: #1f77b4"/>
     <use xlink:href="#m32d948dd65" x="240.547303" y="215.519455" style="fill: #1f77b4; stroke: #1f77b4"/>
     <use xlink:href="#m32d948dd65" x="191.163272" y="229.250333" style="fill: #1f77b4; stroke: #1f77b4"/>
     <use xlink:href="#m32d948dd65" x="189.729307" y="221.792028" style="fill: #1f77b4; stroke: #1f77b4"/>
     <use xlink:href="#m32d948dd65" x="188.749612" y="237.835922" style="fill: #1f77b4; stroke: #1f77b4"/>
     <use xlink:href="#m32d948dd65" x="187.578728" y="200.642876" style="fill: #1f77b4; stroke: #1f77b4"/>
     <use xlink:href="#m32d948dd65" x="185.821657" y="210.991947" style="fill: #1f77b4; stroke: #1f77b4"/>
     <use xlink:href="#m32d948dd65" x="185.144441" y="245.344429" style="fill: #1f77b4; stroke: #1f77b4"/>
     <use xlink:href="#m32d948dd65" x="184.703138" y="201.728719" style="fill: #1f77b4; stroke: #1f77b4"/>
     <use xlink:href="#m32d948dd65" x="183.439796" y="237.8234" style="fill: #1f77b4; stroke: #1f77b4"/>
     <use xlink:href="#m32d948dd65" x="182.793548" y="258.628555" style="fill: #1f77b4; stroke: #1f77b4"/>
     <use xlink:href="#m32d948dd65" x="199.358409" y="140.837698" style="fill: #1f77b4; stroke: #1f77b4"/>
     <use xlink:href="#m32d948dd65" x="185.278079" y="234.856499" style="fill: #1f77b4; stroke: #1f77b4"/>
     <use xlink:href="#m32d948dd65" x="182.355277" y="256.906181" style="fill: #1f77b4; stroke: #1f77b4"/>
     <use xlink:href="#m32d948dd65" x="179.287014" y="255.12672" style="fill: #1f77b4; stroke: #1f77b4"/>
     <use xlink:href="#m32d948dd65" x="178.797833" y="247.062005" style="fill: #1f77b4; stroke: #1f77b4"/>
     <use xlink:href="#m32d948dd65" x="333.785446" y="176.574367" style="fill: #1f77b4; stroke: #1f77b4"/>
     <use xlink:href="#m32d948dd65" x="277.471504" y="186.889224" style="fill: #1f77b4; stroke: #1f77b4"/>
     <use xlink:href="#m32d948dd65" x="236.065072" y="227.047614" style="fill: #1f77b4; stroke: #1f77b4"/>
     <use xlink:href="#m32d948dd65" x="204.510395" y="252.537417" style="fill: #1f77b4; stroke: #1f77b4"/>
     <use xlink:href="#m32d948dd65" x="305.653274" y="144.487418" style="fill: #1f77b4; stroke: #1f77b4"/>
     <use xlink:href="#m32d948dd65" x="276.643554" y="188.372495" style="fill: #1f77b4; stroke: #1f77b4"/>
     <use xlink:href="#m32d948dd65" x="242.937045" y="229.654124" style="fill: #1f77b4; stroke: #1f77b4"/>
     <use xlink:href="#m32d948dd65" x="190.979955" y="224.472102" style="fill: #1f77b4; stroke: #1f77b4"/>
     <use xlink:href="#m32d948dd65" x="188.555465" y="241.513197" style="fill: #1f77b4; stroke: #1f77b4"/>
     <use xlink:href="#m32d948dd65" x="187.537103" y="263.321329" style="fill: #1f77b4; stroke: #1f77b4"/>
     <use xlink:href="#m32d948dd65" x="185.915432" y="240.945176" style="fill: #1f77b4; stroke: #1f77b4"/>
     <use xlink:href="#m32d948dd65" x="185.615935" y="258.146936" style="fill: #1f77b4; stroke: #1f77b4"/>
     <use xlink:href="#m32d948dd65" x="185.321201" y="263.77791" style="fill: #1f77b4; stroke: #1f77b4"/>
     <use xlink:href="#m32d948dd65" x="211.721163" y="196.799364" style="fill: #1f77b4; stroke: #1f77b4"/>
     <use xlink:href="#m32d948dd65" x="194.241104" y="248.320092" style="fill: #1f77b4; stroke: #1f77b4"/>
     <use xlink:href="#m32d948dd65" x="187.829073" y="266.977762" style="fill: #1f77b4; stroke: #1f77b4"/>
     <use xlink:href="#m32d948dd65" x="184.510611" y="268.290344" style="fill: #1f77b4; stroke: #1f77b4"/>
     <use xlink:href="#m32d948dd65" x="185.264957" y="278.314974" style="fill: #1f77b4; stroke: #1f77b4"/>
     <use xlink:href="#m32d948dd65" x="186.175331" y="281.534025" style="fill: #1f77b4; stroke: #1f77b4"/>
     <use xlink:href="#m32d948dd65" x="302.52888" y="149.944143" style="fill: #1f77b4; stroke: #1f77b4"/>
     <use xlink:href="#m32d948dd65" x="270.919146" y="196.991234" style="fill: #1f77b4; stroke: #1f77b4"/>
     <use xlink:href="#m32d948dd65" x="246.947178" y="234.353693" style="fill: #1f77b4; stroke: #1f77b4"/>
     <use xlink:href="#m32d948dd65" x="272.628832" y="145.146516" style="fill: #1f77b4; stroke: #1f77b4"/>
     <use xlink:href="#m32d948dd65" x="250.034934" y="178.662992" style="fill: #1f77b4; stroke: #1f77b4"/>
     <use xlink:href="#m32d948dd65" x="235.770641" y="205.941073" style="fill: #1f77b4; stroke: #1f77b4"/>
     <use xlink:href="#m32d948dd65" x="231.70024" y="190.484525" style="fill: #1f77b4; stroke: #1f77b4"/>
     <use xlink:href="#m32d948dd65" x="224.35056" y="226.091041" style="fill: #1f77b4; stroke: #1f77b4"/>
     <use xlink:href="#m32d948dd65" x="218.553014" y="219.831267" style="fill: #1f77b4; stroke: #1f77b4"/>
     <use xlink:href="#m32d948dd65" x="215.208592" y="220.981694" style="fill: #1f77b4; stroke: #1f77b4"/>
     <use xlink:href="#m32d948dd65" x="217.185171" y="232.136634" style="fill: #1f77b4; stroke: #1f77b4"/>
     <use xlink:href="#m32d948dd65" x="215.861485" y="246.035414" style="fill: #1f77b4; stroke: #1f77b4"/>
     <use xlink:href="#m32d948dd65" x="212.909663" y="231.827865" style="fill: #1f77b4; stroke: #1f77b4"/>
     <use xlink:href="#m32d948dd65" x="212.171271" y="241.727838" style="fill: #1f77b4; stroke: #1f77b4"/>
     <use xlink:href="#m32d948dd65" x="277.325" y="146.623443" style="fill: #1f77b4; stroke: #1f77b4"/>
     <use xlink:href="#m32d948dd65" x="278.897047" y="124.310597" style="fill: #1f77b4; stroke: #1f77b4"/>
     <use xlink:href="#m32d948dd65" x="279.314713" y="162.743257" style="fill: #1f77b4; stroke: #1f77b4"/>
     <use xlink:href="#m32d948dd65" x="272.321727" y="158.789925" style="fill: #1f77b4; stroke: #1f77b4"/>
     <use xlink:href="#m32d948dd65" x="281.554005" y="151.480409" style="fill: #1f77b4; stroke: #1f77b4"/>
     <use xlink:href="#m32d948dd65" x="268.884137" y="165.124267" style="fill: #1f77b4; stroke: #1f77b4"/>
     <use xlink:href="#m32d948dd65" x="264.183934" y="175.943548" style="fill: #1f77b4; stroke: #1f77b4"/>
     <use xlink:href="#m32d948dd65" x="284.580555" y="166.17515" style="fill: #1f77b4; stroke: #1f77b4"/>
     <use xlink:href="#m32d948dd65" x="277.343131" y="174.034731" style="fill: #1f77b4; stroke: #1f77b4"/>
     <use xlink:href="#m32d948dd65" x="267.098064" y="191.872526" style="fill: #1f77b4; stroke: #1f77b4"/>
     <use xlink:href="#m32d948dd65" x="285.633081" y="187.684334" style="fill: #1f77b4; stroke: #1f77b4"/>
     <use xlink:href="#m32d948dd65" x="285.623005" y="174.350261" style="fill: #1f77b4; stroke: #1f77b4"/>
     <use xlink:href="#m32d948dd65" x="285.612933" y="187.10601" style="fill: #1f77b4; stroke: #1f77b4"/>
     <use xlink:href="#m32d948dd65" x="285.572677" y="157.318776" style="fill: #1f77b4; stroke: #1f77b4"/>
     <use xlink:href="#m32d948dd65" x="285.562622" y="192.932407" style="fill: #1f77b4; stroke: #1f77b4"/>
     <use xlink:href="#m32d948dd65" x="285.55257" y="190.235849" style="fill: #1f77b4; stroke: #1f77b4"/>
     <use xlink:href="#m32d948dd65" x="257.233262" y="182.418464" style="fill: #1f77b4; stroke: #1f77b4"/>
     <use xlink:href="#m32d948dd65" x="271.162354" y="191.611115" style="fill: #1f77b4; stroke: #1f77b4"/>
     <use xlink:href="#m32d948dd65" x="285.492333" y="181.996767" style="fill: #1f77b4; stroke: #1f77b4"/>
     <use xlink:href="#m32d948dd65" x="269.927498" y="177.992946" style="fill: #1f77b4; stroke: #1f77b4"/>
     <use xlink:href="#m32d948dd65" x="269.377739" y="174.122183" style="fill: #1f77b4; stroke: #1f77b4"/>
     <use xlink:href="#m32d948dd65" x="272.027324" y="188.063075" style="fill: #1f77b4; stroke: #1f77b4"/>
     <use xlink:href="#m32d948dd65" x="270.103094" y="178.978774" style="fill: #1f77b4; stroke: #1f77b4"/>
     <use xlink:href="#m32d948dd65" x="269.38445" y="191.523206" style="fill: #1f77b4; stroke: #1f77b4"/>
     <use xlink:href="#m32d948dd65" x="268.081954" y="223.519928" style="fill: #1f77b4; stroke: #1f77b4"/>
     <use xlink:href="#m32d948dd65" x="273.412841" y="90.268766" style="fill: #1f77b4; stroke: #1f77b4"/>
     <use xlink:href="#m32d948dd65" x="275.614663" y="187.857789" style="fill: #1f77b4; stroke: #1f77b4"/>
     <use xlink:href="#m32d948dd65" x="270.163649" y="179.974987" style="fill: #1f77b4; stroke: #1f77b4"/>
     <use xlink:href="#m32d948dd65" x="268.397414" y="214.460362" style="fill: #1f77b4; stroke: #1f77b4"/>
     <use xlink:href="#m32d948dd65" x="265.923289" y="214.662216" style="fill: #1f77b4; stroke: #1f77b4"/>
     <use xlink:href="#m32d948dd65" x="260.098286" y="189.819963" style="fill: #1f77b4; stroke: #1f77b4"/>
    </g>
   </g>
   <g id="line2d_12">
    <path d="M 55.08 322.81956 
L 58.44 320.510883 
L 61.8 318.202207 
L 65.16 315.89353 
L 68.52 313.584854 
L 71.88 311.276177 
L 75.24 308.967501 
L 78.6 306.658824 
L 81.96 304.350148 
L 85.32 302.041471 
L 88.68 299.732795 
L 92.04 297.424118 
L 95.4 295.115442 
L 98.76 292.806765 
L 102.12 290.498089 
L 105.48 288.189412 
L 108.84 285.880736 
L 112.2 283.572059 
L 115.56 281.263383 
L 118.92 278.954706 
L 122.28 276.64603 
L 125.64 274.337353 
L 129 272.028677 
L 132.36 269.72 
L 135.72 267.411324 
L 139.08 265.102647 
L 142.44 262.793971 
L 145.8 260.485294 
L 149.16 258.176617 
L 152.52 255.867941 
L 155.88 253.559264 
L 159.24 251.250588 
L 162.6 248.941911 
L 165.96 246.633235 
L 169.32 244.324558 
L 172.68 242.015882 
L 176.04 239.707205 
L 179.4 237.398529 
L 182.76 235.089852 
L 186.12 232.781176 
L 189.48 230.472499 
L 192.84 228.163823 
L 196.2 225.855146 
L 199.56 223.54647 
L 202.92 221.237793 
L 206.28 218.929117 
L 209.64 216.62044 
L 213 214.311764 
L 216.36 212.003087 
L 219.72 209.694411 
L 223.08 207.385734 
L 226.44 205.077058 
L 229.8 202.768381 
L 233.16 200.459705 
L 236.52 198.151028 
L 239.88 195.842352 
L 243.24 193.533675 
L 246.6 191.224999 
L 249.96 188.916322 
L 253.32 186.607646 
L 256.68 184.298969 
L 260.04 181.990293 
L 263.4 179.681616 
L 266.76 177.37294 
L 270.12 175.064263 
L 273.48 172.755587 
L 276.84 170.44691 
L 280.2 168.138234 
L 283.56 165.829557 
L 286.92 163.520881 
L 290.28 161.212204 
L 293.64 158.903528 
L 297 156.594851 
L 300.36 154.286175 
L 303.72 151.977498 
L 307.08 149.668822 
L 310.44 147.360145 
L 313.8 145.051469 
L 317.16 142.742792 
L 320.52 140.434116 
L 323.88 138.125439 
L 327.24 135.816763 
L 330.6 133.508086 
L 333.96 131.19941 
L 337.32 128.890733 
L 340.68 126.582057 
L 344.04 124.27338 
L 347.4 121.964704 
L 350.76 119.656027 
L 354.12 117.34735 
L 357.48 115.038674 
L 360.84 112.729997 
L 364.2 110.421321 
L 367.56 108.112644 
L 370.92 105.803968 
L 374.28 103.495291 
L 377.64 101.186615 
L 381 98.877938 
L 384.36 96.569262 
L 387.72 94.260585 
" clip-path="url(#pf61232ac61)" style="fill: none; stroke: #000000; stroke-width: 1.5; stroke-linecap: square"/>
   </g>
   <g id="patch_3">
    <path d="M 55.08 384.48 
L 55.08 51.84 
" style="fill: none; stroke: #000000; stroke-width: 0.8; stroke-linejoin: miter; stroke-linecap: square"/>
   </g>
   <g id="patch_4">
    <path d="M 387.72 384.48 
L 387.72 51.84 
" style="fill: none; stroke: #000000; stroke-width: 0.8; stroke-linejoin: miter; stroke-linecap: square"/>
   </g>
   <g id="patch_5">
    <path d="M 55.08 384.48 
L 387.72 384.48 
" style="fill: none; stroke: #000000; stroke-width: 0.8; stroke-linejoin: miter; stroke-linecap: square"/>
   </g>
   <g id="patch_6">
    <path d="M 55.08 51.84 
L 387.72 51.84 
" style="fill: none; stroke: #000000; stroke-width: 0.8; stroke-linejoin: miter; stroke-linecap: square"/>
   </g>
   <g id="text_13">
    <g id="patch_7">
     <path d="M 64.056047 96.862594 
L 179.159953 96.862594 
Q 183.659953 96.862594 183.659953 92.362594 
L 183.659953 77.845406 
Q 183.659953 73.345406 179.159953 73.345406 
L 64.056047 73.345406 
Q 59.556047 73.345406 59.556047 77.845406 
L 59.556047 92.362594 
Q 59.556047 96.862594 64.056047 96.862594 
z
" style="fill: #ffffff; opacity: 0.5; stroke: #000000; stroke-width: 2; stroke-linejoin: miter"/>
    </g>
    <!-- y=-3.68+0.69x -->
    <g transform="translate(64.056047 89.243062) scale(0.15 -0.15)">
     <defs>
      <path id="DejaVuSans-79" d="M 2059 -325 
Q 1816 -950 1584 -1140 
Q 1353 -1331 966 -1331 
L 506 -1331 
L 506 -850 
L 844 -850 
Q 1081 -850 1212 -737 
Q 1344 -625 1503 -206 
L 1606 56 
L 191 3500 
L 800 3500 
L 1894 763 
L 2988 3500 
L 3597 3500 
L 2059 -325 
z
" transform="scale(0.015625)"/>
      <path id="DejaVuSans-3d" d="M 678 2906 
L 4684 2906 
L 4684 2381 
L 678 2381 
L 678 2906 
z
M 678 1631 
L 4684 1631 
L 4684 1100 
L 678 1100 
L 678 1631 
z
" transform="scale(0.015625)"/>
      <path id="DejaVuSans-2d" d="M 313 2009 
L 1997 2009 
L 1997 1497 
L 313 1497 
L 313 2009 
z
" transform="scale(0.015625)"/>
      <path id="DejaVuSans-33" d="M 2597 2516 
Q 3050 2419 3304 2112 
Q 3559 1806 3559 1356 
Q 3559 666 3084 287 
Q 2609 -91 1734 -91 
Q 1441 -91 1130 -33 
Q 819 25 488 141 
L 488 750 
Q 750 597 1062 519 
Q 1375 441 1716 441 
Q 2309 441 2620 675 
Q 2931 909 2931 1356 
Q 2931 1769 2642 2001 
Q 2353 2234 1838 2234 
L 1294 2234 
L 1294 2753 
L 1863 2753 
Q 2328 2753 2575 2939 
Q 2822 3125 2822 3475 
Q 2822 3834 2567 4026 
Q 2313 4219 1838 4219 
Q 1578 4219 1281 4162 
Q 984 4106 628 3988 
L 628 4550 
Q 988 4650 1302 4700 
Q 1616 4750 1894 4750 
Q 2613 4750 3031 4423 
Q 3450 4097 3450 3541 
Q 3450 3153 3228 2886 
Q 3006 2619 2597 2516 
z
" transform="scale(0.015625)"/>
      <path id="DejaVuSans-2e" d="M 684 794 
L 1344 794 
L 1344 0 
L 684 0 
L 684 794 
z
" transform="scale(0.015625)"/>
      <path id="DejaVuSans-2b" d="M 2944 4013 
L 2944 2272 
L 4684 2272 
L 4684 1741 
L 2944 1741 
L 2944 0 
L 2419 0 
L 2419 1741 
L 678 1741 
L 678 2272 
L 2419 2272 
L 2419 4013 
L 2944 4013 
z
" transform="scale(0.015625)"/>
      <path id="DejaVuSans-39" d="M 703 97 
L 703 672 
Q 941 559 1184 500 
Q 1428 441 1663 441 
Q 2288 441 2617 861 
Q 2947 1281 2994 2138 
Q 2813 1869 2534 1725 
Q 2256 1581 1919 1581 
Q 1219 1581 811 2004 
Q 403 2428 403 3163 
Q 403 3881 828 4315 
Q 1253 4750 1959 4750 
Q 2769 4750 3195 4129 
Q 3622 3509 3622 2328 
Q 3622 1225 3098 567 
Q 2575 -91 1691 -91 
Q 1453 -91 1209 -44 
Q 966 3 703 97 
z
M 1959 2075 
Q 2384 2075 2632 2365 
Q 2881 2656 2881 3163 
Q 2881 3666 2632 3958 
Q 2384 4250 1959 4250 
Q 1534 4250 1286 3958 
Q 1038 3666 1038 3163 
Q 1038 2656 1286 2365 
Q 1534 2075 1959 2075 
z
" transform="scale(0.015625)"/>
      <path id="DejaVuSans-78" d="M 3513 3500 
L 2247 1797 
L 3578 0 
L 2900 0 
L 1881 1375 
L 863 0 
L 184 0 
L 1544 1831 
L 300 3500 
L 978 3500 
L 1906 2253 
L 2834 3500 
L 3513 3500 
z
" transform="scale(0.015625)"/>
     </defs>
     <use xlink:href="#DejaVuSans-79"/>
     <use xlink:href="#DejaVuSans-3d" x="59.179688"/>
     <use xlink:href="#DejaVuSans-2d" x="142.96875"/>
     <use xlink:href="#DejaVuSans-33" x="179.052734"/>
     <use xlink:href="#DejaVuSans-2e" x="242.675781"/>
     <use xlink:href="#DejaVuSans-36" x="274.462891"/>
     <use xlink:href="#DejaVuSans-38" x="338.085938"/>
     <use xlink:href="#DejaVuSans-2b" x="401.708984"/>
     <use xlink:href="#DejaVuSans-30" x="485.498047"/>
     <use xlink:href="#DejaVuSans-2e" x="549.121094"/>
     <use xlink:href="#DejaVuSans-36" x="580.908203"/>
     <use xlink:href="#DejaVuSans-39" x="644.53125"/>
     <use xlink:href="#DejaVuSans-78" x="708.154297"/>
    </g>
   </g>
   <g id="text_14">
    <!-- $\sigma^0$ obs VS simul - RMSE=1.09, R=0.69, $R^2$=0.47, bias=0.01 -->
    <g transform="translate(42.3 45.84) scale(0.12 -0.12)">
     <defs>
      <path id="DejaVuSans-56" d="M 1831 0 
L 50 4666 
L 709 4666 
L 2188 738 
L 3669 4666 
L 4325 4666 
L 2547 0 
L 1831 0 
z
" transform="scale(0.015625)"/>
      <path id="DejaVuSans-53" d="M 3425 4513 
L 3425 3897 
Q 3066 4069 2747 4153 
Q 2428 4238 2131 4238 
Q 1616 4238 1336 4038 
Q 1056 3838 1056 3469 
Q 1056 3159 1242 3001 
Q 1428 2844 1947 2747 
L 2328 2669 
Q 3034 2534 3370 2195 
Q 3706 1856 3706 1288 
Q 3706 609 3251 259 
Q 2797 -91 1919 -91 
Q 1588 -91 1214 -16 
Q 841 59 441 206 
L 441 856 
Q 825 641 1194 531 
Q 1563 422 1919 422 
Q 2459 422 2753 634 
Q 3047 847 3047 1241 
Q 3047 1584 2836 1778 
Q 2625 1972 2144 2069 
L 1759 2144 
Q 1053 2284 737 2584 
Q 422 2884 422 3419 
Q 422 4038 858 4394 
Q 1294 4750 2059 4750 
Q 2388 4750 2728 4690 
Q 3069 4631 3425 4513 
z
" transform="scale(0.015625)"/>
      <path id="DejaVuSans-75" d="M 544 1381 
L 544 3500 
L 1119 3500 
L 1119 1403 
Q 1119 906 1312 657 
Q 1506 409 1894 409 
Q 2359 409 2629 706 
Q 2900 1003 2900 1516 
L 2900 3500 
L 3475 3500 
L 3475 0 
L 2900 0 
L 2900 538 
Q 2691 219 2414 64 
Q 2138 -91 1772 -91 
Q 1169 -91 856 284 
Q 544 659 544 1381 
z
M 1991 3584 
L 1991 3584 
z
" transform="scale(0.015625)"/>
      <path id="DejaVuSans-6c" d="M 603 4863 
L 1178 4863 
L 1178 0 
L 603 0 
L 603 4863 
z
" transform="scale(0.015625)"/>
      <path id="DejaVuSans-52" d="M 2841 2188 
Q 3044 2119 3236 1894 
Q 3428 1669 3622 1275 
L 4263 0 
L 3584 0 
L 2988 1197 
Q 2756 1666 2539 1819 
Q 2322 1972 1947 1972 
L 1259 1972 
L 1259 0 
L 628 0 
L 628 4666 
L 2053 4666 
Q 2853 4666 3247 4331 
Q 3641 3997 3641 3322 
Q 3641 2881 3436 2590 
Q 3231 2300 2841 2188 
z
M 1259 4147 
L 1259 2491 
L 2053 2491 
Q 2509 2491 2742 2702 
Q 2975 2913 2975 3322 
Q 2975 3731 2742 3939 
Q 2509 4147 2053 4147 
L 1259 4147 
z
" transform="scale(0.015625)"/>
      <path id="DejaVuSans-4d" d="M 628 4666 
L 1569 4666 
L 2759 1491 
L 3956 4666 
L 4897 4666 
L 4897 0 
L 4281 0 
L 4281 4097 
L 3078 897 
L 2444 897 
L 1241 4097 
L 1241 0 
L 628 0 
L 628 4666 
z
" transform="scale(0.015625)"/>
      <path id="DejaVuSans-45" d="M 628 4666 
L 3578 4666 
L 3578 4134 
L 1259 4134 
L 1259 2753 
L 3481 2753 
L 3481 2222 
L 1259 2222 
L 1259 531 
L 3634 531 
L 3634 0 
L 628 0 
L 628 4666 
z
" transform="scale(0.015625)"/>
      <path id="DejaVuSans-2c" d="M 750 794 
L 1409 794 
L 1409 256 
L 897 -744 
L 494 -744 
L 750 256 
L 750 794 
z
" transform="scale(0.015625)"/>
      <path id="DejaVuSans-Oblique-52" d="M 1613 4147 
L 1294 2491 
L 2106 2491 
Q 2584 2491 2879 2755 
Q 3175 3019 3175 3444 
Q 3175 3784 2976 3965 
Q 2778 4147 2406 4147 
L 1613 4147 
z
M 2772 2241 
Q 2972 2194 3105 2009 
Q 3238 1825 3413 1275 
L 3809 0 
L 3144 0 
L 2778 1197 
Q 2638 1659 2453 1815 
Q 2269 1972 1888 1972 
L 1191 1972 
L 806 0 
L 172 0 
L 1081 4666 
L 2503 4666 
Q 3150 4666 3495 4373 
Q 3841 4081 3841 3531 
Q 3841 3044 3547 2687 
Q 3253 2331 2772 2241 
z
" transform="scale(0.015625)"/>
      <path id="DejaVuSans-37" d="M 525 4666 
L 3525 4666 
L 3525 4397 
L 1831 0 
L 1172 0 
L 2766 4134 
L 525 4134 
L 525 4666 
z
" transform="scale(0.015625)"/>
      <path id="DejaVuSans-61" d="M 2194 1759 
Q 1497 1759 1228 1600 
Q 959 1441 959 1056 
Q 959 750 1161 570 
Q 1363 391 1709 391 
Q 2188 391 2477 730 
Q 2766 1069 2766 1631 
L 2766 1759 
L 2194 1759 
z
M 3341 1997 
L 3341 0 
L 2766 0 
L 2766 531 
Q 2569 213 2275 61 
Q 1981 -91 1556 -91 
Q 1019 -91 701 211 
Q 384 513 384 1019 
Q 384 1609 779 1909 
Q 1175 2209 1959 2209 
L 2766 2209 
L 2766 2266 
Q 2766 2663 2505 2880 
Q 2244 3097 1772 3097 
Q 1472 3097 1187 3025 
Q 903 2953 641 2809 
L 641 3341 
Q 956 3463 1253 3523 
Q 1550 3584 1831 3584 
Q 2591 3584 2966 3190 
Q 3341 2797 3341 1997 
z
" transform="scale(0.015625)"/>
     </defs>
     <use xlink:href="#DejaVuSans-Oblique-3c3" transform="translate(0 0.765625)"/>
     <use xlink:href="#DejaVuSans-30" transform="translate(67.851615 39.046875) scale(0.7)"/>
     <use xlink:href="#DejaVuSans-20" transform="translate(115.122122 0.765625)"/>
     <use xlink:href="#DejaVuSans-6f" transform="translate(146.909232 0.765625)"/>
     <use xlink:href="#DejaVuSans-62" transform="translate(208.090872 0.765625)"/>
     <use xlink:href="#DejaVuSans-73" transform="translate(271.567435 0.765625)"/>
     <use xlink:href="#DejaVuSans-20" transform="translate(323.667044 0.765625)"/>
     <use xlink:href="#DejaVuSans-56" transform="translate(355.454154 0.765625)"/>
     <use xlink:href="#DejaVuSans-53" transform="translate(423.862357 0.765625)"/>
     <use xlink:href="#DejaVuSans-20" transform="translate(487.338919 0.765625)"/>
     <use xlink:href="#DejaVuSans-73" transform="translate(519.126029 0.765625)"/>
     <use xlink:href="#DejaVuSans-69" transform="translate(571.225638 0.765625)"/>
     <use xlink:href="#DejaVuSans-6d" transform="translate(599.008841 0.765625)"/>
     <use xlink:href="#DejaVuSans-75" transform="translate(696.420951 0.765625)"/>
     <use xlink:href="#DejaVuSans-6c" transform="translate(759.799857 0.765625)"/>
     <use xlink:href="#DejaVuSans-20" transform="translate(787.58306 0.765625)"/>
     <use xlink:href="#DejaVuSans-2d" transform="translate(819.370169 0.765625)"/>
     <use xlink:href="#DejaVuSans-20" transform="translate(855.454154 0.765625)"/>
     <use xlink:href="#DejaVuSans-52" transform="translate(887.241263 0.765625)"/>
     <use xlink:href="#DejaVuSans-4d" transform="translate(956.723685 0.765625)"/>
     <use xlink:href="#DejaVuSans-53" transform="translate(1043.002982 0.765625)"/>
     <use xlink:href="#DejaVuSans-45" transform="translate(1106.479544 0.765625)"/>
     <use xlink:href="#DejaVuSans-3d" transform="translate(1169.663138 0.765625)"/>
     <use xlink:href="#DejaVuSans-31" transform="translate(1253.452201 0.765625)"/>
     <use xlink:href="#DejaVuSans-2e" transform="translate(1317.075247 0.765625)"/>
     <use xlink:href="#DejaVuSans-30" transform="translate(1348.862357 0.765625)"/>
     <use xlink:href="#DejaVuSans-39" transform="translate(1412.485404 0.765625)"/>
     <use xlink:href="#DejaVuSans-2c" transform="translate(1476.108451 0.765625)"/>
     <use xlink:href="#DejaVuSans-20" transform="translate(1507.89556 0.765625)"/>
     <use xlink:href="#DejaVuSans-52" transform="translate(1539.682669 0.765625)"/>
     <use xlink:href="#DejaVuSans-3d" transform="translate(1609.165091 0.765625)"/>
     <use xlink:href="#DejaVuSans-30" transform="translate(1692.954154 0.765625)"/>
     <use xlink:href="#DejaVuSans-2e" transform="translate(1756.577201 0.765625)"/>
     <use xlink:href="#DejaVuSans-36" transform="translate(1788.36431 0.765625)"/>
     <use xlink:href="#DejaVuSans-39" transform="translate(1851.987357 0.765625)"/>
     <use xlink:href="#DejaVuSans-2c" transform="translate(1915.610404 0.765625)"/>
     <use xlink:href="#DejaVuSans-20" transform="translate(1947.397513 0.765625)"/>
     <use xlink:href="#DejaVuSans-Oblique-52" transform="translate(1979.184622 0.765625)"/>
     <use xlink:href="#DejaVuSans-32" transform="translate(2055.683815 39.046875) scale(0.7)"/>
     <use xlink:href="#DejaVuSans-3d" transform="translate(2102.954323 0.765625)"/>
     <use xlink:href="#DejaVuSans-30" transform="translate(2186.743385 0.765625)"/>
     <use xlink:href="#DejaVuSans-2e" transform="translate(2250.366432 0.765625)"/>
     <use xlink:href="#DejaVuSans-34" transform="translate(2282.153542 0.765625)"/>
     <use xlink:href="#DejaVuSans-37" transform="translate(2345.776589 0.765625)"/>
     <use xlink:href="#DejaVuSans-2c" transform="translate(2409.399635 0.765625)"/>
     <use xlink:href="#DejaVuSans-20" transform="translate(2441.186745 0.765625)"/>
     <use xlink:href="#DejaVuSans-62" transform="translate(2472.973854 0.765625)"/>
     <use xlink:href="#DejaVuSans-69" transform="translate(2536.450417 0.765625)"/>
     <use xlink:href="#DejaVuSans-61" transform="translate(2564.23362 0.765625)"/>
     <use xlink:href="#DejaVuSans-73" transform="translate(2625.512917 0.765625)"/>
     <use xlink:href="#DejaVuSans-3d" transform="translate(2677.612526 0.765625)"/>
     <use xlink:href="#DejaVuSans-30" transform="translate(2761.401589 0.765625)"/>
     <use xlink:href="#DejaVuSans-2e" transform="translate(2825.024635 0.765625)"/>
     <use xlink:href="#DejaVuSans-30" transform="translate(2856.811745 0.765625)"/>
     <use xlink:href="#DejaVuSans-31" transform="translate(2920.434792 0.765625)"/>
    </g>
   </g>
  </g>
 </g>
 <defs>
  <clipPath id="pf61232ac61">
   <rect x="55.08" y="51.84" width="332.64" height="332.64"/>
  </clipPath>
 </defs>
</svg>
