<?xml version="1.0" encoding="utf-8" standalone="no"?>
<!DOCTYPE svg PUBLIC "-//W3C//DTD SVG 1.1//EN"
  "http://www.w3.org/Graphics/SVG/1.1/DTD/svg11.dtd">
<svg xmlns:xlink="http://www.w3.org/1999/xlink" width="432pt" height="432pt" viewBox="0 0 432 432" xmlns="http://www.w3.org/2000/svg" version="1.1">
 <metadata>
  <rdf:RDF xmlns:dc="http://purl.org/dc/elements/1.1/" xmlns:cc="http://creativecommons.org/ns#" xmlns:rdf="http://www.w3.org/1999/02/22-rdf-syntax-ns#">
   <cc:Work>
    <dc:type rdf:resource="http://purl.org/dc/dcmitype/StillImage"/>
    <dc:date>2023-06-22T17:25:34.152052</dc:date>
    <dc:format>image/svg+xml</dc:format>
    <dc:creator>
     <cc:Agent>
      <dc:title>Matplotlib v3.7.1, https://matplotlib.org/</dc:title>
     </cc:Agent>
    </dc:creator>
   </cc:Work>
  </rdf:RDF>
 </metadata>
 <defs>
  <style type="text/css">*{stroke-linejoin: round; stroke-linecap: butt}</style>
 </defs>
 <g id="figure_1">
  <g id="patch_1">
   <path d="M 0 432 
L 432 432 
L 432 0 
L 0 0 
z
" style="fill: #ffffff"/>
  </g>
  <g id="axes_1">
   <g id="patch_2">
    <path d="M 55.08 384.48 
L 387.72 384.48 
L 387.72 51.84 
L 55.08 51.84 
z
" style="fill: #ffffff"/>
   </g>
   <g id="matplotlib.axis_1">
    <g id="xtick_1">
     <g id="line2d_1">
      <defs>
       <path id="m0e0889fe8c" d="M 0 0 
L 0 3.5 
" style="stroke: #000000; stroke-width: 0.8"/>
      </defs>
      <g>
       <use xlink:href="#m0e0889fe8c" x="76.155228" y="384.48" style="stroke: #000000; stroke-width: 0.8"/>
      </g>
     </g>
     <g id="text_1">
      <!-- −16 -->
      <g transform="translate(65.602884 399.078438) scale(0.1 -0.1)">
       <defs>
        <path id="DejaVuSans-2212" d="M 678 2272 
L 4684 2272 
L 4684 1741 
L 678 1741 
L 678 2272 
z
" transform="scale(0.015625)"/>
        <path id="DejaVuSans-31" d="M 794 531 
L 1825 531 
L 1825 4091 
L 703 3866 
L 703 4441 
L 1819 4666 
L 2450 4666 
L 2450 531 
L 3481 531 
L 3481 0 
L 794 0 
L 794 531 
z
" transform="scale(0.015625)"/>
        <path id="DejaVuSans-36" d="M 2113 2584 
Q 1688 2584 1439 2293 
Q 1191 2003 1191 1497 
Q 1191 994 1439 701 
Q 1688 409 2113 409 
Q 2538 409 2786 701 
Q 3034 994 3034 1497 
Q 3034 2003 2786 2293 
Q 2538 2584 2113 2584 
z
M 3366 4563 
L 3366 3988 
Q 3128 4100 2886 4159 
Q 2644 4219 2406 4219 
Q 1781 4219 1451 3797 
Q 1122 3375 1075 2522 
Q 1259 2794 1537 2939 
Q 1816 3084 2150 3084 
Q 2853 3084 3261 2657 
Q 3669 2231 3669 1497 
Q 3669 778 3244 343 
Q 2819 -91 2113 -91 
Q 1303 -91 875 529 
Q 447 1150 447 2328 
Q 447 3434 972 4092 
Q 1497 4750 2381 4750 
Q 2619 4750 2861 4703 
Q 3103 4656 3366 4563 
z
" transform="scale(0.015625)"/>
       </defs>
       <use xlink:href="#DejaVuSans-2212"/>
       <use xlink:href="#DejaVuSans-31" x="83.789062"/>
       <use xlink:href="#DejaVuSans-36" x="147.412109"/>
      </g>
     </g>
    </g>
    <g id="xtick_2">
     <g id="line2d_2">
      <g>
       <use xlink:href="#m0e0889fe8c" x="114.61616" y="384.48" style="stroke: #000000; stroke-width: 0.8"/>
      </g>
     </g>
     <g id="text_2">
      <!-- −15 -->
      <g transform="translate(104.063816 399.078438) scale(0.1 -0.1)">
       <defs>
        <path id="DejaVuSans-35" d="M 691 4666 
L 3169 4666 
L 3169 4134 
L 1269 4134 
L 1269 2991 
Q 1406 3038 1543 3061 
Q 1681 3084 1819 3084 
Q 2600 3084 3056 2656 
Q 3513 2228 3513 1497 
Q 3513 744 3044 326 
Q 2575 -91 1722 -91 
Q 1428 -91 1123 -41 
Q 819 9 494 109 
L 494 744 
Q 775 591 1075 516 
Q 1375 441 1709 441 
Q 2250 441 2565 725 
Q 2881 1009 2881 1497 
Q 2881 1984 2565 2268 
Q 2250 2553 1709 2553 
Q 1456 2553 1204 2497 
Q 953 2441 691 2322 
L 691 4666 
z
" transform="scale(0.015625)"/>
       </defs>
       <use xlink:href="#DejaVuSans-2212"/>
       <use xlink:href="#DejaVuSans-31" x="83.789062"/>
       <use xlink:href="#DejaVuSans-35" x="147.412109"/>
      </g>
     </g>
    </g>
    <g id="xtick_3">
     <g id="line2d_3">
      <g>
       <use xlink:href="#m0e0889fe8c" x="153.077091" y="384.48" style="stroke: #000000; stroke-width: 0.8"/>
      </g>
     </g>
     <g id="text_3">
      <!-- −14 -->
      <g transform="translate(142.524748 399.078438) scale(0.1 -0.1)">
       <defs>
        <path id="DejaVuSans-34" d="M 2419 4116 
L 825 1625 
L 2419 1625 
L 2419 4116 
z
M 2253 4666 
L 3047 4666 
L 3047 1625 
L 3713 1625 
L 3713 1100 
L 3047 1100 
L 3047 0 
L 2419 0 
L 2419 1100 
L 313 1100 
L 313 1709 
L 2253 4666 
z
" transform="scale(0.015625)"/>
       </defs>
       <use xlink:href="#DejaVuSans-2212"/>
       <use xlink:href="#DejaVuSans-31" x="83.789062"/>
       <use xlink:href="#DejaVuSans-34" x="147.412109"/>
      </g>
     </g>
    </g>
    <g id="xtick_4">
     <g id="line2d_4">
      <g>
       <use xlink:href="#m0e0889fe8c" x="191.538023" y="384.48" style="stroke: #000000; stroke-width: 0.8"/>
      </g>
     </g>
     <g id="text_4">
      <!-- −13 -->
      <g transform="translate(180.98568 399.078438) scale(0.1 -0.1)">
       <defs>
        <path id="DejaVuSans-33" d="M 2597 2516 
Q 3050 2419 3304 2112 
Q 3559 1806 3559 1356 
Q 3559 666 3084 287 
Q 2609 -91 1734 -91 
Q 1441 -91 1130 -33 
Q 819 25 488 141 
L 488 750 
Q 750 597 1062 519 
Q 1375 441 1716 441 
Q 2309 441 2620 675 
Q 2931 909 2931 1356 
Q 2931 1769 2642 2001 
Q 2353 2234 1838 2234 
L 1294 2234 
L 1294 2753 
L 1863 2753 
Q 2328 2753 2575 2939 
Q 2822 3125 2822 3475 
Q 2822 3834 2567 4026 
Q 2313 4219 1838 4219 
Q 1578 4219 1281 4162 
Q 984 4106 628 3988 
L 628 4550 
Q 988 4650 1302 4700 
Q 1616 4750 1894 4750 
Q 2613 4750 3031 4423 
Q 3450 4097 3450 3541 
Q 3450 3153 3228 2886 
Q 3006 2619 2597 2516 
z
" transform="scale(0.015625)"/>
       </defs>
       <use xlink:href="#DejaVuSans-2212"/>
       <use xlink:href="#DejaVuSans-31" x="83.789062"/>
       <use xlink:href="#DejaVuSans-33" x="147.412109"/>
      </g>
     </g>
    </g>
    <g id="xtick_5">
     <g id="line2d_5">
      <g>
       <use xlink:href="#m0e0889fe8c" x="229.998955" y="384.48" style="stroke: #000000; stroke-width: 0.8"/>
      </g>
     </g>
     <g id="text_5">
      <!-- −12 -->
      <g transform="translate(219.446611 399.078438) scale(0.1 -0.1)">
       <defs>
        <path id="DejaVuSans-32" d="M 1228 531 
L 3431 531 
L 3431 0 
L 469 0 
L 469 531 
Q 828 903 1448 1529 
Q 2069 2156 2228 2338 
Q 2531 2678 2651 2914 
Q 2772 3150 2772 3378 
Q 2772 3750 2511 3984 
Q 2250 4219 1831 4219 
Q 1534 4219 1204 4116 
Q 875 4013 500 3803 
L 500 4441 
Q 881 4594 1212 4672 
Q 1544 4750 1819 4750 
Q 2544 4750 2975 4387 
Q 3406 4025 3406 3419 
Q 3406 3131 3298 2873 
Q 3191 2616 2906 2266 
Q 2828 2175 2409 1742 
Q 1991 1309 1228 531 
z
" transform="scale(0.015625)"/>
       </defs>
       <use xlink:href="#DejaVuSans-2212"/>
       <use xlink:href="#DejaVuSans-31" x="83.789062"/>
       <use xlink:href="#DejaVuSans-32" x="147.412109"/>
      </g>
     </g>
    </g>
    <g id="xtick_6">
     <g id="line2d_6">
      <g>
       <use xlink:href="#m0e0889fe8c" x="268.459887" y="384.48" style="stroke: #000000; stroke-width: 0.8"/>
      </g>
     </g>
     <g id="text_6">
      <!-- −11 -->
      <g transform="translate(257.907543 399.078438) scale(0.1 -0.1)">
       <use xlink:href="#DejaVuSans-2212"/>
       <use xlink:href="#DejaVuSans-31" x="83.789062"/>
       <use xlink:href="#DejaVuSans-31" x="147.412109"/>
      </g>
     </g>
    </g>
    <g id="xtick_7">
     <g id="line2d_7">
      <g>
       <use xlink:href="#m0e0889fe8c" x="306.920819" y="384.48" style="stroke: #000000; stroke-width: 0.8"/>
      </g>
     </g>
     <g id="text_7">
      <!-- −10 -->
      <g transform="translate(296.368475 399.078438) scale(0.1 -0.1)">
       <defs>
        <path id="DejaVuSans-30" d="M 2034 4250 
Q 1547 4250 1301 3770 
Q 1056 3291 1056 2328 
Q 1056 1369 1301 889 
Q 1547 409 2034 409 
Q 2525 409 2770 889 
Q 3016 1369 3016 2328 
Q 3016 3291 2770 3770 
Q 2525 4250 2034 4250 
z
M 2034 4750 
Q 2819 4750 3233 4129 
Q 3647 3509 3647 2328 
Q 3647 1150 3233 529 
Q 2819 -91 2034 -91 
Q 1250 -91 836 529 
Q 422 1150 422 2328 
Q 422 3509 836 4129 
Q 1250 4750 2034 4750 
z
" transform="scale(0.015625)"/>
       </defs>
       <use xlink:href="#DejaVuSans-2212"/>
       <use xlink:href="#DejaVuSans-31" x="83.789062"/>
       <use xlink:href="#DejaVuSans-30" x="147.412109"/>
      </g>
     </g>
    </g>
    <g id="xtick_8">
     <g id="line2d_8">
      <g>
       <use xlink:href="#m0e0889fe8c" x="345.381751" y="384.48" style="stroke: #000000; stroke-width: 0.8"/>
      </g>
     </g>
     <g id="text_8">
      <!-- −9 -->
      <g transform="translate(338.010657 399.078438) scale(0.1 -0.1)">
       <defs>
        <path id="DejaVuSans-39" d="M 703 97 
L 703 672 
Q 941 559 1184 500 
Q 1428 441 1663 441 
Q 2288 441 2617 861 
Q 2947 1281 2994 2138 
Q 2813 1869 2534 1725 
Q 2256 1581 1919 1581 
Q 1219 1581 811 2004 
Q 403 2428 403 3163 
Q 403 3881 828 4315 
Q 1253 4750 1959 4750 
Q 2769 4750 3195 4129 
Q 3622 3509 3622 2328 
Q 3622 1225 3098 567 
Q 2575 -91 1691 -91 
Q 1453 -91 1209 -44 
Q 966 3 703 97 
z
M 1959 2075 
Q 2384 2075 2632 2365 
Q 2881 2656 2881 3163 
Q 2881 3666 2632 3958 
Q 2384 4250 1959 4250 
Q 1534 4250 1286 3958 
Q 1038 3666 1038 3163 
Q 1038 2656 1286 2365 
Q 1534 2075 1959 2075 
z
" transform="scale(0.015625)"/>
       </defs>
       <use xlink:href="#DejaVuSans-2212"/>
       <use xlink:href="#DejaVuSans-39" x="83.789062"/>
      </g>
     </g>
    </g>
    <g id="xtick_9">
     <g id="line2d_9">
      <g>
       <use xlink:href="#m0e0889fe8c" x="383.842683" y="384.48" style="stroke: #000000; stroke-width: 0.8"/>
      </g>
     </g>
     <g id="text_9">
      <!-- −8 -->
      <g transform="translate(376.471589 399.078438) scale(0.1 -0.1)">
       <defs>
        <path id="DejaVuSans-38" d="M 2034 2216 
Q 1584 2216 1326 1975 
Q 1069 1734 1069 1313 
Q 1069 891 1326 650 
Q 1584 409 2034 409 
Q 2484 409 2743 651 
Q 3003 894 3003 1313 
Q 3003 1734 2745 1975 
Q 2488 2216 2034 2216 
z
M 1403 2484 
Q 997 2584 770 2862 
Q 544 3141 544 3541 
Q 544 4100 942 4425 
Q 1341 4750 2034 4750 
Q 2731 4750 3128 4425 
Q 3525 4100 3525 3541 
Q 3525 3141 3298 2862 
Q 3072 2584 2669 2484 
Q 3125 2378 3379 2068 
Q 3634 1759 3634 1313 
Q 3634 634 3220 271 
Q 2806 -91 2034 -91 
Q 1263 -91 848 271 
Q 434 634 434 1313 
Q 434 1759 690 2068 
Q 947 2378 1403 2484 
z
M 1172 3481 
Q 1172 3119 1398 2916 
Q 1625 2713 2034 2713 
Q 2441 2713 2670 2916 
Q 2900 3119 2900 3481 
Q 2900 3844 2670 4047 
Q 2441 4250 2034 4250 
Q 1625 4250 1398 4047 
Q 1172 3844 1172 3481 
z
" transform="scale(0.015625)"/>
       </defs>
       <use xlink:href="#DejaVuSans-2212"/>
       <use xlink:href="#DejaVuSans-38" x="83.789062"/>
      </g>
     </g>
    </g>
    <g id="text_10">
     <!-- $\sigma^0$_sim [dB] -->
     <g transform="translate(192.15 414.258125) scale(0.1 -0.1)">
      <defs>
       <path id="DejaVuSans-Oblique-3c3" d="M 2219 3044 
Q 1744 3044 1422 2700 
Q 1081 2341 969 1747 
Q 844 1119 1044 756 
Q 1241 397 1706 397 
Q 2166 397 2503 759 
Q 2844 1122 2966 1747 
Q 3075 2319 2881 2700 
Q 2700 3044 2219 3044 
z
M 2309 3503 
L 4219 3500 
L 4106 2925 
L 3463 2925 
Q 3706 2438 3575 1747 
Q 3406 888 2884 400 
Q 2359 -91 1609 -91 
Q 856 -91 525 400 
Q 194 888 363 1747 
Q 528 2609 1050 3097 
Q 1484 3503 2309 3503 
z
" transform="scale(0.015625)"/>
       <path id="DejaVuSans-5f" d="M 3263 -1063 
L 3263 -1509 
L -63 -1509 
L -63 -1063 
L 3263 -1063 
z
" transform="scale(0.015625)"/>
       <path id="DejaVuSans-73" d="M 2834 3397 
L 2834 2853 
Q 2591 2978 2328 3040 
Q 2066 3103 1784 3103 
Q 1356 3103 1142 2972 
Q 928 2841 928 2578 
Q 928 2378 1081 2264 
Q 1234 2150 1697 2047 
L 1894 2003 
Q 2506 1872 2764 1633 
Q 3022 1394 3022 966 
Q 3022 478 2636 193 
Q 2250 -91 1575 -91 
Q 1294 -91 989 -36 
Q 684 19 347 128 
L 347 722 
Q 666 556 975 473 
Q 1284 391 1588 391 
Q 1994 391 2212 530 
Q 2431 669 2431 922 
Q 2431 1156 2273 1281 
Q 2116 1406 1581 1522 
L 1381 1569 
Q 847 1681 609 1914 
Q 372 2147 372 2553 
Q 372 3047 722 3315 
Q 1072 3584 1716 3584 
Q 2034 3584 2315 3537 
Q 2597 3491 2834 3397 
z
" transform="scale(0.015625)"/>
       <path id="DejaVuSans-69" d="M 603 3500 
L 1178 3500 
L 1178 0 
L 603 0 
L 603 3500 
z
M 603 4863 
L 1178 4863 
L 1178 4134 
L 603 4134 
L 603 4863 
z
" transform="scale(0.015625)"/>
       <path id="DejaVuSans-6d" d="M 3328 2828 
Q 3544 3216 3844 3400 
Q 4144 3584 4550 3584 
Q 5097 3584 5394 3201 
Q 5691 2819 5691 2113 
L 5691 0 
L 5113 0 
L 5113 2094 
Q 5113 2597 4934 2840 
Q 4756 3084 4391 3084 
Q 3944 3084 3684 2787 
Q 3425 2491 3425 1978 
L 3425 0 
L 2847 0 
L 2847 2094 
Q 2847 2600 2669 2842 
Q 2491 3084 2119 3084 
Q 1678 3084 1418 2786 
Q 1159 2488 1159 1978 
L 1159 0 
L 581 0 
L 581 3500 
L 1159 3500 
L 1159 2956 
Q 1356 3278 1631 3431 
Q 1906 3584 2284 3584 
Q 2666 3584 2933 3390 
Q 3200 3197 3328 2828 
z
" transform="scale(0.015625)"/>
       <path id="DejaVuSans-20" transform="scale(0.015625)"/>
       <path id="DejaVuSans-5b" d="M 550 4863 
L 1875 4863 
L 1875 4416 
L 1125 4416 
L 1125 -397 
L 1875 -397 
L 1875 -844 
L 550 -844 
L 550 4863 
z
" transform="scale(0.015625)"/>
       <path id="DejaVuSans-64" d="M 2906 2969 
L 2906 4863 
L 3481 4863 
L 3481 0 
L 2906 0 
L 2906 525 
Q 2725 213 2448 61 
Q 2172 -91 1784 -91 
Q 1150 -91 751 415 
Q 353 922 353 1747 
Q 353 2572 751 3078 
Q 1150 3584 1784 3584 
Q 2172 3584 2448 3432 
Q 2725 3281 2906 2969 
z
M 947 1747 
Q 947 1113 1208 752 
Q 1469 391 1925 391 
Q 2381 391 2643 752 
Q 2906 1113 2906 1747 
Q 2906 2381 2643 2742 
Q 2381 3103 1925 3103 
Q 1469 3103 1208 2742 
Q 947 2381 947 1747 
z
" transform="scale(0.015625)"/>
       <path id="DejaVuSans-42" d="M 1259 2228 
L 1259 519 
L 2272 519 
Q 2781 519 3026 730 
Q 3272 941 3272 1375 
Q 3272 1813 3026 2020 
Q 2781 2228 2272 2228 
L 1259 2228 
z
M 1259 4147 
L 1259 2741 
L 2194 2741 
Q 2656 2741 2882 2914 
Q 3109 3088 3109 3444 
Q 3109 3797 2882 3972 
Q 2656 4147 2194 4147 
L 1259 4147 
z
M 628 4666 
L 2241 4666 
Q 2963 4666 3353 4366 
Q 3744 4066 3744 3513 
Q 3744 3084 3544 2831 
Q 3344 2578 2956 2516 
Q 3422 2416 3680 2098 
Q 3938 1781 3938 1306 
Q 3938 681 3513 340 
Q 3088 0 2303 0 
L 628 0 
L 628 4666 
z
" transform="scale(0.015625)"/>
       <path id="DejaVuSans-5d" d="M 1947 4863 
L 1947 -844 
L 622 -844 
L 622 -397 
L 1369 -397 
L 1369 4416 
L 622 4416 
L 622 4863 
L 1947 4863 
z
" transform="scale(0.015625)"/>
      </defs>
      <use xlink:href="#DejaVuSans-Oblique-3c3" transform="translate(0 0.765625)"/>
      <use xlink:href="#DejaVuSans-30" transform="translate(67.851615 39.046875) scale(0.7)"/>
      <use xlink:href="#DejaVuSans-5f" transform="translate(115.122122 0.765625)"/>
      <use xlink:href="#DejaVuSans-73" transform="translate(165.122122 0.765625)"/>
      <use xlink:href="#DejaVuSans-69" transform="translate(217.221732 0.765625)"/>
      <use xlink:href="#DejaVuSans-6d" transform="translate(245.004935 0.765625)"/>
      <use xlink:href="#DejaVuSans-20" transform="translate(342.417044 0.765625)"/>
      <use xlink:href="#DejaVuSans-5b" transform="translate(374.204154 0.765625)"/>
      <use xlink:href="#DejaVuSans-64" transform="translate(413.217826 0.765625)"/>
      <use xlink:href="#DejaVuSans-42" transform="translate(476.694388 0.765625)"/>
      <use xlink:href="#DejaVuSans-5d" transform="translate(545.297904 0.765625)"/>
     </g>
    </g>
   </g>
   <g id="matplotlib.axis_2">
    <g id="ytick_1">
     <g id="line2d_10">
      <defs>
       <path id="mb3027d4812" d="M 0 0 
L -3.5 0 
" style="stroke: #000000; stroke-width: 0.8"/>
      </defs>
      <g>
       <use xlink:href="#mb3027d4812" x="55.08" y="363.404772" style="stroke: #000000; stroke-width: 0.8"/>
      </g>
     </g>
     <g id="text_11">
      <!-- −16 -->
      <g transform="translate(26.975312 367.203991) scale(0.1 -0.1)">
       <use xlink:href="#DejaVuSans-2212"/>
       <use xlink:href="#DejaVuSans-31" x="83.789062"/>
       <use xlink:href="#DejaVuSans-36" x="147.412109"/>
      </g>
     </g>
    </g>
    <g id="ytick_2">
     <g id="line2d_11">
      <g>
       <use xlink:href="#mb3027d4812" x="55.08" y="324.94384" style="stroke: #000000; stroke-width: 0.8"/>
      </g>
     </g>
     <g id="text_12">
      <!-- −15 -->
      <g transform="translate(26.975312 328.743059) scale(0.1 -0.1)">
       <use xlink:href="#DejaVuSans-2212"/>
       <use xlink:href="#DejaVuSans-31" x="83.789062"/>
       <use xlink:href="#DejaVuSans-35" x="147.412109"/>
      </g>
     </g>
    </g>
    <g id="ytick_3">
     <g id="line2d_12">
      <g>
       <use xlink:href="#mb3027d4812" x="55.08" y="286.482909" style="stroke: #000000; stroke-width: 0.8"/>
      </g>
     </g>
     <g id="text_13">
      <!-- −14 -->
      <g transform="translate(26.975312 290.282127) scale(0.1 -0.1)">
       <use xlink:href="#DejaVuSans-2212"/>
       <use xlink:href="#DejaVuSans-31" x="83.789062"/>
       <use xlink:href="#DejaVuSans-34" x="147.412109"/>
      </g>
     </g>
    </g>
    <g id="ytick_4">
     <g id="line2d_13">
      <g>
       <use xlink:href="#mb3027d4812" x="55.08" y="248.021977" style="stroke: #000000; stroke-width: 0.8"/>
      </g>
     </g>
     <g id="text_14">
      <!-- −13 -->
      <g transform="translate(26.975312 251.821195) scale(0.1 -0.1)">
       <use xlink:href="#DejaVuSans-2212"/>
       <use xlink:href="#DejaVuSans-31" x="83.789062"/>
       <use xlink:href="#DejaVuSans-33" x="147.412109"/>
      </g>
     </g>
    </g>
    <g id="ytick_5">
     <g id="line2d_14">
      <g>
       <use xlink:href="#mb3027d4812" x="55.08" y="209.561045" style="stroke: #000000; stroke-width: 0.8"/>
      </g>
     </g>
     <g id="text_15">
      <!-- −12 -->
      <g transform="translate(26.975312 213.360264) scale(0.1 -0.1)">
       <use xlink:href="#DejaVuSans-2212"/>
       <use xlink:href="#DejaVuSans-31" x="83.789062"/>
       <use xlink:href="#DejaVuSans-32" x="147.412109"/>
      </g>
     </g>
    </g>
    <g id="ytick_6">
     <g id="line2d_15">
      <g>
       <use xlink:href="#mb3027d4812" x="55.08" y="171.100113" style="stroke: #000000; stroke-width: 0.8"/>
      </g>
     </g>
     <g id="text_16">
      <!-- −11 -->
      <g transform="translate(26.975312 174.899332) scale(0.1 -0.1)">
       <use xlink:href="#DejaVuSans-2212"/>
       <use xlink:href="#DejaVuSans-31" x="83.789062"/>
       <use xlink:href="#DejaVuSans-31" x="147.412109"/>
      </g>
     </g>
    </g>
    <g id="ytick_7">
     <g id="line2d_16">
      <g>
       <use xlink:href="#mb3027d4812" x="55.08" y="132.639181" style="stroke: #000000; stroke-width: 0.8"/>
      </g>
     </g>
     <g id="text_17">
      <!-- −10 -->
      <g transform="translate(26.975312 136.4384) scale(0.1 -0.1)">
       <use xlink:href="#DejaVuSans-2212"/>
       <use xlink:href="#DejaVuSans-31" x="83.789062"/>
       <use xlink:href="#DejaVuSans-30" x="147.412109"/>
      </g>
     </g>
    </g>
    <g id="ytick_8">
     <g id="line2d_17">
      <g>
       <use xlink:href="#mb3027d4812" x="55.08" y="94.178249" style="stroke: #000000; stroke-width: 0.8"/>
      </g>
     </g>
     <g id="text_18">
      <!-- −9 -->
      <g transform="translate(33.337812 97.977468) scale(0.1 -0.1)">
       <use xlink:href="#DejaVuSans-2212"/>
       <use xlink:href="#DejaVuSans-39" x="83.789062"/>
      </g>
     </g>
    </g>
    <g id="ytick_9">
     <g id="line2d_18">
      <g>
       <use xlink:href="#mb3027d4812" x="55.08" y="55.717317" style="stroke: #000000; stroke-width: 0.8"/>
      </g>
     </g>
     <g id="text_19">
      <!-- −8 -->
      <g transform="translate(33.337812 59.516536) scale(0.1 -0.1)">
       <use xlink:href="#DejaVuSans-2212"/>
       <use xlink:href="#DejaVuSans-38" x="83.789062"/>
      </g>
     </g>
    </g>
    <g id="text_20">
     <!-- $\sigma^0$_obs [dB] -->
     <g transform="translate(20.575312 247.36) rotate(-90) scale(0.1 -0.1)">
      <defs>
       <path id="DejaVuSans-6f" d="M 1959 3097 
Q 1497 3097 1228 2736 
Q 959 2375 959 1747 
Q 959 1119 1226 758 
Q 1494 397 1959 397 
Q 2419 397 2687 759 
Q 2956 1122 2956 1747 
Q 2956 2369 2687 2733 
Q 2419 3097 1959 3097 
z
M 1959 3584 
Q 2709 3584 3137 3096 
Q 3566 2609 3566 1747 
Q 3566 888 3137 398 
Q 2709 -91 1959 -91 
Q 1206 -91 779 398 
Q 353 888 353 1747 
Q 353 2609 779 3096 
Q 1206 3584 1959 3584 
z
" transform="scale(0.015625)"/>
       <path id="DejaVuSans-62" d="M 3116 1747 
Q 3116 2381 2855 2742 
Q 2594 3103 2138 3103 
Q 1681 3103 1420 2742 
Q 1159 2381 1159 1747 
Q 1159 1113 1420 752 
Q 1681 391 2138 391 
Q 2594 391 2855 752 
Q 3116 1113 3116 1747 
z
M 1159 2969 
Q 1341 3281 1617 3432 
Q 1894 3584 2278 3584 
Q 2916 3584 3314 3078 
Q 3713 2572 3713 1747 
Q 3713 922 3314 415 
Q 2916 -91 2278 -91 
Q 1894 -91 1617 61 
Q 1341 213 1159 525 
L 1159 0 
L 581 0 
L 581 4863 
L 1159 4863 
L 1159 2969 
z
" transform="scale(0.015625)"/>
      </defs>
      <use xlink:href="#DejaVuSans-Oblique-3c3" transform="translate(0 0.765625)"/>
      <use xlink:href="#DejaVuSans-30" transform="translate(67.851615 39.046875) scale(0.7)"/>
      <use xlink:href="#DejaVuSans-5f" transform="translate(115.122122 0.765625)"/>
      <use xlink:href="#DejaVuSans-6f" transform="translate(165.122122 0.765625)"/>
      <use xlink:href="#DejaVuSans-62" transform="translate(226.303763 0.765625)"/>
      <use xlink:href="#DejaVuSans-73" transform="translate(289.780326 0.765625)"/>
      <use xlink:href="#DejaVuSans-20" transform="translate(341.879935 0.765625)"/>
      <use xlink:href="#DejaVuSans-5b" transform="translate(373.667044 0.765625)"/>
      <use xlink:href="#DejaVuSans-64" transform="translate(412.680716 0.765625)"/>
      <use xlink:href="#DejaVuSans-42" transform="translate(476.157279 0.765625)"/>
      <use xlink:href="#DejaVuSans-5d" transform="translate(544.760794 0.765625)"/>
     </g>
    </g>
   </g>
   <g id="line2d_19">
    <defs>
     <path id="m3af1321374" d="M 0 3 
C 0.795609 3 1.55874 2.683901 2.12132 2.12132 
C 2.683901 1.55874 3 0.795609 3 0 
C 3 -0.795609 2.683901 -1.55874 2.12132 -2.12132 
C 1.55874 -2.683901 0.795609 -3 0 -3 
C -0.795609 -3 -1.55874 -2.683901 -2.12132 -2.12132 
C -2.683901 -1.55874 -3 -0.795609 -3 0 
C -3 0.795609 -2.683901 1.55874 -2.12132 2.12132 
C -1.55874 2.683901 -0.795609 3 0 3 
z
" style="stroke: #1f77b4"/>
    </defs>
    <g clip-path="url(#pdaffe36c73)">
     <use xlink:href="#m3af1321374" x="229.754328" y="105.484239" style="fill: #1f77b4; stroke: #1f77b4"/>
     <use xlink:href="#m3af1321374" x="320.201872" y="107.934694" style="fill: #1f77b4; stroke: #1f77b4"/>
     <use xlink:href="#m3af1321374" x="311.194872" y="111.350948" style="fill: #1f77b4; stroke: #1f77b4"/>
     <use xlink:href="#m3af1321374" x="312.618207" y="109.979715" style="fill: #1f77b4; stroke: #1f77b4"/>
     <use xlink:href="#m3af1321374" x="319.581485" y="100.211597" style="fill: #1f77b4; stroke: #1f77b4"/>
     <use xlink:href="#m3af1321374" x="313.942528" y="108.604762" style="fill: #1f77b4; stroke: #1f77b4"/>
     <use xlink:href="#m3af1321374" x="306.483873" y="115.930456" style="fill: #1f77b4; stroke: #1f77b4"/>
     <use xlink:href="#m3af1321374" x="317.912949" y="116.73005" style="fill: #1f77b4; stroke: #1f77b4"/>
     <use xlink:href="#m3af1321374" x="307.29701" y="151.220364" style="fill: #1f77b4; stroke: #1f77b4"/>
     <use xlink:href="#m3af1321374" x="297.13096" y="100.705383" style="fill: #1f77b4; stroke: #1f77b4"/>
     <use xlink:href="#m3af1321374" x="295.862693" y="134.357848" style="fill: #1f77b4; stroke: #1f77b4"/>
     <use xlink:href="#m3af1321374" x="289.441463" y="147.764685" style="fill: #1f77b4; stroke: #1f77b4"/>
     <use xlink:href="#m3af1321374" x="281.062965" y="122.521921" style="fill: #1f77b4; stroke: #1f77b4"/>
     <use xlink:href="#m3af1321374" x="255.426715" y="145.326642" style="fill: #1f77b4; stroke: #1f77b4"/>
     <use xlink:href="#m3af1321374" x="249.38721" y="143.988633" style="fill: #1f77b4; stroke: #1f77b4"/>
     <use xlink:href="#m3af1321374" x="317.632772" y="96.285633" style="fill: #1f77b4; stroke: #1f77b4"/>
     <use xlink:href="#m3af1321374" x="306.839782" y="120.680108" style="fill: #1f77b4; stroke: #1f77b4"/>
     <use xlink:href="#m3af1321374" x="298.393724" y="145.788516" style="fill: #1f77b4; stroke: #1f77b4"/>
     <use xlink:href="#m3af1321374" x="317.083622" y="123.307451" style="fill: #1f77b4; stroke: #1f77b4"/>
     <use xlink:href="#m3af1321374" x="283.579328" y="171.393727" style="fill: #1f77b4; stroke: #1f77b4"/>
     <use xlink:href="#m3af1321374" x="271.806605" y="175.354408" style="fill: #1f77b4; stroke: #1f77b4"/>
     <use xlink:href="#m3af1321374" x="316.550687" y="114.090387" style="fill: #1f77b4; stroke: #1f77b4"/>
     <use xlink:href="#m3af1321374" x="268.781082" y="178.653564" style="fill: #1f77b4; stroke: #1f77b4"/>
     <use xlink:href="#m3af1321374" x="316.118897" y="141.97867" style="fill: #1f77b4; stroke: #1f77b4"/>
     <use xlink:href="#m3af1321374" x="316.033878" y="149.190474" style="fill: #1f77b4; stroke: #1f77b4"/>
     <use xlink:href="#m3af1321374" x="315.698249" y="138.171572" style="fill: #1f77b4; stroke: #1f77b4"/>
     <use xlink:href="#m3af1321374" x="315.615452" y="155.014816" style="fill: #1f77b4; stroke: #1f77b4"/>
     <use xlink:href="#m3af1321374" x="304.167257" y="151.273682" style="fill: #1f77b4; stroke: #1f77b4"/>
     <use xlink:href="#m3af1321374" x="288.38903" y="244.645065" style="fill: #1f77b4; stroke: #1f77b4"/>
     <use xlink:href="#m3af1321374" x="315.127956" y="312.59608" style="fill: #1f77b4; stroke: #1f77b4"/>
     <use xlink:href="#m3af1321374" x="315.04825" y="341.629218" style="fill: #1f77b4; stroke: #1f77b4"/>
     <use xlink:href="#m3af1321374" x="314.73382" y="137.314544" style="fill: #1f77b4; stroke: #1f77b4"/>
     <use xlink:href="#m3af1321374" x="314.656309" y="141.445456" style="fill: #1f77b4; stroke: #1f77b4"/>
     <use xlink:href="#m3af1321374" x="293.046047" y="142.016152" style="fill: #1f77b4; stroke: #1f77b4"/>
     <use xlink:href="#m3af1321374" x="314.275301" y="115.884688" style="fill: #1f77b4; stroke: #1f77b4"/>
     <use xlink:href="#m3af1321374" x="314.200406" y="132.029055" style="fill: #1f77b4; stroke: #1f77b4"/>
     <use xlink:href="#m3af1321374" x="288.752377" y="138.123915" style="fill: #1f77b4; stroke: #1f77b4"/>
     <use xlink:href="#m3af1321374" x="313.832438" y="136.422059" style="fill: #1f77b4; stroke: #1f77b4"/>
     <use xlink:href="#m3af1321374" x="313.760143" y="132.114293" style="fill: #1f77b4; stroke: #1f77b4"/>
     <use xlink:href="#m3af1321374" x="307.570199" y="138.710922" style="fill: #1f77b4; stroke: #1f77b4"/>
     <use xlink:href="#m3af1321374" x="250.683909" y="187.041455" style="fill: #1f77b4; stroke: #1f77b4"/>
     <use xlink:href="#m3af1321374" x="237.234507" y="212.668335" style="fill: #1f77b4; stroke: #1f77b4"/>
     <use xlink:href="#m3af1321374" x="224.211424" y="214.795067" style="fill: #1f77b4; stroke: #1f77b4"/>
     <use xlink:href="#m3af1321374" x="219.973414" y="207.351524" style="fill: #1f77b4; stroke: #1f77b4"/>
     <use xlink:href="#m3af1321374" x="312.094772" y="189.141486" style="fill: #1f77b4; stroke: #1f77b4"/>
     <use xlink:href="#m3af1321374" x="311.902689" y="165.202516" style="fill: #1f77b4; stroke: #1f77b4"/>
     <use xlink:href="#m3af1321374" x="294.746723" y="135.306299" style="fill: #1f77b4; stroke: #1f77b4"/>
     <use xlink:href="#m3af1321374" x="259.074881" y="152.054078" style="fill: #1f77b4; stroke: #1f77b4"/>
     <use xlink:href="#m3af1321374" x="234.049827" y="194.296406" style="fill: #1f77b4; stroke: #1f77b4"/>
     <use xlink:href="#m3af1321374" x="310.207057" y="162.417655" style="fill: #1f77b4; stroke: #1f77b4"/>
     <use xlink:href="#m3af1321374" x="310.0596" y="150.308204" style="fill: #1f77b4; stroke: #1f77b4"/>
     <use xlink:href="#m3af1321374" x="309.916084" y="151.084127" style="fill: #1f77b4; stroke: #1f77b4"/>
     <use xlink:href="#m3af1321374" x="228.392551" y="178.010857" style="fill: #1f77b4; stroke: #1f77b4"/>
     <use xlink:href="#m3af1321374" x="228.875379" y="173.099335" style="fill: #1f77b4; stroke: #1f77b4"/>
     <use xlink:href="#m3af1321374" x="229.358647" y="187.894279" style="fill: #1f77b4; stroke: #1f77b4"/>
     <use xlink:href="#m3af1321374" x="230.94052" y="221.096205" style="fill: #1f77b4; stroke: #1f77b4"/>
     <use xlink:href="#m3af1321374" x="231.336582" y="205.137677" style="fill: #1f77b4; stroke: #1f77b4"/>
     <use xlink:href="#m3af1321374" x="231.732855" y="222.825154" style="fill: #1f77b4; stroke: #1f77b4"/>
     <use xlink:href="#m3af1321374" x="239.625538" y="209.505352" style="fill: #1f77b4; stroke: #1f77b4"/>
     <use xlink:href="#m3af1321374" x="244.621425" y="186.486239" style="fill: #1f77b4; stroke: #1f77b4"/>
     <use xlink:href="#m3af1321374" x="308.155439" y="178.854805" style="fill: #1f77b4; stroke: #1f77b4"/>
     <use xlink:href="#m3af1321374" x="266.841437" y="136.884172" style="fill: #1f77b4; stroke: #1f77b4"/>
     <use xlink:href="#m3af1321374" x="245.547944" y="131.099443" style="fill: #1f77b4; stroke: #1f77b4"/>
     <use xlink:href="#m3af1321374" x="236.033252" y="132.411651" style="fill: #1f77b4; stroke: #1f77b4"/>
     <use xlink:href="#m3af1321374" x="239.693356" y="163.891769" style="fill: #1f77b4; stroke: #1f77b4"/>
     <use xlink:href="#m3af1321374" x="238.533722" y="176.00801" style="fill: #1f77b4; stroke: #1f77b4"/>
     <use xlink:href="#m3af1321374" x="272.786349" y="193.989264" style="fill: #1f77b4; stroke: #1f77b4"/>
     <use xlink:href="#m3af1321374" x="268.696926" y="200.54038" style="fill: #1f77b4; stroke: #1f77b4"/>
     <use xlink:href="#m3af1321374" x="245.886819" y="170.204198" style="fill: #1f77b4; stroke: #1f77b4"/>
     <use xlink:href="#m3af1321374" x="239.969246" y="194.941135" style="fill: #1f77b4; stroke: #1f77b4"/>
     <use xlink:href="#m3af1321374" x="298.689429" y="142.823604" style="fill: #1f77b4; stroke: #1f77b4"/>
     <use xlink:href="#m3af1321374" x="256.933364" y="137.171325" style="fill: #1f77b4; stroke: #1f77b4"/>
     <use xlink:href="#m3af1321374" x="232.105547" y="147.58202" style="fill: #1f77b4; stroke: #1f77b4"/>
     <use xlink:href="#m3af1321374" x="228.11417" y="200.649332" style="fill: #1f77b4; stroke: #1f77b4"/>
     <use xlink:href="#m3af1321374" x="308.747669" y="195.70693" style="fill: #1f77b4; stroke: #1f77b4"/>
     <use xlink:href="#m3af1321374" x="259.281434" y="198.240411" style="fill: #1f77b4; stroke: #1f77b4"/>
     <use xlink:href="#m3af1321374" x="237.510361" y="202.221945" style="fill: #1f77b4; stroke: #1f77b4"/>
     <use xlink:href="#m3af1321374" x="223.782577" y="209.085807" style="fill: #1f77b4; stroke: #1f77b4"/>
     <use xlink:href="#m3af1321374" x="222.835746" y="230.900651" style="fill: #1f77b4; stroke: #1f77b4"/>
     <use xlink:href="#m3af1321374" x="228.060834" y="186.931201" style="fill: #1f77b4; stroke: #1f77b4"/>
     <use xlink:href="#m3af1321374" x="218.473412" y="194.738627" style="fill: #1f77b4; stroke: #1f77b4"/>
     <use xlink:href="#m3af1321374" x="217.547498" y="221.482789" style="fill: #1f77b4; stroke: #1f77b4"/>
     <use xlink:href="#m3af1321374" x="224.771728" y="185.57689" style="fill: #1f77b4; stroke: #1f77b4"/>
     <use xlink:href="#m3af1321374" x="212.922262" y="188.83117" style="fill: #1f77b4; stroke: #1f77b4"/>
     <use xlink:href="#m3af1321374" x="212.019107" y="218.07013" style="fill: #1f77b4; stroke: #1f77b4"/>
     <use xlink:href="#m3af1321374" x="285.811582" y="199.350181" style="fill: #1f77b4; stroke: #1f77b4"/>
     <use xlink:href="#m3af1321374" x="243.145366" y="192.448709" style="fill: #1f77b4; stroke: #1f77b4"/>
     <use xlink:href="#m3af1321374" x="208.263058" y="205.794155" style="fill: #1f77b4; stroke: #1f77b4"/>
     <use xlink:href="#m3af1321374" x="204.721963" y="201.724637" style="fill: #1f77b4; stroke: #1f77b4"/>
     <use xlink:href="#m3af1321374" x="203.999786" y="207.68844" style="fill: #1f77b4; stroke: #1f77b4"/>
     <use xlink:href="#m3af1321374" x="203.285476" y="204.433127" style="fill: #1f77b4; stroke: #1f77b4"/>
     <use xlink:href="#m3af1321374" x="200.512857" y="221.540399" style="fill: #1f77b4; stroke: #1f77b4"/>
     <use xlink:href="#m3af1321374" x="199.842388" y="191.745588" style="fill: #1f77b4; stroke: #1f77b4"/>
     <use xlink:href="#m3af1321374" x="247.201836" y="153.743038" style="fill: #1f77b4; stroke: #1f77b4"/>
     <use xlink:href="#m3af1321374" x="195.978147" y="218.440208" style="fill: #1f77b4; stroke: #1f77b4"/>
     <use xlink:href="#m3af1321374" x="211.618605" y="191.037874" style="fill: #1f77b4; stroke: #1f77b4"/>
     <use xlink:href="#m3af1321374" x="195.807135" y="207.412407" style="fill: #1f77b4; stroke: #1f77b4"/>
     <use xlink:href="#m3af1321374" x="330.635724" y="151.636209" style="fill: #1f77b4; stroke: #1f77b4"/>
     <use xlink:href="#m3af1321374" x="266.33907" y="163.924299" style="fill: #1f77b4; stroke: #1f77b4"/>
     <use xlink:href="#m3af1321374" x="217.136442" y="205.978134" style="fill: #1f77b4; stroke: #1f77b4"/>
     <use xlink:href="#m3af1321374" x="228.003338" y="155.601754" style="fill: #1f77b4; stroke: #1f77b4"/>
     <use xlink:href="#m3af1321374" x="324.23245" y="129.954909" style="fill: #1f77b4; stroke: #1f77b4"/>
     <use xlink:href="#m3af1321374" x="257.875395" y="200.668403" style="fill: #1f77b4; stroke: #1f77b4"/>
     <use xlink:href="#m3af1321374" x="198.549044" y="202.548419" style="fill: #1f77b4; stroke: #1f77b4"/>
     <use xlink:href="#m3af1321374" x="197.75062" y="193.065578" style="fill: #1f77b4; stroke: #1f77b4"/>
     <use xlink:href="#m3af1321374" x="197.104874" y="208.452233" style="fill: #1f77b4; stroke: #1f77b4"/>
     <use xlink:href="#m3af1321374" x="196.122396" y="180.582538" style="fill: #1f77b4; stroke: #1f77b4"/>
     <use xlink:href="#m3af1321374" x="194.159809" y="191.971003" style="fill: #1f77b4; stroke: #1f77b4"/>
     <use xlink:href="#m3af1321374" x="193.347198" y="235.535977" style="fill: #1f77b4; stroke: #1f77b4"/>
     <use xlink:href="#m3af1321374" x="192.033777" y="177.856149" style="fill: #1f77b4; stroke: #1f77b4"/>
     <use xlink:href="#m3af1321374" x="191.367118" y="223.178688" style="fill: #1f77b4; stroke: #1f77b4"/>
     <use xlink:href="#m3af1321374" x="191.00912" y="239.906909" style="fill: #1f77b4; stroke: #1f77b4"/>
     <use xlink:href="#m3af1321374" x="210.822742" y="133.129191" style="fill: #1f77b4; stroke: #1f77b4"/>
     <use xlink:href="#m3af1321374" x="193.100263" y="224.391198" style="fill: #1f77b4; stroke: #1f77b4"/>
     <use xlink:href="#m3af1321374" x="190.763089" y="253.687243" style="fill: #1f77b4; stroke: #1f77b4"/>
     <use xlink:href="#m3af1321374" x="187.979181" y="256.675433" style="fill: #1f77b4; stroke: #1f77b4"/>
     <use xlink:href="#m3af1321374" x="187.468537" y="243.468858" style="fill: #1f77b4; stroke: #1f77b4"/>
     <use xlink:href="#m3af1321374" x="344.869218" y="181.006786" style="fill: #1f77b4; stroke: #1f77b4"/>
     <use xlink:href="#m3af1321374" x="285.082587" y="197.06506" style="fill: #1f77b4; stroke: #1f77b4"/>
     <use xlink:href="#m3af1321374" x="239.470655" y="214.392801" style="fill: #1f77b4; stroke: #1f77b4"/>
     <use xlink:href="#m3af1321374" x="203.785472" y="253.976428" style="fill: #1f77b4; stroke: #1f77b4"/>
     <use xlink:href="#m3af1321374" x="312.481871" y="152.976552" style="fill: #1f77b4; stroke: #1f77b4"/>
     <use xlink:href="#m3af1321374" x="280.262912" y="165.313309" style="fill: #1f77b4; stroke: #1f77b4"/>
     <use xlink:href="#m3af1321374" x="244.708201" y="226.658767" style="fill: #1f77b4; stroke: #1f77b4"/>
     <use xlink:href="#m3af1321374" x="205.669366" y="217.955604" style="fill: #1f77b4; stroke: #1f77b4"/>
     <use xlink:href="#m3af1321374" x="204.262182" y="216.575115" style="fill: #1f77b4; stroke: #1f77b4"/>
     <use xlink:href="#m3af1321374" x="203.786955" y="245.336916" style="fill: #1f77b4; stroke: #1f77b4"/>
     <use xlink:href="#m3af1321374" x="202.536615" y="248.784884" style="fill: #1f77b4; stroke: #1f77b4"/>
     <use xlink:href="#m3af1321374" x="202.23881" y="247.782358" style="fill: #1f77b4; stroke: #1f77b4"/>
     <use xlink:href="#m3af1321374" x="201.942591" y="261.090291" style="fill: #1f77b4; stroke: #1f77b4"/>
     <use xlink:href="#m3af1321374" x="219.130273" y="200.197683" style="fill: #1f77b4; stroke: #1f77b4"/>
     <use xlink:href="#m3af1321374" x="203.089651" y="230.990789" style="fill: #1f77b4; stroke: #1f77b4"/>
     <use xlink:href="#m3af1321374" x="201.354179" y="266.900761" style="fill: #1f77b4; stroke: #1f77b4"/>
     <use xlink:href="#m3af1321374" x="201.119991" y="266.966075" style="fill: #1f77b4; stroke: #1f77b4"/>
     <use xlink:href="#m3af1321374" x="201.965293" y="283.228432" style="fill: #1f77b4; stroke: #1f77b4"/>
     <use xlink:href="#m3af1321374" x="202.838083" y="281.389482" style="fill: #1f77b4; stroke: #1f77b4"/>
     <use xlink:href="#m3af1321374" x="320.126652" y="151.56049" style="fill: #1f77b4; stroke: #1f77b4"/>
     <use xlink:href="#m3af1321374" x="285.608482" y="205.768454" style="fill: #1f77b4; stroke: #1f77b4"/>
     <use xlink:href="#m3af1321374" x="259.111674" y="236.880874" style="fill: #1f77b4; stroke: #1f77b4"/>
     <use xlink:href="#m3af1321374" x="293.034759" y="138.46108" style="fill: #1f77b4; stroke: #1f77b4"/>
     <use xlink:href="#m3af1321374" x="266.978917" y="182.912111" style="fill: #1f77b4; stroke: #1f77b4"/>
     <use xlink:href="#m3af1321374" x="249.109416" y="206.850211" style="fill: #1f77b4; stroke: #1f77b4"/>
     <use xlink:href="#m3af1321374" x="246.506027" y="184.613307" style="fill: #1f77b4; stroke: #1f77b4"/>
     <use xlink:href="#m3af1321374" x="235.71993" y="208.271908" style="fill: #1f77b4; stroke: #1f77b4"/>
     <use xlink:href="#m3af1321374" x="227.072799" y="218.814846" style="fill: #1f77b4; stroke: #1f77b4"/>
     <use xlink:href="#m3af1321374" x="225.551124" y="208.185704" style="fill: #1f77b4; stroke: #1f77b4"/>
     <use xlink:href="#m3af1321374" x="228.921205" y="219.965651" style="fill: #1f77b4; stroke: #1f77b4"/>
     <use xlink:href="#m3af1321374" x="226.86383" y="247.66714" style="fill: #1f77b4; stroke: #1f77b4"/>
     <use xlink:href="#m3af1321374" x="222.765382" y="227.409208" style="fill: #1f77b4; stroke: #1f77b4"/>
     <use xlink:href="#m3af1321374" x="221.583162" y="225.364234" style="fill: #1f77b4; stroke: #1f77b4"/>
     <use xlink:href="#m3af1321374" x="312.162916" y="137.945196" style="fill: #1f77b4; stroke: #1f77b4"/>
     <use xlink:href="#m3af1321374" x="313.545199" y="100.892844" style="fill: #1f77b4; stroke: #1f77b4"/>
     <use xlink:href="#m3af1321374" x="313.919734" y="124.78458" style="fill: #1f77b4; stroke: #1f77b4"/>
     <use xlink:href="#m3af1321374" x="303.868427" y="152.568298" style="fill: #1f77b4; stroke: #1f77b4"/>
     <use xlink:href="#m3af1321374" x="315.969808" y="116.903177" style="fill: #1f77b4; stroke: #1f77b4"/>
     <use xlink:href="#m3af1321374" x="299.717903" y="125.763483" style="fill: #1f77b4; stroke: #1f77b4"/>
     <use xlink:href="#m3af1321374" x="292.715466" y="136.23912" style="fill: #1f77b4; stroke: #1f77b4"/>
     <use xlink:href="#m3af1321374" x="318.828795" y="133.3285" style="fill: #1f77b4; stroke: #1f77b4"/>
     <use xlink:href="#m3af1321374" x="309.808835" y="137.600066" style="fill: #1f77b4; stroke: #1f77b4"/>
     <use xlink:href="#m3af1321374" x="296.83729" y="140.617556" style="fill: #1f77b4; stroke: #1f77b4"/>
     <use xlink:href="#m3af1321374" x="320.891526" y="166.054549" style="fill: #1f77b4; stroke: #1f77b4"/>
     <use xlink:href="#m3af1321374" x="324.055352" y="125.79558" style="fill: #1f77b4; stroke: #1f77b4"/>
     <use xlink:href="#m3af1321374" x="324.968509" y="136.361666" style="fill: #1f77b4; stroke: #1f77b4"/>
     <use xlink:href="#m3af1321374" x="328.884749" y="111.891249" style="fill: #1f77b4; stroke: #1f77b4"/>
     <use xlink:href="#m3af1321374" x="329.930024" y="127.918213" style="fill: #1f77b4; stroke: #1f77b4"/>
     <use xlink:href="#m3af1321374" x="331.001874" y="120.107907" style="fill: #1f77b4; stroke: #1f77b4"/>
     <use xlink:href="#m3af1321374" x="299.780634" y="145.657323" style="fill: #1f77b4; stroke: #1f77b4"/>
     <use xlink:href="#m3af1321374" x="321.185092" y="159.828549" style="fill: #1f77b4; stroke: #1f77b4"/>
     <use xlink:href="#m3af1321374" x="337.991837" y="109.814061" style="fill: #1f77b4; stroke: #1f77b4"/>
     <use xlink:href="#m3af1321374" x="316.444649" y="133.367189" style="fill: #1f77b4; stroke: #1f77b4"/>
     <use xlink:href="#m3af1321374" x="310.248409" y="128.269201" style="fill: #1f77b4; stroke: #1f77b4"/>
     <use xlink:href="#m3af1321374" x="307.453643" y="123.611369" style="fill: #1f77b4; stroke: #1f77b4"/>
     <use xlink:href="#m3af1321374" x="286.927583" y="146.524385" style="fill: #1f77b4; stroke: #1f77b4"/>
     <use xlink:href="#m3af1321374" x="284.840612" y="155.352052" style="fill: #1f77b4; stroke: #1f77b4"/>
     <use xlink:href="#m3af1321374" x="280.515726" y="193.403107" style="fill: #1f77b4; stroke: #1f77b4"/>
     <use xlink:href="#m3af1321374" x="300.450865" y="214.737912" style="fill: #1f77b4; stroke: #1f77b4"/>
     <use xlink:href="#m3af1321374" x="307.293813" y="132.143957" style="fill: #1f77b4; stroke: #1f77b4"/>
     <use xlink:href="#m3af1321374" x="292.719321" y="135.795389" style="fill: #1f77b4; stroke: #1f77b4"/>
     <use xlink:href="#m3af1321374" x="288.467415" y="178.079794" style="fill: #1f77b4; stroke: #1f77b4"/>
     <use xlink:href="#m3af1321374" x="281.738626" y="164.633328" style="fill: #1f77b4; stroke: #1f77b4"/>
     <use xlink:href="#m3af1321374" x="268.120567" y="169.413074" style="fill: #1f77b4; stroke: #1f77b4"/>
    </g>
   </g>
   <g id="line2d_20">
    <path d="M 55.08 317.413258 
L 58.44 315.146177 
L 61.8 312.879095 
L 65.16 310.612014 
L 68.52 308.344933 
L 71.88 306.077852 
L 75.24 303.810771 
L 78.6 301.54369 
L 81.96 299.276609 
L 85.32 297.009528 
L 88.68 294.742447 
L 92.04 292.475366 
L 95.4 290.208285 
L 98.76 287.941204 
L 102.12 285.674123 
L 105.48 283.407042 
L 108.84 281.139961 
L 112.2 278.87288 
L 115.56 276.605799 
L 118.92 274.338718 
L 122.28 272.071636 
L 125.64 269.804555 
L 129 267.537474 
L 132.36 265.270393 
L 135.72 263.003312 
L 139.08 260.736231 
L 142.44 258.46915 
L 145.8 256.202069 
L 149.16 253.934988 
L 152.52 251.667907 
L 155.88 249.400826 
L 159.24 247.133745 
L 162.6 244.866664 
L 165.96 242.599583 
L 169.32 240.332502 
L 172.68 238.065421 
L 176.04 235.79834 
L 179.4 233.531258 
L 182.76 231.264177 
L 186.12 228.997096 
L 189.48 226.730015 
L 192.84 224.462934 
L 196.2 222.195853 
L 199.56 219.928772 
L 202.92 217.661691 
L 206.28 215.39461 
L 209.64 213.127529 
L 213 210.860448 
L 216.36 208.593367 
L 219.72 206.326286 
L 223.08 204.059205 
L 226.44 201.792124 
L 229.8 199.525043 
L 233.16 197.257962 
L 236.52 194.99088 
L 239.88 192.723799 
L 243.24 190.456718 
L 246.6 188.189637 
L 249.96 185.922556 
L 253.32 183.655475 
L 256.68 181.388394 
L 260.04 179.121313 
L 263.4 176.854232 
L 266.76 174.587151 
L 270.12 172.32007 
L 273.48 170.052989 
L 276.84 167.785908 
L 280.2 165.518827 
L 283.56 163.251746 
L 286.92 160.984665 
L 290.28 158.717584 
L 293.64 156.450502 
L 297 154.183421 
L 300.36 151.91634 
L 303.72 149.649259 
L 307.08 147.382178 
L 310.44 145.115097 
L 313.8 142.848016 
L 317.16 140.580935 
L 320.52 138.313854 
L 323.88 136.046773 
L 327.24 133.779692 
L 330.6 131.512611 
L 333.96 129.24553 
L 337.32 126.978449 
L 340.68 124.711368 
L 344.04 122.444287 
L 347.4 120.177206 
L 350.76 117.910125 
L 354.12 115.643043 
L 357.48 113.375962 
L 360.84 111.108881 
L 364.2 108.8418 
L 367.56 106.574719 
L 370.92 104.307638 
L 374.28 102.040557 
L 377.64 99.773476 
L 381 97.506395 
L 384.36 95.239314 
L 387.72 92.972233 
" clip-path="url(#pdaffe36c73)" style="fill: none; stroke: #000000; stroke-width: 1.5; stroke-linecap: square"/>
   </g>
   <g id="patch_3">
    <path d="M 55.08 384.48 
L 55.08 51.84 
" style="fill: none; stroke: #000000; stroke-width: 0.8; stroke-linejoin: miter; stroke-linecap: square"/>
   </g>
   <g id="patch_4">
    <path d="M 387.72 384.48 
L 387.72 51.84 
" style="fill: none; stroke: #000000; stroke-width: 0.8; stroke-linejoin: miter; stroke-linecap: square"/>
   </g>
   <g id="patch_5">
    <path d="M 55.08 384.48 
L 387.72 384.48 
" style="fill: none; stroke: #000000; stroke-width: 0.8; stroke-linejoin: miter; stroke-linecap: square"/>
   </g>
   <g id="patch_6">
    <path d="M 55.08 51.84 
L 387.72 51.84 
" style="fill: none; stroke: #000000; stroke-width: 0.8; stroke-linejoin: miter; stroke-linecap: square"/>
   </g>
   <g id="text_21">
    <g id="patch_7">
     <path d="M 64.056047 96.862594 
L 179.159953 96.862594 
Q 183.659953 96.862594 183.659953 92.362594 
L 183.659953 77.845406 
Q 183.659953 73.345406 179.159953 73.345406 
L 64.056047 73.345406 
Q 59.556047 73.345406 59.556047 77.845406 
L 59.556047 92.362594 
Q 59.556047 96.862594 64.056047 96.862594 
z
" style="fill: #ffffff; opacity: 0.5; stroke: #000000; stroke-width: 2; stroke-linejoin: miter"/>
    </g>
    <!-- y=-3.64+0.67x -->
    <g transform="translate(64.056047 89.243063) scale(0.15 -0.15)">
     <defs>
      <path id="DejaVuSans-79" d="M 2059 -325 
Q 1816 -950 1584 -1140 
Q 1353 -1331 966 -1331 
L 506 -1331 
L 506 -850 
L 844 -850 
Q 1081 -850 1212 -737 
Q 1344 -625 1503 -206 
L 1606 56 
L 191 3500 
L 800 3500 
L 1894 763 
L 2988 3500 
L 3597 3500 
L 2059 -325 
z
" transform="scale(0.015625)"/>
      <path id="DejaVuSans-3d" d="M 678 2906 
L 4684 2906 
L 4684 2381 
L 678 2381 
L 678 2906 
z
M 678 1631 
L 4684 1631 
L 4684 1100 
L 678 1100 
L 678 1631 
z
" transform="scale(0.015625)"/>
      <path id="DejaVuSans-2d" d="M 313 2009 
L 1997 2009 
L 1997 1497 
L 313 1497 
L 313 2009 
z
" transform="scale(0.015625)"/>
      <path id="DejaVuSans-2e" d="M 684 794 
L 1344 794 
L 1344 0 
L 684 0 
L 684 794 
z
" transform="scale(0.015625)"/>
      <path id="DejaVuSans-2b" d="M 2944 4013 
L 2944 2272 
L 4684 2272 
L 4684 1741 
L 2944 1741 
L 2944 0 
L 2419 0 
L 2419 1741 
L 678 1741 
L 678 2272 
L 2419 2272 
L 2419 4013 
L 2944 4013 
z
" transform="scale(0.015625)"/>
      <path id="DejaVuSans-37" d="M 525 4666 
L 3525 4666 
L 3525 4397 
L 1831 0 
L 1172 0 
L 2766 4134 
L 525 4134 
L 525 4666 
z
" transform="scale(0.015625)"/>
      <path id="DejaVuSans-78" d="M 3513 3500 
L 2247 1797 
L 3578 0 
L 2900 0 
L 1881 1375 
L 863 0 
L 184 0 
L 1544 1831 
L 300 3500 
L 978 3500 
L 1906 2253 
L 2834 3500 
L 3513 3500 
z
" transform="scale(0.015625)"/>
     </defs>
     <use xlink:href="#DejaVuSans-79"/>
     <use xlink:href="#DejaVuSans-3d" x="59.179688"/>
     <use xlink:href="#DejaVuSans-2d" x="142.96875"/>
     <use xlink:href="#DejaVuSans-33" x="179.052734"/>
     <use xlink:href="#DejaVuSans-2e" x="242.675781"/>
     <use xlink:href="#DejaVuSans-36" x="274.462891"/>
     <use xlink:href="#DejaVuSans-34" x="338.085938"/>
     <use xlink:href="#DejaVuSans-2b" x="401.708984"/>
     <use xlink:href="#DejaVuSans-30" x="485.498047"/>
     <use xlink:href="#DejaVuSans-2e" x="549.121094"/>
     <use xlink:href="#DejaVuSans-36" x="580.908203"/>
     <use xlink:href="#DejaVuSans-37" x="644.53125"/>
     <use xlink:href="#DejaVuSans-78" x="708.154297"/>
    </g>
   </g>
   <g id="text_22">
    <!-- $\sigma^0$ obs VS simul - RMSE=0.96, R=0.67, $R^2$=0.45, bias=0.02 -->
    <g transform="translate(42.3 45.84) scale(0.12 -0.12)">
     <defs>
      <path id="DejaVuSans-56" d="M 1831 0 
L 50 4666 
L 709 4666 
L 2188 738 
L 3669 4666 
L 4325 4666 
L 2547 0 
L 1831 0 
z
" transform="scale(0.015625)"/>
      <path id="DejaVuSans-53" d="M 3425 4513 
L 3425 3897 
Q 3066 4069 2747 4153 
Q 2428 4238 2131 4238 
Q 1616 4238 1336 4038 
Q 1056 3838 1056 3469 
Q 1056 3159 1242 3001 
Q 1428 2844 1947 2747 
L 2328 2669 
Q 3034 2534 3370 2195 
Q 3706 1856 3706 1288 
Q 3706 609 3251 259 
Q 2797 -91 1919 -91 
Q 1588 -91 1214 -16 
Q 841 59 441 206 
L 441 856 
Q 825 641 1194 531 
Q 1563 422 1919 422 
Q 2459 422 2753 634 
Q 3047 847 3047 1241 
Q 3047 1584 2836 1778 
Q 2625 1972 2144 2069 
L 1759 2144 
Q 1053 2284 737 2584 
Q 422 2884 422 3419 
Q 422 4038 858 4394 
Q 1294 4750 2059 4750 
Q 2388 4750 2728 4690 
Q 3069 4631 3425 4513 
z
" transform="scale(0.015625)"/>
      <path id="DejaVuSans-75" d="M 544 1381 
L 544 3500 
L 1119 3500 
L 1119 1403 
Q 1119 906 1312 657 
Q 1506 409 1894 409 
Q 2359 409 2629 706 
Q 2900 1003 2900 1516 
L 2900 3500 
L 3475 3500 
L 3475 0 
L 2900 0 
L 2900 538 
Q 2691 219 2414 64 
Q 2138 -91 1772 -91 
Q 1169 -91 856 284 
Q 544 659 544 1381 
z
M 1991 3584 
L 1991 3584 
z
" transform="scale(0.015625)"/>
      <path id="DejaVuSans-6c" d="M 603 4863 
L 1178 4863 
L 1178 0 
L 603 0 
L 603 4863 
z
" transform="scale(0.015625)"/>
      <path id="DejaVuSans-52" d="M 2841 2188 
Q 3044 2119 3236 1894 
Q 3428 1669 3622 1275 
L 4263 0 
L 3584 0 
L 2988 1197 
Q 2756 1666 2539 1819 
Q 2322 1972 1947 1972 
L 1259 1972 
L 1259 0 
L 628 0 
L 628 4666 
L 2053 4666 
Q 2853 4666 3247 4331 
Q 3641 3997 3641 3322 
Q 3641 2881 3436 2590 
Q 3231 2300 2841 2188 
z
M 1259 4147 
L 1259 2491 
L 2053 2491 
Q 2509 2491 2742 2702 
Q 2975 2913 2975 3322 
Q 2975 3731 2742 3939 
Q 2509 4147 2053 4147 
L 1259 4147 
z
" transform="scale(0.015625)"/>
      <path id="DejaVuSans-4d" d="M 628 4666 
L 1569 4666 
L 2759 1491 
L 3956 4666 
L 4897 4666 
L 4897 0 
L 4281 0 
L 4281 4097 
L 3078 897 
L 2444 897 
L 1241 4097 
L 1241 0 
L 628 0 
L 628 4666 
z
" transform="scale(0.015625)"/>
      <path id="DejaVuSans-45" d="M 628 4666 
L 3578 4666 
L 3578 4134 
L 1259 4134 
L 1259 2753 
L 3481 2753 
L 3481 2222 
L 1259 2222 
L 1259 531 
L 3634 531 
L 3634 0 
L 628 0 
L 628 4666 
z
" transform="scale(0.015625)"/>
      <path id="DejaVuSans-2c" d="M 750 794 
L 1409 794 
L 1409 256 
L 897 -744 
L 494 -744 
L 750 256 
L 750 794 
z
" transform="scale(0.015625)"/>
      <path id="DejaVuSans-Oblique-52" d="M 1613 4147 
L 1294 2491 
L 2106 2491 
Q 2584 2491 2879 2755 
Q 3175 3019 3175 3444 
Q 3175 3784 2976 3965 
Q 2778 4147 2406 4147 
L 1613 4147 
z
M 2772 2241 
Q 2972 2194 3105 2009 
Q 3238 1825 3413 1275 
L 3809 0 
L 3144 0 
L 2778 1197 
Q 2638 1659 2453 1815 
Q 2269 1972 1888 1972 
L 1191 1972 
L 806 0 
L 172 0 
L 1081 4666 
L 2503 4666 
Q 3150 4666 3495 4373 
Q 3841 4081 3841 3531 
Q 3841 3044 3547 2687 
Q 3253 2331 2772 2241 
z
" transform="scale(0.015625)"/>
      <path id="DejaVuSans-61" d="M 2194 1759 
Q 1497 1759 1228 1600 
Q 959 1441 959 1056 
Q 959 750 1161 570 
Q 1363 391 1709 391 
Q 2188 391 2477 730 
Q 2766 1069 2766 1631 
L 2766 1759 
L 2194 1759 
z
M 3341 1997 
L 3341 0 
L 2766 0 
L 2766 531 
Q 2569 213 2275 61 
Q 1981 -91 1556 -91 
Q 1019 -91 701 211 
Q 384 513 384 1019 
Q 384 1609 779 1909 
Q 1175 2209 1959 2209 
L 2766 2209 
L 2766 2266 
Q 2766 2663 2505 2880 
Q 2244 3097 1772 3097 
Q 1472 3097 1187 3025 
Q 903 2953 641 2809 
L 641 3341 
Q 956 3463 1253 3523 
Q 1550 3584 1831 3584 
Q 2591 3584 2966 3190 
Q 3341 2797 3341 1997 
z
" transform="scale(0.015625)"/>
     </defs>
     <use xlink:href="#DejaVuSans-Oblique-3c3" transform="translate(0 0.765625)"/>
     <use xlink:href="#DejaVuSans-30" transform="translate(67.851615 39.046875) scale(0.7)"/>
     <use xlink:href="#DejaVuSans-20" transform="translate(115.122122 0.765625)"/>
     <use xlink:href="#DejaVuSans-6f" transform="translate(146.909232 0.765625)"/>
     <use xlink:href="#DejaVuSans-62" transform="translate(208.090872 0.765625)"/>
     <use xlink:href="#DejaVuSans-73" transform="translate(271.567435 0.765625)"/>
     <use xlink:href="#DejaVuSans-20" transform="translate(323.667044 0.765625)"/>
     <use xlink:href="#DejaVuSans-56" transform="translate(355.454154 0.765625)"/>
     <use xlink:href="#DejaVuSans-53" transform="translate(423.862357 0.765625)"/>
     <use xlink:href="#DejaVuSans-20" transform="translate(487.338919 0.765625)"/>
     <use xlink:href="#DejaVuSans-73" transform="translate(519.126029 0.765625)"/>
     <use xlink:href="#DejaVuSans-69" transform="translate(571.225638 0.765625)"/>
     <use xlink:href="#DejaVuSans-6d" transform="translate(599.008841 0.765625)"/>
     <use xlink:href="#DejaVuSans-75" transform="translate(696.420951 0.765625)"/>
     <use xlink:href="#DejaVuSans-6c" transform="translate(759.799857 0.765625)"/>
     <use xlink:href="#DejaVuSans-20" transform="translate(787.58306 0.765625)"/>
     <use xlink:href="#DejaVuSans-2d" transform="translate(819.370169 0.765625)"/>
     <use xlink:href="#DejaVuSans-20" transform="translate(855.454154 0.765625)"/>
     <use xlink:href="#DejaVuSans-52" transform="translate(887.241263 0.765625)"/>
     <use xlink:href="#DejaVuSans-4d" transform="translate(956.723685 0.765625)"/>
     <use xlink:href="#DejaVuSans-53" transform="translate(1043.002982 0.765625)"/>
     <use xlink:href="#DejaVuSans-45" transform="translate(1106.479544 0.765625)"/>
     <use xlink:href="#DejaVuSans-3d" transform="translate(1169.663138 0.765625)"/>
     <use xlink:href="#DejaVuSans-30" transform="translate(1253.452201 0.765625)"/>
     <use xlink:href="#DejaVuSans-2e" transform="translate(1317.075247 0.765625)"/>
     <use xlink:href="#DejaVuSans-39" transform="translate(1348.862357 0.765625)"/>
     <use xlink:href="#DejaVuSans-36" transform="translate(1412.485404 0.765625)"/>
     <use xlink:href="#DejaVuSans-2c" transform="translate(1476.108451 0.765625)"/>
     <use xlink:href="#DejaVuSans-20" transform="translate(1507.89556 0.765625)"/>
     <use xlink:href="#DejaVuSans-52" transform="translate(1539.682669 0.765625)"/>
     <use xlink:href="#DejaVuSans-3d" transform="translate(1609.165091 0.765625)"/>
     <use xlink:href="#DejaVuSans-30" transform="translate(1692.954154 0.765625)"/>
     <use xlink:href="#DejaVuSans-2e" transform="translate(1756.577201 0.765625)"/>
     <use xlink:href="#DejaVuSans-36" transform="translate(1788.36431 0.765625)"/>
     <use xlink:href="#DejaVuSans-37" transform="translate(1851.987357 0.765625)"/>
     <use xlink:href="#DejaVuSans-2c" transform="translate(1915.610404 0.765625)"/>
     <use xlink:href="#DejaVuSans-20" transform="translate(1947.397513 0.765625)"/>
     <use xlink:href="#DejaVuSans-Oblique-52" transform="translate(1979.184622 0.765625)"/>
     <use xlink:href="#DejaVuSans-32" transform="translate(2055.683815 39.046875) scale(0.7)"/>
     <use xlink:href="#DejaVuSans-3d" transform="translate(2102.954323 0.765625)"/>
     <use xlink:href="#DejaVuSans-30" transform="translate(2186.743385 0.765625)"/>
     <use xlink:href="#DejaVuSans-2e" transform="translate(2250.366432 0.765625)"/>
     <use xlink:href="#DejaVuSans-34" transform="translate(2282.153542 0.765625)"/>
     <use xlink:href="#DejaVuSans-35" transform="translate(2345.776589 0.765625)"/>
     <use xlink:href="#DejaVuSans-2c" transform="translate(2409.399635 0.765625)"/>
     <use xlink:href="#DejaVuSans-20" transform="translate(2441.186745 0.765625)"/>
     <use xlink:href="#DejaVuSans-62" transform="translate(2472.973854 0.765625)"/>
     <use xlink:href="#DejaVuSans-69" transform="translate(2536.450417 0.765625)"/>
     <use xlink:href="#DejaVuSans-61" transform="translate(2564.23362 0.765625)"/>
     <use xlink:href="#DejaVuSans-73" transform="translate(2625.512917 0.765625)"/>
     <use xlink:href="#DejaVuSans-3d" transform="translate(2677.612526 0.765625)"/>
     <use xlink:href="#DejaVuSans-30" transform="translate(2761.401589 0.765625)"/>
     <use xlink:href="#DejaVuSans-2e" transform="translate(2825.024635 0.765625)"/>
     <use xlink:href="#DejaVuSans-30" transform="translate(2856.811745 0.765625)"/>
     <use xlink:href="#DejaVuSans-32" transform="translate(2920.434792 0.765625)"/>
    </g>
   </g>
  </g>
 </g>
 <defs>
  <clipPath id="pdaffe36c73">
   <rect x="55.08" y="51.84" width="332.64" height="332.64"/>
  </clipPath>
 </defs>
</svg>
